<?xml version="1.0" encoding="UTF-8" standalone="no"?>
<svg
   width="48px"
   height="48px"
   viewBox="0 0 48 48"
   version="1.1"
   id="svg2"
   sodipodi:docname="dist-Whonix.svg"
   inkscape:version="1.3.2 (091e20ef0f, 2023-11-25)"
   xmlns:inkscape="http://www.inkscape.org/namespaces/inkscape"
   xmlns:sodipodi="http://sodipodi.sourceforge.net/DTD/sodipodi-0.dtd"
   xmlns="http://www.w3.org/2000/svg"
   xmlns:svg="http://www.w3.org/2000/svg"
   xmlns:rdf="http://www.w3.org/1999/02/22-rdf-syntax-ns#"
   xmlns:cc="http://creativecommons.org/ns#"
   xmlns:dc="http://purl.org/dc/elements/1.1/">
  <title
     id="AxonometricIcon">Distro Qube</title>
  <sodipodi:namedview
     id="namedview"
     pagecolor="#ffffff"
     bordercolor="#000000"
     borderopacity="0.25"
     inkscape:showpageshadow="2"
     inkscape:pageopacity="0.0"
     inkscape:pagecheckerboard="0"
     inkscape:deskcolor="#d1d1d1"
     showguides="true"
     inkscape:zoom="8.0000001"
     inkscape:cx="14.8125"
     inkscape:cy="28.9375"
     inkscape:window-width="1440"
     inkscape:window-height="843"
     inkscape:window-x="0"
     inkscape:window-y="33"
     inkscape:window-maximized="1"
     inkscape:current-layer="svg2" />
  <defs
     id="defs1">
    <radialGradient
       id="radial0"
       gradientUnits="userSpaceOnUse"
       cx="250.34044"
       cy="1008.0222"
       fx="250.34044"
       fy="1008.0222"
       r="26.420895"
       gradientTransform="matrix(8.095757,-0.0940843,0.111205,9.711199,-1887.9521,-9512.9922)">
      <stop
         offset="0"
         style="stop-color:rgb(49.411765%,81.176472%,95.294118%);stop-opacity:0.980392;"
         id="stop1" />
      <stop
         offset="0.668846"
         style="stop-color:rgb(52.941179%,81.568629%,93.725491%);stop-opacity:0.988235;"
         id="stop2" />
      <stop
         offset="1"
         style="stop-color:rgb(4.705882%,51.764709%,80.784315%);stop-opacity:1;"
         id="stop3" />
    </radialGradient>
  </defs>
  <metadata
     id="metadata1">
    <rdf:RDF>
      <cc:Work
         rdf:about="">
        <cc:license
           rdf:resource="http://creativecommons.org/licenses/by-sa/4.0/" />
        <dc:rights>
          <cc:Agent>
            <dc:title>CC-BY-SA</dc:title>
          </cc:Agent>
        </dc:rights>
        <dc:date>2024-04-12</dc:date>
        <dc:title>Distro Qube</dc:title>
        <dc:source>https://github.com/alimirjamali/personal-qubesos</dc:source>
        <dc:subject>
          <rdf:Bag>
            <rdf:li>Qubes</rdf:li>
            <rdf:li>Qubes-OS</rdf:li>
            <rdf:li>Linux</rdf:li>
            <rdf:li>Distro</rdf:li>
          </rdf:Bag>
        </dc:subject>
        <dc:contributor>
          <cc:Agent>
            <dc:title>Ali Mirjamali</dc:title>
          </cc:Agent>
        </dc:contributor>
        <dc:source>https://github.com/alimirjamali/personal-qubesos</dc:source>
        <dc:creator>
          <cc:Agent>
            <dc:title>Ali Mirjamali</dc:title>
          </cc:Agent>
        </dc:creator>
        <dc:description>Distro Icons resized  to 48x48 pixels without any other modifications.</dc:description>
      </cc:Work>
      <cc:License
         rdf:about="http://creativecommons.org/licenses/by-sa/4.0/">
        <cc:permits
           rdf:resource="http://creativecommons.org/ns#Reproduction" />
        <cc:permits
           rdf:resource="http://creativecommons.org/ns#Distribution" />
        <cc:requires
           rdf:resource="http://creativecommons.org/ns#Notice" />
        <cc:requires
           rdf:resource="http://creativecommons.org/ns#Attribution" />
        <cc:permits
           rdf:resource="http://creativecommons.org/ns#DerivativeWorks" />
        <cc:requires
           rdf:resource="http://creativecommons.org/ns#ShareAlike" />
      </cc:License>
    </rdf:RDF>
  </metadata>
  <g
     id="surface1"
     transform="matrix(0.09599974,0,0,0.09599974,6.0660047e-5,1.4406499e-4)">
    <path
       style="fill:url(#radial0);fill-rule:nonzero;stroke:#000000;stroke-width:18.9917;stroke-linecap:butt;stroke-linejoin:miter;stroke-miterlimit:4;stroke-opacity:1"
       d="M 9.49605,248.23051 C 9.499956,382.03913 117.18357,490.51181 250.00781,490.504 382.82815,490.50009 490.50004,382.03132 490.50395,248.23051 489.65239,128.89846 392.01565,11.035158 247.82812,9.507814 104.40232,7.992189 11.226519,135.47659 9.49605,248.23051 Z m 0,0"
       transform="translate(4.57764e-5)"
       id="path3" />
    <path
       style="fill:#000000;fill-opacity:1;fill-rule:evenodd;stroke:none"
       d="m 137.79297,217.32422 c 1.37109,-71.91406 23.96875,-123.281251 41.77734,-123.281251 21.91406,0 53.41797,30.136721 75.33594,30.136721 13.69531,0 44.51562,-21.91406 68.48437,-21.91406 12.32813,0 32.12891,39.04296 32.8125,104.79296 -86.42187,4.95313 -143.84375,38.61719 -218.41015,10.26563 z m 0,0"
       id="path4" />
    <path
       style="fill:#000000;fill-opacity:1;fill-rule:evenodd;stroke:none"
       d="m 222.82031,291.45312 c 13.28125,-8.13281 34.96875,-7.59375 46.72656,-0.92578 l 0.19141,9.6836 c -12.36719,-6.77735 -34.03125,-6.34766 -46.72266,0.92578 z m 0,0"
       id="path5" />
    <path
       style="fill:none;stroke:#000000;stroke-width:18.9244;stroke-linecap:round;stroke-linejoin:round;stroke-miterlimit:4;stroke-opacity:1"
       d="m 288.07032,379.63679 c 0,0 -3.98047,14.94922 -37.32032,16.125 -36.9961,1.73438 -41.59766,-12.46485 -41.59766,-12.46485"
       transform="translate(4.57764e-5)"
       id="path6" />
    <path
       style="fill:#000000;fill-opacity:1;fill-rule:evenodd;stroke:none"
       d="m 72.546875,226.77344 c 0.65625,-26.21094 109.015625,19.92578 142.480465,15.57031 52.16016,-3.76953 195.61328,-48.33203 202.82422,-14.91406 5.23828,29.48437 -40.28906,6.32422 -125.0039,19.21484 0,0 -220.300785,24.03125 -220.300785,-19.87109 z m 0,0"
       id="path7" />
    <path
       style="fill:#000000;fill-opacity:1;fill-rule:evenodd;stroke:none"
       d="m 132.65625,293.20703 c 10.82422,-15.73437 59.90625,-20.57812 95.53516,-4.97266 0,0 5.34765,15.90235 -1.38672,26.07032 -5.53907,16.78125 -56.5625,33.95312 -86.15235,14.72656 -11.23437,-9.35156 -12.85937,-21.9375 -7.99609,-35.82422 z m 0,0"
       id="path8" />
    <path
       style="fill:#000000;fill-opacity:1;fill-rule:evenodd;stroke:none"
       d="m 359.09375,282.26172 c -12.69531,-14.26172 -62,-12.97266 -95.41406,6.9414 0,0 -3.32813,16.44141 4.61718,25.69532 7.58204,15.96093 60.34375,26.66015 87.31641,3.90625 9.98438,-10.67578 10.03125,-23.36719 3.48047,-36.54297 z m 0,0"
       id="path9" />
  </g>
</svg>
