<?xml version="1.0" encoding="UTF-8" standalone="no"?>
<svg
   width="48px"
   height="48px"
   viewBox="0 0 48 48"
   version="1.1"
   id="svg2"
   sodipodi:docname="dist-openSUSE.svg"
   inkscape:version="1.3.2 (091e20ef0f, 2023-11-25)"
   xmlns:inkscape="http://www.inkscape.org/namespaces/inkscape"
   xmlns:sodipodi="http://sodipodi.sourceforge.net/DTD/sodipodi-0.dtd"
   xmlns="http://www.w3.org/2000/svg"
   xmlns:svg="http://www.w3.org/2000/svg"
   xmlns:rdf="http://www.w3.org/1999/02/22-rdf-syntax-ns#"
   xmlns:cc="http://creativecommons.org/ns#"
   xmlns:dc="http://purl.org/dc/elements/1.1/">
  <title
     id="AxonometricIcon">Distro Qube</title>
  <sodipodi:namedview
     id="namedview"
     pagecolor="#ffffff"
     bordercolor="#000000"
     borderopacity="0.25"
     inkscape:showpageshadow="2"
     inkscape:pageopacity="0.0"
     inkscape:pagecheckerboard="0"
     inkscape:deskcolor="#d1d1d1"
     showguides="true"
     inkscape:zoom="4.0000001"
     inkscape:cx="40.874999"
     inkscape:cy="20.875"
     inkscape:window-width="1440"
     inkscape:window-height="843"
     inkscape:window-x="0"
     inkscape:window-y="33"
     inkscape:window-maximized="1"
     inkscape:current-layer="svg2" />
  <defs
     id="defs1" />
  <metadata
     id="metadata1">
    <rdf:RDF>
      <cc:Work
         rdf:about="">
        <cc:license
           rdf:resource="http://creativecommons.org/licenses/by-sa/4.0/" />
        <dc:rights>
          <cc:Agent>
            <dc:title>CC-BY-SA</dc:title>
          </cc:Agent>
        </dc:rights>
        <dc:date>2024-04-12</dc:date>
        <dc:title>Distro Qube</dc:title>
        <dc:source>https://github.com/alimirjamali/personal-qubesos</dc:source>
        <dc:subject>
          <rdf:Bag>
            <rdf:li>Qubes</rdf:li>
            <rdf:li>Qubes-OS</rdf:li>
            <rdf:li>Linux</rdf:li>
            <rdf:li>Distro</rdf:li>
          </rdf:Bag>
        </dc:subject>
        <dc:contributor>
          <cc:Agent>
            <dc:title>Ali Mirjamali</dc:title>
          </cc:Agent>
        </dc:contributor>
        <dc:source>https://github.com/alimirjamali/personal-qubesos</dc:source>
        <dc:creator>
          <cc:Agent>
            <dc:title>Ali Mirjamali</dc:title>
          </cc:Agent>
        </dc:creator>
        <dc:description>Distro Icons resized  to 48x48 pixels without any other modifications.</dc:description>
      </cc:Work>
      <cc:License
         rdf:about="http://creativecommons.org/licenses/by-sa/4.0/">
        <cc:permits
           rdf:resource="http://creativecommons.org/ns#Reproduction" />
        <cc:permits
           rdf:resource="http://creativecommons.org/ns#Distribution" />
        <cc:requires
           rdf:resource="http://creativecommons.org/ns#Notice" />
        <cc:requires
           rdf:resource="http://creativecommons.org/ns#Attribution" />
        <cc:permits
           rdf:resource="http://creativecommons.org/ns#DerivativeWorks" />
        <cc:requires
           rdf:resource="http://creativecommons.org/ns#ShareAlike" />
      </cc:License>
    </rdf:RDF>
  </metadata>
  <path
     style="stroke-width:0.214286"
     id="path2"
     fill="#73ba25"
     d="M 24.000163,7.9e-5 A 23.999771,23.999917 0 0 0 5.1061495,9.246759 c 2.927322,0.782079 4.9992315,1.454224 5.6197555,1.662702 0.0097,-0.380721 0.07286,-3.785817 0.07286,-3.785817 0,0 0.008,-0.07795 0.04961,-0.118586 0.05357,-0.05231 0.131,-0.03651 0.131,-0.03651 0.76993,0.111522 17.203868,2.547492 24.130861,6.584094 0.855454,0.500458 1.277698,1.032546 1.805299,1.571977 1.914825,1.9804 4.444978,10.21509 4.716722,11.913193 0.01067,0.06672 -0.07177,0.139185 -0.106973,0.166647 h -9.37e-4 c -0.196731,0.153511 -0.410978,0.313134 -0.625536,0.455771 -1.639082,1.099697 -5.415139,3.742995 -10.259747,3.311435 -4.351691,-0.384969 -10.037087,-2.881185 -16.891054,-7.39721 0.673887,1.57781 1.337861,3.160504 2.002184,4.742323 0.992574,0.515539 10.57292,5.397362 15.30125,5.301992 3.808371,-0.07934 7.881482,-1.936901 9.510953,-2.917656 0,0 0.358087,-0.215739 0.513916,-0.09533 0.170457,0.131684 0.123299,0.333454 0.08294,0.539511 -0.100247,0.467754 -0.32847,1.321153 -0.483682,1.726241 l -0.131001,0.330199 c -0.186527,0.499744 -0.365563,0.964243 -0.710805,1.25031 -0.95991,0.872844 -2.492002,1.567294 -4.892672,2.610675 -3.71075,1.623214 -9.731096,2.655521 -15.32063,2.620001 -2.001977,-0.04457 -3.936117,-0.2667 -5.634484,-0.465095 C 10.500561,38.824125 7.6646345,38.50488 5.9353825,39.755588 A 23.999771,23.999917 0 0 0 24.000145,48 23.999771,23.999917 0 0 0 48,24.000021 23.999771,23.999917 0 0 0 24.000145,0 Z m 5.35311,13.925463 c -1.878508,-0.05989 -3.669763,0.603009 -5.04305,1.88515 -1.372661,1.277893 -2.15818,3.020089 -2.227751,4.89738 -0.129779,3.872732 2.910766,7.135907 6.78014,7.278583 1.887041,0.06334 3.674411,-0.599994 5.047705,-1.889792 1.369166,-1.273926 2.154686,-3.016202 2.227751,-4.893491 0.132952,-3.869282 -2.911253,-7.139322 -6.784795,-7.27783 z m -0.05891,2.071204 c 2.707057,0.09604 4.826486,2.370128 4.735325,5.076411 -0.04179,1.305118 -0.592346,2.514947 -1.548723,3.41216 -0.957771,0.893044 -2.209566,1.357427 -3.523013,1.317739 -2.700787,-0.09962 -4.820284,-2.37636 -4.729121,-5.083355 0.03969,-1.310001 0.601164,-2.51995 1.553376,-3.412995 0.952173,-0.893044 2.197995,-1.357307 3.512156,-1.30996 z M 30.09663,18.4578 c -1.202792,0 -2.174263,0.647301 -2.174263,1.452636 0,0.797715 0.971471,1.448746 2.174263,1.448746 1.202083,0 2.177368,-0.651071 2.177368,-1.448746 0,-0.805335 -0.97461,-1.452636 -2.177368,-1.452636 z" />
</svg>
