<?xml version="1.0" encoding="UTF-8" standalone="no"?>
<svg
   width="48px"
   height="48px"
   viewBox="0 0 48 48"
   version="1.1"
   id="svg3"
   sodipodi:docname="qube-gentoo.svg"
   inkscape:version="1.3.2 (091e20ef0f, 2023-11-25)"
   xmlns:inkscape="http://www.inkscape.org/namespaces/inkscape"
   xmlns:sodipodi="http://sodipodi.sourceforge.net/DTD/sodipodi-0.dtd"
   xmlns:xlink="http://www.w3.org/1999/xlink"
   xmlns="http://www.w3.org/2000/svg"
   xmlns:svg="http://www.w3.org/2000/svg"
   xmlns:rdf="http://www.w3.org/1999/02/22-rdf-syntax-ns#"
   xmlns:cc="http://creativecommons.org/ns#"
   xmlns:dc="http://purl.org/dc/elements/1.1/">
  <sodipodi:namedview
     id="namedview3"
     pagecolor="#ffffff"
     bordercolor="#000000"
     borderopacity="0.25"
     inkscape:showpageshadow="2"
     inkscape:pageopacity="0.0"
     inkscape:pagecheckerboard="0"
     inkscape:deskcolor="#d1d1d1"
     inkscape:zoom="6.21875"
     inkscape:cx="8.361809"
     inkscape:cy="38.512563"
     inkscape:window-width="1440"
     inkscape:window-height="843"
     inkscape:window-x="0"
     inkscape:window-y="33"
     inkscape:window-maximized="1"
     inkscape:current-layer="svg3" />
  <title
     id="title">Vector Perfect Qute Qube</title>
  <defs
     id="defs1">
    <polygon
       id="path-1"
       points="0.264506174 0.398583241 40.0936 0.398583241 40.0936 46 0.264506174 46" />
    <polygon
       id="path-3"
       points="0 0.361 40.9599938 0.361 40.9599938 45.9620167 0 45.9620167" />
    <polygon
       id="path-5"
       points="0 0.0254 20.6328606 0.0254 20.6328606 33.9504 0 33.9504" />
    <linearGradient
       id="_Linear1"
       x1="0"
       y1="0"
       x2="1"
       y2="0"
       gradientUnits="userSpaceOnUse"
       gradientTransform="matrix(244.692,1281.55,-1281.55,244.692,-44.6924,-886.62)">
      <stop
         offset="0%"
         style="stop-color:#fff;stop-opacity:1"
         id="stop1" />
      <stop
         offset="34%"
         style="stop-color:#fff;stop-opacity:1"
         id="stop2" />
      <stop
         offset="51%"
         style="stop-color:#bebdf3;stop-opacity:1"
         id="stop3" />
      <stop
         offset="75%"
         style="stop-color:#867fb7;stop-opacity:1"
         id="stop4" />
      <stop
         offset="87%"
         style="stop-color:#9f99c7;stop-opacity:1"
         id="stop5" />
      <stop
         offset="100%"
         style="stop-color:#524c76;stop-opacity:1"
         id="stop6" />
    </linearGradient>
    <linearGradient
       id="_Linear2"
       x1="0"
       y1="0"
       x2="1"
       y2="0"
       gradientUnits="userSpaceOnUse"
       gradientTransform="matrix(-73.9103,-331.394,331.394,-73.9103,256.323,293.128)">
      <stop
         offset="0%"
         style="stop-color:#fff;stop-opacity:1"
         id="stop7" />
      <stop
         offset="34%"
         style="stop-color:#fff;stop-opacity:1"
         id="stop8" />
      <stop
         offset="51%"
         style="stop-color:#bebbdb;stop-opacity:1"
         id="stop9" />
      <stop
         offset="75%"
         style="stop-color:#928bbe;stop-opacity:1"
         id="stop10" />
      <stop
         offset="87%"
         style="stop-color:#9f99c7;stop-opacity:1"
         id="stop11" />
      <stop
         offset="100%"
         style="stop-color:#524c76;stop-opacity:1"
         id="stop12" />
    </linearGradient>
    <radialGradient
       id="_Radial3"
       cx="0"
       cy="0"
       r="1"
       gradientUnits="userSpaceOnUse"
       gradientTransform="matrix(65.7758,0,0,50.4149,169.619,91.661)">
      <stop
         offset="0%"
         style="stop-color:#fff;stop-opacity:1"
         id="stop13" />
      <stop
         offset="34%"
         style="stop-color:#fff;stop-opacity:1"
         id="stop14" />
      <stop
         offset="51%"
         style="stop-color:#bebbdb;stop-opacity:1"
         id="stop15" />
      <stop
         offset="75%"
         style="stop-color:#928bbe;stop-opacity:1"
         id="stop16" />
      <stop
         offset="87%"
         style="stop-color:#9f99c7;stop-opacity:1"
         id="stop17" />
      <stop
         offset="100%"
         style="stop-color:#524c76;stop-opacity:1"
         id="stop18" />
    </radialGradient>
    <radialGradient
       id="_Radial4"
       cx="0"
       cy="0"
       r="1"
       gradientUnits="userSpaceOnUse"
       gradientTransform="matrix(-9.01713,572.145,-487.965,-7.68295,19.9686,107.795)">
      <stop
         offset="0%"
         style="stop-color:#fff;stop-opacity:1"
         id="stop19" />
      <stop
         offset="34%"
         style="stop-color:#fff;stop-opacity:1"
         id="stop20" />
      <stop
         offset="51%"
         style="stop-color:#bebbdb;stop-opacity:1"
         id="stop21" />
      <stop
         offset="75%"
         style="stop-color:#928bbe;stop-opacity:1"
         id="stop22" />
      <stop
         offset="87%"
         style="stop-color:#9f99c7;stop-opacity:1"
         id="stop23" />
      <stop
         offset="100%"
         style="stop-color:#524c76;stop-opacity:1"
         id="stop24" />
    </radialGradient>
    <mask
       id="mask-4-0"
       fill="#ffffff">
      <use
         xlink:href="#path-3"
         id="use2-2" />
    </mask>
    <linearGradient
       inkscape:collect="always"
       xlink:href="#_Linear1"
       id="linearGradient4"
       gradientUnits="userSpaceOnUse"
       gradientTransform="matrix(244.692,1281.55,-1281.55,244.692,-44.6924,-886.62)"
       x1="0"
       y1="0"
       x2="1"
       y2="0" />
    <mask
       id="mask-4-67"
       fill="#ffffff">
      <use
         xlink:href="#path-3"
         id="use2-5" />
    </mask>
    <mask
       id="mask-4-6"
       fill="#ffffff">
      <use
         xlink:href="#path-3"
         id="use2-7" />
    </mask>
    <mask
       id="mask-2"
       fill="white">
      <use
         xlink:href="#path-1"
         id="use1-5" />
    </mask>
    <mask
       id="mask-4-67-6"
       fill="white">
      <use
         xlink:href="#path-3"
         id="use2-5-2" />
    </mask>
  </defs>
  <metadata
     id="metadata3">
    <rdf:RDF>
      <cc:Work
         rdf:about="">
        <dc:title>Vector Perfect Qute Qube</dc:title>
      </cc:Work>
    </rdf:RDF>
  </metadata>
  <g
     id="Vector-Perfect-Qute-Qube"
     transform="translate(16.755919,35.188365)"
     style="fill:#524c76;fill-opacity:1">
    <g
       id="Shado"
       transform="translate(-11.802719,-34.368865)"
       style="fill:#524c76;fill-opacity:1">
      <mask
         id="mask3"
         fill="#ffffff">
        <use
           xlink:href="#path-1"
           id="use3" />
      </mask>
      <g
         id="Clip-2"
         style="fill:#524c76;fill-opacity:1" />
      <path
         d="m 18.8596,0.9446 -8.223,4.747 -8.222,4.748 c -0.627,0.361 -1.135,0.876 -1.487,1.482 -0.351,0.605 -0.547,1.3 -0.552,2.024 l -0.056,9.35 -0.0550938,9.35 C 0.2596,33.3826 0.4546,34.0916 0.8106,34.7086 c 0.356,0.616 0.873,1.139 1.513,1.504 l 8.125,4.627 8.125,4.626 c 0.629,0.359 1.33,0.537 2.03,0.535017 0.7,-0.002 1.399,-0.185017 2.026,-0.547017 l 7.656,-4.521 7.657,-4.52 c 0.626,-0.363 1.162,-0.962 1.542,-1.652 0.38,-0.69 0.604,-1.47 0.609,-2.195 l -0.001,-9.35 -10e-4,-9.349 c 0.004,-0.737 -0.134,-1.588 -0.433,-2.347 -0.299,-0.758 -0.759,-1.423 -1.4,-1.787 l -7.671,-4.4 -7.672,-4.4 c -0.629,-0.359 -1.33,-0.536 -2.03,-0.53401676 C 20.1856,0.4006 19.4866,0.5826 18.8596,0.9446"
         id="Fill-1"
         fill="#0e2276"
         mask="url(#mask-2)"
         style="fill:#8a7fc8;fill-opacity:1" />
    </g>
    <g
       id="Main-3"
       transform="translate(-13.802719,-34.368865)"
       style="fill:#524c76;fill-opacity:1">
      <mask
         id="mask4"
         fill="#ffffff">
        <use
           xlink:href="#path-3"
           id="use4" />
      </mask>
      <g
         id="Clip-5"
         style="fill:#524c76;fill-opacity:1" />
      <path
         d="m 18.5949,0.907 -8.223,4.748 -8.222,4.747 c -0.627,0.362 -1.135,0.877 -1.486,1.481 -0.352,0.606 -0.548,1.301 -0.552,2.024 l -0.056,9.351 -0.0560606432,9.35 C -0.0041,33.345 0.1899,34.054 0.5459,34.67 c 0.356,0.616 0.873,1.14 1.513,1.505 l 8.125,4.626 8.126,4.627 c 0.629,0.358 1.329,0.536 2.029,0.534017 0.7,-0.002 1.4,-0.184017 2.027,-0.546017 l 8.222,-4.748 8.223,-4.747 c 0.627,-0.361 1.134,-0.876 1.486,-1.481 0.352,-0.606 0.548,-1.301 0.552,-2.025 l 0.056,-9.35 0.05509,-9.35 c 0.0049,-0.737 -0.19009,-1.446 -0.54609,-2.062 -0.356,-0.617 -0.873,-1.14 -1.513,-1.504 L 30.7759,5.522 22.6509,0.895 C 22.0219,0.536 21.3219,0.359 20.6209,0.36098324 19.9219,0.363 19.2219,0.545 18.5949,0.907"
         id="Fill-4"
         fill="#4488df"
         mask="url(#mask-4-67-6)"
         style="fill:#524c76;fill-opacity:1" />
    </g>
  </g>
  <g
     id="Ebene-1"
     style="clip-rule:evenodd;fill-rule:evenodd;stroke-linejoin:round;stroke-miterlimit:1.41421"
     transform="matrix(0.07895831,0,0,0.0789583,9.3799581,8.5062736)">
    <g
       id="g5680"
       style="display:inline">
      <path
         id="path2973"
         d="M 13.83,315.949 C 13.873,299.502 27.854,276.541 47.719,255.681 60.995,241.74 74.478,229.503 103.869,204.443 83.539,193.287 51.919,179.828 36.054,162.201 30.184,155.679 19.543,140.903 21.607,121.162 25.813,80.926 75.476,19.864 146.067,6.955 c 23.488,-4.296 50.455,-1.195 72.65,8.783 69.629,31.304 154.782,109.073 165.259,147.046 3.688,13.366 2.979,34.671 -3.379,46.545 -7.879,14.716 -35.156,44.606 -72.475,75.449 C 249.566,333.172 167.51,385.137 106.241,393.881 86.443,396.707 66.217,393.76 52.023,385.751 29.814,373.219 22.442,356.489 19.851,351.474 12.96,338.14 13.815,321.246 13.83,315.949 Z m 164.8,-184.776 c 0.756,-9.325 37.321,-0.042 35.011,7.343 -2.437,7.791 -35.879,3.354 -35.011,-7.343 z"
         style="fill:url(#linearGradient4)" />
      <g
         id="mid"
         style="display:inline">
        <path
           id="path2975"
           d="m 123.659,189.035 c -19.242,16.246 -32.036,27.2 -48.075,41.86 -38.626,35.304 -64.871,62.176 -51.34,98.909 15.609,42.374 49.824,40.226 89.947,32.35 C 217.612,341.756 387.617,211.059 378.952,162.784 371.94,123.723 276.96,46.063 220.725,18.428 203.156,9.794 182.909,5.329 162.601,6.285 85.274,9.935 24.886,80.337 27.971,118.482 c 3.001,37.11 96.795,69.446 95.688,70.553 z M 112.052,59.482 c -23.268,25.888 -8.392,75.974 30.195,103.274 45.152,31.945 118.269,37.729 132.819,13.093 27.14,-45.952 -2.493,-94.54 -46.727,-116.214 C 184.628,38.217 126.556,43.345 112.052,59.482 Z"
           style="display:inline;fill:url(#_Linear2)" />
        <path
           id="path4976"
           d="m 191.403,161.67 c 32.666,4.541 60.822,-8.541 65.225,-40.798 3.354,-24.571 -34.25,-51.417 -56.859,-57.608 -18.88,-5.171 -59.869,1.478 -62.633,37.186 -2.872,37.121 35.22,58.573 54.267,61.22 z M 175.407,99.931 c -21.468,33.258 31.169,43.483 39.228,37.418 34.744,-26.149 -29.77,-52.07 -39.228,-37.418 z"
           style="display:inline;fill:url(#_Radial3)" />
      </g>
      <path
         id="path2977"
         d="m 156.368,15.122 c -37.974,4.001 -45.246,8.889 -79.647,34.916 -11.53,8.723 -32.75,29.948 -38.187,55.128 -2.071,9.59 0.377,17.87 7.283,23.676 22.116,18.593 59.131,33.677 89.498,48.259 8.894,4.271 3.005,12.015 -11.338,24.432 -36.194,31.334 -85.128,69.476 -88.544,98.54 -1.61,13.695 3.079,32.305 19.702,41.828 19.419,11.125 59.729,3.864 86.646,-6.159 39.334,-14.647 91.003,-46.973 132.023,-78.748 42.655,-33.043 82.316,-75.011 84.277,-81.856 2.409,-8.406 2.169,-16.169 -2.48,-25.096 C 348.3,136.025 338.539,125.61 328.059,113.951 299.937,84.304 270.183,58.254 234.584,38.291 208.877,23.875 186.259,11.972 156.368,15.122 Z m 55.781,66.466 c 27.434,13.263 55.606,48.102 -0.245,68.154 -15.187,5.453 -63.352,-13.391 -61.878,-39.107 2.15,-37.987 28.625,-45.242 62.123,-29.047 z"
         style="fill:url(#_Radial4)" />
    </g>
  </g>
</svg>
