<?xml version="1.0" encoding="UTF-8" standalone="no"?>
<svg
   width="48px"
   height="48px"
   viewBox="0 0 48 48"
   version="1.1"
   id="svg3"
   sodipodi:docname="qube-alpine.svg"
   inkscape:version="1.3.2 (091e20ef0f, 2023-11-25)"
   xmlns:inkscape="http://www.inkscape.org/namespaces/inkscape"
   xmlns:sodipodi="http://sodipodi.sourceforge.net/DTD/sodipodi-0.dtd"
   xmlns:xlink="http://www.w3.org/1999/xlink"
   xmlns="http://www.w3.org/2000/svg"
   xmlns:svg="http://www.w3.org/2000/svg"
   xmlns:rdf="http://www.w3.org/1999/02/22-rdf-syntax-ns#"
   xmlns:cc="http://creativecommons.org/ns#"
   xmlns:dc="http://purl.org/dc/elements/1.1/">
  <sodipodi:namedview
     id="namedview3"
     pagecolor="#ffffff"
     bordercolor="#000000"
     borderopacity="0.25"
     inkscape:showpageshadow="2"
     inkscape:pageopacity="0.0"
     inkscape:pagecheckerboard="0"
     inkscape:deskcolor="#d1d1d1"
     inkscape:zoom="6.0909171"
     inkscape:cx="16.335799"
     inkscape:cy="15.679084"
     inkscape:window-width="1440"
     inkscape:window-height="843"
     inkscape:window-x="0"
     inkscape:window-y="33"
     inkscape:window-maximized="1"
     inkscape:current-layer="svg3" />
  <title
     id="title">Vector Perfect Qute Qube</title>
  <defs
     id="defs1">
    <polygon
       id="path-1"
       points="0.264506174 0.398583241 40.0936 0.398583241 40.0936 46 0.264506174 46" />
    <polygon
       id="path-3"
       points="0 0.361 40.9599938 0.361 40.9599938 45.9620167 0 45.9620167" />
    <mask
       id="mask-2"
       fill="white">
      <use
         xlink:href="#path-1"
         id="use1" />
    </mask>
    <mask
       id="mask-4-67"
       fill="white">
      <use
         xlink:href="#path-3"
         id="use2-5" />
    </mask>
  </defs>
  <metadata
     id="metadata3">
    <rdf:RDF>
      <cc:Work
         rdf:about="">
        <dc:title>Vector Perfect Qute Qube</dc:title>
      </cc:Work>
    </rdf:RDF>
  </metadata>
  <g
     id="qube"
     transform="translate(16.755919,35.188365)">
    <g
       id="Shado"
       transform="translate(-11.802719,-34.368865)"
       style="fill:#062b3e;fill-opacity:1">
      <mask
         id="mask3"
         fill="#ffffff">
        <use
           xlink:href="#path-1"
           id="use3" />
      </mask>
      <g
         id="Clip-2"
         style="fill:#062b3e;fill-opacity:1" />
      <path
         d="m 18.8596,0.9446 -8.223,4.747 -8.222,4.748 c -0.627,0.361 -1.135,0.876 -1.487,1.482 -0.351,0.605 -0.547,1.3 -0.552,2.024 l -0.056,9.35 -0.0550938,9.35 C 0.2596,33.3826 0.4546,34.0916 0.8106,34.7086 c 0.356,0.616 0.873,1.139 1.513,1.504 l 8.125,4.627 8.125,4.626 c 0.629,0.359 1.33,0.537 2.03,0.535017 0.7,-0.002 1.399,-0.185017 2.026,-0.547017 l 7.656,-4.521 7.657,-4.52 c 0.626,-0.363 1.162,-0.962 1.542,-1.652 0.38,-0.69 0.604,-1.47 0.609,-2.195 l -0.001,-9.35 -10e-4,-9.349 c 0.004,-0.737 -0.134,-1.588 -0.433,-2.347 -0.299,-0.758 -0.759,-1.423 -1.4,-1.787 l -7.671,-4.4 -7.672,-4.4 c -0.629,-0.359 -1.33,-0.536 -2.03,-0.53401676 C 20.1856,0.4006 19.4866,0.5826 18.8596,0.9446"
         id="Fill-1"
         fill="#0e2276"
         mask="url(#mask-2)"
         style="fill:#062b3e;fill-opacity:1" />
    </g>
    <g
       id="Main-3"
       transform="translate(-13.802719,-34.368865)"
       style="fill:#0d597f;fill-opacity:1">
      <mask
         id="mask4"
         fill="#ffffff">
        <use
           xlink:href="#path-3"
           id="use4" />
      </mask>
      <g
         id="Clip-5"
         style="fill:#0d597f;fill-opacity:1" />
      <path
         d="m 18.5949,0.907 -8.223,4.748 -8.222,4.747 c -0.627,0.362 -1.135,0.877 -1.486,1.481 -0.352,0.606 -0.548,1.301 -0.552,2.024 l -0.056,9.351 -0.0560606432,9.35 C -0.0041,33.345 0.1899,34.054 0.5459,34.67 c 0.356,0.616 0.873,1.14 1.513,1.505 l 8.125,4.626 8.126,4.627 c 0.629,0.358 1.329,0.536 2.029,0.534017 0.7,-0.002 1.4,-0.184017 2.027,-0.546017 l 8.222,-4.748 8.223,-4.747 c 0.627,-0.361 1.134,-0.876 1.486,-1.481 0.352,-0.606 0.548,-1.301 0.552,-2.025 l 0.056,-9.35 0.05509,-9.35 c 0.0049,-0.737 -0.19009,-1.446 -0.54609,-2.062 -0.356,-0.617 -0.873,-1.14 -1.513,-1.504 L 30.7759,5.522 22.6509,0.895 C 22.0219,0.536 21.3219,0.359 20.6209,0.36098324 19.9219,0.363 19.2219,0.545 18.5949,0.907"
         id="Fill-4"
         fill="#4488df"
         mask="url(#mask-4-67)"
         style="fill:#0d597f;fill-opacity:1" />
    </g>
  </g>
  <path
     id="path2"
     style="display:inline;fill:#ffffff;fill-opacity:1;stroke:none;stroke-width:0.317553"
     d="M 19.960938 14.378906 L 6.5605469 27.621094 C 6.9543122 27.894188 7.3218364 28.1166 7.6679688 28.300781 C 8.0141012 28.482104 8.3409032 28.619816 8.6425781 28.724609 C 8.9445708 28.830037 9.2252043 28.902491 9.4824219 28.947266 C 9.7396398 28.992356 9.9747403 29.011719 10.1875 29.011719 C 10.442813 29.011719 10.662985 28.986006 10.853516 28.947266 C 11.042777 28.908846 11.200374 28.857089 11.324219 28.804688 C 11.44997 28.752608 11.544594 28.699485 11.609375 28.658203 C 11.674155 28.616923 11.708501 28.587441 11.714844 28.582031 L 17.779297 22.515625 L 19.941406 20.443359 L 25.943359 26.445312 L 28.037109 28.597656 C 28.043509 28.603056 28.077795 28.632858 28.142578 28.673828 C 28.207358 28.715108 28.301984 28.767914 28.427734 28.820312 C 28.553486 28.872392 28.711082 28.924468 28.898438 28.962891 C 29.087699 29.001631 29.31041 29.027344 29.564453 29.027344 C 29.777213 29.027344 30.012314 29.007681 30.269531 28.962891 C 30.527067 28.917801 30.805746 28.845662 31.107422 28.740234 C 31.409733 28.634488 31.7359 28.496459 32.082031 28.316406 C 32.428165 28.134765 32.799593 27.909813 33.193359 27.636719 L 28.398438 22.935547 L 29.294922 22.041016 L 33.455078 26.201172 L 35.880859 28.605469 C 35.897569 28.618697 35.908796 28.630031 35.953125 28.658203 C 36.017905 28.699483 36.112531 28.752289 36.238281 28.804688 C 36.363716 28.856767 36.521312 28.908842 36.708984 28.947266 C 36.898247 28.986006 37.117782 29.011719 37.375 29.011719 C 37.588079 29.011719 37.82286 28.992046 38.080078 28.947266 C 38.337931 28.902176 38.618247 28.830037 38.919922 28.724609 C 39.222551 28.618864 39.548399 28.480834 39.894531 28.300781 C 40.240664 28.11914 40.612093 27.894188 41.005859 27.621094 L 38.283203 24.953125 L 29.265625 15.902344 L 25.296875 19.873047 L 19.960938 14.378906 z M 17.494141 24.015625 L 13.904297 27.603516 C 14.29171 27.872484 14.655089 28.092432 14.998047 28.273438 C 15.341005 28.453488 15.660484 28.591251 15.958984 28.699219 C 16.257801 28.805281 16.533798 28.87683 16.791016 28.923828 C 17.046328 28.970508 17.28138 28.991291 17.494141 28.994141 L 17.494141 24.015625 z " />
  <path
     d="m 28.607699,22.967 -3.146953,-3.143778 0.223875,-0.225145 3.169182,3.13425 z"
     style="display:inline;fill:#0d597f;fill-opacity:1;stroke-width:0.317553"
     id="path11" />
</svg>
