<?xml version="1.0" encoding="UTF-8" standalone="no"?>
<svg
   width="48px"
   height="48px"
   viewBox="0 0 48 48"
   version="1.1"
   id="svg3"
   sodipodi:docname="qube-manjaro.svg"
   inkscape:version="1.3.2 (091e20ef0f, 2023-11-25)"
   xmlns:inkscape="http://www.inkscape.org/namespaces/inkscape"
   xmlns:sodipodi="http://sodipodi.sourceforge.net/DTD/sodipodi-0.dtd"
   xmlns:xlink="http://www.w3.org/1999/xlink"
   xmlns="http://www.w3.org/2000/svg"
   xmlns:svg="http://www.w3.org/2000/svg"
   xmlns:rdf="http://www.w3.org/1999/02/22-rdf-syntax-ns#"
   xmlns:cc="http://creativecommons.org/ns#"
   xmlns:dc="http://purl.org/dc/elements/1.1/">
  <sodipodi:namedview
     id="namedview3"
     pagecolor="#ffffff"
     bordercolor="#000000"
     borderopacity="0.25"
     inkscape:showpageshadow="2"
     inkscape:pageopacity="0.0"
     inkscape:pagecheckerboard="0"
     inkscape:deskcolor="#d1d1d1"
     inkscape:zoom="5.3576919"
     inkscape:cx="-0.27997131"
     inkscape:cy="37.236184"
     inkscape:window-width="1440"
     inkscape:window-height="843"
     inkscape:window-x="0"
     inkscape:window-y="33"
     inkscape:window-maximized="1"
     inkscape:current-layer="svg3" />
  <title
     id="title">Vector Perfect Qute Qube</title>
  <defs
     id="defs1">
    <polygon
       id="path-1"
       points="0.264506174 0.398583241 40.0936 0.398583241 40.0936 46 0.264506174 46" />
    <polygon
       id="path-3"
       points="0 0.361 40.9599938 0.361 40.9599938 45.9620167 0 45.9620167" />
    <polygon
       id="path-5"
       points="0 0.0254 20.6328606 0.0254 20.6328606 33.9504 0 33.9504" />
    <mask
       id="mask-4-6"
       fill="#ffffff">
      <use
         xlink:href="#path-3"
         id="use2-7" />
    </mask>
    <mask
       id="mask-4-6-7"
       fill="#ffffff">
      <use
         xlink:href="#path-3"
         id="use2-7-5" />
    </mask>
    <mask
       id="mask-4-6-7-6"
       fill="#ffffff">
      <use
         xlink:href="#path-3"
         id="use2-7-5-2" />
    </mask>
    <mask
       id="mask-4-6-7-2"
       fill="#ffffff">
      <use
         xlink:href="#path-3"
         id="use2-7-5-7" />
    </mask>
    <mask
       id="mask-4-6-7-3"
       fill="#ffffff">
      <use
         xlink:href="#path-3"
         id="use2-7-5-6" />
    </mask>
  </defs>
  <g
     id="Vector-Perfect-Qute-Qube"
     stroke="none"
     stroke-width="1"
     fill="none"
     fill-rule="evenodd"
     style="fill:#7ecbf0;fill-opacity:1"
     transform="translate(-2.5528246e-4,-1.3158475e-4)">
    <g
       id="FromIllustrator"
       transform="translate(3)"
       style="fill:#7ecbf0;fill-opacity:1">
      <g
         id="Main"
         transform="translate(0,0.6395)"
         style="display:inline;fill:#7ecbf0;fill-opacity:1">
        <mask
           id="mask-4"
           fill="#ffffff">
          <use
             xlink:href="#path-3"
             id="use2" />
        </mask>
        <path
           d="m 18.5949,0.907 -8.223,4.748 -8.222,4.747 c -0.627,0.362 -1.135,0.877 -1.486,1.481 -0.352,0.606 -0.548,1.301 -0.552,2.024 l -0.056,9.351 -0.0560606432,9.35 C -0.0041,33.345 0.1899,34.054 0.5459,34.67 c 0.356,0.616 0.873,1.14 1.513,1.505 l 8.125,4.626 8.126,4.627 c 0.629,0.358 1.329,0.536 2.029,0.534017 0.7,-0.002 1.4,-0.184017 2.027,-0.546017 l 8.222,-4.748 8.223,-4.747 c 0.627,-0.361 1.134,-0.876 1.486,-1.481 0.352,-0.606 0.548,-1.301 0.552,-2.025 l 0.056,-9.35 0.05509,-9.35 c 0.0049,-0.737 -0.19009,-1.446 -0.54609,-2.062 -0.356,-0.617 -0.873,-1.14 -1.513,-1.504 L 30.7759,5.522 22.6509,0.895 C 22.0219,0.536 21.3219,0.359 20.6209,0.36098324 19.9219,0.363 19.2219,0.545 18.5949,0.907"
           id="Qube"
           fill="#585858"
           mask="url(#mask-4)"
           style="display:inline;fill:#35bf5c;fill-opacity:1"
           transform="translate(0.5200031,0.19899165)" />
        <path
           d="m 18.5949,0.907 -8.223,4.748 -8.222,4.747 c -0.627,0.362 -1.135,0.877 -1.486,1.481 -0.352,0.606 -0.548,1.301 -0.552,2.024 l -0.056,9.351 -0.0560606432,9.35 C -0.0041,33.345 0.1899,34.054 0.5459,34.67 c 0.356,0.616 0.873,1.14 1.513,1.505 l 8.125,4.626 8.126,4.627 c 0.629,0.358 1.329,0.536 2.029,0.534017 0.7,-0.002 1.4,-0.184017 2.027,-0.546017 l 8.222,-4.748 8.223,-4.747 c 0.627,-0.361 1.134,-0.876 1.486,-1.481 0.352,-0.606 0.548,-1.301 0.552,-2.025 l 0.056,-9.35 0.05509,-9.35 c 0.0049,-0.737 -0.19009,-1.446 -0.54609,-2.062 -0.356,-0.617 -0.873,-1.14 -1.513,-1.504 L 30.7759,5.522 22.6509,0.895 C 22.0219,0.536 21.3219,0.359 20.6209,0.36098324 19.9219,0.363 19.2219,0.545 18.5949,0.907"
           id="Qube-5"
           fill="#585858"
           mask="url(#mask-4-6)"
           style="display:inline;fill:#ffffff;fill-opacity:1"
           transform="matrix(0.927,0,0,0.927,2.0150429,1.8897818)" />
      </g>
    </g>
  </g>
  <g
     id="g1"
     style="stroke:none;fill:#35bf5c;fill-opacity:1">
    <path
       id="Q"
       mask="url(#mask-4-6-7)"
       style="display:inline;vector-effect:non-scaling-stroke;fill:#35bf5c;fill-opacity:1;stroke:none;stroke-width:1.07875;stroke-dasharray:none;-inkscape-stroke:hairline"
       d="M 20.621711 0.36151188 C 19.922713 0.36352864 19.221281 0.54579823 18.594283 0.90779751 L 15.515426 2.6860829 L 10.37257 5.6552253 L 2.1508569 10.402653 C 1.5238583 10.764653 1.0138564 11.279796 0.66285716 11.883796 C 0.31085786 12.489794 0.1160001 13.183653 0.1120001 13.906653 L 0.054857251 23.257508 L 1.1702855e-07 32.608364 C -0.0039392319 33.345362 0.19028645 34.05408 0.54628575 34.670078 C 0.90228503 35.286076 1.4194296 35.809078 2.0594284 36.174078 L 10.182856 40.800363 L 11.947427 41.806077 L 11.947427 14.672367 L 26.470853 14.672367 L 26.470853 3.0700829 L 25.796568 2.6860829 L 22.651425 0.89408323 C 22.022427 0.53508393 21.322711 0.35952864 20.621711 0.36151188 z "
       transform="matrix(0.85449232,0,0,0.85449232,6.4999999,4.208669)" />
    <path
       id="M"
       mask="url(#mask-4-6-7-3)"
       style="display:inline;vector-effect:non-scaling-stroke;fill:#35bf5c;fill-opacity:1;stroke:none;stroke-width:1.07875;stroke-dasharray:none;-inkscape-stroke:hairline"
       d="M 14.489141 17.166081 L 14.489141 43.252934 L 18.310854 45.428933 C 18.939854 45.786933 19.638283 45.963488 20.338283 45.961505 C 21.038282 45.959505 21.738712 45.777219 22.365711 45.415219 L 26.475425 43.042648 L 26.475425 17.166081 L 14.489141 17.166081 z "
       transform="matrix(0.85449232,0,0,0.85449232,6.4999999,4.208669)" />
    <path
       id="R"
       mask="url(#mask-4-6-7-6)"
       style="display:inline;vector-effect:non-scaling-stroke;fill:#35bf5c;fill-opacity:1;stroke:none;stroke-width:1.07875;stroke-dasharray:none;-inkscape-stroke:hairline"
       d="M 28.97371 4.4963684 L 28.97371 41.600363 L 30.587424 40.667791 L 38.811423 35.920364 C 39.438422 35.559364 39.945137 35.04422 40.297137 34.439221 C 40.649136 33.833221 40.843994 33.138078 40.847994 32.414078 L 40.905137 23.065508 L 40.959994 13.714653 C 40.964894 12.977653 40.769708 12.268938 40.413708 11.652939 C 40.057708 11.035939 39.540565 10.512939 38.900566 10.148939 L 30.774852 5.5226539 L 28.97371 4.4963684 z "
       transform="matrix(0.85449232,0,0,0.85449232,6.4999999,4.208669)" />
  </g>
  <metadata
     id="metadata3">
    <rdf:RDF>
      <cc:Work
         rdf:about="">
        <dc:title>Vector Perfect Qute Qube</dc:title>
      </cc:Work>
    </rdf:RDF>
  </metadata>
</svg>
