<?xml version="1.0" encoding="UTF-8" standalone="no"?>
<svg
   width="48px"
   height="48px"
   viewBox="0 0 48 48"
   version="1.1"
   id="svg3"
   sodipodi:docname="qube-opensuse.svg"
   inkscape:version="1.3.2 (091e20ef0f, 2023-11-25)"
   xmlns:inkscape="http://www.inkscape.org/namespaces/inkscape"
   xmlns:sodipodi="http://sodipodi.sourceforge.net/DTD/sodipodi-0.dtd"
   xmlns:xlink="http://www.w3.org/1999/xlink"
   xmlns="http://www.w3.org/2000/svg"
   xmlns:svg="http://www.w3.org/2000/svg"
   xmlns:rdf="http://www.w3.org/1999/02/22-rdf-syntax-ns#"
   xmlns:cc="http://creativecommons.org/ns#"
   xmlns:dc="http://purl.org/dc/elements/1.1/">
  <sodipodi:namedview
     id="namedview3"
     pagecolor="#ffffff"
     bordercolor="#000000"
     borderopacity="0.25"
     inkscape:showpageshadow="2"
     inkscape:pageopacity="0.0"
     inkscape:pagecheckerboard="0"
     inkscape:deskcolor="#d1d1d1"
     inkscape:zoom="6.21875"
     inkscape:cx="0.08040201"
     inkscape:cy="31.276382"
     inkscape:window-width="1440"
     inkscape:window-height="843"
     inkscape:window-x="0"
     inkscape:window-y="33"
     inkscape:window-maximized="1"
     inkscape:current-layer="svg3" />
  <title
     id="title">Vector Perfect Qute Qube</title>
  <defs
     id="defs1">
    <polygon
       id="path-1"
       points="0.264506174 0.398583241 40.0936 0.398583241 40.0936 46 0.264506174 46" />
    <polygon
       id="path-3"
       points="0 0.361 40.9599938 0.361 40.9599938 45.9620167 0 45.9620167" />
    <polygon
       id="path-5"
       points="0 0.0254 20.6328606 0.0254 20.6328606 33.9504 0 33.9504" />
    <mask
       id="mask-2"
       fill="white">
      <use
         xlink:href="#path-1"
         id="use1" />
    </mask>
    <mask
       id="mask-4-67"
       fill="white">
      <use
         xlink:href="#path-3"
         id="use2-5" />
    </mask>
  </defs>
  <metadata
     id="metadata3">
    <rdf:RDF>
      <cc:Work
         rdf:about="">
        <dc:title>Vector Perfect Qute Qube</dc:title>
      </cc:Work>
    </rdf:RDF>
  </metadata>
  <g
     id="Vector-Perfect-Qute-Qube"
     transform="translate(16.755919,35.188365)"
     style="fill:#73ba25;fill-opacity:1">
    <g
       id="Shado"
       transform="translate(-11.802719,-34.368865)"
       style="fill:#73ba25;fill-opacity:1">
      <mask
         id="mask3"
         fill="#ffffff">
        <use
           xlink:href="#path-1"
           id="use3" />
      </mask>
      <g
         id="Clip-2"
         style="fill:#73ba25;fill-opacity:1" />
      <path
         d="m 18.8596,0.9446 -8.223,4.747 -8.222,4.748 c -0.627,0.361 -1.135,0.876 -1.487,1.482 -0.351,0.605 -0.547,1.3 -0.552,2.024 l -0.056,9.35 -0.0550938,9.35 C 0.2596,33.3826 0.4546,34.0916 0.8106,34.7086 c 0.356,0.616 0.873,1.139 1.513,1.504 l 8.125,4.627 8.125,4.626 c 0.629,0.359 1.33,0.537 2.03,0.535017 0.7,-0.002 1.399,-0.185017 2.026,-0.547017 l 7.656,-4.521 7.657,-4.52 c 0.626,-0.363 1.162,-0.962 1.542,-1.652 0.38,-0.69 0.604,-1.47 0.609,-2.195 l -0.001,-9.35 -10e-4,-9.349 c 0.004,-0.737 -0.134,-1.588 -0.433,-2.347 -0.299,-0.758 -0.759,-1.423 -1.4,-1.787 l -7.671,-4.4 -7.672,-4.4 c -0.629,-0.359 -1.33,-0.536 -2.03,-0.53401676 C 20.1856,0.4006 19.4866,0.5826 18.8596,0.9446"
         id="Fill-1"
         fill="#0e2276"
         mask="url(#mask-2)"
         style="fill:#4d7c19;fill-opacity:1" />
    </g>
    <g
       id="Main-3"
       transform="translate(-13.802719,-34.368865)"
       style="fill:#73ba25;fill-opacity:1">
      <mask
         id="mask4"
         fill="#ffffff">
        <use
           xlink:href="#path-3"
           id="use4" />
      </mask>
      <g
         id="Clip-5"
         style="fill:#73ba25;fill-opacity:1" />
      <path
         d="m 18.5949,0.907 -8.223,4.748 -8.222,4.747 c -0.627,0.362 -1.135,0.877 -1.486,1.481 -0.352,0.606 -0.548,1.301 -0.552,2.024 l -0.056,9.351 -0.0560606432,9.35 C -0.0041,33.345 0.1899,34.054 0.5459,34.67 c 0.356,0.616 0.873,1.14 1.513,1.505 l 8.125,4.626 8.126,4.627 c 0.629,0.358 1.329,0.536 2.029,0.534017 0.7,-0.002 1.4,-0.184017 2.027,-0.546017 l 8.222,-4.748 8.223,-4.747 c 0.627,-0.361 1.134,-0.876 1.486,-1.481 0.352,-0.606 0.548,-1.301 0.552,-2.025 l 0.056,-9.35 0.05509,-9.35 c 0.0049,-0.737 -0.19009,-1.446 -0.54609,-2.062 -0.356,-0.617 -0.873,-1.14 -1.513,-1.504 L 30.7759,5.522 22.6509,0.895 C 22.0219,0.536 21.3219,0.359 20.6209,0.36098324 19.9219,0.363 19.2219,0.545 18.5949,0.907"
         id="Fill-4"
         fill="#4488df"
         mask="url(#mask-4-67)"
         style="fill:#73ba25;fill-opacity:1" />
    </g>
  </g>
  <path
     style="display:inline;fill:#ffffff;fill-opacity:1;stroke:none;stroke-width:2.1188;stroke-miterlimit:4;stroke-dasharray:none;stroke-opacity:1"
     d="M 24,6.859327 A 17.140673,17.140673 0 0 0 6.859327,24 17.140673,17.140673 0 0 0 24,41.140673 17.140673,17.140673 0 0 0 41.140673,24 17.140673,17.140673 0 0 0 24,6.859327 Z m 0,2.1425841 A 14.997923,14.998036 0 0 1 38.998089,24 14.997923,14.998036 0 0 1 24,38.998089 14.997923,14.998036 0 0 1 12.711156,33.845896 c 1.080642,-0.781593 2.852729,-0.581993 5.030835,-0.336087 1.061343,0.123984 2.270118,0.262726 3.521193,0.290579 3.493007,0.0222 7.25523,-0.6229 9.574149,-1.637279 1.500227,-0.652029 2.457606,-1.086065 3.057471,-1.631523 0.215746,-0.178769 0.327802,-0.468938 0.444367,-0.781238 l 0.08186,-0.20636 c 0.09699,-0.253148 0.23944,-0.786567 0.302086,-1.078876 0.02523,-0.128769 0.05473,-0.254843 -0.05179,-0.337132 -0.09738,-0.07525 -0.321179,0.05963 -0.321179,0.05963 -1.018287,0.612895 -3.563705,1.773659 -5.943631,1.823238 -2.954823,0.0596 -8.941578,-2.991094 -9.561857,-3.313265 -0.415147,-0.98851 -0.83011,-1.97757 -1.251236,-2.963576 4.283177,2.822154 7.836015,4.38225 10.555471,4.622825 3.027489,0.269689 5.387242,-1.382391 6.411536,-2.069614 0.134083,-0.08914 0.268069,-0.188891 0.39101,-0.284824 h 6.13e-4 c 0.022,-0.01716 0.07336,-0.0624 0.06669,-0.104093 -0.169816,-1.06118 -1.75075,-6.207051 -2.94736,-7.444644 C 31.74168,18.116559 31.47767,17.784039 30.943079,17.471293 26.614192,14.94874 16.344456,13.426346 15.863311,13.356654 c 0,0 -0.04839,-0.01 -0.08186,0.02276 -0.02599,0.0254 -0.03112,0.07428 -0.03112,0.07428 0,0 -0.03943,2.127762 -0.04551,2.365683 -0.38777,-0.130289 -1.68269,-0.55013 -3.512031,-1.038868 A 14.997923,14.998036 0 0 1 24,9.0019111 Z m 3.125997,8.7005869 c 0.07289,-0.0012 0.146066,-5.35e-4 0.219437,0.0019 2.420651,0.08656 4.323006,2.13003 4.23992,4.548021 -0.04566,1.17316 -0.53659,2.261894 -1.392209,3.057996 -0.858197,0.806021 -1.975256,1.220462 -3.154504,1.18088 -2.418048,-0.08916 -4.318145,-2.128397 -4.237045,-4.548545 0.04348,-1.173158 0.534408,-2.261769 1.39221,-3.06035 0.804557,-0.751158 1.838792,-1.162223 2.932191,-1.179833 z m 0.02903,1.29439 c -0.764396,0.0095 -1.483523,0.297007 -2.041366,0.820208 -0.595055,0.558084 -0.945796,1.31426 -0.970596,2.132907 -0.05698,1.691656 1.267431,3.114485 2.955206,3.176736 0.820799,0.0248 1.603162,-0.265526 2.201692,-0.823608 0.597662,-0.560685 0.941606,-1.316525 0.967722,-2.13212 0.05697,-1.691211 -1.267437,-3.112533 -2.959131,-3.172554 -0.05133,-0.0019 -0.102572,-0.0022 -0.153527,-0.0015 z m 0.65491,1.539722 c 0.751628,0 1.360563,0.404554 1.360563,0.907826 0,0.498484 -0.609357,0.905209 -1.360563,0.905209 -0.751648,0 -1.358731,-0.406702 -1.358731,-0.905209 0,-0.503272 0.607083,-0.907826 1.358731,-0.907826 z"
     id="opensuse" />
</svg>
