<?xml version="1.0" encoding="UTF-8" standalone="no"?>
<svg
   width="48px"
   height="48px"
   viewBox="0 0 48 48"
   version="1.1"
   id="svg3"
   sodipodi:docname="qube-tor.svg"
   inkscape:version="1.3.2 (091e20ef0f, 2023-11-25)"
   xmlns:inkscape="http://www.inkscape.org/namespaces/inkscape"
   xmlns:sodipodi="http://sodipodi.sourceforge.net/DTD/sodipodi-0.dtd"
   xmlns:xlink="http://www.w3.org/1999/xlink"
   xmlns="http://www.w3.org/2000/svg"
   xmlns:svg="http://www.w3.org/2000/svg"
   xmlns:rdf="http://www.w3.org/1999/02/22-rdf-syntax-ns#"
   xmlns:cc="http://creativecommons.org/ns#"
   xmlns:dc="http://purl.org/dc/elements/1.1/">
  <sodipodi:namedview
     id="namedview3"
     pagecolor="#ffffff"
     bordercolor="#000000"
     borderopacity="0.25"
     inkscape:showpageshadow="2"
     inkscape:pageopacity="0.0"
     inkscape:pagecheckerboard="0"
     inkscape:deskcolor="#d1d1d1"
     inkscape:zoom="8.7946406"
     inkscape:cx="14.668024"
     inkscape:cy="33.258892"
     inkscape:window-width="1440"
     inkscape:window-height="843"
     inkscape:window-x="0"
     inkscape:window-y="33"
     inkscape:window-maximized="1"
     inkscape:current-layer="svg3" />
  <title
     id="title">Vector Perfect Qute Qube</title>
  <defs
     id="defs1">
    <polygon
       id="path-1"
       points="0.264506174 0.398583241 40.0936 0.398583241 40.0936 46 0.264506174 46" />
    <polygon
       id="path-3"
       points="0 0.361 40.9599938 0.361 40.9599938 45.9620167 0 45.9620167" />
    <polygon
       id="path-5"
       points="0 0.0254 20.6328606 0.0254 20.6328606 33.9504 0 33.9504" />
    <linearGradient
       x1="0.5"
       y1="1"
       x2="0.5"
       y2="0"
       id="linearGradient-1"
       inkscape:swatch="gradient">
      <stop
         stop-color="#420C5D"
         offset="0%"
         id="stop1" />
      <stop
         stop-color="#951AD1"
         offset="100%"
         id="stop2" />
    </linearGradient>
    <filter
       x="-0.13852814"
       y="-0.052173913"
       width="1.2424242"
       height="1.1043478"
       filterUnits="objectBoundingBox"
       id="filter-3">
      <feOffset
         dx="-8"
         dy="0"
         in="SourceAlpha"
         result="shadowOffsetOuter1"
         id="feOffset2" />
      <feGaussianBlur
         stdDeviation="10"
         in="shadowOffsetOuter1"
         result="shadowBlurOuter1"
         id="feGaussianBlur2" />
      <feColorMatrix
         values="0 0 0 0 0.250980392   0 0 0 0 0.250980392   0 0 0 0 0.250980392  0 0 0 0.2 0"
         type="matrix"
         in="shadowBlurOuter1"
         id="feColorMatrix2" />
    </filter>
    <linearGradient
       inkscape:collect="always"
       xlink:href="#linearGradient-1"
       id="linearGradient1"
       gradientUnits="userSpaceOnUse"
       x1="256"
       y1="512"
       x2="256"
       y2="0" />
    <mask
       id="mask-4-5"
       fill="#ffffff">
      <use
         xlink:href="#path-3"
         id="use2-3" />
    </mask>
    <linearGradient
       inkscape:collect="always"
       xlink:href="#linearGradient-1"
       id="linearGradient2"
       gradientUnits="userSpaceOnUse"
       x1="256"
       y1="512"
       x2="256"
       y2="0" />
    <linearGradient
       inkscape:collect="always"
       xlink:href="#linearGradient-1"
       id="linearGradient3"
       gradientUnits="userSpaceOnUse"
       x1="256"
       y1="512"
       x2="256"
       y2="0" />
    <filter
       style="color-interpolation-filters:sRGB;"
       inkscape:label="Drop Shadow"
       id="filter9"
       x="-0.029296661"
       y="-0.026315174"
       width="1.0830072"
       height="1.0526303">
      <feFlood
         result="flood"
         in="SourceGraphic"
         flood-opacity="0.498039"
         flood-color="rgb(0,0,0)"
         id="feFlood8" />
      <feGaussianBlur
         result="blur"
         in="SourceGraphic"
         stdDeviation="0.500000"
         id="feGaussianBlur8" />
      <feOffset
         result="offset"
         in="blur"
         dx="1.000000"
         dy="0.000000"
         id="feOffset8" />
      <feComposite
         result="comp1"
         operator="in"
         in="flood"
         in2="offset"
         id="feComposite8" />
      <feComposite
         result="comp2"
         operator="over"
         in="SourceGraphic"
         in2="comp1"
         id="feComposite9" />
    </filter>
    <filter
       style="color-interpolation-filters:sRGB;"
       inkscape:label="Drop Shadow"
       id="filter2"
       x="-0.03073054"
       y="-0.024999992"
       width="1.0870776"
       height="1.0499997">
      <feFlood
         result="flood"
         in="SourceGraphic"
         flood-opacity="0.498039"
         flood-color="rgb(0,0,0)"
         id="feFlood1" />
      <feGaussianBlur
         result="blur"
         in="SourceGraphic"
         stdDeviation="0.500000"
         id="feGaussianBlur1" />
      <feOffset
         result="offset"
         in="blur"
         dx="1.000000"
         dy="0.000000"
         id="feOffset1" />
      <feComposite
         result="comp1"
         operator="in"
         in="flood"
         in2="offset"
         id="feComposite1" />
      <feComposite
         result="comp2"
         operator="over"
         in="SourceGraphic"
         in2="comp1"
         id="feComposite2" />
    </filter>
    <filter
       style="color-interpolation-filters:sRGB;"
       inkscape:label="Drop Shadow"
       id="filter39"
       x="-0.18441003"
       y="-0.14999995"
       width="1.4072432"
       height="1.2999996">
      <feFlood
         result="flood"
         in="SourceGraphic"
         flood-opacity="0.498039"
         flood-color="rgb(0,0,0)"
         id="feFlood38" />
      <feGaussianBlur
         result="blur"
         in="SourceGraphic"
         stdDeviation="1.000000"
         id="feGaussianBlur38" />
      <feOffset
         result="offset"
         in="blur"
         dx="0.500000"
         dy="0.000000"
         id="feOffset38" />
      <feComposite
         result="comp1"
         operator="in"
         in="flood"
         in2="offset"
         id="feComposite38" />
      <feComposite
         result="fbSourceGraphic"
         operator="over"
         in="SourceGraphic"
         in2="comp1"
         id="feComposite39" />
      <feColorMatrix
         result="fbSourceGraphicAlpha"
         in="fbSourceGraphic"
         values="0 0 0 -1 0 0 0 0 -1 0 0 0 0 -1 0 0 0 0 1 0"
         id="feColorMatrix39" />
      <feFlood
         id="feFlood39"
         result="flood"
         in="fbSourceGraphic"
         flood-opacity="0.498039"
         flood-color="rgb(0,0,0)" />
      <feGaussianBlur
         id="feGaussianBlur39"
         result="blur"
         in="fbSourceGraphic"
         stdDeviation="1.000000" />
      <feOffset
         id="feOffset39"
         result="offset"
         in="blur"
         dx="0.500000"
         dy="0.000000" />
      <feComposite
         id="feComposite40"
         result="comp1"
         operator="in"
         in="flood"
         in2="offset" />
      <feComposite
         id="feComposite41"
         result="fbSourceGraphic"
         operator="over"
         in="fbSourceGraphic"
         in2="comp1" />
      <feColorMatrix
         result="fbSourceGraphicAlpha"
         in="fbSourceGraphic"
         values="0 0 0 -1 0 0 0 0 -1 0 0 0 0 -1 0 0 0 0 1 0"
         id="feColorMatrix41" />
      <feFlood
         id="feFlood41"
         result="flood"
         in="fbSourceGraphic"
         flood-opacity="0.498039"
         flood-color="rgb(0,0,0)" />
      <feGaussianBlur
         id="feGaussianBlur41"
         result="blur"
         in="fbSourceGraphic"
         stdDeviation="1.000000" />
      <feOffset
         id="feOffset41"
         result="offset"
         in="blur"
         dx="0.500000"
         dy="0.000000" />
      <feComposite
         id="feComposite42"
         result="comp1"
         operator="in"
         in="flood"
         in2="offset" />
      <feComposite
         id="feComposite43"
         result="comp2"
         operator="over"
         in="fbSourceGraphic"
         in2="comp1" />
    </filter>
    <filter
       style="color-interpolation-filters:sRGB;"
       inkscape:label="Drop Shadow"
       id="filter47"
       x="-0.061466439"
       y="-0.049999984"
       width="1.1741626"
       height="1.0999996">
      <feFlood
         result="flood"
         in="SourceGraphic"
         flood-opacity="0.498039"
         flood-color="rgb(0,0,0)"
         id="feFlood46" />
      <feGaussianBlur
         result="blur"
         in="SourceGraphic"
         stdDeviation="0.500000"
         id="feGaussianBlur46" />
      <feOffset
         result="offset"
         in="blur"
         dx="1.000000"
         dy="0.000000"
         id="feOffset46" />
      <feComposite
         result="comp1"
         operator="in"
         in="flood"
         in2="offset"
         id="feComposite46" />
      <feComposite
         result="fbSourceGraphic"
         operator="over"
         in="SourceGraphic"
         in2="comp1"
         id="feComposite47" />
      <feColorMatrix
         result="fbSourceGraphicAlpha"
         in="fbSourceGraphic"
         values="0 0 0 -1 0 0 0 0 -1 0 0 0 0 -1 0 0 0 0 1 0"
         id="feColorMatrix47" />
      <feFlood
         id="feFlood47"
         result="flood"
         in="fbSourceGraphic"
         flood-opacity="0.498039"
         flood-color="rgb(0,0,0)" />
      <feGaussianBlur
         id="feGaussianBlur47"
         result="blur"
         in="fbSourceGraphic"
         stdDeviation="0.500000" />
      <feOffset
         id="feOffset47"
         result="offset"
         in="blur"
         dx="1.000000"
         dy="0.000000" />
      <feComposite
         id="feComposite48"
         result="comp1"
         operator="in"
         in="flood"
         in2="offset" />
      <feComposite
         id="feComposite49"
         result="comp2"
         operator="over"
         in="fbSourceGraphic"
         in2="comp1" />
    </filter>
    <filter
       style="color-interpolation-filters:sRGB;"
       inkscape:label="Drop Shadow"
       id="filter51"
       x="-0.12896713"
       y="-0.09982076"
       width="1.311676"
       height="1.1996412">
      <feFlood
         result="flood"
         in="SourceGraphic"
         flood-opacity="0.498039"
         flood-color="rgb(0,0,0)"
         id="feFlood49" />
      <feGaussianBlur
         result="blur"
         in="SourceGraphic"
         stdDeviation="1.000000"
         id="feGaussianBlur49" />
      <feOffset
         result="offset"
         in="blur"
         dx="1.000000"
         dy="0.000000"
         id="feOffset49" />
      <feComposite
         result="comp1"
         operator="in"
         in="flood"
         in2="offset"
         id="feComposite50" />
      <feComposite
         result="fbSourceGraphic"
         operator="over"
         in="SourceGraphic"
         in2="comp1"
         id="feComposite51" />
      <feColorMatrix
         result="fbSourceGraphicAlpha"
         in="fbSourceGraphic"
         values="0 0 0 -1 0 0 0 0 -1 0 0 0 0 -1 0 0 0 0 1 0"
         id="feColorMatrix51" />
      <feFlood
         id="feFlood51"
         result="flood"
         in="fbSourceGraphic"
         flood-opacity="0.498039"
         flood-color="rgb(0,0,0)" />
      <feGaussianBlur
         id="feGaussianBlur51"
         result="blur"
         in="fbSourceGraphic"
         stdDeviation="1.000000" />
      <feOffset
         id="feOffset51"
         result="offset"
         in="blur"
         dx="1.000000"
         dy="0.000000" />
      <feComposite
         id="feComposite52"
         result="comp1"
         operator="in"
         in="flood"
         in2="offset" />
      <feComposite
         id="feComposite53"
         result="comp2"
         operator="over"
         in="fbSourceGraphic"
         in2="comp1" />
    </filter>
  </defs>
  <metadata
     id="metadata3">
    <rdf:RDF>
      <cc:Work
         rdf:about="">
        <dc:title>Vector Perfect Qute Qube</dc:title>
      </cc:Work>
    </rdf:RDF>
  </metadata>
  <g
     id="g1"
     style="filter:url(#filter51)">
    <g
       id="Vector-Perfect-Qute-Qube"
       stroke="none"
       stroke-width="1"
       fill="none"
       fill-rule="evenodd"
       style="font-variation-settings:normal;opacity:1;vector-effect:none;fill:url(#linearGradient1);fill-opacity:1;stroke:none;stroke-width:0.07;stroke-linecap:butt;stroke-linejoin:miter;stroke-miterlimit:4;stroke-dasharray:none;stroke-dashoffset:0;stroke-opacity:1;-inkscape-stroke:none;stop-color:#000000;stop-opacity:1"
       transform="matrix(0.9086174,0,0,0.9086174,2.1931824,5.4762438)">
      <g
         id="FromIllustrator"
         transform="translate(3)"
         style="font-variation-settings:normal;vector-effect:none;fill:url(#linearGradient3);fill-opacity:1;stroke:none;stroke-width:0.07;stroke-linecap:butt;stroke-linejoin:miter;stroke-miterlimit:4;stroke-dasharray:none;stroke-dashoffset:0;stroke-opacity:1;-inkscape-stroke:none;stop-color:#000000;stop-opacity:1">
        <g
           id="Main"
           transform="translate(0,0.6395)"
           style="font-variation-settings:normal;display:inline;vector-effect:none;fill:url(#linearGradient2);fill-opacity:1;stroke:none;stroke-width:0.07;stroke-linecap:butt;stroke-linejoin:miter;stroke-miterlimit:4;stroke-dasharray:none;stroke-dashoffset:0;stroke-opacity:1;-inkscape-stroke:none;stop-color:#000000;stop-opacity:1">
          <mask
             id="mask-4"
             fill="#ffffff">
            <use
               xlink:href="#path-3"
               id="use2" />
          </mask>
          <path
             d="m 18.5949,0.907 -8.223,4.748 -8.222,4.747 c -0.627,0.362 -1.135,0.877 -1.486,1.481 -0.352,0.606 -0.548,1.301 -0.552,2.024 l -0.056,9.351 -0.0560606432,9.35 C -0.0041,33.345 0.1899,34.054 0.5459,34.67 c 0.356,0.616 0.873,1.14 1.513,1.505 l 8.125,4.626 8.126,4.627 c 0.629,0.358 1.329,0.536 2.029,0.534017 0.7,-0.002 1.4,-0.184017 2.027,-0.546017 l 8.222,-4.748 8.223,-4.747 c 0.627,-0.361 1.134,-0.876 1.486,-1.481 0.352,-0.606 0.548,-1.301 0.552,-2.025 l 0.056,-9.35 0.05509,-9.35 c 0.0049,-0.737 -0.19009,-1.446 -0.54609,-2.062 -0.356,-0.617 -0.873,-1.14 -1.513,-1.504 L 30.7759,5.522 22.6509,0.895 C 22.0219,0.536 21.3219,0.359 20.6209,0.36098324 19.9219,0.363 19.2219,0.545 18.5949,0.907"
             id="Qube"
             fill="#585858"
             mask="url(#mask-4)"
             style="font-variation-settings:normal;display:inline;vector-effect:none;fill:#7e4798;fill-opacity:1;stroke:none;stroke-width:0.07;stroke-linecap:butt;stroke-linejoin:miter;stroke-miterlimit:4;stroke-dasharray:none;stroke-dashoffset:0;stroke-opacity:1;-inkscape-stroke:none;stop-color:#000000;stop-opacity:1"
             transform="translate(0.5200031,0.19899165)" />
          <path
             d="m 18.5949,0.907 -8.223,4.748 -8.222,4.747 c -0.627,0.362 -1.135,0.877 -1.486,1.481 -0.352,0.606 -0.548,1.301 -0.552,2.024 l -0.056,9.351 -0.0560606432,9.35 C -0.0041,33.345 0.1899,34.054 0.5459,34.67 c 0.356,0.616 0.873,1.14 1.513,1.505 l 8.125,4.626 8.126,4.627 c 0.629,0.358 1.329,0.536 2.029,0.534017 0.7,-0.002 1.4,-0.184017 2.027,-0.546017 l 8.222,-4.748 8.223,-4.747 c 0.627,-0.361 1.134,-0.876 1.486,-1.481 0.352,-0.606 0.548,-1.301 0.552,-2.025 l 0.056,-9.35 0.05509,-9.35 c 0.0049,-0.737 -0.19009,-1.446 -0.54609,-2.062 -0.356,-0.617 -0.873,-1.14 -1.513,-1.504 L 30.7759,5.522 22.6509,0.895 C 22.0219,0.536 21.3219,0.359 20.6209,0.36098324 19.9219,0.363 19.2219,0.545 18.5949,0.907"
             id="Qube-5"
             fill="#585858"
             mask="url(#mask-4-5)"
             style="font-variation-settings:normal;display:inline;vector-effect:none;fill:#f6e4ff;fill-opacity:1;stroke:none;stroke-width:0.07;stroke-linecap:butt;stroke-linejoin:miter;stroke-miterlimit:4;stroke-dasharray:none;stroke-dashoffset:0;stroke-opacity:1;-inkscape-stroke:none;stop-color:#000000"
             transform="matrix(0.91039132,0,0,0.91039132,2.3551886,2.2744638)" />
        </g>
      </g>
    </g>
    <g
       id="onion"
       transform="matrix(0.44756198,0,0,0.46127973,-11.349479,-0.08627872)">
      <g
         id="layer3_22_"
         transform="translate(-92,-63.999774)"
         style="display:inline">
        <g
           id="layer5_22_">
          <g
             id="path2554_38_">
            <path
               fill="#68b044"
               d="m 176.9,70.8 -2.4,9.6 c 3.4,-6.8 8.9,-11.9 15.2,-16.4 -4.6,5.3 -8.8,10.6 -11.3,16 4.3,-6.1 10.1,-9.4 16.6,-11.7 -8.7,7.7 -15.6,16.1 -20.8,24.4 L 170,90.9 c 0.7,-6.7 3.2,-13.5 6.9,-20.1 z"
               id="path1" />
          </g>
          <g
             id="path2534_13_">
            <path
               fill="#f5f8de"
               d="m 165.8,89.1 7.9,3.3 c 0,2 -0.2,8.2 1.1,10 13.2,17 11,51.2 -2.7,52 -20.8,0 -28.8,-14.1 -28.8,-27.1 0,-11.9 14.2,-19.7 22.7,-26.7 2.3,-1.9 1.9,-6.1 -0.2,-11.5 z"
               id="path2" />
          </g>
          <g
             id="path2536_23_">
            <path
               fill="#7e4798"
               d="m 173.7,92.3 2.9,1.5 c -0.3,1.9 0.1,6.1 2,7.1 8.4,5.2 16.2,10.8 19.3,16.5 11,19.9 -7.7,38.4 -24,36.6 8.8,-6.5 11.4,-19.9 8.1,-34.6 -1.3,-5.7 -3.4,-10.9 -7.1,-16.8 -1.6,-2.7 -1,-6.3 -1.2,-10.3 z"
               id="path3" />
          </g>
        </g>
        <g
           id="layer4_22_">
          <g
             id="path2540_23_">
            <path
               fill="#010101"
               d="m 170.5,101.8 c -0.6,3.1 -1.3,8.7 -4,10.8 -1.1,0.8 -2.3,1.6 -3.5,2.4 -4.9,3.3 -9.7,6.4 -11.9,14.3 -0.5,1.7 -0.1,3.5 0.3,5.2 1.2,4.9 4.6,10.1 7.3,13.2 0,0.1 0.5,0.5 0.5,0.6 2.2,2.6 2.9,3.4 11.3,5.3 l -0.2,0.9 c -5.1,-1.3 -9.2,-2.6 -11.9,-5.6 0,-0.1 -0.5,-0.5 -0.5,-0.5 -2.8,-3.2 -6.3,-8.6 -7.5,-13.7 -0.5,-2 -0.9,-3.6 -0.3,-5.7 2.3,-8.2 7.3,-11.5 12.3,-14.9 1.1,-0.7 2.5,-1.4 3.6,-2.3 2.3,-1.5 3.4,-6.2 4.5,-10 z"
               id="path4" />
          </g>
          <g
             id="path2542_23_">
            <path
               fill="#010101"
               d="m 172.7,114.8 c 0.1,3.5 -0.3,5.3 0.6,7.8 0.5,1.5 2.4,3.5 2.9,5.5 0.7,2.6 1.5,5.5 1.5,7.3 0,2 -0.1,5.8 -1,9.8 -0.7,3.3 -2.2,6.2 -4.8,7.8 -2.7,-0.5 -5.8,-1.5 -7.6,-3.1 -3.6,-3.1 -6.7,-8.3 -7.1,-12.8 -0.3,-3.7 3.1,-9.2 7.9,-11.9 4,-2.4 5,-5 5.9,-9.4 -1.2,3.8 -2.4,6.9 -6.3,9 -5.7,3 -8.6,7.9 -8.3,12.7 0.4,6.1 2.8,10.2 7.6,13.5 2,1.4 5.8,2.9 8.2,3.3 V 154 c 1.8,-0.3 4.1,-3.3 5.3,-7.2 1,-3.6 1.4,-8.1 1.3,-11 -0.1,-1.7 -0.8,-5.3 -2.2,-8.6 -0.7,-1.8 -1.9,-3.6 -2.6,-4.9 -0.9,-1.5 -0.9,-4.3 -1.3,-7.5 z"
               id="path5" />
          </g>
          <g
             id="path2544_23_">
            <path
               fill="#010101"
               d="m 172.1,128.5 c 0.1,2.4 1,5.4 1.4,8.5 0.3,2.3 0.2,4.6 0.1,6.6 -0.1,2.3 -0.8,6.5 -1.9,8.6 -1,-0.5 -1.4,-1 -2.1,-1.8 -0.8,-1.1 -1.4,-2.3 -1.9,-3.6 -0.4,-1 -0.9,-2.2 -1.1,-3.5 -0.3,-2 -0.2,-5.2 2.1,-8.4 1.8,-2.6 2.2,-2.8 2.8,-5.7 -0.8,2.6 -1.4,2.9 -3.3,5.1 -2.1,2.4 -2.4,6 -2.4,8.9 0,1.2 0.5,2.6 1,3.8 0.5,1.3 1,2.7 1.7,3.7 1.1,1.6 2.5,2.6 3.2,2.7 0,0 0,0 0,0 0,0 0,0 0,0 v -0.1 c 1.3,-1.5 2.1,-2.9 2.4,-4.4 0.3,-1.8 0.4,-3.5 0.6,-5.6 0.2,-1.8 0.1,-4.1 -0.4,-6.5 -0.6,-3 -1.7,-6.1 -2.2,-8.3 z"
               id="path6" />
          </g>
          <g
             id="path2550_23_">
            <path
               fill="#010101"
               d="m 172.5,99 c 0.1,3.5 0.3,10 1.3,12.6 0.3,0.9 2.8,4.7 4.5,9.4 1.2,3.2 1.5,6.2 1.7,7.1 0.8,3.8 -0.2,10.3 -1.5,16.4 -0.7,3.3 -3,7.4 -5.6,9 l -0.5,0.9 c 1.5,-0.1 5.1,-3.6 6.4,-8.1 2.2,-7.5 3,-11 2,-19.4 -0.1,-0.8 -0.5,-3.6 -1.8,-6.5 -1.9,-4.5 -4.6,-8.8 -4.9,-9.7 -0.7,-1.4 -1.5,-7.6 -1.6,-11.7 z"
               id="path7" />
          </g>
          <g
             id="path2552_23_">
            <path
               fill="#010101"
               d="m 173.7,92.6 c -0.2,3.6 -0.2,6.4 0.4,9.1 0.7,2.9 4.5,7.1 6.1,11.9 3,9.2 2.2,21.2 0.1,30.5 -0.8,3.3 -4.6,8.1 -8.5,9.6 l 2.8,0.7 c 1.5,-0.1 5.5,-3.8 7.1,-8 2.5,-6.7 3,-14.6 2,-23 -0.1,-0.8 -1.4,-8 -2.7,-11 -1.8,-4.5 -4.7,-7.7 -5.7,-10.5 -0.8,-2.1 -1.1,-7.7 -0.6,-8.8 z"
               id="path8" />
          </g>
        </g>
      </g>
      <path
         fill="#010101"
         d="m 101.7,46.3 c -2.9,-2.6 -6.5,-4.8 -10.3,-6.9 -1.7,-0.9 -6.9,-5 -5.1,-10.8 l -13.1,-5.4 -0.9,0.7 c 4.4,7.9 2.1,12.1 -0.1,13.5 -4.4,3 -10.8,6.8 -13.9,10.1 -6.1,6.3 -7.9,12.3 -7.3,20.1 0.6,10.1 7.9,18.5 17.8,21.8 4.3,1.4 8.3,1.6 12.7,1.6 7.1,0 14.5,-1.9 19.8,-6.3 5.7,-4.7 9,-11.8 9,-19.1 0,-7.3 -3.1,-14.3 -8.6,-19.3 z M 99.8,83.2 C 94.9,87.2 86.1,90 81.4,89.8 76.2,89.5 71.1,88.7 66.6,86.5 58.7,82.7 53.5,74.4 53.1,67.7 52.4,54 59,50.1 65.1,45.1 c 3.4,-2.8 8.2,-4.2 10.9,-9.2 0.5,-1.1 0.8,-3.5 0.2,-6 -0.3,-0.9 -1.5,-3.9 -2,-4.6 l 9.8,4.3 c -1.2,4.5 2.5,9.2 5.5,10.9 3,1.7 7.7,4.9 10.6,7.5 5.1,4.5 7.7,10.9 7.7,17.6 0,6.7 -2.8,13.3 -8,17.6 z"
         id="path11"
         style="display:inline" />
    </g>
  </g>
</svg>
