<?xml version="1.0" encoding="UTF-8" standalone="no"?>
<svg
   width="48px"
   height="48px"
   viewBox="0 0 48 48"
   version="1.1"
   id="svg3"
   sodipodi:docname="qube-archlinux.svg"
   inkscape:version="1.3.2 (091e20ef0f, 2023-11-25)"
   xmlns:inkscape="http://www.inkscape.org/namespaces/inkscape"
   xmlns:sodipodi="http://sodipodi.sourceforge.net/DTD/sodipodi-0.dtd"
   xmlns:xlink="http://www.w3.org/1999/xlink"
   xmlns="http://www.w3.org/2000/svg"
   xmlns:svg="http://www.w3.org/2000/svg"
   xmlns:rdf="http://www.w3.org/1999/02/22-rdf-syntax-ns#"
   xmlns:cc="http://creativecommons.org/ns#"
   xmlns:dc="http://purl.org/dc/elements/1.1/">
  <sodipodi:namedview
     id="namedview3"
     pagecolor="#ffffff"
     bordercolor="#000000"
     borderopacity="0.25"
     inkscape:showpageshadow="2"
     inkscape:pageopacity="0.0"
     inkscape:pagecheckerboard="0"
     inkscape:deskcolor="#d1d1d1"
     inkscape:zoom="8.7946406"
     inkscape:cx="17.681223"
     inkscape:cy="33.713714"
     inkscape:window-width="1440"
     inkscape:window-height="843"
     inkscape:window-x="0"
     inkscape:window-y="33"
     inkscape:window-maximized="1"
     inkscape:current-layer="svg3" />
  <title
     id="title">Vector Perfect Qute Qube</title>
  <defs
     id="defs1">
    <polygon
       id="path-1"
       points="0.264506174 0.398583241 40.0936 0.398583241 40.0936 46 0.264506174 46" />
    <polygon
       id="path-3"
       points="0 0.361 40.9599938 0.361 40.9599938 45.9620167 0 45.9620167" />
    <mask
       id="mask-2"
       fill="white">
      <use
         xlink:href="#path-1"
         id="use1" />
    </mask>
    <mask
       id="mask-4-67"
       fill="white">
      <use
         xlink:href="#path-3"
         id="use2-5" />
    </mask>
  </defs>
  <metadata
     id="metadata3">
    <rdf:RDF>
      <cc:Work
         rdf:about="">
        <dc:title>Vector Perfect Qute Qube</dc:title>
      </cc:Work>
    </rdf:RDF>
  </metadata>
  <g
     id="Vector-Perfect-Qute-Qube"
     transform="translate(16.755919,35.188365)"
     style="fill:#1793d1;fill-opacity:1">
    <g
       id="Shado"
       transform="translate(-11.802719,-34.368865)"
       style="fill:#1793d1;fill-opacity:1">
      <mask
         id="mask3"
         fill="#ffffff">
        <use
           xlink:href="#path-1"
           id="use3" />
      </mask>
      <g
         id="Clip-2"
         style="fill:#1793d1;fill-opacity:1" />
      <path
         d="m 18.8596,0.9446 -8.223,4.747 -8.222,4.748 c -0.627,0.361 -1.135,0.876 -1.487,1.482 -0.351,0.605 -0.547,1.3 -0.552,2.024 l -0.056,9.35 -0.0550938,9.35 C 0.2596,33.3826 0.4546,34.0916 0.8106,34.7086 c 0.356,0.616 0.873,1.139 1.513,1.504 l 8.125,4.627 8.125,4.626 c 0.629,0.359 1.33,0.537 2.03,0.535017 0.7,-0.002 1.399,-0.185017 2.026,-0.547017 l 7.656,-4.521 7.657,-4.52 c 0.626,-0.363 1.162,-0.962 1.542,-1.652 0.38,-0.69 0.604,-1.47 0.609,-2.195 l -0.001,-9.35 -10e-4,-9.349 c 0.004,-0.737 -0.134,-1.588 -0.433,-2.347 -0.299,-0.758 -0.759,-1.423 -1.4,-1.787 l -7.671,-4.4 -7.672,-4.4 c -0.629,-0.359 -1.33,-0.536 -2.03,-0.53401676 C 20.1856,0.4006 19.4866,0.5826 18.8596,0.9446"
         id="Fill-1"
         fill="#0e2276"
         mask="url(#mask-2)"
         style="fill:#0d5376;fill-opacity:1" />
    </g>
    <g
       id="Main-3"
       transform="translate(-13.802719,-34.368865)"
       style="fill:#1793d1;fill-opacity:1">
      <mask
         id="mask4"
         fill="#ffffff">
        <use
           xlink:href="#path-3"
           id="use4" />
      </mask>
      <g
         id="Clip-5"
         style="fill:#1793d1;fill-opacity:1" />
      <path
         d="m 18.5949,0.907 -8.223,4.748 -8.222,4.747 c -0.627,0.362 -1.135,0.877 -1.486,1.481 -0.352,0.606 -0.548,1.301 -0.552,2.024 l -0.056,9.351 -0.0560606432,9.35 C -0.0041,33.345 0.1899,34.054 0.5459,34.67 c 0.356,0.616 0.873,1.14 1.513,1.505 l 8.125,4.626 8.126,4.627 c 0.629,0.358 1.329,0.536 2.029,0.534017 0.7,-0.002 1.4,-0.184017 2.027,-0.546017 l 8.222,-4.748 8.223,-4.747 c 0.627,-0.361 1.134,-0.876 1.486,-1.481 0.352,-0.606 0.548,-1.301 0.552,-2.025 l 0.056,-9.35 0.05509,-9.35 c 0.0049,-0.737 -0.19009,-1.446 -0.54609,-2.062 -0.356,-0.617 -0.873,-1.14 -1.513,-1.504 L 30.7759,5.522 22.6509,0.895 C 22.0219,0.536 21.3219,0.359 20.6209,0.36098324 19.9219,0.363 19.2219,0.545 18.5949,0.907"
         id="Fill-4"
         fill="#4488df"
         mask="url(#mask-4-67)"
         style="fill:#1793d1;fill-opacity:1" />
    </g>
  </g>
  <path
     d="m 23.997116,4.0162083 c -1.344329,3.2959379 -2.155164,5.4518676 -3.651898,8.6498287 0.917687,0.972748 2.044102,2.105559 3.873397,3.384964 C 22.251943,15.241727 20.910432,14.429236 19.907899,13.586112 17.992364,17.583169 14.991272,23.276801 8.9010898,34.21962 13.687768,31.456186 17.398317,29.752501 20.85637,29.102419 20.70788,28.463765 20.623458,27.772937 20.629191,27.052131 l 0.0058,-0.153346 c 0.07594,-3.066698 1.671248,-5.424989 3.561026,-5.264866 1.889781,0.160123 3.358686,2.777471 3.282734,5.844172 -0.01428,0.577056 -0.07937,1.132177 -0.193102,1.647047 3.420508,0.669111 7.091381,2.368435 11.813294,5.094482 -0.931069,-1.714164 -1.762129,-3.259356 -2.555761,-4.730996 -1.250099,-0.968911 -2.554015,-2.229951 -5.213751,-3.595103 1.828151,0.475029 3.137084,1.023089 4.15737,1.635686 C 27.417605,12.505997 26.764181,10.509724 23.997116,4.0162083 Z"
     id="path2518"
     style="fill:#ffffff;fill-opacity:1;fill-rule:evenodd;stroke:none;stroke-width:0.181743" />
</svg>
