<?xml version="1.0" encoding="UTF-8" standalone="no"?>
<svg
   width="48px"
   height="48px"
   viewBox="0 0 48 48"
   version="1.1"
   id="svg3"
   sodipodi:docname="qube-msdos.svg"
   inkscape:version="1.3.2 (091e20ef0f, 2023-11-25)"
   xmlns:inkscape="http://www.inkscape.org/namespaces/inkscape"
   xmlns:sodipodi="http://sodipodi.sourceforge.net/DTD/sodipodi-0.dtd"
   xmlns:xlink="http://www.w3.org/1999/xlink"
   xmlns="http://www.w3.org/2000/svg"
   xmlns:svg="http://www.w3.org/2000/svg"
   xmlns:rdf="http://www.w3.org/1999/02/22-rdf-syntax-ns#"
   xmlns:cc="http://creativecommons.org/ns#"
   xmlns:dc="http://purl.org/dc/elements/1.1/">
  <sodipodi:namedview
     id="namedview3"
     pagecolor="#ffffff"
     bordercolor="#000000"
     borderopacity="0.25"
     inkscape:showpageshadow="2"
     inkscape:pageopacity="0.0"
     inkscape:pagecheckerboard="0"
     inkscape:deskcolor="#d1d1d1"
     inkscape:zoom="8.7946406"
     inkscape:cx="17.169548"
     inkscape:cy="28.938079"
     inkscape:window-width="1440"
     inkscape:window-height="843"
     inkscape:window-x="0"
     inkscape:window-y="33"
     inkscape:window-maximized="1"
     inkscape:current-layer="svg3" />
  <title
     id="title">Vector Perfect Qute Qube</title>
  <defs
     id="defs1">
    <polygon
       id="path-1"
       points="0.264506174 0.398583241 40.0936 0.398583241 40.0936 46 0.264506174 46" />
    <polygon
       id="path-3"
       points="0 0.361 40.9599938 0.361 40.9599938 45.9620167 0 45.9620167" />
    <polygon
       id="path-5"
       points="0 0.0254 20.6328606 0.0254 20.6328606 33.9504 0 33.9504" />
    <mask
       id="mask-4-7"
       fill="#ffffff">
      <use
         xlink:href="#path-3"
         id="use2-5" />
    </mask>
    <mask
       id="mask-4-6"
       fill="#ffffff">
      <use
         xlink:href="#path-3"
         id="use2-7" />
    </mask>
  </defs>
  <metadata
     id="metadata3">
    <rdf:RDF>
      <cc:Work
         rdf:about="">
        <dc:title>Vector Perfect Qute Qube</dc:title>
      </cc:Work>
    </rdf:RDF>
  </metadata>
  <g
     id="g4"
     transform="matrix(1.1377778,0,0,1.1377778,-3.3066672,-3.3066672)">
    <rect
       style="fill:#000000;fill-opacity:0.980392;stroke:none;stroke-width:1.97909;stroke-linecap:round;stroke-linejoin:round;paint-order:markers fill stroke"
       id="rect3"
       width="36"
       height="38"
       x="6"
       y="5" />
    <rect
       style="fill:#ffffff;fill-opacity:0.980392;stroke:none;stroke-width:1.87203;stroke-linecap:round;stroke-linejoin:round;paint-order:markers fill stroke"
       id="rect4"
       width="34"
       height="36"
       x="7"
       y="6" />
    <g
       id="g11"
       transform="matrix(0.0625,0,0,0.0625,9,8)">
      <path
         d="M 16,0 V 192 H 0 v 304 h 16 v 16 h 144 v -16 h 32 v 16 h 112 v -16 h 16 v 16 h 96 v -16 h 32 v -16 h 16 v -16 h 16 V 352 h -16 v -16 h -16 v -16 h -32 v -16 h -32 v -32 h 16 v 16 h 16 v 16 h 48 v -16 h 16 v -48 h -16 v -16 h -16 v -16 h -32 v -16 h 16 v -16 h 16 V 128 H 432 V 112 H 416 V 96 H 384 V 80 H 336 V 48 h 48 v 32 h 64 V 32 H 432 V 16 H 400 V 0 h -80 v 16 h -32 v 16 h -16 v 64 h 16 v 16 h 32 v 16 h 48 v 16 h 16 v 16 h -48 v -16 h -16 v -16 h -48 v 48 h 16 v 16 h 16 v 16 H 288 V 192 H 256 V 0 h -64 v 16 h -16 v 32 h -16 v 32 h -16 v 32 H 128 V 80 H 112 V 48 H 96 V 16 H 80 V 0 Z m 64,144 h 16 v 32 h 16 v 16 H 80 Z m 96,0 h 16 v 48 h -16 v 16 h -16 v -32 h 16 z M 80,304 h 32 v 80 h 16 v 16 H 80 Z m 160,0 h 16 v 16 h 16 v 16 h 16 v 16 h 16 v 16 h -32 v 16 h -16 v 16 h -16 z m 128,80 h 32 v 16 h -32 z"
         id="path1" />
      <path
         d="m 272,464 v 16 h 16 v -16 h -16 m 16,32 h 16 v -16 h -16 v 16 m 32,-112 h 16 v -16 h -16 v 16 m -128,96 v 16 h 16 v -16 h -16 m 32,-16 h -16 v 16 h 16 v -16 m 16,16 h 16 v -16 h -16 v 16 m 16,0 v 16 h 16 v -16 h -16 m -16,16 v -16 h -16 v 16 h 16 m 0,-208 h 16 v -16 h -16 v 16 m -80,48 h 16 v -16 h -16 v 16 m 16,16 h -16 v 16 h 16 v -16 m -16,-64 v 16 h 16 v -16 h -16 m 160,48 v 16 h 16 v -16 h -16 m 0,-48 h 16 v -16 h -16 v 16 m 16,16 h -16 v 16 h 16 v -16 m -64,-64 v -16 h -16 v 16 h 16 m 16,-16 v -16 h -16 v 16 z"
         fill="#000080"
         id="path2" />
      <path
         d="m 272,480 v 16 h 16 v -16 h -16 m -80,-16 v 16 h 16 v -16 h -16 m 16,32 h 16 v -16 h -16 v 16 m 48,-32 v 16 h 16 v -16 h -16 m -16,16 v -16 h -16 v 16 h 16 v 16 h 16 V 480 H 240 M 176,272 h 16 v -16 h -16 v 16 m -16,64 v 16 h 16 v -16 h -16 m 0,-48 h 16 v -16 h -16 v 16 m 16,16 h -16 v 16 h 16 v -16 m 80,-48 h -16 v 16 h 16 v -16 m 64,80 h 16 v -16 h -16 v 16 m 16,16 h -16 v 16 h 16 v -16 m -16,-64 v 16 h 16 v -16 z"
         fill="#800080"
         id="path3" />
      <path
         d="m 352,384 v -16 h -16 v 16 h 16 M 144,368 h -16 v 16 h 16 v -16 m 16,32 v -16 h -16 v 16 h 16 m 80,32 h 16 v -16 h -16 v 16 m 16,16 h -16 v 16 h 16 v -16 m -32,-16 v 16 h 16 v -16 h -16 m 0,16 h -16 v 16 h 16 v -16 m -64,-96 h -16 v 16 h 16 v -16 m -16,-32 v 16 h 16 v -16 h -16 m -16,32 h 16 v -16 h -16 v 16 m 16,-48 h -16 v 16 h 16 v -16 m 0,-32 h -16 v 16 h 16 v -16 m 16,32 v -16 h -16 v 16 h 16 m 0,-48 h -16 v 16 h 16 v -16 m 0,-16 v 16 h 16 v -16 h -16 m 96,-16 h -16 v 16 h 16 v -16 m -64,16 v -16 h -16 v 16 h 16 m 32,0 v 16 h 16 v -16 h -16 m -32,0 v 16 h 16 v -16 h -16 m 16,-16 v -16 h -16 v 16 h 16 m 16,-16 v 16 h 16 v -16 h -16 m 0,16 h -16 v 16 h 16 v -16 m 144,128 h -16 v 16 h 16 v -16 m 0,-32 h -16 v 16 h 16 v -16 m -16,-16 h 16 v -16 h -16 v 16 m -16,0 v 16 h 16 v -16 h -16 m 0,32 v 16 h 16 v -16 h -16 m 0,-64 v 16 h 16 v -16 h -16 m -64,-48 v -16 h -16 v 16 z"
         fill="#ff00ff"
         id="path4" />
      <path
         d="m 352,400 v -16 h -16 v 16 h 16 m 16,-32 h -16 v 16 h 16 v -16 m -112,80 v 16 h 16 v -16 h -16 m -96,-64 v -16 h -16 v 16 h 16 m 80,64 h -16 v 16 h 16 v -16 m 0,-16 v 16 h 16 v -16 h -16 m -16,-16 v 16 h 16 v -16 h -16 m -16,32 h -16 v 16 h 16 v -16 h 16 v -16 h -16 v 16 M 144,320 h 16 v -16 h -16 v 16 m 0,16 v 16 h 16 v -16 h -16 m 0,16 h -16 v 16 h 16 v -16 m 0,-32 h -16 v 16 h 16 v -16 m -16,-16 h 16 v -16 h -16 v 16 m 32,-16 v -16 h -16 v 16 h 16 m 16,-32 h -16 v 16 h 16 v -16 m 0,-32 h -16 v 16 h 16 v -16 m -32,16 v 16 h 16 v -16 h -16 m 96,0 v 16 h 16 v -16 h -16 m 16,-16 v -16 h -16 v 16 h 16 m -32,0 v 16 h 16 v -16 h -16 m -16,16 v -16 h -16 v 16 h 16 v 16 h 16 v -16 h -16 m -16,16 v -16 h -16 v 16 h 16 m 0,-32 v -16 h -16 v 16 h 16 m 16,0 h 16 v -16 h -16 v 16 m 144,128 h -16 v 16 h 16 v -16 h 16 v -16 h -16 v 16 m 16,-48 h -16 v 16 h 16 v -16 m 0,-32 h -16 v 16 h 16 v -16 m -32,48 v 16 h 16 v -16 h -16 m 0,-32 v 16 h 16 v -16 z"
         fill="#0000ff"
         id="path5" />
      <path
         d="m 400,384 h 16 v -16 h -16 v 16 m 32,48 v 16 h -16 v 16 h -80 v -16 h -32 v -16 h -16 v -32 h -16 v 48 h 16 v 16 h 16 v 16 h 16 v 16 h 96 v -16 h 32 v -16 h 16 v -48 h -16 v 16 h -16 m -32,-80 h -16 v 16 h 16 v -16 m 16,-80 v 16 h 48 v -32 h -16 v 16 h -32 m -112,48 h -16 v 16 h 16 v -16 m -16,-16 h -16 v 16 h 16 v -16 m 128,-48 h -16 v 16 h 16 z"
         fill="#808000"
         id="path6" />
      <path
         d="m 176,448 h -16 v 16 H 32 v 16 H 16 v 16 h 144 v -16 h 16 v -32 m 32,-48 h -16 v 32 h 16 v -32 h 16 v -16 h -16 v 16 M 144,208 v 16 h 16 v -16 h -16 m 0,16 h -16 v 16 h 16 v -16 m -80,32 v 32 h 48 v -16 h 16 v -16 z"
         fill="#800000"
         id="path7" />
      <path
         d="m 64,288 v -32 h 64 v -32 h 16 V 208 H 16 v 272 h 16 v -16 h 128 v -16 h 16 v -16 h 16 v -32 h 16 v -16 h 16 V 272 h -32 v 112 h -16 v 16 h -16 v 16 H 64 Z"
         fill="#ff0000"
         id="path8" />
      <path
         d="M 80,96 V 80 H 64 V 64 H 48 V 192 H 64 V 96 H 80 M 96,48 H 80 V 64 H 96 V 48 M 64,16 V 32 H 80 V 16 H 64 M 208,96 V 80 h -16 v 16 h 16 m -64,48 h -16 v 16 h 16 v -16 m -16,-16 v -16 h -16 v 16 h 16 M 112,96 V 80 H 96 v 16 h 16 M 240,16 h -16 v 176 h 16 V 16 m 192,160 v -48 h -16 v 48 h 16 m -16,16 v -16 h -16 v 16 h 16 m 0,-64 v -16 h -16 v 16 h 16 M 384,96 h -16 v 16 h 16 V 96 M 320,48 h -16 v 48 h 32 V 80 H 320 V 48 h 16 V 32 h -16 v 16 m 64,-32 v 16 h 16 V 16 h -16 m 48,48 V 32 h -16 v 32 z"
         fill="#808080"
         id="path9" />
      <path
         d="m 192,16 v 32 h -16 v 32 h -16 v 32 h -16 v 48 H 128 V 128 H 112 V 96 H 96 V 64 H 80 V 32 H 64 V 16 H 32 V 192 H 48 V 64 h 16 v 16 h 16 v 32 h 16 v 32 h 16 v 32 h 16 v 16 h 16 v -16 h 16 v -32 h 16 v -32 h 16 V 80 h 16 v 112 h 16 V 16 h -32 m 128,128 h -32 v 32 h 16 v 16 h 96 v -16 h 16 v -48 h -16 v -16 h -32 v 16 h 16 v 16 h 16 v 16 h -16 v 16 h -64 v -32 m 16,-48 h -16 v 16 h 48 V 96 H 336 M 320,48 V 32 h -32 v 64 h 16 V 48 h 16 m 64,-16 v 16 h 16 v 16 h 16 V 32 h -32 m 0,0 V 16 h -64 v 16 h 16 z"
         fill="#c0c0c0"
         id="path10" />
      <path
         d="m 384,320 v 32 h 16 v 16 h 16 v 32 h -16 v 16 h -64 v -16 h -16 v -16 h -48 v 16 h 16 v 32 h 16 v 16 h 32 v 16 h 80 v -16 h 16 v -16 h 16 v -16 h 16 v -64 h -16 v -16 h -32 v -16 h -32 m 32,-96 V 208 H 304 v 16 h -16 v 16 h -16 v 64 h 16 v 16 h 16 v -48 h 16 v -16 h 96 v 16 h 32 v -16 h 16 v -16 h -16 v -16 z"
         fill="#ffff00"
         id="path11" />
    </g>
  </g>
</svg>
