<?xml version="1.0" encoding="UTF-8" standalone="no"?>
<svg
   width="48px"
   height="48px"
   viewBox="0 0 48 48"
   version="1.1"
   id="svg3"
   sodipodi:docname="qube-zorin.svg"
   inkscape:version="1.3.2 (091e20ef0f, 2023-11-25)"
   xmlns:inkscape="http://www.inkscape.org/namespaces/inkscape"
   xmlns:sodipodi="http://sodipodi.sourceforge.net/DTD/sodipodi-0.dtd"
   xmlns:xlink="http://www.w3.org/1999/xlink"
   xmlns="http://www.w3.org/2000/svg"
   xmlns:svg="http://www.w3.org/2000/svg"
   xmlns:rdf="http://www.w3.org/1999/02/22-rdf-syntax-ns#"
   xmlns:cc="http://creativecommons.org/ns#"
   xmlns:dc="http://purl.org/dc/elements/1.1/">
  <sodipodi:namedview
     id="namedview3"
     pagecolor="#ffffff"
     bordercolor="#000000"
     borderopacity="0.25"
     inkscape:showpageshadow="2"
     inkscape:pageopacity="0.0"
     inkscape:pagecheckerboard="0"
     inkscape:deskcolor="#d1d1d1"
     inkscape:zoom="4.6611478"
     inkscape:cx="43.015156"
     inkscape:cy="37.866209"
     inkscape:window-width="1440"
     inkscape:window-height="843"
     inkscape:window-x="0"
     inkscape:window-y="33"
     inkscape:window-maximized="1"
     inkscape:current-layer="svg3" />
  <title
     id="title">Vector Perfect Qute Qube</title>
  <defs
     id="defs1">
    <polygon
       id="path-1"
       points="0.264506174 0.398583241 40.0936 0.398583241 40.0936 46 0.264506174 46" />
    <polygon
       id="path-3"
       points="0 0.361 40.9599938 0.361 40.9599938 45.9620167 0 45.9620167" />
    <polygon
       id="path-5"
       points="0 0.0254 20.6328606 0.0254 20.6328606 33.9504 0 33.9504" />
    <mask
       id="mask-4-6"
       fill="#ffffff">
      <use
         xlink:href="#path-3"
         id="use2-7" />
    </mask>
  </defs>
  <g
     id="Vector-Perfect-Qute-Qube"
     stroke="none"
     stroke-width="1"
     fill="none"
     fill-rule="evenodd"
     style="fill:#7ecbf0;fill-opacity:1"
     transform="rotate(30,24.000146,23.999666)">
    <g
       id="FromIllustrator"
       transform="translate(3)"
       style="fill:#7ecbf0;fill-opacity:1">
      <g
         id="Main"
         transform="translate(0,0.6395)"
         style="display:inline;fill:#7ecbf0;fill-opacity:1">
        <mask
           id="mask-4"
           fill="#ffffff">
          <use
             xlink:href="#path-3"
             id="use2" />
        </mask>
        <path
           d="m 18.5949,0.907 -8.223,4.748 -8.222,4.747 c -0.627,0.362 -1.135,0.877 -1.486,1.481 -0.352,0.606 -0.548,1.301 -0.552,2.024 l -0.056,9.351 -0.0560606432,9.35 C -0.0041,33.345 0.1899,34.054 0.5459,34.67 c 0.356,0.616 0.873,1.14 1.513,1.505 l 8.125,4.626 8.126,4.627 c 0.629,0.358 1.329,0.536 2.029,0.534017 0.7,-0.002 1.4,-0.184017 2.027,-0.546017 l 8.222,-4.748 8.223,-4.747 c 0.627,-0.361 1.134,-0.876 1.486,-1.481 0.352,-0.606 0.548,-1.301 0.552,-2.025 l 0.056,-9.35 0.05509,-9.35 c 0.0049,-0.737 -0.19009,-1.446 -0.54609,-2.062 -0.356,-0.617 -0.873,-1.14 -1.513,-1.504 L 30.7759,5.522 22.6509,0.895 C 22.0219,0.536 21.3219,0.359 20.6209,0.36098324 19.9219,0.363 19.2219,0.545 18.5949,0.907"
           id="Qube"
           fill="#585858"
           mask="url(#mask-4)"
           style="display:inline;fill:#15a6f0;fill-opacity:1"
           transform="translate(0.5200031,0.19899165)" />
        <path
           d="m 18.5949,0.907 -8.223,4.748 -8.222,4.747 c -0.627,0.362 -1.135,0.877 -1.486,1.481 -0.352,0.606 -0.548,1.301 -0.552,2.024 l -0.056,9.351 -0.0560606432,9.35 C -0.0041,33.345 0.1899,34.054 0.5459,34.67 c 0.356,0.616 0.873,1.14 1.513,1.505 l 8.125,4.626 8.126,4.627 c 0.629,0.358 1.329,0.536 2.029,0.534017 0.7,-0.002 1.4,-0.184017 2.027,-0.546017 l 8.222,-4.748 8.223,-4.747 c 0.627,-0.361 1.134,-0.876 1.486,-1.481 0.352,-0.606 0.548,-1.301 0.552,-2.025 l 0.056,-9.35 0.05509,-9.35 c 0.0049,-0.737 -0.19009,-1.446 -0.54609,-2.062 -0.356,-0.617 -0.873,-1.14 -1.513,-1.504 L 30.7759,5.522 22.6509,0.895 C 22.0219,0.536 21.3219,0.359 20.6209,0.36098324 19.9219,0.363 19.2219,0.545 18.5949,0.907"
           id="Qube-5"
           fill="#585858"
           mask="url(#mask-4-6)"
           style="display:inline;fill:#ffffff;fill-opacity:1"
           transform="matrix(0.927,0,0,0.927,2.0150429,1.8897818)" />
      </g>
    </g>
  </g>
  <metadata
     id="metadata3">
    <rdf:RDF>
      <cc:Work
         rdf:about="">
        <dc:title>Vector Perfect Qute Qube</dc:title>
      </cc:Work>
    </rdf:RDF>
  </metadata>
  <g
     id="g4155"
     style="fill:#15a6f0;fill-opacity:1"
     transform="matrix(0.05329342,0,0,0.05329342,4.0147538,6.6795411)">
    <path
       style="fill:#15a6f0;fill-opacity:1;stroke:none"
       d="m 125,542 62.35291,108 H 562.64318 L 625,542 Z"
       id="path3795"
       inkscape:connector-curvature="0" />
    <path
       style="fill:#15a6f0;fill-opacity:1;stroke:none"
       d="M 750,324.99804 687.10301,434 H 288 L 687.10301,216 Z"
       id="path3803"
       inkscape:connector-curvature="0" />
    <path
       inkscape:connector-curvature="0"
       id="path3801"
       d="M 0,325.00196 62.896988,216 H 462 L 62.896988,434 Z"
       style="fill:#15a6f0;fill-opacity:1;stroke:none" />
    <path
       inkscape:connector-curvature="0"
       id="path3025"
       d="M 125,108 187.35291,0 H 562.64318 L 625,108 Z"
       style="fill:#15a6f0;fill-opacity:1;stroke:none" />
  </g>
</svg>
