<?xml version="1.0" encoding="UTF-8" standalone="no"?>
<svg
   width="48px"
   height="48px"
   viewBox="0 0 48 48"
   version="1.1"
   id="svg3"
   sodipodi:docname="qube-whitehat.svg"
   inkscape:version="1.3.2 (091e20ef0f, 2023-11-25)"
   xmlns:inkscape="http://www.inkscape.org/namespaces/inkscape"
   xmlns:sodipodi="http://sodipodi.sourceforge.net/DTD/sodipodi-0.dtd"
   xmlns:xlink="http://www.w3.org/1999/xlink"
   xmlns="http://www.w3.org/2000/svg"
   xmlns:svg="http://www.w3.org/2000/svg"
   xmlns:rdf="http://www.w3.org/1999/02/22-rdf-syntax-ns#"
   xmlns:cc="http://creativecommons.org/ns#"
   xmlns:dc="http://purl.org/dc/elements/1.1/">
  <sodipodi:namedview
     id="namedview3"
     pagecolor="#ffffff"
     bordercolor="#000000"
     borderopacity="0.25"
     inkscape:showpageshadow="2"
     inkscape:pageopacity="0.0"
     inkscape:pagecheckerboard="0"
     inkscape:deskcolor="#d1d1d1"
     inkscape:zoom="4.3973203"
     inkscape:cx="12.166501"
     inkscape:cy="28.994931"
     inkscape:window-width="1440"
     inkscape:window-height="843"
     inkscape:window-x="0"
     inkscape:window-y="33"
     inkscape:window-maximized="1"
     inkscape:current-layer="svg3" />
  <title
     id="title">Vector Perfect Qute Qube</title>
  <defs
     id="defs1">
    <polygon
       id="path-1"
       points="0.264506174 0.398583241 40.0936 0.398583241 40.0936 46 0.264506174 46" />
    <polygon
       id="path-3"
       points="0 0.361 40.9599938 0.361 40.9599938 45.9620167 0 45.9620167" />
    <polygon
       id="path-5"
       points="0 0.0254 20.6328606 0.0254 20.6328606 33.9504 0 33.9504" />
    <mask
       id="mask-4-6"
       fill="#ffffff">
      <use
         xlink:href="#path-3"
         id="use2-7" />
    </mask>
    <mask
       id="mask-2"
       fill="white">
      <use
         xlink:href="#path-1"
         id="use1" />
    </mask>
    <mask
       id="mask-4-67"
       fill="white">
      <use
         xlink:href="#path-3"
         id="use2-5" />
    </mask>
  </defs>
  <metadata
     id="metadata3">
    <rdf:RDF>
      <cc:Work
         rdf:about="">
        <dc:title>Vector Perfect Qute Qube</dc:title>
      </cc:Work>
    </rdf:RDF>
  </metadata>
  <g
     id="Vector-Perfect-Qute-Qube"
     transform="translate(16.755919,35.188365)"
     style="fill:#216778;fill-opacity:1">
    <g
       id="Shado"
       transform="translate(-11.802719,-34.368865)"
       style="fill:#216778;fill-opacity:1">
      <mask
         id="mask3"
         fill="#ffffff">
        <use
           xlink:href="#path-1"
           id="use3" />
      </mask>
      <g
         id="Clip-2"
         style="fill:#216778;fill-opacity:1" />
      <path
         d="m 18.8596,0.9446 -8.223,4.747 -8.222,4.748 c -0.627,0.361 -1.135,0.876 -1.487,1.482 -0.351,0.605 -0.547,1.3 -0.552,2.024 l -0.056,9.35 -0.0550938,9.35 C 0.2596,33.3826 0.4546,34.0916 0.8106,34.7086 c 0.356,0.616 0.873,1.139 1.513,1.504 l 8.125,4.627 8.125,4.626 c 0.629,0.359 1.33,0.537 2.03,0.535017 0.7,-0.002 1.399,-0.185017 2.026,-0.547017 l 7.656,-4.521 7.657,-4.52 c 0.626,-0.363 1.162,-0.962 1.542,-1.652 0.38,-0.69 0.604,-1.47 0.609,-2.195 l -0.001,-9.35 -10e-4,-9.349 c 0.004,-0.737 -0.134,-1.588 -0.433,-2.347 -0.299,-0.758 -0.759,-1.423 -1.4,-1.787 l -7.671,-4.4 -7.672,-4.4 c -0.629,-0.359 -1.33,-0.536 -2.03,-0.53401676 C 20.1856,0.4006 19.4866,0.5826 18.8596,0.9446"
         id="Fill-1"
         fill="#0e2276"
         mask="url(#mask-2)"
         style="fill:#103139;fill-opacity:1" />
    </g>
    <g
       id="Main-3"
       transform="translate(-13.802719,-34.368865)"
       style="fill:#216778;fill-opacity:1">
      <mask
         id="mask4"
         fill="#ffffff">
        <use
           xlink:href="#path-3"
           id="use4" />
      </mask>
      <g
         id="Clip-5"
         style="fill:#216778;fill-opacity:1" />
      <path
         d="m 18.5949,0.907 -8.223,4.748 -8.222,4.747 c -0.627,0.362 -1.135,0.877 -1.486,1.481 -0.352,0.606 -0.548,1.301 -0.552,2.024 l -0.056,9.351 -0.0560606432,9.35 C -0.0041,33.345 0.1899,34.054 0.5459,34.67 c 0.356,0.616 0.873,1.14 1.513,1.505 l 8.125,4.626 8.126,4.627 c 0.629,0.358 1.329,0.536 2.029,0.534017 0.7,-0.002 1.4,-0.184017 2.027,-0.546017 l 8.222,-4.748 8.223,-4.747 c 0.627,-0.361 1.134,-0.876 1.486,-1.481 0.352,-0.606 0.548,-1.301 0.552,-2.025 l 0.056,-9.35 0.05509,-9.35 c 0.0049,-0.737 -0.19009,-1.446 -0.54609,-2.062 -0.356,-0.617 -0.873,-1.14 -1.513,-1.504 L 30.7759,5.522 22.6509,0.895 C 22.0219,0.536 21.3219,0.359 20.6209,0.36098324 19.9219,0.363 19.2219,0.545 18.5949,0.907"
         id="Fill-4"
         fill="#4488df"
         mask="url(#mask-4-67)"
         style="fill:#216778;fill-opacity:1" />
    </g>
  </g>
  <g
     id="Whonix-Logo"
     transform="matrix(2.2130397,0,0,2.2130397,-28.635006,-36.607565)">
    <path
       d="m 18.734064,26.320647 c 0.06428,-3.374715 1.124884,-5.785171 1.960528,-5.785171 1.028471,0 2.50687,1.414123 3.535341,1.414123 0.642755,0 2.089079,-1.028408 3.213963,-1.028408 0.578511,0 1.507707,1.832355 1.539844,4.91783 -4.055582,0.232392 -6.750184,1.812166 -10.249488,0.48167 z"
       fill-rule="evenodd"
       id="path2"
       style="stroke-width:0.22593359;fill:#ffffff;stroke:none;stroke-dasharray:none" />
    <path
       d="m 22.724553,29.799825 c 0.623189,-0.381753 1.640912,-0.356471 2.192662,-0.04351 l 0.009,0.454425 c -0.580266,-0.318025 -1.597076,-0.297805 -2.192599,0.04351 z"
       fill-rule="evenodd"
       id="path3"
       style="stroke-width:0.0628919;fill:#ffffff" />
    <path
       d="m 25.786758,33.93811 c 0,0 -0.18682,0.701496 -1.751287,0.756652 -1.73613,0.08144 -1.952101,-0.584988 -1.952101,-0.584988"
       fill="none"
       stroke="#000000"
       stroke-linecap="round"
       stroke-linejoin="round"
       stroke-width="0.888096"
       id="path4"
       style="stroke:#ffffff" />
    <path
       d="m 15.672487,26.764035 c 0.03073,-1.229977 5.115877,0.935013 6.686035,0.730677 2.447752,-0.176958 9.179698,-2.268069 9.518056,-0.699923 0.245989,1.383684 -1.890656,0.296862 -5.866051,0.901806 0,0 -10.338165,1.127652 -10.338165,-0.93256 z"
       id="path5"
       style="fill-rule:evenodd;stroke-width:0.22593359;fill:#ffffff;stroke:none;stroke-dasharray:none" />
    <path
       d="m 18.493188,29.881585 c 0.507959,-0.738225 2.811455,-0.965705 4.483373,-0.233285 0,0 0.250932,0.746275 -0.06511,1.223498 -0.259957,0.787469 -2.654414,1.59324 -4.043004,0.690993 -0.527153,-0.438727 -0.603359,-1.029414 -0.375244,-1.681225 z"
       id="path6"
       style="fill-rule:evenodd;stroke-width:0.0628919;fill:#ffffff" />
    <path
       d="m 29.119398,29.368387 c -0.595774,-0.669358 -2.909692,-0.608831 -4.477586,0.325698 0,0 -0.156236,0.771683 0.216649,1.205889 0.355811,0.749105 2.831833,1.251045 4.097532,0.183242 0.468544,-0.500871 0.470751,-1.096457 0.163405,-1.71481 z"
       id="path7"
       style="fill-rule:evenodd;stroke-width:0.0628919;fill:#ffffff" />
  </g>
</svg>
