<?xml version="1.0" encoding="UTF-8" standalone="no"?>
<svg
   width="48px"
   height="48px"
   viewBox="0 0 48 48"
   version="1.1"
   id="svg2"
   sodipodi:docname="qube-cubicle.svg"
   inkscape:version="1.3.2 (091e20ef0f, 2023-11-25)"
   xml:space="preserve"
   xmlns:inkscape="http://www.inkscape.org/namespaces/inkscape"
   xmlns:sodipodi="http://sodipodi.sourceforge.net/DTD/sodipodi-0.dtd"
   xmlns:xlink="http://www.w3.org/1999/xlink"
   xmlns="http://www.w3.org/2000/svg"
   xmlns:svg="http://www.w3.org/2000/svg"
   xmlns:rdf="http://www.w3.org/1999/02/22-rdf-syntax-ns#"
   xmlns:cc="http://creativecommons.org/ns#"
   xmlns:dc="http://purl.org/dc/elements/1.1/"><title
     id="title43">Qubes Cubicle</title><sodipodi:namedview
     id="namedview"
     pagecolor="#ffffff"
     bordercolor="#000000"
     borderopacity="0.25"
     inkscape:showpageshadow="2"
     inkscape:pageopacity="0.0"
     inkscape:pagecheckerboard="0"
     inkscape:deskcolor="#d1d1d1"
     showguides="false"
     inkscape:zoom="4"
     inkscape:cx="9.875"
     inkscape:cy="13.625"
     inkscape:window-width="1440"
     inkscape:window-height="843"
     inkscape:window-x="0"
     inkscape:window-y="33"
     inkscape:window-maximized="1"
     inkscape:current-layer="svg2"><sodipodi:guide
       position="24,0"
       orientation="0.5,0.8660254"
       id="guide1"
       inkscape:locked="false"
       inkscape:label=""
       inkscape:color="rgb(0,134,229)" /><sodipodi:guide
       position="24,16"
       orientation="0.5,0.8660254"
       id="guide2"
       inkscape:label=""
       inkscape:locked="false"
       inkscape:color="rgb(0,134,229)" /><sodipodi:guide
       position="24,32"
       orientation="0.5,0.8660254"
       id="guide3"
       inkscape:label=""
       inkscape:locked="false"
       inkscape:color="rgb(0,134,229)" /><sodipodi:guide
       position="24,48"
       orientation="0.5,0.8660254"
       id="guide4"
       inkscape:label=""
       inkscape:locked="false"
       inkscape:color="rgb(0,134,229)" /><sodipodi:guide
       position="24,0"
       orientation="-0.5,0.8660254"
       id="guide5"
       inkscape:locked="false"
       inkscape:label=""
       inkscape:color="rgb(0,134,229)" /><sodipodi:guide
       position="24,16"
       orientation="-0.5,0.8660254"
       id="guide6"
       inkscape:label=""
       inkscape:locked="false"
       inkscape:color="rgb(0,134,229)" /><sodipodi:guide
       position="24,32"
       orientation="-0.5,0.8660254"
       id="guide7"
       inkscape:label=""
       inkscape:locked="false"
       inkscape:color="rgb(0,134,229)" /><sodipodi:guide
       position="24,48"
       orientation="-0.5,0.8660254"
       id="guide8"
       inkscape:label=""
       inkscape:locked="false"
       inkscape:color="rgb(0,134,229)" /><sodipodi:guide
       position="24,40"
       orientation="0.5,0.8660254"
       id="guide9"
       inkscape:label=""
       inkscape:locked="false"
       inkscape:color="rgb(0,134,229)" /><sodipodi:guide
       position="24,24"
       orientation="0.5,0.8660254"
       id="guide10"
       inkscape:label=""
       inkscape:locked="false"
       inkscape:color="rgb(0,134,229)" /><sodipodi:guide
       position="24,8"
       orientation="0.5,0.8660254"
       id="guide11"
       inkscape:label=""
       inkscape:locked="false"
       inkscape:color="rgb(0,134,229)" /><sodipodi:guide
       position="24,40"
       orientation="-0.5,0.8660254"
       id="guide12"
       inkscape:label=""
       inkscape:locked="false"
       inkscape:color="rgb(0,134,229)" /><sodipodi:guide
       position="24,24"
       orientation="-0.5,0.8660254"
       id="guide13"
       inkscape:label=""
       inkscape:locked="false"
       inkscape:color="rgb(0,134,229)" /><sodipodi:guide
       position="24,8"
       orientation="-0.5,0.8660254"
       id="guide14"
       inkscape:label=""
       inkscape:locked="false"
       inkscape:color="rgb(0,134,229)" /><sodipodi:guide
       position="24,32"
       orientation="1,0"
       id="guide15"
       inkscape:locked="false" /><sodipodi:guide
       position="17.071797,36"
       orientation="1,0"
       id="guide16"
       inkscape:locked="false" /><sodipodi:guide
       position="10.143594,24"
       orientation="1,0"
       id="guide17"
       inkscape:locked="false" /><sodipodi:guide
       position="3.2153904,12"
       orientation="1,0"
       id="guide18"
       inkscape:locked="false" /><sodipodi:guide
       position="30.928203,20"
       orientation="1,0"
       id="guide19"
       inkscape:locked="false" /><sodipodi:guide
       position="37.856406,16"
       orientation="1,0"
       id="guide20"
       inkscape:locked="false" /><sodipodi:guide
       position="44.78461,12"
       orientation="1,0"
       id="guide21"
       inkscape:locked="false" /><sodipodi:guide
       position="43.052,25"
       orientation="0.5,0.8660254"
       id="guide22"
       inkscape:label=""
       inkscape:locked="false"
       inkscape:color="rgb(0,134,229)" /><sodipodi:guide
       position="44.784,32"
       orientation="0.5,0.8660254"
       id="guide23"
       inkscape:label=""
       inkscape:locked="false"
       inkscape:color="rgb(0,134,229)" /><sodipodi:guide
       position="44.784,16"
       orientation="0.5,0.8660254"
       id="guide24"
       inkscape:label=""
       inkscape:locked="false"
       inkscape:color="rgb(0,134,229)" /><sodipodi:guide
       position="41.32,10"
       orientation="0.5,0.8660254"
       id="guide25"
       inkscape:label=""
       inkscape:locked="false"
       inkscape:color="rgb(0,134,229)" /><sodipodi:guide
       position="34.392,6"
       orientation="0.5,0.8660254"
       id="guide26"
       inkscape:label=""
       inkscape:locked="false"
       inkscape:color="rgb(0,134,229)" /><sodipodi:guide
       position="27.464,2"
       orientation="0.5,0.8660254"
       id="guide27"
       inkscape:label=""
       inkscape:locked="false"
       inkscape:color="rgb(0,134,229)" /><sodipodi:guide
       position="3.2153904,31.999707"
       orientation="-0.5,0.8660254"
       id="guide28"
       inkscape:label=""
       inkscape:locked="false"
       inkscape:color="rgb(0,134,229)" /><sodipodi:guide
       position="4.9480004,25"
       orientation="-0.5,0.8660254"
       id="guide29"
       inkscape:label=""
       inkscape:locked="false"
       inkscape:color="rgb(0,134,229)" /><sodipodi:guide
       position="3.2153904,15.999941"
       orientation="-0.5,0.8660254"
       id="guide30"
       inkscape:label=""
       inkscape:locked="false"
       inkscape:color="rgb(0,134,229)" /><sodipodi:guide
       position="6.6800004,10"
       orientation="-0.5,0.8660254"
       id="guide31"
       inkscape:label=""
       inkscape:locked="false"
       inkscape:color="rgb(0,134,229)" /><sodipodi:guide
       position="13.608,6"
       orientation="-0.5,0.8660254"
       id="guide32"
       inkscape:label=""
       inkscape:locked="false"
       inkscape:color="rgb(0,134,229)" /><sodipodi:guide
       position="20.536,2"
       orientation="-0.5,0.8660254"
       id="guide33"
       inkscape:label=""
       inkscape:locked="false"
       inkscape:color="rgb(0,134,229)" /><sodipodi:guide
       position="30.928203,39.999648"
       orientation="0,-1"
       id="guide34"
       inkscape:locked="false" /><sodipodi:guide
       position="34.392,37.999824"
       orientation="1,0"
       id="guide35"
       inkscape:locked="false" /><sodipodi:guide
       position="13.607543,19.999941"
       orientation="-0.5,0.8660254"
       id="guide36"
       inkscape:label=""
       inkscape:locked="false"
       inkscape:color="rgb(0,134,229)" /><sodipodi:guide
       position="10.143594,19.999941"
       orientation="0,-1"
       id="guide37"
       inkscape:locked="false" /><sodipodi:guide
       position="13.607543,17.999912"
       orientation="1,0"
       id="guide38"
       inkscape:locked="false" /><sodipodi:guide
       position="34.392,19.999941"
       orientation="0.5,0.8660254"
       id="guide39"
       inkscape:label=""
       inkscape:locked="false"
       inkscape:color="rgb(0,134,229)" /><sodipodi:guide
       position="27.464356,21.999853"
       orientation="1,0"
       id="guide40"
       inkscape:locked="false" /><sodipodi:guide
       position="20.536153,17.999853"
       orientation="1,0"
       id="guide41"
       inkscape:locked="false" /><sodipodi:guide
       position="17.071797,22.000029"
       orientation="0,-1"
       id="guide42"
       inkscape:locked="false" /><sodipodi:guide
       position="24,24"
       orientation="0,-1"
       id="guide43"
       inkscape:locked="false" /></sodipodi:namedview><defs
     id="defs1"><clipPath
       id="SVGID_2_">
		<use
   xlink:href="#SVGID_1_"
   overflow="visible"
   id="use1" />
	</clipPath><clipPath
       id="clipPath2">
		<use
   xlink:href="#SVGID_1_"
   overflow="visible"
   id="use2" />
	</clipPath><clipPath
       id="clipPath3">
		<use
   xlink:href="#SVGID_1_"
   overflow="visible"
   id="use3" />
	</clipPath><clipPath
       id="clipPath4">
		<use
   xlink:href="#SVGID_1_"
   overflow="visible"
   id="use4" />
	</clipPath><clipPath
       id="clipPath5">
		<use
   xlink:href="#SVGID_1_"
   overflow="visible"
   id="use5" />
	</clipPath><clipPath
       id="clipPath6">
		<use
   xlink:href="#SVGID_1_"
   overflow="visible"
   id="use6" />
	</clipPath><clipPath
       id="clipPath7">
		<use
   xlink:href="#SVGID_1_"
   overflow="visible"
   id="use7" />
	</clipPath><clipPath
       id="clipPath8">
		<use
   xlink:href="#SVGID_1_"
   overflow="visible"
   id="use8" />
	</clipPath><clipPath
       id="clipPath9">
		<use
   xlink:href="#SVGID_1_"
   overflow="visible"
   id="use9" />
	</clipPath><clipPath
       id="clipPath10">
		<use
   xlink:href="#SVGID_1_"
   overflow="visible"
   id="use10" />
	</clipPath><clipPath
       id="clipPath11">
		<use
   xlink:href="#SVGID_1_"
   overflow="visible"
   id="use11" />
	</clipPath><clipPath
       id="clipPath12">
		<use
   xlink:href="#SVGID_1_"
   overflow="visible"
   id="use12" />
	</clipPath><clipPath
       id="clipPath13">
		<use
   xlink:href="#SVGID_1_"
   overflow="visible"
   id="use13" />
	</clipPath><clipPath
       id="clipPath14">
		<use
   xlink:href="#SVGID_1_"
   overflow="visible"
   id="use14" />
	</clipPath><clipPath
       id="clipPath15">
		<use
   xlink:href="#SVGID_1_"
   overflow="visible"
   id="use15" />
	</clipPath><clipPath
       id="clipPath16">
		<use
   xlink:href="#SVGID_1_"
   overflow="visible"
   id="use16" />
	</clipPath><clipPath
       id="clipPath17">
		<use
   xlink:href="#SVGID_1_"
   overflow="visible"
   id="use17" />
	</clipPath><clipPath
       id="clipPath18">
		<use
   xlink:href="#SVGID_1_"
   overflow="visible"
   id="use18" />
	</clipPath><clipPath
       id="clipPath19">
		<use
   xlink:href="#SVGID_1_"
   overflow="visible"
   id="use19" />
	</clipPath><clipPath
       id="clipPath20">
		<use
   xlink:href="#SVGID_1_"
   overflow="visible"
   id="use20" />
	</clipPath><clipPath
       id="clipPath21">
		<use
   xlink:href="#SVGID_1_"
   overflow="visible"
   id="use21" />
	</clipPath><clipPath
       id="clipPath22">
		<use
   xlink:href="#SVGID_1_"
   overflow="visible"
   id="use22" />
	</clipPath><clipPath
       id="clipPath23">
		<use
   xlink:href="#SVGID_1_"
   overflow="visible"
   id="use23" />
	</clipPath><clipPath
       id="clipPath24">
		<use
   xlink:href="#SVGID_1_"
   overflow="visible"
   id="use24" />
	</clipPath><clipPath
       id="clipPath25">
		<use
   xlink:href="#SVGID_1_"
   overflow="visible"
   id="use25" />
	</clipPath><clipPath
       id="clipPath26">
		<use
   xlink:href="#SVGID_1_"
   overflow="visible"
   id="use26" />
	</clipPath><clipPath
       id="clipPath27">
		<use
   xlink:href="#SVGID_1_"
   overflow="visible"
   id="use27" />
	</clipPath><clipPath
       id="clipPath28">
		<use
   xlink:href="#SVGID_1_"
   overflow="visible"
   id="use28" />
	</clipPath><clipPath
       id="clipPath29">
		<use
   xlink:href="#SVGID_1_"
   overflow="visible"
   id="use29" />
	</clipPath><clipPath
       id="clipPath30">
		<use
   xlink:href="#SVGID_1_"
   overflow="visible"
   id="use30" />
	</clipPath><clipPath
       id="clipPath31">
		<use
   xlink:href="#SVGID_1_"
   overflow="visible"
   id="use31" />
	</clipPath><rect
       id="SVGID_1_"
       x="15.572"
       y="23.601"
       width="114.021"
       height="54.691002" /><mask
       id="mask-6"
       fill="white"><polygon
         id="use3-9"
         points="20.632861,33.9504 0,33.9504 0,0.0254 20.632861,0.0254 " /></mask><mask
       id="mask-4"
       fill="white"><polygon
         id="use2-3"
         points="40.959994,45.962017 0,45.962017 0,0.361 40.959994,0.361 " /></mask></defs><metadata
     id="metadata1"><rdf:RDF><cc:Work
         rdf:about=""><cc:license
           rdf:resource="http://creativecommons.org/licenses/by-sa/4.0/" /><dc:creator><cc:Agent><dc:title>Ali Mirjamali</dc:title></cc:Agent></dc:creator><dc:rights><cc:Agent><dc:title>CC-BY-SA</dc:title></cc:Agent></dc:rights><dc:date>2024-04-12</dc:date><dc:subject><rdf:Bag><rdf:li>Cube</rdf:li><rdf:li>Qube</rdf:li><rdf:li>Cubicle</rdf:li></rdf:Bag></dc:subject><dc:description>Cubicle designed for Qubes-OS. Monitor based on Michaël Bégin design, Keyboard based on David Peters design.</dc:description><dc:title>Qubes Cubicle</dc:title><dc:source>https://www.github.com/alimirjamali/personal-qubesos</dc:source><dc:contributor><cc:Agent><dc:title>Ali Mirjamali, Michaël Bégin, David Peters</dc:title></cc:Agent></dc:contributor></cc:Work><cc:License
         rdf:about="http://creativecommons.org/licenses/by-sa/4.0/"><cc:permits
           rdf:resource="http://creativecommons.org/ns#Reproduction" /><cc:permits
           rdf:resource="http://creativecommons.org/ns#Distribution" /><cc:requires
           rdf:resource="http://creativecommons.org/ns#Notice" /><cc:requires
           rdf:resource="http://creativecommons.org/ns#Attribution" /><cc:permits
           rdf:resource="http://creativecommons.org/ns#DerivativeWorks" /><cc:requires
           rdf:resource="http://creativecommons.org/ns#ShareAlike" /></cc:License></rdf:RDF></metadata><g
     id="Cubicle"><path
       style="vector-effect:none;fill:#b4bbc1;stroke-linecap:round;-inkscape-stroke:none;paint-order:markers fill stroke;stroke:#000000;fill-opacity:1;font-variation-settings:normal;opacity:1;stroke-width:0.5;stroke-linejoin:miter;stroke-miterlimit:4;stroke-dasharray:none;stroke-dashoffset:0;stroke-opacity:1;stop-color:#000000;stop-opacity:1"
       d="M 24,0 V 20.000352 L -0.2486601,34.000029 -0.2489652,14.000147 Z"
       id="Back-left" /><path
       id="Back-right"
       style="vector-effect:none;fill:#34373a;stroke-linecap:round;-inkscape-stroke:none;paint-order:markers fill stroke;stroke:#000000;fill-opacity:1;font-variation-settings:normal;opacity:1;stroke-width:0.5;stroke-linejoin:miter;stroke-miterlimit:4;stroke-dasharray:none;stroke-dashoffset:0;stroke-opacity:1;stop-color:#000000;stop-opacity:1"
       d="M 24 0 L 24 20 L 48.248047 34 L 48.248047 14 L 24 0 z M 34.392578 8 L 41.320312 12 L 41.320312 16 L 34.392578 12 L 34.392578 8 z " /><path
       style="display:inline;vector-effect:none;fill:#b4bbc1;fill-opacity:1;stroke:#000000;stroke-linecap:round;-inkscape-stroke:none;paint-order:markers fill stroke;font-variation-settings:normal;opacity:1;stroke-width:0.5;stroke-linejoin:miter;stroke-miterlimit:4;stroke-dasharray:none;stroke-dashoffset:0;stroke-opacity:1;stop-color:#000000;stop-opacity:1"
       d="M 48.248432,26.000161 39.588254,31.000117 27.464356,24.000382 C 25.732509,23.0005 22.336366,22.999985 20.60429,24 L 8.4115178,30.999986 -0.2489652,26.169311 24,12.000323 Z"
       id="Desk"
       sodipodi:nodetypes="cccccccc" /><path
       style="display:inline;fill:#34373a;stroke:#000000;stroke-linecap:round;paint-order:markers fill stroke;fill-opacity:1;stroke-width:0.5;stroke-dasharray:none"
       d="M -0.2489652,14.000147 24,28.000293 V 48 L -0.2486601,34.000029 Z"
       id="Left-Wall" /><path
       style="fill:#b4bbc1;stroke-linecap:round;paint-order:markers fill stroke;stroke:#000000;fill-opacity:1;stroke-width:0.5;stroke-dasharray:none"
       d="m 48.248965,14.000147 -13.856406,8 -4.07e-4,19.999941 13.856254,-7.999912 z"
       id="Right-Wall" /></g><g
     id="Overhead-Space"><path
       style="vector-effect:none;fill:#b4bbc1;stroke:#000000;stroke-linecap:round;-inkscape-stroke:none;paint-order:markers fill stroke;fill-opacity:1;font-variation-settings:normal;opacity:1;stroke-width:0.5;stroke-linejoin:miter;stroke-miterlimit:4;stroke-dasharray:none;stroke-dashoffset:0;stroke-opacity:1;stop-color:#000000;stop-opacity:1"
       d="M -0.2489652,14.000147 10.143594,7.9999998 13.607949,10.000147 3.2153904,16.000293 Z"
       id="path4"
       sodipodi:nodetypes="ccccc" /><path
       style="vector-effect:none;fill:#b4bbc1;stroke:#000000;stroke-linecap:round;-inkscape-stroke:none;paint-order:markers fill stroke;fill-opacity:1;font-variation-settings:normal;opacity:1;stroke-width:0.5;stroke-linejoin:miter;stroke-miterlimit:4;stroke-dasharray:none;stroke-dashoffset:0;stroke-opacity:1;stop-color:#000000;stop-opacity:1"
       d="M 6.679238,18.000147 3.2153901,16.000293 13.607949,10.000147 13.60739,14.000176 Z"
       id="path5" /><ellipse
       style="vector-effect:non-scaling-stroke;fill:#000000;stroke:#000000;stroke-width:0.150195;stroke-linecap:round;-inkscape-stroke:hairline;paint-order:markers fill stroke"
       id="path35"
       cx="-0.31729868"
       cy="-17.417179"
       rx="0.40507883"
       ry="0.22209194"
       transform="rotate(150)" /></g><g
     id="Keyboard"
     transform="matrix(0.09164851,0,0,0.06545003,17.097922,16.986318)"
     style="fill:#34373a;fill-opacity:1;stroke:#000000">
	<defs
   id="defs31">
		<rect
   id="rect1"
   x="15.572"
   y="23.601"
   width="114.021"
   height="54.691002" />
	</defs>
	<clipPath
   id="clipPath32">
		<use
   xlink:href="#SVGID_1_"
   overflow="visible"
   id="use32" />
	</clipPath>
	<path
   clip-path="url(#SVGID_2_)"
   fill="none"
   stroke="#20221d"
   stroke-width="1.8"
   d="m 19.712,24.501 c 0,0 -3.24,0 -3.24,3.24 v 46.41 c 0,0 0,3.24 3.24,3.24 h 105.741 c 0,0 3.24,0 3.24,-3.24 v -46.41 c 0,0 0,-3.24 -3.24,-3.24 z"
   id="path1"
   style="fill:#34373a;fill-opacity:1;stroke:#000000" />
	<path
   clip-path="url(#SVGID_2_)"
   fill="#20221d"
   d="m 43.614,63.057 c 0,0 -0.648,0 -0.648,0.647 v 5.624 c 0,0 0,0.648 0.648,0.648 h 57.662 c 0,0 0.648,0 0.648,-0.648 v -5.624 c 0,0 0,-0.647 -0.648,-0.647 z"
   id="path2"
   style="fill:#34373a;fill-opacity:1;stroke:#000000" />
	<path
   clip-path="url(#SVGID_2_)"
   fill="#20221d"
   d="m 106.031,63.057 c 0,0 -0.648,0 -0.648,0.647 v 5.624 c 0,0 0,0.648 0.648,0.648 h 14.85 c 0,0 0.648,0 0.648,-0.648 v -5.624 c 0,0 0,-0.647 -0.648,-0.647 z"
   id="path3"
   style="fill:#34373a;fill-opacity:1;stroke:#000000" />
	<path
   clip-path="url(#SVGID_2_)"
   fill="#20221d"
   d="m 24.146,63.057 c 0,0 -0.648,0 -0.648,0.647 v 5.624 c 0,0 0,0.648 0.648,0.648 h 14.85 c 0,0 0.648,0 0.648,-0.648 v -5.624 c 0,0 0,-0.647 -0.648,-0.647 z"
   id="path4-2"
   style="fill:#34373a;fill-opacity:1;stroke:#000000" />
	<path
   clip-path="url(#SVGID_2_)"
   fill="#20221d"
   d="m 54.132,52.677 c 0,0 -0.647,0 -0.647,0.647 v 5.624 c 0,0 0,0.648 0.647,0.648 h 5.624 c 0,0 0.648,0 0.648,-0.648 v -5.624 c 0,0 0,-0.647 -0.648,-0.647 z"
   id="path5-9"
   style="fill:#34373a;fill-opacity:1;stroke:#000000" />
	<path
   clip-path="url(#SVGID_2_)"
   fill="#20221d"
   d="m 43.752,52.677 c 0,0 -0.648,0 -0.648,0.647 v 5.624 c 0,0 0,0.648 0.648,0.648 h 5.624 c 0,0 0.647,0 0.647,-0.648 v -5.624 c 0,0 0,-0.647 -0.647,-0.647 z"
   id="path6"
   style="fill:#34373a;fill-opacity:1;stroke:#000000" />
	<path
   clip-path="url(#SVGID_2_)"
   fill="#20221d"
   d="m 24.146,52.677 c 0,0 -0.648,0 -0.648,0.647 v 5.624 c 0,0 0,0.648 0.648,0.648 h 14.85 c 0,0 0.648,0 0.648,-0.648 v -5.624 c 0,0 0,-0.647 -0.648,-0.647 z"
   id="path7"
   style="fill:#34373a;fill-opacity:1;stroke:#000000" />
	<path
   clip-path="url(#SVGID_2_)"
   fill="#20221d"
   d="m 64.512,52.677 c 0,0 -0.648,0 -0.648,0.647 v 5.624 c 0,0 0,0.648 0.648,0.648 h 5.624 c 0,0 0.647,0 0.647,-0.648 v -5.624 c 0,0 0,-0.647 -0.647,-0.647 z"
   id="path8"
   style="fill:#34373a;fill-opacity:1;stroke:#000000" />
	<path
   clip-path="url(#SVGID_2_)"
   fill="#20221d"
   d="m 74.892,52.677 c 0,0 -0.647,0 -0.647,0.647 v 5.624 c 0,0 0,0.648 0.647,0.648 h 5.624 c 0,0 0.648,0 0.648,-0.648 v -5.624 c 0,0 0,-0.647 -0.648,-0.647 z"
   id="path9"
   style="fill:#34373a;fill-opacity:1;stroke:#000000" />
	<path
   clip-path="url(#SVGID_2_)"
   fill="#20221d"
   d="m 85.271,52.677 c 0,0 -0.648,0 -0.648,0.647 v 5.624 c 0,0 0,0.648 0.648,0.648 h 5.624 c 0,0 0.647,0 0.647,-0.648 v -5.624 c 0,0 0,-0.647 -0.647,-0.647 z"
   id="path10"
   style="fill:#34373a;fill-opacity:1;stroke:#000000" />
	<path
   clip-path="url(#SVGID_2_)"
   fill="#20221d"
   d="m 95.651,52.677 c 0,0 -0.647,0 -0.647,0.647 v 5.624 c 0,0 0,0.648 0.647,0.648 h 5.624 c 0,0 0.648,0 0.648,-0.648 v -5.624 c 0,0 0,-0.647 -0.648,-0.647 z"
   id="path11"
   style="fill:#34373a;fill-opacity:1;stroke:#000000" />
	<path
   clip-path="url(#SVGID_2_)"
   fill="#20221d"
   d="m 106.031,52.677 c 0,0 -0.648,0 -0.648,0.647 v 5.624 c 0,0 0,0.648 0.648,0.648 h 14.989 c 0,0 0.647,0 0.647,-0.648 v -5.624 c 0,0 0,-0.647 -0.647,-0.647 z"
   id="path12"
   style="fill:#34373a;fill-opacity:1;stroke:#000000" />
	<path
   clip-path="url(#SVGID_2_)"
   fill="#20221d"
   d="m 49.519,42.297 c 0,0 -0.648,0 -0.648,0.647 v 5.624 c 0,0 0,0.648 0.648,0.648 h 5.624 c 0,0 0.648,0 0.648,-0.648 v -5.624 c 0,0 0,-0.647 -0.648,-0.647 z"
   id="path13"
   style="fill:#34373a;fill-opacity:1;stroke:#000000" />
	<path
   clip-path="url(#SVGID_2_)"
   fill="#20221d"
   d="m 39.139,42.297 c 0,0 -0.648,0 -0.648,0.647 v 5.624 c 0,0 0,0.648 0.648,0.648 h 5.624 c 0,0 0.648,0 0.648,-0.648 v -5.624 c 0,0 0,-0.647 -0.648,-0.647 z"
   id="path14"
   style="fill:#34373a;fill-opacity:1;stroke:#000000" />
	<path
   clip-path="url(#SVGID_2_)"
   fill="#20221d"
   d="m 24.146,42.297 c 0,0 -0.648,0 -0.648,0.647 v 5.624 c 0,0 0,0.648 0.648,0.648 h 10.237 c 0,0 0.648,0 0.648,-0.648 v -5.624 c 0,0 0,-0.647 -0.648,-0.647 z"
   id="path15"
   style="fill:#34373a;fill-opacity:1;stroke:#000000" />
	<path
   clip-path="url(#SVGID_2_)"
   fill="#20221d"
   d="m 59.898,42.297 c 0,0 -0.648,0 -0.648,0.647 v 5.624 c 0,0 0,0.648 0.648,0.648 h 5.624 c 0,0 0.648,0 0.648,-0.648 v -5.624 c 0,0 0,-0.647 -0.648,-0.647 z"
   id="path16"
   style="fill:#34373a;fill-opacity:1;stroke:#000000" />
	<path
   clip-path="url(#SVGID_2_)"
   fill="#20221d"
   d="m 70.278,42.297 c 0,0 -0.647,0 -0.647,0.647 v 5.624 c 0,0 0,0.648 0.647,0.648 h 5.624 c 0,0 0.648,0 0.648,-0.648 v -5.624 c 0,0 0,-0.647 -0.648,-0.647 z"
   id="path17"
   style="fill:#34373a;fill-opacity:1;stroke:#000000" />
	<path
   clip-path="url(#SVGID_2_)"
   fill="#20221d"
   d="m 80.658,42.297 c 0,0 -0.648,0 -0.648,0.647 v 5.624 c 0,0 0,0.648 0.648,0.648 h 5.624 c 0,0 0.647,0 0.647,-0.648 v -5.624 c 0,0 0,-0.647 -0.647,-0.647 z"
   id="path18"
   style="fill:#34373a;fill-opacity:1;stroke:#000000" />
	<path
   clip-path="url(#SVGID_2_)"
   fill="#20221d"
   d="m 91.038,42.297 c 0,0 -0.647,0 -0.647,0.647 v 5.624 c 0,0 0,0.648 0.647,0.648 h 5.624 c 0,0 0.648,0 0.648,-0.648 v -5.624 c 0,0 0,-0.647 -0.648,-0.647 z"
   id="path19"
   style="fill:#34373a;fill-opacity:1;stroke:#000000" />
	<path
   clip-path="url(#SVGID_2_)"
   fill="#20221d"
   d="m 101.418,42.297 c 0,0 -0.648,0 -0.648,0.647 v 5.624 c 0,0 0,0.648 0.648,0.648 h 5.624 c 0,0 0.647,0 0.647,-0.648 v -5.624 c 0,0 0,-0.647 -0.647,-0.647 z"
   id="path20"
   style="fill:#34373a;fill-opacity:1;stroke:#000000" />
	<path
   clip-path="url(#SVGID_2_)"
   fill="#20221d"
   d="m 111.798,42.297 c 0,0 -0.647,0 -0.647,0.647 v 5.624 c 0,0 0,0.648 0.647,0.648 h 9.222 c 0,0 0.648,0 0.648,-0.648 v -5.624 c 0,0 0,-0.647 -0.648,-0.647 z"
   id="path21"
   style="fill:#34373a;fill-opacity:1;stroke:#000000" />
	<path
   clip-path="url(#SVGID_2_)"
   fill="#20221d"
   d="m 74.635,31.916 c 0,0 -0.647,0 -0.647,0.648 v 5.624 c 0,0 0,0.648 0.647,0.648 h 5.625 c 0,0 0.647,0 0.647,-0.648 v -5.624 c 0,0 0,-0.648 -0.647,-0.648 z"
   id="path22"
   style="fill:#34373a;fill-opacity:1;stroke:#000000" />
	<path
   clip-path="url(#SVGID_2_)"
   fill="#20221d"
   d="m 64.537,31.916 c 0,0 -0.647,0 -0.647,0.648 v 5.624 c 0,0 0,0.648 0.647,0.648 h 5.625 c 0,0 0.647,0 0.647,-0.648 v -5.624 c 0,0 0,-0.648 -0.647,-0.648 z"
   id="path23"
   style="fill:#34373a;fill-opacity:1;stroke:#000000" />
	<path
   clip-path="url(#SVGID_2_)"
   fill="#20221d"
   d="m 54.439,31.916 c 0,0 -0.648,0 -0.648,0.648 v 5.624 c 0,0 0,0.648 0.648,0.648 h 5.624 c 0,0 0.647,0 0.647,-0.648 v -5.624 c 0,0 0,-0.648 -0.647,-0.648 z"
   id="path24"
   style="fill:#34373a;fill-opacity:1;stroke:#000000" />
	<path
   clip-path="url(#SVGID_2_)"
   fill="#20221d"
   d="m 44.342,31.916 c 0,0 -0.648,0 -0.648,0.648 v 5.624 c 0,0 0,0.648 0.648,0.648 h 5.624 c 0,0 0.647,0 0.647,-0.648 v -5.624 c 0,0 0,-0.648 -0.647,-0.648 z"
   id="path25"
   style="fill:#34373a;fill-opacity:1;stroke:#000000" />
	<path
   clip-path="url(#SVGID_2_)"
   fill="#20221d"
   d="m 34.244,31.916 c 0,0 -0.648,0 -0.648,0.648 v 5.624 c 0,0 0,0.648 0.648,0.648 h 5.624 c 0,0 0.648,0 0.648,-0.648 v -5.624 c 0,0 0,-0.648 -0.648,-0.648 z"
   id="path26"
   style="fill:#34373a;fill-opacity:1;stroke:#000000" />
	<path
   clip-path="url(#SVGID_2_)"
   fill="#20221d"
   d="m 24.146,31.916 c 0,0 -0.648,0 -0.648,0.648 v 5.624 c 0,0 0,0.648 0.648,0.648 h 5.624 c 0,0 0.648,0 0.648,-0.648 v -5.624 c 0,0 0,-0.648 -0.648,-0.648 z"
   id="path27"
   style="fill:#34373a;fill-opacity:1;stroke:#000000" />
	<path
   clip-path="url(#SVGID_2_)"
   fill="#20221d"
   d="m 84.733,31.916 c 0,0 -0.647,0 -0.647,0.648 v 5.624 c 0,0 0,0.648 0.647,0.648 h 5.624 c 0,0 0.648,0 0.648,-0.648 v -5.624 c 0,0 0,-0.648 -0.648,-0.648 z"
   id="path28"
   style="fill:#34373a;fill-opacity:1;stroke:#000000" />
	<path
   clip-path="url(#SVGID_2_)"
   fill="#20221d"
   d="m 94.832,31.916 c 0,0 -0.648,0 -0.648,0.648 v 5.624 c 0,0 0,0.648 0.648,0.648 h 5.623 c 0,0 0.648,0 0.648,-0.648 v -5.624 c 0,0 0,-0.648 -0.648,-0.648 z"
   id="path29"
   style="fill:#34373a;fill-opacity:1;stroke:#000000" />
	<path
   clip-path="url(#SVGID_2_)"
   fill="#20221d"
   d="m 104.93,31.916 c 0,0 -0.648,0 -0.648,0.648 v 5.624 c 0,0 0,0.648 0.648,0.648 h 5.623 c 0,0 0.648,0 0.648,-0.648 v -5.624 c 0,0 0,-0.648 -0.648,-0.648 z"
   id="path30"
   style="fill:#34373a;fill-opacity:1;stroke:#000000" />
	<path
   clip-path="url(#SVGID_2_)"
   fill="#20221d"
   d="m 115.027,31.916 c 0,0 -0.648,0 -0.648,0.648 v 5.624 c 0,0 0,0.648 0.648,0.648 h 5.624 c 0,0 0.647,0 0.647,-0.648 v -5.624 c 0,0 0,-0.648 -0.647,-0.648 z"
   id="path31"
   style="fill:#34373a;fill-opacity:1;stroke:#000000" />
</g><ellipse
     style="vector-effect:non-scaling-stroke;fill:#34373a;stroke-width:2.48945;stroke-linecap:round;-inkscape-stroke:hairline;paint-order:markers fill stroke"
     id="Mouse"
     cx="30.733223"
     cy="20.4013"
     rx="1"
     ry="1.5" /><g
     id="Monitor"
     transform="matrix(0.0139983,0,0,0.01101845,23.443547,13.400779)"><path
       style="color:#000000;font-style:normal;font-variant:normal;font-weight:normal;font-stretch:normal;font-size:medium;line-height:normal;font-family:sans-serif;font-variant-ligatures:normal;font-variant-position:normal;font-variant-caps:normal;font-variant-numeric:normal;font-variant-alternates:normal;font-feature-settings:normal;text-indent:0;text-align:start;text-decoration:none;text-decoration-line:none;text-decoration-style:solid;text-decoration-color:#000000;letter-spacing:normal;word-spacing:normal;text-transform:none;writing-mode:lr-tb;direction:ltr;text-orientation:mixed;dominant-baseline:auto;baseline-shift:baseline;text-anchor:start;white-space:normal;shape-padding:0;clip-rule:nonzero;display:inline;overflow:visible;visibility:visible;opacity:0.99;isolation:auto;mix-blend-mode:normal;color-interpolation:sRGB;color-interpolation-filters:linearRGB;solid-color:#000000;solid-opacity:1;vector-effect:none;fill:#808080;fill-opacity:1;fill-rule:nonzero;stroke:#808080;stroke-width:38.9367;stroke-linecap:round;stroke-linejoin:round;stroke-miterlimit:4;stroke-dasharray:none;stroke-dashoffset:0;stroke-opacity:1;paint-order:stroke fill markers;color-rendering:auto;image-rendering:auto;shape-rendering:auto;text-rendering:auto;enable-background:accumulate"
       d="m -141.81984,329.26365 c -4.75609,0.0189 -11.73162,4.94914 -12.53539,9.61281 l -6.70408,38.89852 c -0.80378,4.66368 3.85546,8.56868 8.61157,8.56868 H 231.6573 c 4.75612,0 9.44017,-3.90935 8.61158,-8.56868 0,0 -4.67259,-26.27421 -7.00883,-39.41136 -0.82858,-4.65933 -6.85939,-10.57973 -11.61547,-10.56132 -121.15487,0.46881 -242.309559,0.99276 -363.46442,1.46135 z"
       id="rect4647-6"
       inkscape:connector-curvature="0"
       sodipodi:nodetypes="sssssssss" /><path
       sodipodi:nodetypes="sssssssss"
       inkscape:connector-curvature="0"
       id="path4527"
       d="m -142.3479,327.99252 c -4.77634,0.0151 -11.78156,4.37129 -12.58876,8.49037 l -6.73264,34.35658 c -0.80719,4.11916 3.87189,7.56817 8.64825,7.56817 h 385.7407 c 4.77634,0 9.48031,-3.45286 8.64817,-7.56817 0,0 -4.69247,-23.20633 -7.03862,-34.80948 -0.83213,-4.11538 -6.88856,-9.34443 -11.66498,-9.32822 -121.67078,0.41401 -243.341331,0.87689 -365.01212,1.29075 z"
       style="color:#000000;font-style:normal;font-variant:normal;font-weight:normal;font-stretch:normal;font-size:medium;line-height:normal;font-family:sans-serif;font-variant-ligatures:normal;font-variant-position:normal;font-variant-caps:normal;font-variant-numeric:normal;font-variant-alternates:normal;font-feature-settings:normal;text-indent:0;text-align:start;text-decoration:none;text-decoration-line:none;text-decoration-style:solid;text-decoration-color:#000000;letter-spacing:normal;word-spacing:normal;text-transform:none;writing-mode:lr-tb;direction:ltr;text-orientation:mixed;dominant-baseline:auto;baseline-shift:baseline;text-anchor:start;white-space:normal;shape-padding:0;clip-rule:nonzero;display:inline;overflow:visible;visibility:visible;isolation:auto;mix-blend-mode:normal;color-interpolation:sRGB;color-interpolation-filters:linearRGB;solid-color:#000000;solid-opacity:1;vector-effect:none;fill:#333333;fill-opacity:1;fill-rule:nonzero;stroke:#333333;stroke-width:35.6025;stroke-linecap:round;stroke-linejoin:round;stroke-miterlimit:4;stroke-dasharray:none;stroke-dashoffset:0;stroke-opacity:1;paint-order:stroke fill markers;color-rendering:auto;image-rendering:auto;shape-rendering:auto;text-rendering:auto;enable-background:accumulate" /><path
       style="display:inline;fill:none;stroke:#000000;stroke-width:7.80472;stroke-linecap:round;stroke-linejoin:round;stroke-miterlimit:4;stroke-dasharray:none;stroke-opacity:1"
       d="M -8.379473,340.67393 H 87.882374 Z"
       id="path4626"
       inkscape:connector-curvature="0" /><rect
       style="display:inline;opacity:0.99;fill:#666666;stroke:none;stroke-width:7.51166;stroke-linecap:round;stroke-linejoin:round;stroke-miterlimit:4;stroke-dasharray:none;stroke-opacity:1;paint-order:stroke fill markers"
       id="rect4624"
       width="96.261841"
       height="85.191559"
       x="-8.379425"
       y="253.48242" /><rect
       style="display:inline;opacity:0.99;fill:#b4bbc1;fill-opacity:1;stroke:#000000;stroke-width:26.6925;stroke-linecap:round;stroke-linejoin:round;stroke-miterlimit:4;stroke-dasharray:none;stroke-opacity:1;paint-order:stroke fill markers"
       id="rect4485-5"
       width="963.78882"
       height="619.33716"
       x="-442.14294"
       y="-384.14066" /><rect
       style="display:inline;opacity:0.99;fill:none;stroke:#000000;stroke-width:40.25984545;stroke-linecap:round;stroke-linejoin:round;stroke-miterlimit:4;stroke-dasharray:none;stroke-opacity:1;paint-order:stroke fill markers"
       id="rect4485-3"
       width="989.86359"
       height="646.56628"
       x="-455.1803"
       y="-397.1803" /></g><g
     id="Qubes-Desktop"
     transform="matrix(0.00520717,0,0,0.00520717,17.565144,9.76834)"><g
       transform="translate(1846.2405,963.7804)"
       id="g4623"
       style="display:inline"><rect
         width="2590.9285"
         height="1310.5269"
         ry="0"
         x="-1905.9364"
         y="-1079.0438"
         id="rect4364"
         style="display:inline;fill:#3774a6;fill-opacity:1;fill-rule:nonzero;stroke:none;stroke-width:1.27948" /><path
         d="m -1478.5408,-278.70099 a 15.314317,15.314317 0 0 0 -8.0206,2.0539 l -51.7317,29.8567 a 15.314317,15.314317 0 0 0 -7.6614,13.2609 v 59.7446 a 15.314317,15.314317 0 0 0 7.6614,13.2453 l 51.7317,29.88 a 15.314317,15.314317 0 0 0 15.3149,0 l 51.7395,-29.88 a 15.314317,15.314317 0 0 0 7.6536,-13.2453 v -59.7446 a 15.314317,15.314317 0 0 0 -7.6536,-13.2609 l -51.7395,-29.8567 a 15.314317,15.314317 0 0 0 -7.2943,-2.0539 z m -0.164,33.7692 a 8.4228744,8.4228744 0 0 1 4.0142,1.1247 l 28.4587,16.4239 a 8.4228744,8.4228744 0 0 1 4.2095,7.2943 v 32.8634 a 8.4228744,8.4228744 0 0 1 -4.2095,7.2786 l -28.4587,16.4396 a 8.4228744,8.4228744 0 0 1 -8.4189,0 l -28.4587,-16.4396 a 8.4228744,8.4228744 0 0 1 -4.2095,-7.2786 v -32.8634 a 8.4228744,8.4228744 0 0 1 4.2095,-7.2943 l 28.4587,-16.4239 a 8.4228744,8.4228744 0 0 1 4.4047,-1.1247 z"
         inkscape:connector-curvature="0"
         id="path4366"
         style="color:#000000;font-style:normal;font-variant:normal;font-weight:normal;font-stretch:normal;font-size:medium;line-height:normal;font-family:Sans;-inkscape-font-specification:Sans;text-indent:0;text-align:start;text-decoration:none;text-decoration-line:none;letter-spacing:normal;word-spacing:normal;text-transform:none;writing-mode:lr-tb;direction:ltr;baseline-shift:baseline;text-anchor:start;display:inline;overflow:visible;visibility:visible;opacity:0.08;fill:#ffffff;fill-opacity:1;fill-rule:nonzero;stroke:none;stroke-width:116.01;marker:none;enable-background:accumulate" /><path
         d="m -1439.895,-358.01649 a 15.314317,15.314317 0 0 0 -8.02,2.0481 l -51.7381,29.86 a 15.314317,15.314317 0 0 0 -7.6564,13.2646 v 59.739 a 15.314317,15.314317 0 0 0 7.6564,13.2457 l 51.7381,29.8789 a 15.314317,15.314317 0 0 0 15.3128,0 l 51.738,-29.8789 a 15.314317,15.314317 0 0 0 7.6564,-13.2457 v -59.739 a 15.314317,15.314317 0 0 0 -7.6564,-13.2646 l -51.738,-29.86 a 15.314317,15.314317 0 0 0 -7.2928,-2.0481 z"
         inkscape:connector-curvature="0"
         id="path4368"
         style="color:#000000;font-style:normal;font-variant:normal;font-weight:normal;font-stretch:normal;font-size:medium;line-height:normal;font-family:Sans;-inkscape-font-specification:Sans;text-indent:0;text-align:start;text-decoration:none;text-decoration-line:none;letter-spacing:normal;word-spacing:normal;text-transform:none;writing-mode:lr-tb;direction:ltr;baseline-shift:baseline;text-anchor:start;display:inline;overflow:visible;visibility:visible;opacity:0.1852;fill:#ffffff;fill-opacity:1;fill-rule:nonzero;stroke:none;stroke-width:116.01;marker:none;enable-background:accumulate" /><path
         d="m -1440.0587,-324.24779 a 8.4228744,8.4228744 0 0 0 -4.4109,1.1266 l -28.456,16.4229 a 8.4228744,8.4228744 0 0 0 -4.211,7.2955 v 32.8565 a 8.4228744,8.4228744 0 0 0 4.211,7.2851 l 28.456,16.4334 a 8.4228744,8.4228744 0 0 0 8.422,0 l 28.456,-16.4334 a 8.4228744,8.4228744 0 0 0 4.2109,-7.2851 v -32.8565 a 8.4228744,8.4228744 0 0 0 -4.2109,-7.2955 l -28.456,-16.4229 a 8.4228744,8.4228744 0 0 0 -4.0111,-1.1266 z"
         inkscape:connector-curvature="0"
         id="path4370"
         style="color:#000000;font-style:normal;font-variant:normal;font-weight:normal;font-stretch:normal;font-size:medium;line-height:normal;font-family:Sans;-inkscape-font-specification:Sans;text-indent:0;text-align:start;text-decoration:none;text-decoration-line:none;letter-spacing:normal;word-spacing:normal;text-transform:none;writing-mode:lr-tb;direction:ltr;baseline-shift:baseline;text-anchor:start;display:inline;overflow:visible;visibility:visible;opacity:0.2192;fill:#ffffff;fill-opacity:1;fill-rule:nonzero;stroke:none;stroke-width:116.01;marker:none;enable-background:accumulate" /><path
         d="m -1349.2111,-187.17979 -29.2553,16.8846 a 8.4228744,8.4228744 0 0 1 1.1324,4.2095 v 32.8555 a 8.4228744,8.4228744 0 0 1 -4.2095,7.2866 l -28.4508,16.4316 a 8.4228744,8.4228744 0 0 1 -4.1939,1.1169 v 33.769199 a 15.314317,15.314317 0 0 0 7.638,-2.0384 l 51.7394,-29.879899 a 15.314317,15.314317 0 0 0 7.6536,-13.2453 v -59.7368 a 15.314317,15.314317 0 0 0 -2.0539,-7.6535 z"
         inkscape:connector-curvature="0"
         id="path4372"
         style="display:inline;opacity:0.25;fill:#ffffff;fill-opacity:1;stroke:none" /><path
         d="m -1602.9205,-187.36249 29.2502,16.8935 a 8.4228744,8.4228744 0 0 1 3.0793,-3.0854 l 28.4538,-16.4278 a 8.4228744,8.4228744 0 0 1 8.415,0 l 28.4558,16.4234 a 8.4228744,8.4228744 0 0 1 3.0641,3.0735 l 29.245,-16.8846 a 15.314317,15.314317 0 0 0 -5.5842,-5.5955 l -51.7467,-29.8677 a 15.314317,15.314317 0 0 0 -15.2975,-0.01 l -51.7336,29.8684 a 15.314317,15.314317 0 0 0 -5.6012,5.6055 z"
         inkscape:connector-curvature="0"
         id="path4374"
         style="display:inline;opacity:0.3;fill:#ffffff;fill-opacity:1;stroke:none" /><path
         d="m -1449.7667,-163.09029 -29.2553,16.8848 a 8.4228744,8.4228744 0 0 1 1.1324,4.2094 v 32.8555 a 8.4228744,8.4228744 0 0 1 -4.2094,7.2866 l -28.4509,16.431599 a 8.4228744,8.4228744 0 0 1 -4.1939,1.1168 v 33.7693 a 15.314317,15.314317 0 0 0 7.638,-2.0383 l 11.5194,-6.6539 18.4544,10.7228 c 4.4778,2.5999 11.6883,2.5999 16.1661,0 l 14.1201,-8.1925 c 4.4778,-2.5999 4.4778,-6.7874 0,-9.3873 l -18.3842,-10.6759 9.8637,-5.6933 a 15.314317,15.314317 0 0 0 7.6535,-13.2453 v -59.736699 a 15.314317,15.314317 0 0 0 -2.0539,-7.6536 z"
         inkscape:connector-curvature="0"
         id="path4376"
         style="display:inline;opacity:0.16;fill:#ffffff;fill-opacity:1;stroke:none" /><rect
         width="35.016224"
         height="49.001659"
         ry="9.3463697"
         x="-838.93134"
         y="-882.48102"
         transform="matrix(0.8648017,-0.50211355,0.8648017,0.50211355,0,0)"
         id="rect4378"
         style="display:inline;opacity:0.29148;fill:#ffffff;fill-opacity:1;stroke:none" /><rect
         width="35.016224"
         height="49.001656"
         ry="9.3463688"
         x="-523.46747"
         y="-1057.7294"
         transform="matrix(0.8648017,-0.50211356,0.8648017,0.50211356,0,0)"
         id="rect4380"
         style="display:inline;opacity:0.9;fill:#ffffff;fill-opacity:1;stroke:none" /><path
         d="m -1370.3918,-400.47519 a 15.314317,15.314317 0 0 0 -8.0206,2.054 l -51.7317,29.8566 a 15.314317,15.314317 0 0 0 -7.6614,13.261 v 59.7445 a 15.314317,15.314317 0 0 0 7.6614,13.2453 l 51.7317,29.8801 a 15.314317,15.314317 0 0 0 15.3149,0 l 51.7395,-29.8801 a 15.314317,15.314317 0 0 0 7.6536,-13.2453 v -59.7445 a 15.314317,15.314317 0 0 0 -7.6536,-13.261 l -51.7395,-29.8566 a 15.314317,15.314317 0 0 0 -7.2943,-2.054 z m -0.164,33.7693 a 8.422874,8.422874 0 0 1 4.0142,1.1246 l 28.4587,16.4239 a 8.422874,8.422874 0 0 1 4.2095,7.2943 v 32.8634 a 8.422874,8.422874 0 0 1 -4.2095,7.2787 l -28.4587,16.4395 a 8.422874,8.422874 0 0 1 -8.4189,0 l -28.4587,-16.4395 a 8.422874,8.422874 0 0 1 -4.2095,-7.2787 v -32.8634 a 8.422874,8.422874 0 0 1 4.2095,-7.2943 l 28.4587,-16.4239 a 8.422874,8.422874 0 0 1 4.4047,-1.1246 z"
         inkscape:connector-curvature="0"
         id="path4382"
         style="color:#000000;font-style:normal;font-variant:normal;font-weight:normal;font-stretch:normal;font-size:medium;line-height:normal;font-family:Sans;-inkscape-font-specification:Sans;text-indent:0;text-align:start;text-decoration:none;text-decoration-line:none;letter-spacing:normal;word-spacing:normal;text-transform:none;writing-mode:lr-tb;direction:ltr;baseline-shift:baseline;text-anchor:start;display:inline;overflow:visible;visibility:visible;opacity:0.9;fill:#ffffff;fill-opacity:1;fill-rule:nonzero;stroke:none;stroke-width:116.01;marker:none;enable-background:accumulate" /><path
         d="m -1528.3341,-2.5074909 0.01,-33.7781001 a 8.4228744,8.4228744 0 0 1 -4.2118,-1.1241 l -28.4537,-16.4277 a 8.4228744,8.4228744 0 0 1 -4.2053,-7.2889 l -0.01,-32.855 a 8.4228744,8.4228744 0 0 1 1.1298,-4.1904 l -29.2451,-16.884599 a 15.314317,15.314317 0 0 0 -2.0537,7.6338 l 0.01,59.747699 a 15.314317,15.314317 0 0 0 7.644,13.2509 l 51.7335,29.8683001 a 15.314317,15.314317 0 0 0 7.6551,2.048 z"
         inkscape:connector-curvature="0"
         id="path4384"
         style="display:inline;opacity:0.125561;fill:#ffffff;fill-opacity:1;stroke:none" /></g></g></svg>
