<?xml version="1.0" encoding="UTF-8" standalone="no"?>
<svg
   width="48px"
   height="48px"
   viewBox="0 0 48 48"
   version="1.1"
   id="svg3"
   sodipodi:docname="qube-debug-black.svg"
   inkscape:version="1.4.2 (ebf0e940d0, 2025-05-08)"
   xmlns:inkscape="http://www.inkscape.org/namespaces/inkscape"
   xmlns:sodipodi="http://sodipodi.sourceforge.net/DTD/sodipodi-0.dtd"
   xmlns:xlink="http://www.w3.org/1999/xlink"
   xmlns="http://www.w3.org/2000/svg"
   xmlns:svg="http://www.w3.org/2000/svg">
  <sodipodi:namedview
     id="namedview3"
     pagecolor="#505050"
     bordercolor="#eeeeee"
     borderopacity="1"
     inkscape:showpageshadow="0"
     inkscape:pageopacity="0"
     inkscape:pagecheckerboard="0"
     inkscape:deskcolor="#505050"
     inkscape:zoom="10.416667"
     inkscape:cx="13.728"
     inkscape:cy="23.999999"
     inkscape:window-width="1366"
     inkscape:window-height="709"
     inkscape:window-x="0"
     inkscape:window-y="59"
     inkscape:window-maximized="1"
     inkscape:current-layer="svg3" />
  <title
     id="title1">Vector Perfect Qute Qube</title>
  <defs
     id="defs1">
    <polygon
       id="path-1"
       points="0.264506174 0.398583241 40.0936 0.398583241 40.0936 46 0.264506174 46" />
    <polygon
       id="path-3"
       points="0 0.361 40.9599938 0.361 40.9599938 45.9620167 0 45.9620167" />
    <polygon
       id="path-5"
       points="0 0.0254 20.6328606 0.0254 20.6328606 33.9504 0 33.9504" />
  </defs>
  <rect
     id="Rectangle"
     x="0"
     y="0"
     width="48"
     height="48"
     style="fill:none;fill-rule:evenodd;stroke:none;stroke-width:1" />
  <g
     id="FromIllustrator"
     transform="translate(3)"
     style="fill:none;fill-rule:evenodd;stroke:none;stroke-width:1">
    <g
       id="Shado"
       transform="translate(2,0.6395)">
      <mask
         id="mask-2"
         fill="#ffffff">
        <use
           xlink:href="#path-1"
           id="use1" />
      </mask>
      <g
         id="Clip-2" />
      <path
         d="m 18.8596,0.9446 -8.223,4.747 -8.222,4.748 c -0.627,0.361 -1.135,0.876 -1.487,1.482 -0.351,0.605 -0.547,1.3 -0.552,2.024 l -0.056,9.35 -0.0550938,9.35 C 0.2596,33.3826 0.4546,34.0916 0.8106,34.7086 c 0.356,0.616 0.873,1.139 1.513,1.504 l 8.125,4.627 8.125,4.626 c 0.629,0.359 1.33,0.537 2.03,0.535017 0.7,-0.002 1.399,-0.185017 2.026,-0.547017 l 7.656,-4.521 7.657,-4.52 c 0.626,-0.363 1.162,-0.962 1.542,-1.652 0.38,-0.69 0.604,-1.47 0.609,-2.195 l -0.001,-9.35 -10e-4,-9.349 c 0.004,-0.737 -0.134,-1.588 -0.433,-2.347 -0.299,-0.758 -0.759,-1.423 -1.4,-1.787 l -7.671,-4.4 -7.672,-4.4 c -0.629,-0.359 -1.33,-0.536 -2.03,-0.53401676 C 20.1856,0.4006 19.4866,0.5826 18.8596,0.9446"
         id="Fill-1"
         fill="#000000"
         mask="url(#mask-2)" />
    </g>
    <g
       id="Main"
       transform="translate(0,0.6395)">
      <mask
         id="mask-4"
         fill="#ffffff">
        <use
           xlink:href="#path-3"
           id="use2" />
      </mask>
      <g
         id="Clip-5" />
      <path
         d="m 18.5949,0.907 -8.223,4.748 -8.222,4.747 c -0.627,0.362 -1.135,0.877 -1.486,1.481 -0.352,0.606 -0.548,1.301 -0.552,2.024 l -0.056,9.351 -0.0560606432,9.35 C -0.0041,33.345 0.1899,34.054 0.5459,34.67 c 0.356,0.616 0.873,1.14 1.513,1.505 l 8.125,4.626 8.126,4.627 c 0.629,0.358 1.329,0.536 2.029,0.534017 0.7,-0.002 1.4,-0.184017 2.027,-0.546017 l 8.222,-4.748 8.223,-4.747 c 0.627,-0.361 1.134,-0.876 1.486,-1.481 0.352,-0.606 0.548,-1.301 0.552,-2.025 l 0.056,-9.35 0.05509,-9.35 c 0.0049,-0.737 -0.19009,-1.446 -0.54609,-2.062 -0.356,-0.617 -0.873,-1.14 -1.513,-1.504 L 30.7759,5.522 22.6509,0.895 C 22.0219,0.536 21.3219,0.359 20.6209,0.36098324 19.9219,0.363 19.2219,0.545 18.5949,0.907"
         id="Fill-4"
         fill="#585858"
         mask="url(#mask-4)" />
    </g>
    <g
       id="Side"
       transform="translate(0,12.6395)">
      <mask
         id="mask-6"
         fill="#ffffff">
        <use
           xlink:href="#path-5"
           id="use3" />
      </mask>
      <g
         id="Clip-8" />
      <path
         d="m 0.5988,0.0344 c 0.306,0.02 0.599,0.072 0.885,0.159 0.286,0.087 0.565,0.209 0.84,0.365 l 8.125,4.627 8.125,4.627 c 0.64,0.365 1.157,0.888 1.513,1.504 0.356,0.616 0.55,1.326 0.546061,2.063 l -0.05506,9.35 -0.056,9.35 c -0.002,0.332 -0.045,0.657 -0.124,0.972 -0.079,0.313 -0.195,0.616 -0.344,0.899 l -0.12,-0.01 -0.119,-0.01 c -0.26,-0.034 -0.519,-0.091 -0.771,-0.175 -0.253,-0.084 -0.498,-0.193 -0.734,-0.327 l -8.126,-4.627 -8.125,-4.626 c -0.64,-0.366 -1.157,-0.889 -1.513,-1.505 -0.356,-0.616 -0.55,-1.325 -0.54606064321,-2.063 L 0.0558,11.2584 0.1118,1.9074 c 0.002,-0.361 0.033,-0.681 0.108,-0.985 0.075,-0.305 0.194,-0.595 0.37,-0.897 l 0.004,0.004 z"
         id="Fill-7"
         fill="#000000"
         mask="url(#mask-6)" />
    </g>
  </g>
  <path
     d="m 4.6885189,26.865116 c 0.773745,0.680896 1.9498374,1.114193 2.9557059,1.222517 v 2.259336 h 1.5165403 v -2.30576 c 1.7177139,-0.294024 2.6307329,-1.330842 2.6307329,-2.630734 0,-2.816431 -4.5031959,-2.677157 -4.5031959,-3.775875 0,-0.464247 0.3713976,-0.711846 1.0677682,-0.711846 0.8511195,0 1.4236908,0.263074 2.1510107,0.773745 l 1.129668,-1.299891 C 11.002278,19.746662 10.228533,19.26694 9.1607651,19.127666 V 17.115929 H 7.6442248 v 2.027212 c -1.5629649,0.247598 -2.5378836,1.191567 -2.5378836,2.522409 0,2.847381 4.5186709,2.615258 4.5186709,3.915149 0,0.433298 -0.4023474,0.696371 -1.1451426,0.696371 -0.9749188,0 -1.8260383,-0.355923 -2.800957,-0.959444 z m 9.2230471,4.317497 h 7.427952 v -1.702239 h -7.427952 z"
     id="text3"
     style="font-weight:bold;font-size:15.4749px;font-family:'Source Code Pro';-inkscape-font-specification:'Source Code Pro, Bold';text-align:center;text-anchor:middle;fill:#ffffff;stroke-width:1.93436;stroke-linecap:round;stroke-linejoin:round;paint-order:markers fill stroke"
     transform="skewY(30)"
     aria-label="$_"
     inkscape:label="Console" />
</svg>
