<?xml version="1.0" encoding="UTF-8" standalone="no"?>
<svg
   width="48px"
   height="48px"
   viewBox="0 0 48 48"
   version="1.1"
   id="svg2"
   sodipodi:docname="qube-store.svg"
   inkscape:version="1.3.2 (091e20ef0f, 2023-11-25)"
   xmlns:inkscape="http://www.inkscape.org/namespaces/inkscape"
   xmlns:sodipodi="http://sodipodi.sourceforge.net/DTD/sodipodi-0.dtd"
   xmlns="http://www.w3.org/2000/svg"
   xmlns:svg="http://www.w3.org/2000/svg"
   xmlns:rdf="http://www.w3.org/1999/02/22-rdf-syntax-ns#"
   xmlns:cc="http://creativecommons.org/ns#"
   xmlns:dc="http://purl.org/dc/elements/1.1/">
  <title
     id="AxonometricIcon">Axonometric Qube</title>
  <sodipodi:namedview
     id="namedview"
     pagecolor="#ffffff"
     bordercolor="#000000"
     borderopacity="0.25"
     inkscape:showpageshadow="2"
     inkscape:pageopacity="0.0"
     inkscape:pagecheckerboard="0"
     inkscape:deskcolor="#d1d1d1"
     showguides="true"
     inkscape:zoom="8.0000001"
     inkscape:cx="17.3125"
     inkscape:cy="28.8125"
     inkscape:window-width="1440"
     inkscape:window-height="843"
     inkscape:window-x="0"
     inkscape:window-y="33"
     inkscape:window-maximized="1"
     inkscape:current-layer="svg2" />
  <defs
     id="defs1">
    <linearGradient
       id="linearGradient34659">
      <stop
         style="stop-color:#340029;stop-opacity:1;"
         offset="0"
         id="stop34661" />
      <stop
         style="stop-color:#84273d;stop-opacity:1;"
         offset="1"
         id="stop34663" />
    </linearGradient>
    <linearGradient
       id="linearGradient34667">
      <stop
         style="stop-color:#ff4833;stop-opacity:1;"
         offset="0"
         id="stop34669" />
      <stop
         style="stop-color:#ffc4a2;stop-opacity:1;"
         offset="1"
         id="stop34671" />
    </linearGradient>
    <linearGradient
       id="linearGradient34651">
      <stop
         style="stop-color:#ff4b41;stop-opacity:1;"
         offset="0"
         id="stop34653" />
      <stop
         style="stop-color:#522a36;stop-opacity:1;"
         offset="1"
         id="stop34655" />
    </linearGradient>
    <linearGradient
       id="linearGradient34639">
      <stop
         style="stop-color:#646468;stop-opacity:1;"
         offset="0"
         id="stop34641" />
      <stop
         style="stop-color:#232325;stop-opacity:1;"
         offset="1"
         id="stop34643" />
    </linearGradient>
    <linearGradient
       id="linearGradient34683">
      <stop
         style="stop-color:#000000;stop-opacity:1;"
         offset="0"
         id="stop34685" />
      <stop
         style="stop-color:#5d504d;stop-opacity:1;"
         offset="1"
         id="stop34687" />
    </linearGradient>
    <linearGradient
       id="linearGradient34631">
      <stop
         style="stop-color:#2e2c2e;stop-opacity:1;"
         offset="0"
         id="stop34633" />
      <stop
         style="stop-color:#95918d;stop-opacity:1;"
         offset="1"
         id="stop34635" />
    </linearGradient>
  </defs>
  <metadata
     id="metadata1">
    <rdf:RDF>
      <cc:Work
         rdf:about="">
        <cc:license
           rdf:resource="http://creativecommons.org/licenses/by-sa/4.0/" />
        <dc:date>2024-06-08</dc:date>
        <dc:title>Axonometric Qube</dc:title>
        <dc:source>https://github.com/alimirjamali/personal-qubesos</dc:source>
        <dc:subject>
          <rdf:Bag>
            <rdf:li>Qubes</rdf:li>
            <rdf:li>Qubes-OS</rdf:li>
            <rdf:li>Isometric Tower</rdf:li>
          </rdf:Bag>
        </dc:subject>
        <dc:contributor>
          <cc:Agent>
            <dc:title>rg1024
Ali Mirjamali</dc:title>
          </cc:Agent>
        </dc:contributor>
        <dc:description>Isometric Tower
Iconized drawing of rg1024's design</dc:description>
        <dc:source>https://github.com/alimirjamali/personal-qubesos</dc:source>
        <dc:creator>
          <cc:Agent>
            <dc:title>Ali Mirjamali</dc:title>
          </cc:Agent>
        </dc:creator>
        <dc:rights>
          <cc:Agent>
            <dc:title>CC0</dc:title>
          </cc:Agent>
        </dc:rights>
      </cc:Work>
      <cc:License
         rdf:about="http://creativecommons.org/licenses/by-sa/4.0/">
        <cc:permits
           rdf:resource="http://creativecommons.org/ns#Reproduction" />
        <cc:permits
           rdf:resource="http://creativecommons.org/ns#Distribution" />
        <cc:requires
           rdf:resource="http://creativecommons.org/ns#Notice" />
        <cc:requires
           rdf:resource="http://creativecommons.org/ns#Attribution" />
        <cc:permits
           rdf:resource="http://creativecommons.org/ns#DerivativeWorks" />
        <cc:requires
           rdf:resource="http://creativecommons.org/ns#ShareAlike" />
      </cc:License>
    </rdf:RDF>
  </metadata>
  <g
     id="layer1"
     inkscape:label="Layer 1"
     inkscape:groupmode="layer"
     transform="matrix(0.33214106,0,0,0.33214106,-92.249022,-152.87457)" />
  <g
     id="g70"
     transform="matrix(0.02693594,0,0,0.02693594,-0.97131082,1.5701143)">
    <path
       fill="#c83737"
       stroke="#c83737"
       stroke-width="0.5"
       d="m 619.823,209.935 c 102.384,-59.1 204.739,-118.238 307.142,-177.311 200.431,115.582 400.749,231.351 601.142,347.008 13.996,8.232 28.264,16.042 42.11,24.528 -120.82,69.924 -241.78,139.612 -362.647,209.461 -93.26,53.778 -186.435,107.716 -279.741,161.428 -17.047,-9.124 -33.427,-19.459 -50.436,-28.649 -16.286,-9.143 -32.488,-18.445 -48.502,-28.039 -13.104,-7.96 -26.537,-15.348 -39.735,-23.148 -3.605,-2.121 -7.237,-4.196 -10.955,-6.102 -16.352,-9.087 -32.516,-18.539 -48.634,-28.029 -10.307,-6.449 -21.008,-12.231 -31.465,-18.417 -6.261,-3.558 -12.4,-7.322 -18.793,-10.626 -16.286,-9.133 -32.479,-18.455 -48.503,-28.039 -16.568,-9.819 -33.202,-19.553 -50.089,-28.827 -16.474,-9.34 -32.892,-18.783 -49.188,-28.424 -13.489,-8.364 -27.476,-15.892 -41.106,-24.021 -2.891,-1.699 -5.839,-3.267 -8.814,-4.787 -16.521,-9.293 -32.901,-18.868 -49.282,-28.405 -16.324,-9.941 -32.911,-19.459 -49.648,-28.687 -16.465,-9.359 -32.883,-18.783 -49.178,-28.433 -16.117,-9.931 -32.826,-18.868 -49.009,-28.696 16.033,-9.622 32.31,-18.849 48.549,-28.114 13.508,7.059 26.453,15.122 39.735,22.594 63.249,36.149 126.189,72.833 189.316,109.18 121.628,70.299 243.358,140.411 364.938,210.775 6.899,-3.267 13.264,-7.491 19.929,-11.189 10.119,-5.904 20.388,-11.546 30.357,-17.713 66.094,-38.411 132.385,-76.485 198.572,-114.746 81.779,-47.31 163.699,-94.386 245.422,-141.809 9.321,-5.163 18.492,-10.607 27.738,-15.92 7.19,-4.337 14.831,-7.97 21.618,-12.973 -14.747,-9.04 -29.935,-17.347 -44.86,-26.105 C 1261.187,282.629 1096.53,187.614 931.91,92.533 c -1.652,-0.901 -3.314,-1.774 -4.956,-2.657 -88.641,50.868 -177.029,102.196 -265.604,153.195 -4.018,2.187 -7.725,4.994 -11.978,6.74 -1.784,0.798 -3.605,-0.338 -5.247,-0.929 -18.042,-8.57 -36.9,-15.479 -56.341,-20.135 10.402,-6.712 21.394,-12.485 32.039,-18.812 z"
       id="path1" />
    <path
       fill="#782121"
       stroke="#782121"
       stroke-width="0.5"
       d="m 661.351,243.071 c 88.575,-50.999 176.963,-102.327 265.604,-153.195 0.019,18.999 -0.038,37.998 0.028,56.998 -59.823,34.45 -119.562,69.041 -179.366,103.52 -16.258,9.518 -32.723,18.68 -48.878,28.367 15.273,10.053 30.217,20.623 44.579,31.934 23.711,19.112 46.146,40.045 65.127,63.925 10.438,13.311 19.975,27.598 26.002,43.499 2.591,6.627 3.67,13.705 4.543,20.745 45.865,26.434 91.673,52.961 137.547,79.367 0.272,49.986 0.028,99.971 0.122,149.957 0.075,7.021 -0.488,14.09 0.657,21.064 -9.969,6.167 -20.238,11.809 -30.357,17.713 -6.665,3.698 -13.029,7.923 -19.929,11.189 -0.178,-49.826 -0.019,-99.643 -0.085,-149.469 -0.028,-7.388 0.197,-14.766 -0.206,-22.144 -37.632,-21.487 -75.068,-43.311 -112.625,-64.92 -8.242,-4.891 -16.699,-9.424 -24.847,-14.465 -0.713,-16.446 -8.401,-31.484 -16.906,-45.208 -14.587,-22.651 -33.117,-42.495 -52.858,-60.715 -25.645,-23.43 -53.731,-44.184 -83.582,-61.954 -28.17,-16.718 -57.965,-31.249 -89.664,-39.904 -8.448,-2.469 -17.178,-3.67 -25.824,-5.191 0.207,-7.331 2.694,-14.916 8.373,-19.835 7.923,-7.031 18.99,-8.805 29.231,-9.04 10.016,-0.103 19.957,1.464 29.747,3.436 19.44,4.656 38.299,11.565 56.341,20.135 1.643,0.591 3.464,1.727 5.247,0.929 4.253,-1.744 7.961,-4.551 11.979,-6.738 z"
       id="path2" />
    <path
       fill="#d35f5f"
       stroke="#d35f5f"
       stroke-width="0.5"
       d="m 926.955,89.876 c 1.643,0.882 3.304,1.755 4.956,2.657 164.619,95.081 329.276,190.096 493.896,285.167 14.925,8.758 30.113,17.066 44.86,26.105 -6.787,5.003 -14.428,8.636 -21.618,12.973 -9.246,5.313 -18.417,10.757 -27.738,15.92 -14.118,-8.814 -28.799,-16.718 -43.124,-25.195 -101.586,-58.631 -203.153,-117.281 -304.72,-175.931 -32.704,-18.99 -65.606,-37.632 -98.169,-56.857 -16.061,-9.359 -32.103,-18.736 -48.315,-27.842 -0.066,-18.999 -0.009,-37.998 -0.028,-56.997 z"
       id="path3" />
    <path
       fill="#0c242c"
       stroke="#0c242c"
       stroke-width="0.5"
       d="m 747.617,250.393 c 59.804,-34.478 119.543,-69.069 179.366,-103.52 16.211,9.105 32.254,18.483 48.315,27.842 -2.948,3.586 -7.106,5.717 -11.124,7.829 -66.037,38.167 -132.122,76.25 -198.15,114.427 -7.622,4.478 -15.582,8.439 -22.707,13.724 -14.362,-11.311 -29.306,-21.881 -44.579,-31.934 16.156,-9.688 32.621,-18.85 48.879,-28.368 z"
       id="path4" />
    <path
       fill="#12333b"
       stroke="#12333b"
       stroke-width="0.5"
       d="m 975.298,174.715 c 32.563,19.225 65.465,37.867 98.169,56.857 101.567,58.65 203.134,117.3 304.72,175.931 14.325,8.476 29.006,16.38 43.124,25.195 -81.723,47.423 -163.643,94.499 -245.422,141.809 -66.187,38.261 -132.478,76.335 -198.572,114.746 -1.145,-6.974 -0.582,-14.043 -0.657,-21.064 -0.094,-49.986 0.15,-99.971 -0.122,-149.957 -45.874,-26.406 -91.682,-52.933 -137.547,-79.367 -0.873,-7.04 -1.952,-14.118 -4.543,-20.745 -6.026,-15.902 -15.564,-30.189 -26.002,-43.499 -18.98,-23.88 -41.415,-44.813 -65.127,-63.925 7.125,-5.285 15.085,-9.246 22.707,-13.724 66.028,-38.177 132.112,-76.26 198.15,-114.427 4.016,-2.113 8.174,-4.244 11.122,-7.83 z"
       id="path5" />
    <path
       fill="#782121"
       stroke="#782121"
       stroke-width="0.5"
       d="m 381.422,176.152 c 1.126,-1.098 2.469,-0.197 3.586,0.394 34.76,19.994 69.304,40.355 104.092,60.302 9.622,5.726 19.562,10.945 28.987,17.009 -13.207,-0.066 -28.142,-0.253 -38.684,9.002 -6.045,4.984 -7.941,12.916 -8.73,20.36 -15,-8.326 -29.729,-17.15 -44.644,-25.617 -16.174,-9.49 -32.563,-18.605 -48.596,-28.339 -14.616,-8.467 -29.297,-16.821 -43.865,-25.373 15.872,-9.378 31.924,-18.455 47.854,-27.738 z"
       id="path6" />
    <path
       fill="#d35f5f"
       stroke="#d35f5f"
       stroke-width="0.5"
       d="m 333.098,203.608 0.469,0.282 c 14.569,8.552 29.25,16.906 43.865,25.373 16.033,9.734 32.423,18.849 48.596,28.339 14.916,8.467 29.644,17.291 44.644,25.617 0.789,-7.444 2.685,-15.376 8.73,-20.36 10.542,-9.256 25.476,-9.068 38.684,-9.002 0.779,0.066 1.558,0.178 2.347,0.329 8.645,1.521 17.375,2.722 25.824,5.191 31.7,8.655 61.494,23.186 89.664,39.904 29.851,17.77 57.936,38.524 83.582,61.954 19.741,18.22 38.271,38.064 52.858,60.715 8.505,13.724 16.193,28.762 16.906,45.208 8.148,5.041 16.606,9.575 24.847,14.465 37.557,21.609 74.993,43.434 112.625,64.92 0.404,7.378 0.178,14.756 0.206,22.144 0.066,49.826 -0.094,99.643 0.085,149.469 C 805.45,647.791 683.72,577.679 562.093,507.38 498.966,471.034 436.026,434.349 372.777,398.2 c -13.283,-7.472 -26.227,-15.535 -39.735,-22.594 0.347,-49.535 0.047,-99.079 0.15,-148.615 -0.047,-7.791 0.093,-15.591 -0.094,-23.383 m 113.788,107.416 c -2.347,0.582 -1.69,3.332 -1.849,5.135 0.113,10.335 -0.047,20.68 0.066,31.024 -0.207,2.121 1.577,3.548 2.769,5.05 12.269,13.705 24.303,27.616 36.543,41.35 0.76,1.061 1.971,2.018 2.046,3.426 0.291,4.468 0.047,8.965 0.028,13.452 -3.755,-1.896 -7.388,-4.027 -11.002,-6.167 -0.084,-6.177 0,-12.363 -0.075,-18.539 -10.1,-4.149 -20.051,-8.683 -30.226,-12.635 -0.207,6.045 -0.075,12.1 -0.15,18.154 0.047,2.281 -0.225,4.75 1.098,6.768 3.633,6.017 7.557,11.865 11.189,17.882 1.558,2.422 2.901,5.238 5.613,6.58 13.001,7.397 25.899,14.963 38.89,22.388 5.088,-2.074 10.129,-4.271 15.113,-6.571 0.009,-13.198 0.047,-26.387 0,-39.576 0.216,-1.868 -1.08,-3.285 -2.197,-4.59 -12.391,-13.883 -24.538,-27.973 -36.919,-41.875 -3.774,-3.436 -1.727,-8.983 -2.197,-13.452 3.736,2.065 7.444,4.196 11.095,6.411 -0.038,4.628 -0.038,9.256 0.084,13.883 10.119,4.046 20.032,8.608 30.179,12.597 0.169,-4.75 0.122,-9.5 0.16,-14.24 -0.037,-2.29 0.178,-4.769 -1.22,-6.73 -4.018,-6.289 -8.101,-12.541 -12.081,-18.849 -1.802,-3.304 -5.454,-4.693 -8.505,-6.533 -11.743,-6.608 -23.252,-13.686 -35.107,-20.051 -4.662,1.268 -8.904,3.821 -13.345,5.708 m 73.81,29.193 c -0.103,9.396 -0.131,18.802 0.019,28.208 5.782,3.342 11.724,6.439 17.328,10.072 0.835,3.238 0.338,6.646 0.451,9.96 0.009,25.889 -0.075,51.788 0.038,77.677 10.007,5.67 19.882,11.574 29.935,17.169 0.197,-29.1 0.028,-58.19 0.084,-87.289 6.017,3.229 11.724,7.031 17.873,10.035 0.263,-9.321 0.094,-18.643 0.103,-27.954 -21.928,-12.665 -43.743,-25.525 -65.831,-37.878 m 69.53,55.139 c -0.15,27.128 0.038,54.257 -0.085,81.385 -0.009,2.056 -0.037,4.271 1.249,6.026 4.111,6.505 8.27,13.001 12.372,19.525 1.84,3.267 5.548,4.562 8.57,6.449 11.414,6.364 22.519,13.32 34.065,19.422 3.943,-0.939 7.51,-3.004 11.302,-4.412 1.652,-0.807 4.384,-1.399 3.858,-3.839 0.047,-26.621 -0.038,-53.243 0.038,-79.864 0.037,-1.915 -0.216,-3.877 -1.333,-5.491 -3.464,-5.595 -7.087,-11.095 -10.504,-16.718 -1.539,-2.441 -2.938,-5.2 -5.613,-6.571 -10.936,-6.28 -21.872,-12.56 -32.76,-18.915 -2.075,-1.136 -4.036,-2.6 -6.355,-3.163 -5.07,1.698 -9.811,4.251 -14.804,6.166 m 80.699,31.484 c -0.103,38.515 0.038,77.029 -0.066,115.554 9.969,5.857 19.9,11.818 30.104,17.263 0.319,-15.423 0.056,-30.855 0.141,-46.287 3.943,2.196 7.829,4.506 11.781,6.712 0.225,15.573 0.028,31.146 0.094,46.719 9.997,5.707 19.844,11.677 29.963,17.169 0.225,-13.855 -0.009,-27.71 0.131,-41.566 -0.075,-2.478 0.263,-5.21 -1.277,-7.341 -3.614,-5.679 -7.284,-11.33 -10.908,-17 4.102,-1.887 8.214,-3.764 12.325,-5.66 0.028,-8.796 0.075,-17.582 0.019,-26.368 0.103,-2.581 -1.539,-4.684 -2.816,-6.759 -3.745,-5.689 -7.294,-11.508 -10.955,-17.253 -1.493,-2.628 -4.28,-3.999 -6.796,-5.435 -17.299,-9.819 -34.43,-19.957 -51.74,-29.748 m 81.611,47.094 c 0.075,38.637 -0.141,77.283 0.103,115.92 20.802,11.574 41.143,23.965 61.982,35.445 0.282,-9.528 0.066,-19.056 0.122,-28.583 -9.885,-5.923 -19.938,-11.546 -29.898,-17.319 -0.826,-0.629 -2.215,-1.173 -2.056,-2.422 -0.188,-4.956 0.028,-9.903 -0.019,-14.85 9.875,5.623 19.675,11.386 29.569,16.99 0.019,-9.312 0.188,-18.624 -0.094,-27.917 -9.894,-5.463 -19.534,-11.368 -29.438,-16.793 -0.084,-5.097 -0.019,-10.185 -0.103,-15.282 10.804,6.186 21.534,12.494 32.366,18.643 -0.028,-9.302 0.103,-18.596 -0.075,-27.889 -20.884,-11.865 -41.583,-24.059 -62.459,-35.943 z"
       id="path7" />
    <path
       fill="#ffffff"
       stroke="#ffffff"
       stroke-width="0.5"
       d="m 446.886,311.024 c 4.44,-1.887 8.683,-4.44 13.348,-5.707 11.856,6.364 23.364,13.442 35.107,20.051 3.051,1.84 6.702,3.229 8.505,6.533 3.98,6.308 8.063,12.56 12.081,18.849 1.399,1.962 1.183,4.44 1.22,6.73 -0.037,4.74 0.009,9.49 -0.16,14.24 -10.147,-3.989 -20.06,-8.552 -30.179,-12.597 -0.122,-4.628 -0.122,-9.256 -0.084,-13.883 -3.652,-2.215 -7.359,-4.346 -11.095,-6.411 0.469,4.468 -1.577,10.016 2.197,13.452 12.381,13.902 24.528,27.992 36.919,41.875 1.117,1.305 2.412,2.722 2.197,4.59 0.047,13.189 0.009,26.377 0,39.576 -4.984,2.3 -10.025,4.496 -15.113,6.571 -12.992,-7.425 -25.889,-14.991 -38.89,-22.388 -2.713,-1.342 -4.055,-4.158 -5.613,-6.58 -3.633,-6.017 -7.557,-11.865 -11.189,-17.882 -1.324,-2.018 -1.051,-4.487 -1.098,-6.768 0.075,-6.055 -0.056,-12.109 0.15,-18.154 10.175,3.952 20.126,8.486 30.226,12.635 0.075,6.177 -0.009,12.363 0.075,18.539 3.614,2.14 7.247,4.271 11.002,6.167 0.019,-4.487 0.263,-8.983 -0.028,-13.452 -0.075,-1.408 -1.286,-2.366 -2.046,-3.426 -12.241,-13.733 -24.275,-27.645 -36.543,-41.35 -1.192,-1.502 -2.976,-2.929 -2.769,-5.05 -0.113,-10.344 0.047,-20.689 -0.066,-31.024 0.157,-1.804 -0.5,-4.554 1.846,-5.136 z"
       id="path8" />
    <path
       fill="#ffffff"
       stroke="#ffffff"
       stroke-width="0.5"
       d="m 520.696,340.217 c 22.088,12.353 43.903,25.213 65.831,37.876 -0.009,9.312 0.16,18.633 -0.103,27.954 -6.148,-3.004 -11.856,-6.806 -17.873,-10.035 -0.056,29.1 0.113,58.19 -0.084,87.289 -10.053,-5.595 -19.929,-11.499 -29.935,-17.169 -0.113,-25.889 -0.028,-51.788 -0.038,-77.677 -0.113,-3.314 0.385,-6.721 -0.451,-9.96 -5.604,-3.633 -11.546,-6.73 -17.328,-10.072 -0.15,-9.404 -0.122,-18.81 -0.019,-28.206 z"
       id="path9" />
    <path
       fill="#ffffff"
       stroke="#ffffff"
       stroke-width="0.5"
       d="m 590.226,395.356 c 4.994,-1.915 9.734,-4.468 14.803,-6.167 2.319,0.563 4.28,2.028 6.355,3.163 10.889,6.355 21.825,12.635 32.76,18.915 2.675,1.371 4.074,4.13 5.613,6.571 3.417,5.623 7.04,11.124 10.504,16.718 1.117,1.615 1.37,3.576 1.333,5.491 -0.075,26.621 0.009,53.243 -0.038,79.864 0.526,2.441 -2.206,3.032 -3.858,3.839 -3.792,1.408 -7.359,3.473 -11.302,4.412 -11.546,-6.102 -22.651,-13.057 -34.065,-19.422 -3.023,-1.887 -6.731,-3.182 -8.57,-6.449 -4.102,-6.524 -8.261,-13.02 -12.372,-19.525 -1.286,-1.755 -1.258,-3.971 -1.249,-6.026 0.123,-27.127 -0.065,-54.256 0.086,-81.384 m 30.047,27.776 c -0.038,21.506 -0.075,43.002 0.019,64.498 3.651,2.046 7.247,4.196 10.964,6.139 0.131,-19.778 -0.028,-39.566 0.085,-59.344 -0.085,-1.718 0.113,-3.501 -0.498,-5.135 -3.351,-2.328 -7.068,-4.065 -10.57,-6.158 z"
       id="path10" />
    <path
       fill="#d35f5f"
       stroke="#d35f5f"
       stroke-width="0.5"
       d="m 283.966,403.401 0.526,0.319 c 16.183,9.828 32.892,18.765 49.009,28.696 -8.289,13.414 -15.826,27.288 -23.843,40.871 -24.951,43.18 -49.807,86.426 -74.852,129.55 -0.15,0.394 -0.432,1.164 -0.573,1.549 -9.931,-5.717 -19.853,-11.471 -29.785,-17.197 -6.59,-3.886 -13.461,-7.341 -19.628,-11.893 33.006,-57.327 66.226,-114.522 99.146,-171.895 z"
       id="path11" />
    <path
       fill="#782121"
       stroke="#782121"
       stroke-width="0.5"
       d="m 1207.569,613.622 c 120.867,-69.848 241.827,-139.537 362.647,-209.461 -0.103,18.558 0.038,37.107 -0.056,55.665 0.169,1.671 -1.765,2.197 -2.825,2.985 -15.582,8.777 -30.911,18.004 -46.531,26.697 -14.719,7.96 -29.034,16.671 -43.584,24.941 -143.236,82.68 -286.462,165.37 -429.689,248.079 -40.167,23.083 -80.183,46.456 -120.444,69.398 -0.31,19.243 -0.038,38.496 -0.131,57.749 -0.169,19.206 0.357,38.421 -0.282,57.608 -6.561,3.023 -12.597,7.04 -18.905,10.542 -9.847,5.726 -19.76,11.321 -29.56,17.112 -0.291,0.169 -0.864,0.526 -1.145,0.695 -16.39,9.199 -32.507,18.877 -48.916,28.048 -0.15,-15.151 0.028,-30.292 -0.084,-45.433 0.075,-4.834 -0.732,-10.072 1.793,-14.456 20.248,-34.863 40.326,-69.82 60.518,-104.721 9.368,-16.033 18.258,-32.329 27.701,-48.324 3.22,-5.247 5.613,-11.067 9.753,-15.695 93.305,-53.714 186.481,-107.651 279.74,-161.429 z"
       id="path12" />
    <path
       fill="#d35f5f"
       stroke="#d35f5f"
       stroke-width="0.5"
       d="m 620.273,423.132 c 3.501,2.093 7.219,3.83 10.57,6.158 0.61,1.633 0.413,3.417 0.498,5.135 -0.113,19.778 0.047,39.566 -0.085,59.344 -3.717,-1.943 -7.312,-4.093 -10.964,-6.139 -0.094,-21.496 -0.056,-42.992 -0.019,-64.498 z"
       id="path13" />
    <path
       fill="#ffffff"
       stroke="#ffffff"
       stroke-width="0.5"
       d="m 670.925,426.84 c 17.31,9.791 34.441,19.929 51.741,29.747 2.516,1.436 5.304,2.807 6.796,5.435 3.661,5.745 7.209,11.565 10.955,17.253 1.277,2.075 2.919,4.177 2.816,6.759 0.056,8.786 0.009,17.572 -0.019,26.368 -4.112,1.896 -8.223,3.774 -12.325,5.66 3.623,5.67 7.294,11.321 10.908,17 1.539,2.131 1.202,4.862 1.277,7.341 -0.141,13.855 0.094,27.71 -0.131,41.566 -10.119,-5.491 -19.966,-11.462 -29.963,-17.169 -0.066,-15.573 0.131,-31.146 -0.094,-46.719 -3.952,-2.206 -7.838,-4.515 -11.781,-6.712 -0.085,15.432 0.178,30.864 -0.141,46.287 -10.204,-5.444 -20.135,-11.405 -30.104,-17.263 0.103,-38.523 -0.038,-77.038 0.065,-115.553 m 30.114,41.603 c 0.113,6.702 0.047,13.405 0.056,20.116 3.933,2.272 7.857,4.562 11.809,6.824 0.084,-6.759 0.225,-13.527 -0.113,-20.285 -3.98,-2.112 -7.847,-4.43 -11.752,-6.655 z"
       id="path14" />
    <path
       fill="#ffffff"
       stroke="#ffffff"
       stroke-width="0.5"
       d="m 309.658,473.287 c 8.016,-13.583 15.554,-27.457 23.843,-40.871 16.296,9.65 32.714,19.074 49.178,28.433 -32.629,57.185 -65.868,114.042 -98.62,171.162 -11.33,-5.867 -22.163,-12.635 -33.267,-18.896 -5.369,-3.361 -11.48,-5.689 -15.986,-10.279 25.045,-43.123 49.902,-86.369 74.852,-129.549 z"
       id="path15" />
    <path
       fill="#d35f5f"
       stroke="#d35f5f"
       stroke-width="0.5"
       d="m 382.68,460.849 c 16.737,9.227 33.324,18.746 49.648,28.687 -18.53,31.719 -36.769,63.606 -55.167,95.4 -14.531,25.401 -29.484,50.558 -43.734,76.11 l -0.573,-0.263 c -6.646,-2.797 -12.607,-6.909 -18.905,-10.363 -10.044,-5.66 -19.807,-11.846 -30.104,-17.028 0.047,-0.338 0.16,-1.033 0.216,-1.38 32.75,-57.121 65.99,-113.978 98.619,-171.163 z"
       id="path16" />
    <path
       fill="#d35f5f"
       stroke="#d35f5f"
       stroke-width="0.5"
       d="m 701.039,468.443 c 3.905,2.225 7.772,4.543 11.752,6.655 0.338,6.759 0.197,13.527 0.113,20.285 -3.952,-2.262 -7.876,-4.553 -11.809,-6.824 -0.009,-6.711 0.056,-13.414 -0.056,-20.116 z"
       id="path17" />
    <path
       fill="#ffffff"
       stroke="#ffffff"
       stroke-width="0.5"
       d="m 752.536,473.934 c 20.877,11.884 41.575,24.078 62.461,35.943 0.178,9.293 0.047,18.586 0.075,27.889 -10.833,-6.148 -21.562,-12.457 -32.366,-18.643 0.084,5.097 0.019,10.185 0.103,15.282 9.903,5.426 19.544,11.33 29.438,16.793 0.282,9.293 0.113,18.605 0.094,27.917 -9.894,-5.604 -19.694,-11.368 -29.569,-16.99 0.047,4.947 -0.169,9.894 0.019,14.85 -0.16,1.248 1.23,1.793 2.056,2.422 9.96,5.773 20.013,11.396 29.898,17.319 -0.056,9.528 0.16,19.056 -0.122,28.583 -20.839,-11.48 -41.181,-23.871 -61.982,-35.445 -0.246,-38.637 -0.03,-77.283 -0.105,-115.92 z"
       id="path18" />
    <path
       fill="#ffffff"
       stroke="#ffffff"
       stroke-width="0.5"
       d="m 377.16,584.935 c 18.398,-31.794 36.637,-63.681 55.167,-95.4 16.38,9.537 32.76,19.112 49.282,28.405 -16.681,29.7 -34.018,59.025 -50.943,88.585 -15.855,27.513 -31.794,54.97 -47.601,82.502 -7.51,-3.436 -14.371,-8.035 -21.59,-12.006 -9.387,-5.257 -18.502,-11.02 -28.048,-15.977 14.249,-25.55 29.202,-50.707 43.733,-76.109 z"
       id="path19" />
    <path
       fill="#acacac"
       stroke="#acacac"
       stroke-width="0.5"
       d="m 1477.219,514.449 c 14.55,-8.27 28.865,-16.981 43.584,-24.941 0.066,19.121 0.075,38.252 -0.01,57.373 -61.41,35.164 -122.594,70.721 -183.9,106.054 -136.637,78.926 -273.358,157.729 -409.938,236.739 0.094,-19.253 -0.178,-38.505 0.131,-57.749 40.261,-22.942 80.277,-46.315 120.444,-69.398 143.226,-82.708 286.453,-165.398 429.688,-248.078 z"
       id="path20" />
    <path
       fill="#d35f5f"
       stroke="#d35f5f"
       stroke-width="0.5"
       d="m 481.609,517.941 c 2.976,1.521 5.923,3.088 8.814,4.787 13.63,8.129 27.616,15.657 41.106,24.021 -3.717,5.238 -6.637,10.973 -9.903,16.493 -29.644,51.319 -59.251,102.665 -88.923,153.974 -0.103,0.422 -0.329,1.267 -0.432,1.69 -7.66,-5.041 -15.808,-9.237 -23.674,-13.921 -8.439,-4.797 -16.709,-9.922 -25.335,-14.4 -0.31,18.858 -0.122,37.717 -0.066,56.566 l -0.788,-0.094 c 0.319,-13.771 0.075,-27.551 0.15,-41.321 0.094,-5.566 -0.422,-11.189 0.507,-16.709 15.808,-27.532 31.747,-54.989 47.601,-82.502 16.925,-29.559 34.262,-58.884 50.943,-88.584 z"
       id="path21" />
    <path
       fill="#ffffff"
       stroke="#ffffff"
       stroke-width="0.5"
       d="m 521.626,563.242 c 3.267,-5.52 6.186,-11.255 9.903,-16.493 16.296,9.64 32.714,19.084 49.188,28.424 -32.901,57.054 -65.943,114.033 -98.742,171.143 -10.833,-5.66 -21.205,-12.147 -31.859,-18.126 -5.811,-3.642 -12.325,-6.261 -17.413,-10.973 29.672,-51.31 59.279,-102.656 88.923,-153.975 z"
       id="path22" />
    <path
       fill="#cccccc"
       stroke="#cccccc"
       stroke-width="0.5"
       d="m 1336.893,652.935 c 61.306,-35.333 122.491,-70.89 183.9,-106.054 0.047,99.887 0.01,199.774 0.019,299.66 0.084,14.494 -0.206,28.996 0.216,43.49 -0.61,37.998 -0.075,76.025 -0.272,114.042 -13.864,7.519 -27.363,15.705 -41.077,23.496 -135.876,78.456 -271.762,156.894 -407.638,235.35 -48.334,27.992 -96.817,55.721 -145.048,83.882 -0.188,-0.131 -0.544,-0.385 -0.732,-0.507 1.324,-8.833 0.469,-17.77 0.695,-26.65 -0.056,-105.2 0.103,-210.409 -0.075,-315.609 0.019,-18.915 0.357,-37.848 -0.206,-56.754 0.638,-19.187 0.113,-38.402 0.282,-57.608 136.578,-79.009 273.3,-157.813 409.936,-236.738 m 84.812,7.828 v 0.788 c -1.53,0.657 -3.032,1.333 -4.468,2.122 -64.517,37.247 -129.005,74.533 -193.55,111.714 -16.418,9.312 -32.685,18.877 -49.075,28.236 -3.22,2.018 -6.515,3.896 -9.791,5.792 -62.733,36.215 -125.457,72.449 -188.199,108.654 -0.479,16.821 -0.075,33.671 -0.207,50.502 0,29.419 0,58.828 0,88.238 0.207,10.823 -0.441,21.674 0.357,32.479 l 0.798,-0.46 c -2.178,3.483 -0.76,8.139 -1.117,12.1 0.169,15.085 -0.282,30.188 0.225,45.283 3.182,-1.492 6.261,-3.201 9.255,-5.031 79.31,-45.827 158.668,-91.561 237.95,-137.425 l 0.01,-0.657 c 5.435,-1.784 10.006,-5.322 15,-7.988 70.843,-40.843 141.64,-81.779 212.465,-122.641 6.439,-3.989 13.48,-7.068 19.394,-11.846 l 0.591,0.329 c 0.019,-52.989 0,-105.979 0.01,-158.968 -0.131,-23.158 0.253,-46.325 -0.197,-69.473 -16.576,9.244 -32.759,19.203 -49.449,28.252 z"
       id="path23" />
    <path
       fill="#c83737"
       stroke="#c83737"
       stroke-width="0.5"
       d="m 184.737,632.349 c 0.103,-19.018 -0.066,-38.036 0.084,-57.054 6.167,4.553 13.038,8.007 19.628,11.893 9.931,5.726 19.853,11.48 29.785,17.197 -0.028,18.793 -0.019,37.595 -0.009,56.388 -7.012,-3.511 -13.639,-7.735 -20.482,-11.565 -9.651,-5.66 -19.432,-11.086 -29.006,-16.859 z"
       id="path24" />
    <path
       fill="#d35f5f"
       stroke="#d35f5f"
       stroke-width="0.5"
       d="m 580.717,575.173 c 16.887,9.274 33.521,19.009 50.089,28.827 -3.22,3.52 -5.304,7.848 -7.66,11.95 -30.545,52.83 -60.997,105.725 -91.57,158.537 -0.113,0.272 -0.338,0.798 -0.451,1.061 -11.443,-6.158 -22.529,-12.954 -33.849,-19.328 -5.097,-2.948 -10.082,-6.13 -15.507,-8.458 0.056,-0.357 0.16,-1.089 0.207,-1.446 32.797,-57.11 65.839,-114.089 98.741,-171.143 z"
       id="path25" />
    <path
       fill="#cccccc"
       stroke="#cccccc"
       stroke-width="0.5"
       d="m 234.234,604.385 c 0.141,-0.385 0.422,-1.155 0.573,-1.549 4.506,4.59 10.617,6.918 15.986,10.279 11.105,6.261 21.937,13.029 33.267,18.896 -0.056,0.347 -0.169,1.042 -0.216,1.38 -0.31,18.774 -0.075,37.557 -0.113,56.331 -6.008,-2.788 -11.565,-6.439 -17.338,-9.659 -9.903,-5.745 -19.806,-11.471 -29.747,-17.131 -0.826,-0.676 -2.159,-1.014 -2.422,-2.159 -0.009,-18.793 -0.018,-37.595 0.01,-56.388 z"
       id="path26" />
    <path
       fill="#ffffff"
       stroke="#ffffff"
       stroke-width="0.5"
       d="m 623.146,615.95 c 2.356,-4.102 4.44,-8.43 7.66,-11.95 16.024,9.584 32.216,18.905 48.503,28.039 -2.253,5.491 -5.595,10.429 -8.505,15.582 -29.935,52.032 -60.114,103.923 -89.955,156.002 -11.048,-6.336 -22.097,-12.663 -33.098,-19.084 -5.454,-3.257 -11.302,-5.923 -16.174,-10.053 C 562.149,721.675 592.6,668.78 623.146,615.95 Z"
       id="path27" />
    <path
       fill="#d35f5f"
       stroke="#d35f5f"
       stroke-width="0.5"
       d="m 679.308,632.039 c 6.393,3.304 12.532,7.068 18.793,10.626 10.457,6.186 21.158,11.968 31.465,18.417 -5.679,7.829 -9.866,16.615 -14.897,24.857 -23.345,40.458 -46.71,80.906 -70.064,121.364 -4.665,8.42 -9.913,16.521 -14.249,25.12 -0.657,19.074 0.385,38.196 -0.497,57.261 l -0.019,0.122 -0.272,-0.77 c 0.178,-18.802 0.385,-37.614 -0.066,-56.406 -16.193,-9.556 -32.545,-18.83 -48.812,-28.264 l 0.16,-0.742 c 29.841,-52.079 60.02,-103.97 89.955,-156.002 2.908,-5.154 6.25,-10.091 8.503,-15.583 z"
       id="path28" />
    <path
       fill="#acacac"
       stroke="#acacac"
       stroke-width="0.5"
       d="m 1421.705,660.763 c 16.69,-9.049 32.873,-19.009 49.45,-28.255 0.451,23.148 0.066,46.315 0.197,69.473 -0.01,52.989 0.01,105.979 -0.01,158.968 l -0.591,-0.329 c -16.418,-9.246 -32.61,-18.887 -49,-28.18 -0.103,-56.96 0,-113.93 -0.047,-170.89 z"
       id="path29" />
    <path
       fill="#c83737"
       stroke="#c83737"
       stroke-width="0.5"
       d="m 283.844,633.391 c 10.297,5.182 20.06,11.368 30.104,17.028 6.299,3.454 12.259,7.566 18.905,10.363 0.77,14.334 0.103,28.715 0.357,43.077 0.047,4.581 0.197,9.218 -0.751,13.733 -16.39,-9.04 -32.366,-18.793 -48.728,-27.87 0.038,-18.774 -0.197,-37.557 0.113,-56.331 z"
       id="path30" />
    <path
       fill="#cccccc"
       stroke="#cccccc"
       stroke-width="0.5"
       d="m 332.854,660.782 0.573,0.263 c 9.547,4.956 18.661,10.72 28.048,15.977 7.219,3.971 14.08,8.57 21.59,12.006 -0.929,5.52 -0.413,11.142 -0.507,16.709 -0.075,13.771 0.169,27.551 -0.15,41.321 -16.549,-9.218 -32.826,-18.915 -49.272,-28.302 -0.207,-0.113 -0.61,-0.338 -0.807,-0.451 l 0.131,-0.713 c 0.948,-4.515 0.798,-9.152 0.751,-13.733 -0.254,-14.362 0.412,-28.743 -0.357,-43.077 z"
       id="path31" />
    <path
       fill="#ffffff"
       stroke="#ffffff"
       stroke-width="0.5"
       d="m 714.669,685.939 c 5.031,-8.242 9.218,-17.028 14.897,-24.857 16.117,9.49 32.282,18.943 48.634,28.029 -2.994,7.331 -7.622,13.836 -11.377,20.773 -20.736,35.905 -41.472,71.81 -62.189,107.725 -8.242,14.503 -16.906,28.762 -24.847,43.434 l -0.479,-0.329 c -16.164,-9.678 -32.526,-19.056 -48.953,-28.292 4.337,-8.599 9.584,-16.699 14.249,-25.12 23.355,-40.456 46.719,-80.905 70.065,-121.363 z"
       id="path32" />
    <path
       fill="#55ddff"
       stroke="#55ddff"
       stroke-width="0.5"
       d="m 1417.237,663.673 c 1.436,-0.789 2.938,-1.464 4.468,-2.122 0.047,56.96 -0.056,113.93 0.047,170.89 -65.07,37.651 -130.197,75.19 -195.296,112.784 -1.784,0.845 -2.741,2.544 -2.506,4.515 -0.084,17.779 0.103,35.567 -0.056,53.356 l -0.01,0.657 c -0.422,-76.119 -0.028,-152.247 -0.197,-228.366 64.543,-37.181 129.032,-74.466 193.549,-111.714 z"
       id="path33" />
    <path
       fill="#d35f5f"
       stroke="#d35f5f"
       stroke-width="0.5"
       d="m 778.2,689.112 c 3.717,1.906 7.35,3.98 10.955,6.102 13.198,7.801 26.631,15.188 39.735,23.148 -2.685,2.497 -4.449,5.754 -6.186,8.927 -30.902,53.862 -62.236,107.481 -93.006,161.409 -0.141,0.329 -0.413,0.995 -0.554,1.324 -14.221,-8.138 -28.377,-16.399 -42.607,-24.528 -2.328,-1.371 -4.543,-2.919 -6.749,-4.449 7.941,-14.672 16.606,-28.931 24.847,-43.434 20.717,-35.915 41.453,-71.82 62.189,-107.725 3.753,-6.938 8.381,-13.443 11.376,-20.774 z"
       id="path34" />
    <path
       fill="#c83737"
       stroke="#c83737"
       stroke-width="0.5"
       d="m 383.262,690.586 c 8.627,4.478 16.897,9.603 25.335,14.4 7.866,4.684 16.014,8.88 23.674,13.921 -0.272,18.774 0.178,37.557 -0.216,56.322 -16.315,-9.312 -32.46,-18.924 -48.859,-28.076 -0.056,-18.85 -0.244,-37.709 0.066,-56.567 z"
       id="path35" />
    <path
       fill="#cccccc"
       stroke="#cccccc"
       stroke-width="0.5"
       d="m 432.271,718.906 c 0.103,-0.422 0.329,-1.267 0.432,-1.69 5.088,4.712 11.602,7.331 17.413,10.973 10.654,5.979 21.027,12.466 31.859,18.126 -0.047,0.357 -0.15,1.089 -0.207,1.446 -0.178,18.765 -0.263,37.557 0.056,56.322 -16.371,-9.321 -32.751,-18.624 -48.906,-28.321 -0.216,-0.131 -0.648,-0.394 -0.864,-0.535 0.395,-18.763 -0.055,-37.547 0.217,-56.321 z"
       id="path36" />
    <path
       fill="#e0e0e0"
       stroke="#e0e0e0"
       stroke-width="0.5"
       d="m 333.135,718.756 c 16.446,9.387 32.723,19.084 49.272,28.302 0.131,18.793 0.028,37.595 0.038,56.388 -6.74,-3.032 -12.888,-7.162 -19.309,-10.767 -9.762,-5.548 -19.487,-11.142 -29.147,-16.859 -0.779,-13.771 0.573,-27.598 -0.742,-41.34 -0.45,-5.229 -0.271,-10.486 -0.112,-15.724 z"
       id="path37" />
    <path
       fill="#ffffff"
       stroke="#ffffff"
       stroke-width="0.5"
       d="m 822.703,727.289 c 1.737,-3.173 3.501,-6.43 6.186,-8.927 16.014,9.593 32.216,18.896 48.502,28.039 -7.519,14.156 -15.948,27.814 -23.824,41.772 -24.904,43.274 -50.061,86.416 -74.805,129.784 -16.352,-9.5 -32.761,-18.896 -49.113,-28.386 l 0.047,-0.873 c 30.772,-53.928 62.105,-107.547 93.007,-161.409 z"
       id="path38" />
    <path
       fill="#ececec"
       stroke="#ececec"
       stroke-width="0.5"
       d="m 333.248,734.479 c 1.314,13.743 -0.038,27.57 0.742,41.34 9.659,5.717 19.384,11.311 29.147,16.859 6.421,3.605 12.569,7.735 19.309,10.767 l 0.009,0.854 c 0.056,35.99 0.047,71.989 -0.009,107.988 0.038,1.737 0.122,3.501 0.31,5.257 l 0.582,0.441 c 78.006,45.358 156.293,90.265 234.383,135.482 3.774,2.253 7.603,4.402 11.565,6.336 0.62,-18.699 -0.338,-37.426 0.479,-56.106 0.685,-18.924 0.066,-37.867 0.329,-56.791 14.719,7.66 28.78,16.53 43.246,24.669 1.906,1.014 3.867,1.915 5.839,2.826 0.507,21.205 0.094,42.42 0.225,63.634 -0.038,55.064 0.084,110.137 -0.066,165.201 -6.149,-2.797 -11.818,-6.458 -17.685,-9.772 -66.047,-38.12 -132.093,-76.26 -198.14,-114.39 -43.349,-24.932 -86.538,-50.145 -129.981,-74.917 -0.347,19.074 -0.094,38.158 -0.131,57.232 -0.563,-22.172 -0.075,-44.363 -0.207,-66.535 0,-30.667 -0.009,-61.325 0.009,-91.992 -0.028,-4.29 0.131,-8.58 -0.3,-12.841 -0.235,-42.955 0.235,-85.947 -0.319,-128.902 0.307,-8.88 -0.725,-17.825 0.664,-26.64 z"
       id="path39" />
    <path
       fill="#d35f5f"
       stroke="#d35f5f"
       stroke-width="0.5"
       d="m 877.392,746.401 c 17.009,9.19 33.389,19.525 50.436,28.649 -4.14,4.628 -6.533,10.448 -9.753,15.695 -9.443,15.995 -18.333,32.291 -27.701,48.324 -20.191,34.901 -40.27,69.858 -60.518,104.721 -2.525,4.384 -1.718,9.622 -1.793,14.456 0.113,15.141 -0.066,30.282 0.084,45.433 l -0.713,-0.366 c -0.469,-18.924 0.188,-37.876 -0.31,-56.801 -16.277,-9.049 -32.235,-18.652 -48.474,-27.767 l 0.113,-0.788 c 24.744,-43.368 49.901,-86.51 74.805,-129.784 7.875,-13.959 16.305,-27.617 23.824,-41.772 z"
       id="path40" />
    <path
       fill="#c2c2c2"
       stroke="#c2c2c2"
       stroke-width="0.5"
       d="m 382.407,747.058 0.788,0.094 c 16.399,9.152 32.545,18.765 48.859,28.076 0.216,0.141 0.648,0.404 0.864,0.535 -0.544,3.22 -0.826,6.486 -0.798,9.762 0.188,15.601 -0.038,31.202 0.122,46.813 -11.358,-6.374 -22.519,-13.085 -33.831,-19.525 -5.163,-3.117 -10.335,-6.28 -15.958,-8.514 l -0.009,-0.854 c -0.008,-18.792 0.095,-37.595 -0.037,-56.387 z"
       id="path41" />
    <path
       fill="#c83737"
       stroke="#c83737"
       stroke-width="0.5"
       d="m 481.768,747.762 c 5.426,2.328 10.41,5.51 15.507,8.458 11.321,6.374 22.407,13.17 33.849,19.328 0,16.155 -0.028,32.31 0.047,48.465 0,2.703 -0.31,5.398 -0.826,8.054 -16.117,-9.425 -32.263,-18.802 -48.521,-27.983 -0.318,-18.765 -0.234,-37.558 -0.056,-56.322 z"
       id="path42" />
    <path
       fill="#cccccc"
       stroke="#cccccc"
       stroke-width="0.5"
       d="m 531.125,775.547 c 0.113,-0.263 0.338,-0.788 0.451,-1.061 4.872,4.13 10.72,6.796 16.174,10.053 11.002,6.421 22.05,12.747 33.098,19.084 l -0.16,0.742 c -0.357,18.849 0.188,37.717 -0.263,56.566 -16.84,-9.359 -33.483,-19.084 -50.08,-28.865 0.516,-2.657 0.826,-5.351 0.826,-8.054 -0.074,-16.155 -0.046,-32.31 -0.046,-48.465 z"
       id="path43" />
    <path
       fill="#acacac"
       stroke="#acacac"
       stroke-width="0.5"
       d="m 1174.611,803.624 c 16.39,-9.359 32.657,-18.924 49.075,-28.236 0.169,76.119 -0.225,152.247 0.197,228.366 -16.54,-9.396 -32.995,-18.933 -49.422,-28.518 -0.141,-48.211 -0.019,-96.432 -0.056,-144.653 0.066,-8.983 -0.207,-17.976 0.206,-26.959 z"
       id="path44" />
    <path
       fill="#51d2f2"
       stroke="#51d2f2"
       stroke-width="0.5"
       d="m 432.121,785.526 c -0.028,-3.276 0.253,-6.543 0.798,-9.762 16.155,9.697 32.535,18.999 48.906,28.321 16.258,9.18 32.404,18.558 48.521,27.983 16.596,9.781 33.239,19.506 50.08,28.865 16.446,9.256 32.573,19.093 49.141,28.105 l 0.272,0.77 c -1.042,18.689 0.066,37.463 -0.535,56.181 -16.521,-8.899 -32.535,-18.727 -48.906,-27.926 -43.809,-25.364 -87.674,-50.624 -131.502,-75.959 -5.51,-3.06 -10.739,-6.655 -16.652,-8.918 v -0.845 c -0.161,-15.613 0.065,-31.214 -0.123,-46.815 z"
       id="path45" />
    <path
       fill="#55ddff"
       stroke="#55ddff"
       stroke-width="0.5"
       d="m 1164.821,809.415 c 3.276,-1.896 6.571,-3.774 9.791,-5.792 -0.413,8.983 -0.141,17.976 -0.207,26.959 0.038,48.221 -0.084,96.442 0.056,144.653 -65.634,37.858 -131.173,75.875 -196.892,113.592 l -0.798,0.46 c -0.798,-10.804 -0.15,-21.656 -0.357,-32.479 0,-29.409 0,-58.819 0,-88.238 0.131,-16.831 -0.272,-33.68 0.207,-50.502 62.743,-36.204 125.467,-72.438 188.2,-108.653 z"
       id="path46" />
    <path
       fill="#cccccc"
       stroke="#cccccc"
       stroke-width="0.5"
       d="m 382.454,804.3 c 5.623,2.234 10.795,5.397 15.958,8.514 11.311,6.439 22.472,13.151 33.831,19.525 v 0.845 c -0.094,18.811 -0.056,37.632 -0.028,56.444 -16.277,9.481 -32.676,18.755 -48.878,28.358 l -0.582,-0.441 c -0.188,-1.755 -0.272,-3.52 -0.31,-5.257 0.056,-36 0.066,-71.999 0.009,-107.988 z"
       id="path47" />
    <path
       fill="#c83737"
       stroke="#c83737"
       stroke-width="0.5"
       d="m 580.688,804.365 c 16.268,9.434 32.62,18.708 48.812,28.264 0.451,18.793 0.244,37.604 0.066,56.406 -16.568,-9.012 -32.695,-18.849 -49.141,-28.105 0.451,-18.848 -0.093,-37.716 0.263,-56.565 z"
       id="path48" />
    <path
       fill="#cccccc"
       stroke="#cccccc"
       stroke-width="0.5"
       d="m 630.355,832.423 c 16.427,9.237 32.789,18.614 48.953,28.292 0.779,19.309 -0.422,38.674 0.62,57.974 0.939,18.962 -0.047,37.98 0.469,56.97 16.315,9.124 32.207,19.027 48.756,27.729 0.047,57.401 0.103,114.803 -0.038,172.195 -9.791,4.909 -19.027,10.823 -28.583,16.155 -6.975,4.234 -14.381,7.791 -20.999,12.588 -0.047,-0.272 -0.15,-0.817 -0.197,-1.089 0.15,-55.064 0.028,-110.137 0.066,-165.201 -0.131,-21.215 0.282,-42.429 -0.225,-63.634 -0.197,-18.708 0.338,-37.426 -0.244,-56.115 -16.409,-9.03 -32.31,-18.962 -48.803,-27.823 l -0.272,-0.779 c 0.882,-19.066 -0.16,-38.188 0.497,-57.262 z"
       id="path49" />
    <path
       fill="#ffffff"
       stroke="#ffffff"
       stroke-width="0.5"
       d="m 1226.456,945.226 c 65.099,-37.595 130.225,-75.133 195.296,-112.784 16.39,9.293 32.582,18.934 49,28.18 -5.914,4.778 -12.954,7.857 -19.394,11.846 -70.825,40.862 -141.621,81.798 -212.465,122.641 -4.994,2.666 -9.565,6.205 -15,7.988 0.16,-17.788 -0.028,-35.577 0.056,-53.356 -0.234,-1.971 0.723,-3.67 2.507,-4.515 z"
       id="path50" />
    <path
       fill="#55ddff"
       stroke="#55ddff"
       stroke-width="0.5"
       d="m 432.243,833.183 c 5.914,2.262 11.142,5.857 16.652,8.918 43.828,25.335 87.693,50.596 131.502,75.959 16.371,9.199 32.385,19.027 48.906,27.926 0.601,-18.718 -0.507,-37.492 0.535,-56.181 l 0.019,-0.122 0.272,0.779 c -0.141,18.812 -0.084,37.623 -0.038,56.444 -0.263,18.924 0.357,37.867 -0.329,56.791 -65.821,-38.083 -131.68,-76.081 -197.549,-114.07 -0.026,-18.811 -0.064,-37.632 0.03,-56.444 z"
       id="path51" />
    <path
       fill="#c83737"
       stroke="#c83737"
       stroke-width="0.5"
       d="m 679.308,860.715 0.479,0.329 c 2.206,1.53 4.421,3.079 6.749,4.449 14.231,8.129 28.386,16.39 42.607,24.528 -0.432,18.783 0.103,37.595 -0.253,56.397 -16.521,-8.88 -32.338,-19.037 -48.962,-27.729 -1.043,-19.299 0.159,-38.665 -0.62,-57.974 z"
       id="path52" />
    <path
       fill="#c2c2c2"
       stroke="#c2c2c2"
       stroke-width="0.5"
       d="m 729.143,890.021 c 0.141,-0.329 0.413,-0.995 0.554,-1.324 l -0.047,0.873 c 0.122,19.027 0.16,38.064 -0.009,57.092 -1.033,18.887 -0.113,37.82 -0.488,56.725 -16.549,-8.702 -32.441,-18.605 -48.756,-27.729 -0.516,-18.99 0.469,-38.008 -0.469,-56.97 16.624,8.692 32.441,18.849 48.962,27.729 0.357,-18.801 -0.178,-37.612 0.253,-56.396 z"
       id="path53" />
    <path
       fill="#ffffff"
       stroke="#ffffff"
       stroke-width="0.5"
       d="m 383.337,917.985 c 16.202,-9.603 32.601,-18.877 48.878,-28.358 65.868,37.989 131.727,75.987 197.549,114.07 -0.817,18.68 0.141,37.407 -0.479,56.106 -3.961,-1.934 -7.791,-4.083 -11.565,-6.336 C 539.63,1008.25 461.342,963.343 383.337,917.985 Z"
       id="path54" />
    <path
       fill="#cccccc"
       stroke="#cccccc"
       stroke-width="0.5"
       d="m 729.65,889.571 c 16.352,9.49 32.761,18.887 49.113,28.386 l -0.113,0.788 c -0.282,18.849 0.094,37.698 -0.178,56.547 -16.446,-8.927 -32.282,-18.943 -48.812,-27.71 l -0.019,-0.92 c 0.169,-19.027 0.131,-38.064 0.009,-57.091 z"
       id="path55" />
    <path
       fill="#12333b"
       stroke="#12333b"
       stroke-width="0.5"
       d="m 313.225,901.145 c 6.571,-3.68 12.935,-7.744 19.675,-11.124 0.432,4.262 0.272,8.552 0.3,12.841 -0.019,30.667 -0.009,61.325 -0.009,91.992 0.131,22.172 -0.357,44.363 0.207,66.535 30.667,17.188 60.921,35.098 91.429,52.567 83.516,48.221 167.051,96.404 250.538,144.672 1.502,0.807 3.07,1.511 4.693,2.103 16.193,-9.181 32.103,-18.905 48.484,-27.748 0.488,0.028 1.455,0.075 1.943,0.103 6.12,2.431 11.574,6.158 17.291,9.378 33.756,19.431 67.445,38.965 101.201,58.396 9.556,5.257 18.661,11.349 28.536,16.014 0,0.394 -0.009,1.183 -0.019,1.577 -0.131,18.999 -0.188,38.017 0.028,57.016 16.652,9.105 32.779,19.149 49.46,28.208 28.029,-15.817 55.777,-32.15 83.694,-48.174 170.045,-98.103 339.996,-196.375 510.079,-294.413 0.103,-19.009 0.056,-38.017 0,-57.017 0.197,-38.017 -0.338,-76.044 0.272,-114.042 14.916,7.96 29.344,16.85 44.081,25.176 84.164,48.587 168.327,97.183 252.5,145.78 -0.76,0.554 -1.511,1.117 -2.243,1.671 -6.092,4.177 -12.597,7.679 -18.98,11.349 -287.035,165.746 -574.088,331.454 -861.123,497.181 -2.121,1.127 -4.299,2.131 -6.421,3.257 -5.961,-1.83 -11.18,-5.266 -16.484,-8.429 C 636.23,1406.586 360.103,1247.157 83.966,1087.748 68.29,1078.755 52.745,1069.519 36.947,1060.751 128.969,1007.415 221.149,954.369 313.225,901.145 Z"
       id="path56"
       style="fill:#1f5764;fill-opacity:1" />
    <path
       fill="#e0e0e0"
       stroke="#e0e0e0"
       stroke-width="0.5"
       d="m 630.13,890.463 c 16.493,8.861 32.394,18.793 48.803,27.823 0.582,18.689 0.047,37.407 0.244,56.115 -1.971,-0.911 -3.933,-1.812 -5.839,-2.826 -14.465,-8.138 -28.527,-17.009 -43.246,-24.669 -0.047,-18.82 -0.103,-37.632 0.038,-56.443 z"
       id="path57" />
    <path
       fill="#c83737"
       stroke="#c83737"
       stroke-width="0.5"
       d="m 778.65,918.745 c 16.239,9.115 32.197,18.718 48.474,27.767 0.497,18.924 -0.16,37.876 0.31,56.801 -16.484,-9.049 -32.573,-18.802 -48.962,-28.02 0.272,-18.849 -0.103,-37.698 0.178,-56.548 z"
       id="path58" />
    <path
       fill="#55ddff"
       stroke="#55ddff"
       stroke-width="0.5"
       d="m 729.153,1003.388 c 0.375,-18.905 -0.544,-37.839 0.488,-56.725 l 0.019,0.92 c 0.732,19.055 -0.197,38.149 0.469,57.204 13.827,7.294 27.091,15.564 40.739,23.167 16.39,9.631 32.967,18.952 49.338,28.621 3.182,1.746 6.927,5.172 10.664,2.732 10.166,-5.754 20.276,-11.63 30.376,-17.507 5.304,-3.06 10.513,-6.336 16.193,-8.683 0.103,75.884 0.038,151.769 0.038,227.653 -49.563,-28.105 -98.629,-57.101 -148.183,-85.224 -0.347,17.694 0.066,35.408 -0.206,53.111 0.038,1.558 -0.216,3.501 1.399,4.431 -0.488,-0.028 -1.455,-0.075 -1.943,-0.103 1.07,-10.495 0.272,-21.083 0.516,-31.615 0.019,-8.599 -0.075,-17.188 0.056,-25.786 0.14,-57.393 0.084,-114.795 0.037,-172.196 z"
       id="path59" />
    <path
       fill="#51d2f2"
       stroke="#51d2f2"
       stroke-width="0.5"
       d="m 729.66,947.582 c 16.53,8.767 32.366,18.783 48.812,27.71 16.39,9.218 32.479,18.971 48.962,28.02 l 0.713,0.366 c 16.408,-9.171 32.526,-18.849 48.916,-28.048 0.845,9.199 0.329,18.445 0.46,27.663 -0.019,9.941 0.056,19.882 -0.085,29.822 -5.679,2.347 -10.889,5.623 -16.193,8.683 -10.1,5.876 -20.21,11.753 -30.376,17.507 -3.736,2.441 -7.481,-0.986 -10.664,-2.732 -16.371,-9.669 -32.948,-18.99 -49.338,-28.621 -13.649,-7.603 -26.912,-15.873 -40.739,-23.167 -0.665,-19.054 0.264,-38.147 -0.468,-57.203 z"
       id="path60" />
    <path
       fill="#e0e0e0"
       stroke="#e0e0e0"
       stroke-width="0.5"
       d="m 907.768,957.823 c 6.308,-3.501 12.344,-7.519 18.905,-10.542 0.563,18.905 0.225,37.839 0.206,56.754 -16.427,8.73 -32.075,18.887 -48.568,27.494 -0.432,-18.858 -0.197,-37.736 -0.103,-56.594 9.8,-5.791 19.713,-11.385 29.56,-17.112 z"
       id="path61" />
    <path
       fill="#ececec"
       stroke="#ececec"
       stroke-width="0.5"
       d="m 877.063,975.631 c 0.282,-0.169 0.854,-0.526 1.145,-0.695 -0.094,18.858 -0.329,37.736 0.103,56.594 16.493,-8.608 32.141,-18.765 48.568,-27.494 0.178,105.2 0.019,210.409 0.075,315.609 -0.225,8.88 0.629,17.816 -0.695,26.65 -9.584,-5.679 -19.309,-11.142 -28.931,-16.756 -6.618,-3.689 -12.992,-7.829 -19.835,-11.086 0.009,-0.394 0.019,-1.183 0.019,-1.577 -0.009,-18.708 0.066,-37.407 -0.038,-56.106 0,-75.884 0.066,-151.769 -0.038,-227.653 0.141,-9.941 0.066,-19.882 0.085,-29.822 -0.129,-9.219 0.387,-18.465 -0.458,-27.664 z"
       id="path62" />
    <path
       fill="#ffffff"
       stroke="#ffffff"
       stroke-width="0.5"
       d="m 977.57,1088.828 c 65.718,-37.717 131.258,-75.734 196.892,-113.592 16.427,9.584 32.883,19.121 49.422,28.518 -79.282,45.865 -158.64,91.598 -237.95,137.425 -2.994,1.83 -6.073,3.539 -9.255,5.031 -0.507,-15.094 -0.056,-30.198 -0.225,-45.283 0.355,-3.96 -1.062,-8.616 1.116,-12.099 z"
       id="path63" />
    <path
       fill="#d35f5f"
       stroke="#d35f5f"
       stroke-width="0.5"
       d="m 333.529,1004.158 c 43.443,24.772 86.632,49.986 129.981,74.917 66.047,38.13 132.094,76.269 198.14,114.39 5.867,3.314 11.537,6.974 17.685,9.772 0.047,0.272 0.15,0.817 0.197,1.089 1.267,6.449 0.591,13.039 0.704,19.572 -0.094,12.269 0.225,24.556 -0.178,36.834 -1.624,-0.591 -3.192,-1.295 -4.693,-2.103 -83.488,-48.268 -167.022,-96.451 -250.538,-144.672 -30.508,-17.469 -60.762,-35.38 -91.429,-52.567 0.038,-19.074 -0.216,-38.158 0.131,-57.232 z"
       id="path64" />
    <path
       fill="#782121"
       stroke="#782121"
       stroke-width="0.5"
       d="m 1479.679,1027.569 c 13.714,-7.791 27.213,-15.977 41.077,-23.496 0.056,18.999 0.103,38.008 0,57.017 -170.082,98.037 -340.034,196.31 -510.079,294.413 -27.917,16.024 -55.665,32.357 -83.694,48.174 -0.038,-18.962 -0.056,-37.923 0.009,-56.876 48.23,-28.161 96.714,-55.89 145.048,-83.882 135.877,-78.456 271.762,-156.894 407.639,-235.35 z"
       id="path65" />
    <path
       fill="#26414c"
       stroke="#26414c"
       stroke-width="0.5"
       d="m 36.404,1060.451 0.544,0.3 c 15.798,8.767 31.343,18.004 47.019,26.997 276.137,159.41 552.264,318.838 828.391,478.266 5.304,3.163 10.523,6.599 16.484,8.429 -2.309,2.009 -1.943,5.247 -1.99,8.016 0.178,9.387 0.066,18.783 0.113,28.18 0.047,7.087 -0.422,14.212 0.526,21.28 l 0.084,0.704 c -259.531,-149.75 -518.996,-299.613 -778.49,-449.42 -37.585,-21.599 -75.011,-43.481 -112.681,-64.93 -0.132,-19.27 -0.122,-38.55 0,-57.822 z"
       id="path66" />
    <path
       fill="#0c242c"
       stroke="#0c242c"
       stroke-width="0.5"
       d="m 1815.366,1062.657 c 0.535,-0.338 1.596,-1.004 2.131,-1.342 0.15,18.858 0.113,37.726 0.028,56.585 -9.715,6.271 -20.032,11.649 -29.963,17.591 -247.356,142.804 -494.712,285.617 -742.059,428.431 -39.36,22.623 -78.56,45.527 -118.013,67.999 -0.948,-7.068 -0.479,-14.193 -0.526,-21.28 -0.047,-9.396 0.066,-18.793 -0.113,-28.18 0.047,-2.769 -0.319,-6.008 1.99,-8.016 2.121,-1.126 4.299,-2.131 6.421,-3.257 287.035,-165.727 574.089,-331.435 861.123,-497.181 6.384,-3.671 12.889,-7.173 18.981,-11.35 z"
       id="path67" />
    <path
       fill="#c83737"
       stroke="#c83737"
       stroke-width="0.5"
       d="m 700.532,1191.737 c 9.556,-5.332 18.793,-11.246 28.583,-16.155 -0.131,8.598 -0.038,17.188 -0.056,25.786 -0.244,10.532 0.554,21.121 -0.516,31.615 -16.38,8.843 -32.291,18.567 -48.484,27.748 0.404,-12.278 0.085,-24.566 0.178,-36.834 -0.113,-6.533 0.563,-13.123 -0.704,-19.572 6.618,-4.796 14.024,-8.354 20.999,-12.588 z"
       id="path68" />
    <path
       fill="#0c242c"
       stroke="#0c242c"
       stroke-width="0.5"
       d="m 729.294,1175.545 c 49.554,28.123 98.62,57.12 148.183,85.224 0.103,18.699 0.028,37.398 0.038,56.106 -9.875,-4.665 -18.98,-10.757 -28.536,-16.014 -33.756,-19.431 -67.445,-38.965 -101.201,-58.396 -5.717,-3.22 -11.171,-6.946 -17.291,-9.378 -1.615,-0.929 -1.361,-2.872 -1.399,-4.431 0.271,-17.703 -0.142,-35.417 0.206,-53.111 z"
       id="path69" />
    <path
       fill="#d35f5f"
       stroke="#d35f5f"
       stroke-width="0.5"
       d="m 877.495,1318.452 c 6.843,3.257 13.217,7.397 19.835,11.086 9.622,5.613 19.347,11.077 28.931,16.756 0.188,0.122 0.544,0.375 0.732,0.507 -0.066,18.952 -0.047,37.914 -0.009,56.876 -16.681,-9.058 -32.807,-19.103 -49.46,-28.208 -0.217,-19 -0.16,-38.018 -0.029,-57.017 z"
       id="path70" />
  </g>
</svg>
