<?xml version="1.0" encoding="UTF-8" standalone="no"?>
<svg
   width="48px"
   height="48px"
   viewBox="0 0 48 48"
   version="1.1"
   id="svg3"
   sodipodi:docname="qube-square2.svg"
   inkscape:version="1.3.2 (091e20ef0f, 2023-11-25)"
   xmlns:inkscape="http://www.inkscape.org/namespaces/inkscape"
   xmlns:sodipodi="http://sodipodi.sourceforge.net/DTD/sodipodi-0.dtd"
   xmlns:xlink="http://www.w3.org/1999/xlink"
   xmlns="http://www.w3.org/2000/svg"
   xmlns:svg="http://www.w3.org/2000/svg"
   xmlns:rdf="http://www.w3.org/1999/02/22-rdf-syntax-ns#"
   xmlns:cc="http://creativecommons.org/ns#"
   xmlns:dc="http://purl.org/dc/elements/1.1/">
  <title
     id="title1">Qube²</title>
  <sodipodi:namedview
     id="namedview3"
     pagecolor="#ffffff"
     bordercolor="#000000"
     borderopacity="0.25"
     inkscape:showpageshadow="2"
     inkscape:pageopacity="0.0"
     inkscape:pagecheckerboard="0"
     inkscape:deskcolor="#d1d1d1"
     inkscape:zoom="4.3973203"
     inkscape:cx="22.854828"
     inkscape:cy="28.994931"
     inkscape:window-width="1440"
     inkscape:window-height="843"
     inkscape:window-x="0"
     inkscape:window-y="33"
     inkscape:window-maximized="1"
     inkscape:current-layer="svg3" />
  <defs
     id="defs1">
    <polygon
       id="path-1"
       points="0.264506174 0.398583241 40.0936 0.398583241 40.0936 46 0.264506174 46" />
    <polygon
       id="path-3"
       points="0 0.361 40.9599938 0.361 40.9599938 45.9620167 0 45.9620167" />
    <polygon
       id="path-5"
       points="0 0.0254 20.6328606 0.0254 20.6328606 33.9504 0 33.9504" />
    <mask
       id="mask-4-6"
       fill="#ffffff">
      <use
         xlink:href="#path-3"
         id="use2-7" />
    </mask>
    <mask
       id="mask-4-67"
       fill="#ffffff">
      <use
         xlink:href="#path-3"
         id="use2-5" />
    </mask>
    <mask
       id="mask-4-6-3"
       fill="#ffffff">
      <use
         xlink:href="#path-3"
         id="use2-7-5" />
    </mask>
  </defs>
  <path
     d="m 22.114968,1.7455 -8.223,4.748 -8.2219997,4.747 c -0.627,0.362 -1.135,0.877 -1.486,1.481 -0.352,0.606 -0.548,1.301 -0.552,2.024 l -0.056,9.351 -0.05606,9.35 c -0.0039,0.737 0.190061,1.446 0.546061,2.062 0.356,0.616 0.873,1.14 1.513,1.505 l 8.1249997,4.626 8.126,4.627 c 0.629,0.358 1.329,0.536 2.029,0.534017 0.7,-0.002 1.4,-0.184017 2.027,-0.546017 l 8.222,-4.748 8.223,-4.747 c 0.627,-0.361 1.134,-0.876 1.486,-1.481 0.352,-0.606 0.548,-1.301 0.552,-2.025 l 0.056,-9.35 0.05509,-9.35 c 0.0049,-0.737 -0.19009,-1.446 -0.54609,-2.062 -0.356,-0.617 -0.873,-1.14 -1.513,-1.504 l -8.125,-4.627 -8.125,-4.627 c -0.629,-0.359 -1.329,-0.536 -2.03,-0.534017 -0.699,0.002 -1.399,0.184017 -2.026,0.546017"
     style="display:inline;fill:#1793d1;fill-opacity:1"
     id="Outter" />
  <metadata
     id="metadata3">
    <rdf:RDF>
      <cc:Work
         rdf:about="">
        <cc:license
           rdf:resource="http://creativecommons.org/licenses/by-nc-sa/4.0/" />
        <dc:title>Qube²</dc:title>
        <dc:date>2024-04-11</dc:date>
        <dc:creator>
          <cc:Agent>
            <dc:title>Ali Mirjamali</dc:title>
          </cc:Agent>
        </dc:creator>
        <dc:rights>
          <cc:Agent>
            <dc:title>CC-BY-SA</dc:title>
          </cc:Agent>
        </dc:rights>
        <dc:source>https://github.com/alimirjamali/personal-qubesos</dc:source>
        <dc:subject>
          <rdf:Bag>
            <rdf:li>Cube</rdf:li>
            <rdf:li>Qube</rdf:li>
            <rdf:li>Qubes-OS</rdf:li>
          </rdf:Bag>
        </dc:subject>
        <dc:description>I qube inside a qube. Based on Qubes-OS Artwork.</dc:description>
        <dc:contributor>
          <cc:Agent>
            <dc:title>Ali Mirjamali
Ninavizz</dc:title>
          </cc:Agent>
        </dc:contributor>
      </cc:Work>
      <cc:License
         rdf:about="http://creativecommons.org/licenses/by-nc-sa/4.0/">
        <cc:permits
           rdf:resource="http://creativecommons.org/ns#Reproduction" />
        <cc:permits
           rdf:resource="http://creativecommons.org/ns#Distribution" />
        <cc:requires
           rdf:resource="http://creativecommons.org/ns#Notice" />
        <cc:requires
           rdf:resource="http://creativecommons.org/ns#Attribution" />
        <cc:prohibits
           rdf:resource="http://creativecommons.org/ns#CommercialUse" />
        <cc:permits
           rdf:resource="http://creativecommons.org/ns#DerivativeWorks" />
        <cc:requires
           rdf:resource="http://creativecommons.org/ns#ShareAlike" />
      </cc:License>
    </rdf:RDF>
  </metadata>
  <path
     d="m 22.222487,3.014865 -7.753972,4.477181 -7.7530281,4.476238 c -0.591237,0.341352 -1.070262,0.826977 -1.401241,1.396526 -0.331923,0.571434 -0.516743,1.226792 -0.520515,1.908554 l -0.05281,8.817632 -0.05286,8.816689 c -0.0037,0.694963 0.17922,1.363523 0.514914,1.944387 0.335695,0.580864 0.823206,1.074976 1.426701,1.419157 l 7.6615621,4.362139 7.662504,4.363083 c 0.593123,0.33758 1.253196,0.505427 1.913269,0.503557 0.660073,-0.0019 1.320146,-0.173521 1.911383,-0.514873 l 7.753029,-4.477181 7.753972,-4.476237 c 0.591236,-0.34041 1.069318,-0.826035 1.40124,-1.396526 0.331923,-0.571435 0.516743,-1.226793 0.520515,-1.909497 l 0.05281,-8.81669 0.05195,-8.816689 c 0.0046,-0.694963 -0.179248,-1.363522 -0.514942,-1.944386 -0.335695,-0.581808 -0.823206,-1.074976 -1.426701,-1.418214 L 33.708699,7.366632 26.047138,3.00355 C 25.454015,2.665026 24.793942,2.498122 24.132926,2.499992 c -0.65913,0.0019 -1.319203,0.173521 -1.91044,0.514873"
     style="display:inline;fill:#ffffff;fill-opacity:1"
     id="Inner" />
  <g
     id="Qubes"
     transform="matrix(0.17239906,0,0,0.17239906,22.277607,17.718698)">
    <path
       d="m 10.55561,-77.993633 a 23.297717,23.351298 0 0 0 -12.20092,3.132036 l -78.699298,45.525432 a 23.297717,23.351298 0 0 0 -11.655391,20.22024 v 91.098557 a 23.297717,23.351298 0 0 0 11.655391,20.196538 l 78.699298,45.56119 a 23.297717,23.351298 0 0 0 23.29883,0 l 78.71124,-45.56119 A 23.297717,23.351298 0 0 0 112.00822,81.982632 V -9.115925 a 23.297717,23.351298 0 0 0 -11.64346,-20.22024 L 21.65352,-74.861597 a 23.297717,23.351298 0 0 0 -11.09791,-3.132036 z m -0.25271,51.49152 a 12.813743,12.843212 0 0 1 6.10788,1.71486 L 59.70404,0.255871 a 12.813743,12.843212 0 0 1 6.40515,11.122571 v 50.11011 a 12.813743,12.843212 0 0 1 -6.40515,11.09843 l -43.29326,25.06696 a 12.813743,12.843212 0 0 1 -12.80736,0 l -43.294774,-25.06696 a 12.813743,12.843212 0 0 1 -6.403682,-11.09843 V 11.378442 A 12.813743,12.843212 0 0 1 -39.691354,0.255871 L 3.60342,-24.787253 a 12.813743,12.843212 0 0 1 6.69948,-1.71486 z"
       id="path3946"
       style="fill:#7eadff" />
    <path
       d="M 108.88218,-20.753722 64.37597,4.992038 a 12.813743,12.843212 0 0 1 1.72283,6.418574 v 50.09817 a 12.813743,12.843212 0 0 1 -6.40368,11.1105 l -43.28136,25.0552 a 12.813743,12.843212 0 0 1 -6.37991,1.70279 V 150.8688 a 23.297717,23.351298 0 0 0 11.61967,-3.108 l 78.71124,-45.56124 A 23.297717,23.351298 0 0 0 112.00822,82.003012 V -9.083614 a 23.297717,23.351298 0 0 0 -3.12604,-11.670108 z"
       id="path3948"
       style="fill:#63a0ff;fill-opacity:1;stroke:none" />
    <path
       d="m -88.853124,-20.792758 44.498735,25.759176 a 12.813743,12.843212 0 0 1 4.683876,-4.704756 L 3.6168,-24.78727 a 12.813743,12.843212 0 0 1 12.80141,0.0036 L 59.70848,0.258566 a 12.813743,12.843212 0 0 1 4.66154,4.686576 l 44.48986,-25.745604 a 23.297717,23.351298 0 0 0 -8.49512,-8.532108 L 21.64165,-74.87473 a 23.297717,23.351298 0 0 0 -23.27208,-0.0084 l -78.700803,45.543468 a 23.297717,23.351298 0 0 0 -8.521891,8.5473 z"
       id="path3950"
       style="fill:#99bfff;fill-opacity:1;stroke:none" />
    <rect
       width="53.301201"
       height="74.58963"
       ry="14.226912"
       x="-114.15672"
       y="131.59834"
       transform="matrix(0.86430004,-0.50297658,0.86430004,0.50297658,0,0)"
       id="rect3944"
       style="fill:#63a0ff;fill-opacity:1;stroke:none" />
  </g>
</svg>
