<?xml version="1.0" encoding="UTF-8" standalone="no"?>
<svg
   width="48px"
   height="48px"
   viewBox="0 0 48 48"
   version="1.1"
   id="svg2"
   sodipodi:docname="qube-webcolors.svg"
   inkscape:version="1.3.2 (091e20ef0f, 2023-11-25)"
   xmlns:inkscape="http://www.inkscape.org/namespaces/inkscape"
   xmlns:sodipodi="http://sodipodi.sourceforge.net/DTD/sodipodi-0.dtd"
   xmlns="http://www.w3.org/2000/svg"
   xmlns:svg="http://www.w3.org/2000/svg"
   xmlns:rdf="http://www.w3.org/1999/02/22-rdf-syntax-ns#"
   xmlns:cc="http://creativecommons.org/ns#"
   xmlns:dc="http://purl.org/dc/elements/1.1/">
  <title
     id="title1">Web Colors Cube</title>
  <sodipodi:namedview
     id="namedview"
     pagecolor="#ffffff"
     bordercolor="#000000"
     borderopacity="0.25"
     inkscape:showpageshadow="2"
     inkscape:pageopacity="0.0"
     inkscape:pagecheckerboard="0"
     inkscape:deskcolor="#d1d1d1"
     showguides="true"
     inkscape:zoom="5.6568543"
     inkscape:cx="-6.2755726"
     inkscape:cy="31.908193"
     inkscape:window-width="1440"
     inkscape:window-height="843"
     inkscape:window-x="0"
     inkscape:window-y="33"
     inkscape:window-maximized="1"
     inkscape:current-layer="svg2">
    <sodipodi:guide
       position="24,0"
       orientation="0.5,0.8660254"
       id="guide1"
       inkscape:locked="false"
       inkscape:label=""
       inkscape:color="rgb(0,134,229)" />
    <sodipodi:guide
       position="24,16"
       orientation="0.5,0.8660254"
       id="guide2"
       inkscape:label=""
       inkscape:locked="false"
       inkscape:color="rgb(0,134,229)" />
    <sodipodi:guide
       position="24,32"
       orientation="0.5,0.8660254"
       id="guide3"
       inkscape:label=""
       inkscape:locked="false"
       inkscape:color="rgb(0,134,229)" />
    <sodipodi:guide
       position="24,48"
       orientation="0.5,0.8660254"
       id="guide4"
       inkscape:label=""
       inkscape:locked="false"
       inkscape:color="rgb(0,134,229)" />
    <sodipodi:guide
       position="24,0"
       orientation="-0.5,0.8660254"
       id="guide5"
       inkscape:locked="false"
       inkscape:label=""
       inkscape:color="rgb(0,134,229)" />
    <sodipodi:guide
       position="24,16"
       orientation="-0.5,0.8660254"
       id="guide6"
       inkscape:label=""
       inkscape:locked="false"
       inkscape:color="rgb(0,134,229)" />
    <sodipodi:guide
       position="24,32"
       orientation="-0.5,0.8660254"
       id="guide7"
       inkscape:label=""
       inkscape:locked="false"
       inkscape:color="rgb(0,134,229)" />
    <sodipodi:guide
       position="24,48"
       orientation="-0.5,0.8660254"
       id="guide8"
       inkscape:label=""
       inkscape:locked="false"
       inkscape:color="rgb(0,134,229)" />
    <sodipodi:guide
       position="24,40"
       orientation="0.5,0.8660254"
       id="guide9"
       inkscape:label=""
       inkscape:locked="false"
       inkscape:color="rgb(0,134,229)" />
    <sodipodi:guide
       position="24,24"
       orientation="0.5,0.8660254"
       id="guide10"
       inkscape:label=""
       inkscape:locked="false"
       inkscape:color="rgb(0,134,229)" />
    <sodipodi:guide
       position="24,8"
       orientation="0.5,0.8660254"
       id="guide11"
       inkscape:label=""
       inkscape:locked="false"
       inkscape:color="rgb(0,134,229)" />
    <sodipodi:guide
       position="24,40"
       orientation="-0.5,0.8660254"
       id="guide12"
       inkscape:label=""
       inkscape:locked="false"
       inkscape:color="rgb(0,134,229)" />
    <sodipodi:guide
       position="24,24"
       orientation="-0.5,0.8660254"
       id="guide13"
       inkscape:label=""
       inkscape:locked="false"
       inkscape:color="rgb(0,134,229)" />
    <sodipodi:guide
       position="24,8"
       orientation="-0.5,0.8660254"
       id="guide14"
       inkscape:label=""
       inkscape:locked="false"
       inkscape:color="rgb(0,134,229)" />
    <sodipodi:guide
       position="24,32"
       orientation="1,0"
       id="guide15"
       inkscape:locked="false" />
    <sodipodi:guide
       position="17.071797,36"
       orientation="1,0"
       id="guide16"
       inkscape:locked="false" />
    <sodipodi:guide
       position="10.143594,24"
       orientation="1,0"
       id="guide17"
       inkscape:locked="false" />
    <sodipodi:guide
       position="3.2153904,12"
       orientation="1,0"
       id="guide18"
       inkscape:locked="false" />
    <sodipodi:guide
       position="30.928203,20"
       orientation="1,0"
       id="guide19"
       inkscape:locked="false" />
    <sodipodi:guide
       position="37.856406,16"
       orientation="1,0"
       id="guide20"
       inkscape:locked="false" />
    <sodipodi:guide
       position="44.78461,12"
       orientation="1,0"
       id="guide21"
       inkscape:locked="false" />
    <sodipodi:guide
       position="43.052,25"
       orientation="0.5,0.8660254"
       id="guide22"
       inkscape:label=""
       inkscape:locked="false"
       inkscape:color="rgb(0,134,229)" />
    <sodipodi:guide
       position="44.784,32"
       orientation="0.5,0.8660254"
       id="guide23"
       inkscape:label=""
       inkscape:locked="false"
       inkscape:color="rgb(0,134,229)" />
    <sodipodi:guide
       position="44.784,16"
       orientation="0.5,0.8660254"
       id="guide24"
       inkscape:label=""
       inkscape:locked="false"
       inkscape:color="rgb(0,134,229)" />
    <sodipodi:guide
       position="41.32,10"
       orientation="0.5,0.8660254"
       id="guide25"
       inkscape:label=""
       inkscape:locked="false"
       inkscape:color="rgb(0,134,229)" />
    <sodipodi:guide
       position="34.392,6"
       orientation="0.5,0.8660254"
       id="guide26"
       inkscape:label=""
       inkscape:locked="false"
       inkscape:color="rgb(0,134,229)" />
    <sodipodi:guide
       position="27.464,2"
       orientation="0.5,0.8660254"
       id="guide27"
       inkscape:label=""
       inkscape:locked="false"
       inkscape:color="rgb(0,134,229)" />
    <sodipodi:guide
       position="3.2153904,31.999707"
       orientation="-0.5,0.8660254"
       id="guide28"
       inkscape:label=""
       inkscape:locked="false"
       inkscape:color="rgb(0,134,229)" />
    <sodipodi:guide
       position="4.9480004,25"
       orientation="-0.5,0.8660254"
       id="guide29"
       inkscape:label=""
       inkscape:locked="false"
       inkscape:color="rgb(0,134,229)" />
    <sodipodi:guide
       position="3.2153904,15.999941"
       orientation="-0.5,0.8660254"
       id="guide30"
       inkscape:label=""
       inkscape:locked="false"
       inkscape:color="rgb(0,134,229)" />
    <sodipodi:guide
       position="6.6800004,10"
       orientation="-0.5,0.8660254"
       id="guide31"
       inkscape:label=""
       inkscape:locked="false"
       inkscape:color="rgb(0,134,229)" />
    <sodipodi:guide
       position="13.608,6"
       orientation="-0.5,0.8660254"
       id="guide32"
       inkscape:label=""
       inkscape:locked="false"
       inkscape:color="rgb(0,134,229)" />
    <sodipodi:guide
       position="20.536,2"
       orientation="-0.5,0.8660254"
       id="guide33"
       inkscape:label=""
       inkscape:locked="false"
       inkscape:color="rgb(0,134,229)" />
  </sodipodi:namedview>
  <defs
     id="defs1" />
  <metadata
     id="metadata1">
    <rdf:RDF>
      <cc:Work
         rdf:about="">
        <cc:license
           rdf:resource="http://creativecommons.org/licenses/by-sa/4.0/" />
        <dc:creator>
          <cc:Agent>
            <dc:title>Ali Mirjamali</dc:title>
          </cc:Agent>
        </dc:creator>
        <dc:rights>
          <cc:Agent>
            <dc:title>CC-BY-SA</dc:title>
          </cc:Agent>
        </dc:rights>
        <dc:date>2024-04-10</dc:date>
        <dc:subject>
          <rdf:Bag>
            <rdf:li>Cube</rdf:li>
            <rdf:li>Qube</rdf:li>
            <rdf:li>Web Colors</rdf:li>
          </rdf:Bag>
        </dc:subject>
        <dc:description>Web Colors icon designed for Qubes-OS. Based on Denis N Gour Web Color Cube design</dc:description>
        <dc:source>https://www.github.com/alimirjamali/personal-qubesos</dc:source>
        <dc:title>Web Colors Cube</dc:title>
      </cc:Work>
      <cc:License
         rdf:about="http://creativecommons.org/licenses/by-sa/4.0/">
        <cc:permits
           rdf:resource="http://creativecommons.org/ns#Reproduction" />
        <cc:permits
           rdf:resource="http://creativecommons.org/ns#Distribution" />
        <cc:requires
           rdf:resource="http://creativecommons.org/ns#Notice" />
        <cc:requires
           rdf:resource="http://creativecommons.org/ns#Attribution" />
        <cc:permits
           rdf:resource="http://creativecommons.org/ns#DerivativeWorks" />
        <cc:requires
           rdf:resource="http://creativecommons.org/ns#ShareAlike" />
      </cc:License>
    </rdf:RDF>
  </metadata>
  <g
     id="Web-Colors">
    <path
       d="m 24,20 3.464,2 v 4 L 24,28 20.536,26 v -4 z"
       id="path2"
       style="fill:#FFFFFF;stroke-width:4" />
    <path
       d="m 24,16 3.464,2 v 4 L 24,24 20.536,22 v -4 z"
       id="path3"
       style="fill:#FFCCFF;stroke-width:4" />
    <path
       d="m 24,12 3.464,2 v 4 L 24,20 20.536,18 v -4 z"
       id="path4"
       style="fill:#FF99FF;stroke-width:4" />
    <path
       d="m 24,8 3.464,2 v 4 L 24,16 20.536,14 v -4 z"
       id="path5"
       style="fill:#FF66FF;stroke-width:4" />
    <path
       d="m 24,4 3.464,2 v 4 L 24,12 20.536,10 V 6 Z"
       id="path6"
       style="fill:#FF33FF;stroke-width:4" />
    <path
       d="m 24,0 3.464,2 V 6 L 24,8 20.536,6 V 2 Z"
       id="path7"
       style="fill:#FF00FF;stroke-width:4" />
    <path
       d="M 20.536,22 24,24 v 4 l -3.464,2 -3.464,-2 v -4 z"
       id="path8"
       style="fill:#CCFFFF;stroke-width:4" />
    <path
       d="M 20.536,18 24,20 v 4 l -3.464,2 -3.464,-2 v -4 z"
       id="path9"
       style="fill:#CCCCFF;stroke-width:4" />
    <path
       d="M 20.536,14 24,16 v 4 l -3.464,2 -3.464,-2 v -4 z"
       id="path10"
       style="fill:#CC99FF;stroke-width:4" />
    <path
       d="M 20.536,10 24,12 v 4 l -3.464,2 -3.464,-2 v -4 z"
       id="path11"
       style="fill:#CC66FF;stroke-width:4" />
    <path
       d="M 20.536,6 24,8 v 4 l -3.464,2 -3.464,-2 V 8 Z"
       id="path12"
       style="fill:#CC33FF;stroke-width:4" />
    <path
       d="M 20.536,2 24,4 V 8 L 20.536,10 17.072,8 V 4 Z"
       id="path13"
       style="fill:#CC00FF;stroke-width:4" />
    <path
       d="m 17.072,24 3.464,2 v 4 l -3.464,2 -3.464,-2 v -4 z"
       id="path14"
       style="fill:#99FFFF;stroke-width:4" />
    <path
       d="m 17.072,20 3.464,2 v 4 l -3.464,2 -3.464,-2 v -4 z"
       id="path15"
       style="fill:#99CCFF;stroke-width:4" />
    <path
       d="m 17.072,16 3.464,2 v 4 l -3.464,2 -3.464,-2 v -4 z"
       id="path16"
       style="fill:#9999FF;stroke-width:4" />
    <path
       d="m 17.072,12 3.464,2 v 4 l -3.464,2 -3.464,-2 v -4 z"
       id="path17"
       style="fill:#9966FF;stroke-width:4" />
    <path
       d="m 17.072,8 3.464,2 v 4 l -3.464,2 -3.464,-2 v -4 z"
       id="path18"
       style="fill:#9933FF;stroke-width:4" />
    <path
       d="m 17.072,4 3.464,2 v 4 l -3.464,2 -3.464,-2 V 6 Z"
       id="path19"
       style="fill:#9900FF;stroke-width:4" />
    <path
       d="m 13.608,26 3.464,2 v 4 l -3.464,2 -3.464,-2 v -4 z"
       id="path20"
       style="fill:#66FFFF;stroke-width:4" />
    <path
       d="m 13.608,22 3.464,2 v 4 l -3.464,2 -3.464,-2 v -4 z"
       id="path21"
       style="fill:#66CCFF;stroke-width:4" />
    <path
       d="m 13.608,18 3.464,2 v 4 l -3.464,2 -3.464,-2 v -4 z"
       id="path22"
       style="fill:#6699FF;stroke-width:4" />
    <path
       d="m 13.608,14 3.464,2 v 4 l -3.464,2 -3.464,-2 v -4 z"
       id="path23"
       style="fill:#6666FF;stroke-width:4" />
    <path
       d="m 13.608,10 3.464,2 v 4 l -3.464,2 -3.464,-2 v -4 z"
       id="path24"
       style="fill:#6633FF;stroke-width:4" />
    <path
       d="m 13.608,6 3.464,2 v 4 l -3.464,2 -3.464,-2 V 8 Z"
       id="path25"
       style="fill:#6600FF;stroke-width:4" />
    <path
       d="m 10.144,28 3.464,2 v 4 L 10.144,36 6.68,34 v -4 z"
       id="path26"
       style="fill:#33FFFF;stroke-width:4" />
    <path
       d="m 10.144,24 3.464,2 v 4 L 10.144,32 6.68,30 v -4 z"
       id="path27"
       style="fill:#33CCFF;stroke-width:4" />
    <path
       d="m 10.144,20 3.464,2 v 4 L 10.144,28 6.68,26 v -4 z"
       id="path28"
       style="fill:#3399FF;stroke-width:4" />
    <path
       d="m 10.144,16 3.464,2 v 4 L 10.144,24 6.68,22 v -4 z"
       id="path29"
       style="fill:#3366FF;stroke-width:4" />
    <path
       d="m 10.144,12 3.464,2 v 4 L 10.144,20 6.68,18 v -4 z"
       id="path30"
       style="fill:#3333FF;stroke-width:4" />
    <path
       d="m 10.144,8 3.464,2 v 4 L 10.144,16 6.68,14 v -4 z"
       id="path31"
       style="fill:#3300FF;stroke-width:4" />
    <path
       d="M 6.6800004,30 10.144,32 v 4 l -3.4639996,2 -3.464,-2 v -4 z"
       id="path32"
       style="fill:#00FFFF;stroke-width:4" />
    <path
       d="M 6.6800004,26 10.144,28 v 4 l -3.4639996,2 -3.464,-2 v -4 z"
       id="path33"
       style="fill:#00CCFF;stroke-width:4" />
    <path
       d="M 6.6800004,22 10.144,24 v 4 l -3.4639996,2 -3.464,-2 v -4 z"
       id="path34"
       style="fill:#0099FF;stroke-width:4" />
    <path
       d="M 6.6800004,18 10.144,20 v 4 l -3.4639996,2 -3.464,-2 v -4 z"
       id="path35"
       style="fill:#0066FF;stroke-width:4" />
    <path
       d="M 6.6800004,14 10.144,16 v 4 l -3.4639996,2 -3.464,-2 v -4 z"
       id="path36"
       style="fill:#0033FF;stroke-width:4" />
    <path
       d="M 6.6800004,10 10.144,12 v 4 l -3.4639996,2 -3.464,-2 v -4 z"
       id="path37"
       style="fill:#0000FF;stroke-width:4" />
    <path
       d="m 27.464,22 3.464,2 v 4 L 27.464,30 24,28 v -4 z"
       id="path38"
       style="fill:#FFFFCC;stroke-width:4" />
    <path
       d="m 27.464,18 3.464,2 v 4 L 27.464,26 24,24 v -4 z"
       id="path39"
       style="fill:#FFCCCC;stroke-width:4" />
    <path
       d="m 27.464,14 3.464,2 v 4 L 27.464,22 24,20 v -4 z"
       id="path40"
       style="fill:#FF99CC;stroke-width:4" />
    <path
       d="m 27.464,10 3.464,2 v 4 L 27.464,18 24,16 v -4 z"
       id="path41"
       style="fill:#FF66CC;stroke-width:4" />
    <path
       d="m 27.464,6 3.464,2 v 4 L 27.464,14 24,12 V 8 Z"
       id="path42"
       style="fill:#FF33CC;stroke-width:4" />
    <path
       d="m 27.464,2 3.464,2 V 8 L 27.464,10 24,8 V 4 Z"
       id="path43"
       style="fill:#FF00CC;stroke-width:4" />
    <path
       d="m 24,24 3.464,2 v 4 L 24,32 20.536,30 v -4 z"
       id="path44"
       style="fill:#CCFFCC;stroke-width:4" />
    <path
       d="m 24,20 3.464,2 v 4 L 24,28 20.536,26 v -4 z"
       id="path45"
       style="fill:#CCCCCC;stroke-width:4" />
    <path
       d="m 24,16 3.464,2 v 4 L 24,24 20.536,22 v -4 z"
       id="path46"
       style="fill:#CC99CC;stroke-width:4" />
    <path
       d="m 24,12 3.464,2 v 4 L 24,20 20.536,18 v -4 z"
       id="path47"
       style="fill:#CC66CC;stroke-width:4" />
    <path
       d="m 24,8 3.464,2 v 4 L 24,16 20.536,14 v -4 z"
       id="path48"
       style="fill:#CC33CC;stroke-width:4" />
    <path
       d="m 24,4 3.464,2 v 4 L 24,12 20.536,10 V 6 Z"
       id="path49"
       style="fill:#CC00CC;stroke-width:4" />
    <path
       d="M 20.536,26 24,28 v 4 l -3.464,2 -3.464,-2 v -4 z"
       id="path50"
       style="fill:#99FFCC;stroke-width:4" />
    <path
       d="M 20.536,22 24,24 v 4 l -3.464,2 -3.464,-2 v -4 z"
       id="path51"
       style="fill:#99CCCC;stroke-width:4" />
    <path
       d="M 20.536,18 24,20 v 4 l -3.464,2 -3.464,-2 v -4 z"
       id="path52"
       style="fill:#9999CC;stroke-width:4" />
    <path
       d="M 20.536,14 24,16 v 4 l -3.464,2 -3.464,-2 v -4 z"
       id="path53"
       style="fill:#9966CC;stroke-width:4" />
    <path
       d="M 20.536,10 24,12 v 4 l -3.464,2 -3.464,-2 v -4 z"
       id="path54"
       style="fill:#9933CC;stroke-width:4" />
    <path
       d="M 20.536,6 24,8 v 4 l -3.464,2 -3.464,-2 V 8 Z"
       id="path55"
       style="fill:#9900CC;stroke-width:4" />
    <path
       d="m 17.072,28 3.464,2 v 4 l -3.464,2 -3.464,-2 v -4 z"
       id="path56"
       style="fill:#66FFCC;stroke-width:4" />
    <path
       d="m 17.072,24 3.464,2 v 4 l -3.464,2 -3.464,-2 v -4 z"
       id="path57"
       style="fill:#66CCCC;stroke-width:4" />
    <path
       d="m 17.072,20 3.464,2 v 4 l -3.464,2 -3.464,-2 v -4 z"
       id="path58"
       style="fill:#6699CC;stroke-width:4" />
    <path
       d="m 17.072,16 3.464,2 v 4 l -3.464,2 -3.464,-2 v -4 z"
       id="path59"
       style="fill:#6666CC;stroke-width:4" />
    <path
       d="m 17.072,12 3.464,2 v 4 l -3.464,2 -3.464,-2 v -4 z"
       id="path60"
       style="fill:#6633CC;stroke-width:4" />
    <path
       d="m 17.072,8 3.464,2 v 4 l -3.464,2 -3.464,-2 v -4 z"
       id="path61"
       style="fill:#6600CC;stroke-width:4" />
    <path
       d="m 13.608,30 3.464,2 v 4 l -3.464,2 -3.464,-2 v -4 z"
       id="path62"
       style="fill:#33FFCC;stroke-width:4" />
    <path
       d="m 13.608,26 3.464,2 v 4 l -3.464,2 -3.464,-2 v -4 z"
       id="path63"
       style="fill:#33CCCC;stroke-width:4" />
    <path
       d="m 13.608,22 3.464,2 v 4 l -3.464,2 -3.464,-2 v -4 z"
       id="path64"
       style="fill:#3399CC;stroke-width:4" />
    <path
       d="m 13.608,18 3.464,2 v 4 l -3.464,2 -3.464,-2 v -4 z"
       id="path65"
       style="fill:#3366CC;stroke-width:4" />
    <path
       d="m 13.608,14 3.464,2 v 4 l -3.464,2 -3.464,-2 v -4 z"
       id="path66"
       style="fill:#3333CC;stroke-width:4" />
    <path
       d="m 13.608,10 3.464,2 v 4 l -3.464,2 -3.464,-2 v -4 z"
       id="path67"
       style="fill:#3300CC;stroke-width:4" />
    <path
       d="m 10.144,32 3.464,2 v 4 L 10.144,40 6.68,38 v -4 z"
       id="path68"
       style="fill:#00FFCC;stroke-width:4" />
    <path
       d="m 10.144,28 3.464,2 v 4 L 10.144,36 6.68,34 v -4 z"
       id="path69"
       style="fill:#00CCCC;stroke-width:4" />
    <path
       d="m 10.144,24 3.464,2 v 4 L 10.144,32 6.68,30 v -4 z"
       id="path70"
       style="fill:#0099CC;stroke-width:4" />
    <path
       d="m 10.144,20 3.464,2 v 4 L 10.144,28 6.68,26 v -4 z"
       id="path71"
       style="fill:#0066CC;stroke-width:4" />
    <path
       d="m 10.144,16 3.464,2 v 4 L 10.144,24 6.68,22 v -4 z"
       id="path72"
       style="fill:#0033CC;stroke-width:4" />
    <path
       d="m 10.144,12 3.464,2 v 4 L 10.144,20 6.68,18 v -4 z"
       id="path73"
       style="fill:#0000CC;stroke-width:4" />
    <path
       d="m 30.928,24 3.464,2 v 4 l -3.464,2 -3.464,-2 v -4 z"
       id="path74"
       style="fill:#FFFF99;stroke-width:4" />
    <path
       d="m 30.928,20 3.464,2 v 4 l -3.464,2 -3.464,-2 v -4 z"
       id="path75"
       style="fill:#FFCC99;stroke-width:4" />
    <path
       d="m 30.928,16 3.464,2 v 4 l -3.464,2 -3.464,-2 v -4 z"
       id="path76"
       style="fill:#FF9999;stroke-width:4" />
    <path
       d="m 30.928,12 3.464,2 v 4 l -3.464,2 -3.464,-2 v -4 z"
       id="path77"
       style="fill:#FF6699;stroke-width:4" />
    <path
       d="m 30.928,8 3.464,2 v 4 l -3.464,2 -3.464,-2 v -4 z"
       id="path78"
       style="fill:#FF3399;stroke-width:4" />
    <path
       d="m 30.928,4 3.464,2 v 4 l -3.464,2 -3.464,-2 V 6 Z"
       id="path79"
       style="fill:#FF0099;stroke-width:4" />
    <path
       d="m 27.464,26 3.464,2 v 4 L 27.464,34 24,32 v -4 z"
       id="path80"
       style="fill:#CCFF99;stroke-width:4" />
    <path
       d="m 27.464,22 3.464,2 v 4 L 27.464,30 24,28 v -4 z"
       id="path81"
       style="fill:#CCCC99;stroke-width:4" />
    <path
       d="m 27.464,18 3.464,2 v 4 L 27.464,26 24,24 v -4 z"
       id="path82"
       style="fill:#CC9999;stroke-width:4" />
    <path
       d="m 27.464,14 3.464,2 v 4 L 27.464,22 24,20 v -4 z"
       id="path83"
       style="fill:#CC6699;stroke-width:4" />
    <path
       d="m 27.464,10 3.464,2 v 4 L 27.464,18 24,16 v -4 z"
       id="path84"
       style="fill:#CC3399;stroke-width:4" />
    <path
       d="m 27.464,6 3.464,2 v 4 L 27.464,14 24,12 V 8 Z"
       id="path85"
       style="fill:#CC0099;stroke-width:4" />
    <path
       d="m 24,28 3.464,2 v 4 L 24,36 20.536,34 v -4 z"
       id="path86"
       style="fill:#99FF99;stroke-width:4" />
    <path
       d="m 24,24 3.464,2 v 4 L 24,32 20.536,30 v -4 z"
       id="path87"
       style="fill:#99CC99;stroke-width:4" />
    <path
       d="m 24,20 3.464,2 v 4 L 24,28 20.536,26 v -4 z"
       id="path88"
       style="fill:#999999;stroke-width:4" />
    <path
       d="m 24,16 3.464,2 v 4 L 24,24 20.536,22 v -4 z"
       id="path89"
       style="fill:#996699;stroke-width:4" />
    <path
       d="m 24,12 3.464,2 v 4 L 24,20 20.536,18 v -4 z"
       id="path90"
       style="fill:#993399;stroke-width:4" />
    <path
       d="m 24,8 3.464,2 v 4 L 24,16 20.536,14 v -4 z"
       id="path91"
       style="fill:#990099;stroke-width:4" />
    <path
       d="M 20.536,30 24,32 v 4 l -3.464,2 -3.464,-2 v -4 z"
       id="path92"
       style="fill:#66FF99;stroke-width:4" />
    <path
       d="M 20.536,26 24,28 v 4 l -3.464,2 -3.464,-2 v -4 z"
       id="path93"
       style="fill:#66CC99;stroke-width:4" />
    <path
       d="M 20.536,22 24,24 v 4 l -3.464,2 -3.464,-2 v -4 z"
       id="path94"
       style="fill:#669999;stroke-width:4" />
    <path
       d="M 20.536,18 24,20 v 4 l -3.464,2 -3.464,-2 v -4 z"
       id="path95"
       style="fill:#666699;stroke-width:4" />
    <path
       d="M 20.536,14 24,16 v 4 l -3.464,2 -3.464,-2 v -4 z"
       id="path96"
       style="fill:#663399;stroke-width:4" />
    <path
       d="M 20.536,10 24,12 v 4 l -3.464,2 -3.464,-2 v -4 z"
       id="path97"
       style="fill:#660099;stroke-width:4" />
    <path
       d="m 17.072,32 3.464,2 v 4 l -3.464,2 -3.464,-2 v -4 z"
       id="path98"
       style="fill:#33FF99;stroke-width:4" />
    <path
       d="m 17.072,28 3.464,2 v 4 l -3.464,2 -3.464,-2 v -4 z"
       id="path99"
       style="fill:#33CC99;stroke-width:4" />
    <path
       d="m 17.072,24 3.464,2 v 4 l -3.464,2 -3.464,-2 v -4 z"
       id="path100"
       style="fill:#339999;stroke-width:4" />
    <path
       d="m 17.072,20 3.464,2 v 4 l -3.464,2 -3.464,-2 v -4 z"
       id="path101"
       style="fill:#336699;stroke-width:4" />
    <path
       d="m 17.072,16 3.464,2 v 4 l -3.464,2 -3.464,-2 v -4 z"
       id="path102"
       style="fill:#333399;stroke-width:4" />
    <path
       d="m 17.072,12 3.464,2 v 4 l -3.464,2 -3.464,-2 v -4 z"
       id="path103"
       style="fill:#330099;stroke-width:4" />
    <path
       d="m 13.608,34 3.464,2 v 4 l -3.464,2 -3.464,-2 v -4 z"
       id="path104"
       style="fill:#00FF99;stroke-width:4" />
    <path
       d="m 13.608,30 3.464,2 v 4 l -3.464,2 -3.464,-2 v -4 z"
       id="path105"
       style="fill:#00CC99;stroke-width:4" />
    <path
       d="m 13.608,26 3.464,2 v 4 l -3.464,2 -3.464,-2 v -4 z"
       id="path106"
       style="fill:#009999;stroke-width:4" />
    <path
       d="m 13.608,22 3.464,2 v 4 l -3.464,2 -3.464,-2 v -4 z"
       id="path107"
       style="fill:#006699;stroke-width:4" />
    <path
       d="m 13.608,18 3.464,2 v 4 l -3.464,2 -3.464,-2 v -4 z"
       id="path108"
       style="fill:#003399;stroke-width:4" />
    <path
       d="m 13.608,14 3.464,2 v 4 l -3.464,2 -3.464,-2 v -4 z"
       id="path109"
       style="fill:#000099;stroke-width:4" />
    <path
       d="m 34.392,26 3.464,2 v 4 l -3.464,2 -3.464,-2 v -4 z"
       id="path110"
       style="fill:#FFFF66;stroke-width:4" />
    <path
       d="m 34.392,22 3.464,2 v 4 l -3.464,2 -3.464,-2 v -4 z"
       id="path111"
       style="fill:#FFCC66;stroke-width:4" />
    <path
       d="m 34.392,18 3.464,2 v 4 l -3.464,2 -3.464,-2 v -4 z"
       id="path112"
       style="fill:#FF9966;stroke-width:4" />
    <path
       d="m 34.392,14 3.464,2 v 4 l -3.464,2 -3.464,-2 v -4 z"
       id="path113"
       style="fill:#FF6666;stroke-width:4" />
    <path
       d="m 34.392,10 3.464,2 v 4 l -3.464,2 -3.464,-2 v -4 z"
       id="path114"
       style="fill:#FF3366;stroke-width:4" />
    <path
       d="m 34.392,6 3.464,2 v 4 l -3.464,2 -3.464,-2 V 8 Z"
       id="path115"
       style="fill:#FF0066;stroke-width:4" />
    <path
       d="m 30.928,28 3.464,2 v 4 l -3.464,2 -3.464,-2 v -4 z"
       id="path116"
       style="fill:#CCFF66;stroke-width:4" />
    <path
       d="m 30.928,24 3.464,2 v 4 l -3.464,2 -3.464,-2 v -4 z"
       id="path117"
       style="fill:#CCCC66;stroke-width:4" />
    <path
       d="m 30.928,20 3.464,2 v 4 l -3.464,2 -3.464,-2 v -4 z"
       id="path118"
       style="fill:#CC9966;stroke-width:4" />
    <path
       d="m 30.928,16 3.464,2 v 4 l -3.464,2 -3.464,-2 v -4 z"
       id="path119"
       style="fill:#CC6666;stroke-width:4" />
    <path
       d="m 30.928,12 3.464,2 v 4 l -3.464,2 -3.464,-2 v -4 z"
       id="path120"
       style="fill:#CC3366;stroke-width:4" />
    <path
       d="m 30.928,8 3.464,2 v 4 l -3.464,2 -3.464,-2 v -4 z"
       id="path121"
       style="fill:#CC0066;stroke-width:4" />
    <path
       d="m 27.464,30 3.464,2 v 4 L 27.464,38 24,36 v -4 z"
       id="path122"
       style="fill:#99FF66;stroke-width:4" />
    <path
       d="m 27.464,26 3.464,2 v 4 L 27.464,34 24,32 v -4 z"
       id="path123"
       style="fill:#99CC66;stroke-width:4" />
    <path
       d="m 27.464,22 3.464,2 v 4 L 27.464,30 24,28 v -4 z"
       id="path124"
       style="fill:#999966;stroke-width:4" />
    <path
       d="m 27.464,18 3.464,2 v 4 L 27.464,26 24,24 v -4 z"
       id="path125"
       style="fill:#996666;stroke-width:4" />
    <path
       d="m 27.464,14 3.464,2 v 4 L 27.464,22 24,20 v -4 z"
       id="path126"
       style="fill:#993366;stroke-width:4" />
    <path
       d="m 27.464,10 3.464,2 v 4 L 27.464,18 24,16 v -4 z"
       id="path127"
       style="fill:#990066;stroke-width:4" />
    <path
       d="m 24,32 3.464,2 v 4 L 24,40 20.536,38 v -4 z"
       id="path128"
       style="fill:#66FF66;stroke-width:4" />
    <path
       d="m 24,28 3.464,2 v 4 L 24,36 20.536,34 v -4 z"
       id="path129"
       style="fill:#66CC66;stroke-width:4" />
    <path
       d="m 24,24 3.464,2 v 4 L 24,32 20.536,30 v -4 z"
       id="path130"
       style="fill:#669966;stroke-width:4" />
    <path
       d="m 24,20 3.464,2 v 4 L 24,28 20.536,26 v -4 z"
       id="path131"
       style="fill:#666666;stroke-width:4" />
    <path
       d="m 24,16 3.464,2 v 4 L 24,24 20.536,22 v -4 z"
       id="path132"
       style="fill:#663366;stroke-width:4" />
    <path
       d="m 24,12 3.464,2 v 4 L 24,20 20.536,18 v -4 z"
       id="path133"
       style="fill:#660066;stroke-width:4" />
    <path
       d="M 20.536,34 24,36 v 4 l -3.464,2 -3.464,-2 v -4 z"
       id="path134"
       style="fill:#33FF66;stroke-width:4" />
    <path
       d="M 20.536,30 24,32 v 4 l -3.464,2 -3.464,-2 v -4 z"
       id="path135"
       style="fill:#33CC66;stroke-width:4" />
    <path
       d="M 20.536,26 24,28 v 4 l -3.464,2 -3.464,-2 v -4 z"
       id="path136"
       style="fill:#339966;stroke-width:4" />
    <path
       d="M 20.536,22 24,24 v 4 l -3.464,2 -3.464,-2 v -4 z"
       id="path137"
       style="fill:#336666;stroke-width:4" />
    <path
       d="M 20.536,18 24,20 v 4 l -3.464,2 -3.464,-2 v -4 z"
       id="path138"
       style="fill:#333366;stroke-width:4" />
    <path
       d="M 20.536,14 24,16 v 4 l -3.464,2 -3.464,-2 v -4 z"
       id="path139"
       style="fill:#330066;stroke-width:4" />
    <path
       d="m 17.072,36 3.464,2 v 4 l -3.464,2 -3.464,-2 v -4 z"
       id="path140"
       style="fill:#00FF66;stroke-width:4" />
    <path
       d="m 17.072,32 3.464,2 v 4 l -3.464,2 -3.464,-2 v -4 z"
       id="path141"
       style="fill:#00CC66;stroke-width:4" />
    <path
       d="m 17.072,28 3.464,2 v 4 l -3.464,2 -3.464,-2 v -4 z"
       id="path142"
       style="fill:#009966;stroke-width:4" />
    <path
       d="m 17.072,24 3.464,2 v 4 l -3.464,2 -3.464,-2 v -4 z"
       id="path143"
       style="fill:#006666;stroke-width:4" />
    <path
       d="m 17.072,20 3.464,2 v 4 l -3.464,2 -3.464,-2 v -4 z"
       id="path144"
       style="fill:#003366;stroke-width:4" />
    <path
       d="m 17.072,16 3.464,2 v 4 l -3.464,2 -3.464,-2 v -4 z"
       id="path145"
       style="fill:#000066;stroke-width:4" />
    <path
       d="m 37.856,28 3.464,2 v 4 l -3.464,2 -3.464,-2 v -4 z"
       id="path146"
       style="fill:#FFFF33;stroke-width:4" />
    <path
       d="m 37.856,24 3.464,2 v 4 l -3.464,2 -3.464,-2 v -4 z"
       id="path147"
       style="fill:#FFCC33;stroke-width:4" />
    <path
       d="m 37.856,20 3.464,2 v 4 l -3.464,2 -3.464,-2 v -4 z"
       id="path148"
       style="fill:#FF9933;stroke-width:4" />
    <path
       d="m 37.856,16 3.464,2 v 4 l -3.464,2 -3.464,-2 v -4 z"
       id="path149"
       style="fill:#FF6633;stroke-width:4" />
    <path
       d="m 37.856,12 3.464,2 v 4 l -3.464,2 -3.464,-2 v -4 z"
       id="path150"
       style="fill:#FF3333;stroke-width:4" />
    <path
       d="m 37.856,8 3.464,2 v 4 l -3.464,2 -3.464,-2 v -4 z"
       id="path151"
       style="fill:#FF0033;stroke-width:4" />
    <path
       d="m 34.392,30 3.464,2 v 4 l -3.464,2 -3.464,-2 v -4 z"
       id="path152"
       style="fill:#CCFF33;stroke-width:4" />
    <path
       d="m 34.392,26 3.464,2 v 4 l -3.464,2 -3.464,-2 v -4 z"
       id="path153"
       style="fill:#CCCC33;stroke-width:4" />
    <path
       d="m 34.392,22 3.464,2 v 4 l -3.464,2 -3.464,-2 v -4 z"
       id="path154"
       style="fill:#CC9933;stroke-width:4" />
    <path
       d="m 34.392,18 3.464,2 v 4 l -3.464,2 -3.464,-2 v -4 z"
       id="path155"
       style="fill:#CC6633;stroke-width:4" />
    <path
       d="m 34.392,14 3.464,2 v 4 l -3.464,2 -3.464,-2 v -4 z"
       id="path156"
       style="fill:#CC3333;stroke-width:4" />
    <path
       d="m 34.392,10 3.464,2 v 4 l -3.464,2 -3.464,-2 v -4 z"
       id="path157"
       style="fill:#CC0033;stroke-width:4" />
    <path
       d="m 30.928,32 3.464,2 v 4 l -3.464,2 -3.464,-2 v -4 z"
       id="path158"
       style="fill:#99FF33;stroke-width:4" />
    <path
       d="m 30.928,28 3.464,2 v 4 l -3.464,2 -3.464,-2 v -4 z"
       id="path159"
       style="fill:#99CC33;stroke-width:4" />
    <path
       d="m 30.928,24 3.464,2 v 4 l -3.464,2 -3.464,-2 v -4 z"
       id="path160"
       style="fill:#999933;stroke-width:4" />
    <path
       d="m 30.928,20 3.464,2 v 4 l -3.464,2 -3.464,-2 v -4 z"
       id="path161"
       style="fill:#996633;stroke-width:4" />
    <path
       d="m 30.928,16 3.464,2 v 4 l -3.464,2 -3.464,-2 v -4 z"
       id="path162"
       style="fill:#993333;stroke-width:4" />
    <path
       d="m 30.928,12 3.464,2 v 4 l -3.464,2 -3.464,-2 v -4 z"
       id="path163"
       style="fill:#990033;stroke-width:4" />
    <path
       d="m 27.464,34 3.464,2 v 4 L 27.464,42 24,40 v -4 z"
       id="path164"
       style="fill:#66FF33;stroke-width:4" />
    <path
       d="m 27.464,30 3.464,2 v 4 L 27.464,38 24,36 v -4 z"
       id="path165"
       style="fill:#66CC33;stroke-width:4" />
    <path
       d="m 27.464,26 3.464,2 v 4 L 27.464,34 24,32 v -4 z"
       id="path166"
       style="fill:#669933;stroke-width:4" />
    <path
       d="m 27.464,22 3.464,2 v 4 L 27.464,30 24,28 v -4 z"
       id="path167"
       style="fill:#666633;stroke-width:4" />
    <path
       d="m 27.464,18 3.464,2 v 4 L 27.464,26 24,24 v -4 z"
       id="path168"
       style="fill:#663333;stroke-width:4" />
    <path
       d="m 27.464,14 3.464,2 v 4 L 27.464,22 24,20 v -4 z"
       id="path169"
       style="fill:#660033;stroke-width:4" />
    <path
       d="m 24,36 3.464,2 v 4 L 24,44 20.536,42 v -4 z"
       id="path170"
       style="fill:#33FF33;stroke-width:4" />
    <path
       d="m 24,32 3.464,2 v 4 L 24,40 20.536,38 v -4 z"
       id="path171"
       style="fill:#33CC33;stroke-width:4" />
    <path
       d="m 24,28 3.464,2 v 4 L 24,36 20.536,34 v -4 z"
       id="path172"
       style="fill:#339933;stroke-width:4" />
    <path
       d="m 24,24 3.464,2 v 4 L 24,32 20.536,30 v -4 z"
       id="path173"
       style="fill:#336633;stroke-width:4" />
    <path
       d="m 24,20 3.464,2 v 4 L 24,28 20.536,26 v -4 z"
       id="path174"
       style="fill:#333333;stroke-width:4" />
    <path
       d="m 24,16 3.464,2 v 4 L 24,24 20.536,22 v -4 z"
       id="path175"
       style="fill:#330033;stroke-width:4" />
    <path
       d="M 20.536,38 24,40 v 4 l -3.464,2 -3.464,-2 v -4 z"
       id="path176"
       style="fill:#00FF33;stroke-width:4" />
    <path
       d="M 20.536,34 24,36 v 4 l -3.464,2 -3.464,-2 v -4 z"
       id="path177"
       style="fill:#00CC33;stroke-width:4" />
    <path
       d="M 20.536,30 24,32 v 4 l -3.464,2 -3.464,-2 v -4 z"
       id="path178"
       style="fill:#009933;stroke-width:4" />
    <path
       d="M 20.536,26 24,28 v 4 l -3.464,2 -3.464,-2 v -4 z"
       id="path179"
       style="fill:#006633;stroke-width:4" />
    <path
       d="M 20.536,22 24,24 v 4 l -3.464,2 -3.464,-2 v -4 z"
       id="path180"
       style="fill:#003333;stroke-width:4" />
    <path
       d="M 20.536,18 24,20 v 4 l -3.464,2 -3.464,-2 v -4 z"
       id="path181"
       style="fill:#000033;stroke-width:4" />
    <path
       d="m 41.32,30 3.464,2 v 4 l -3.464,2 -3.464,-2 v -4 z"
       id="path182"
       style="fill:#FFFF00;stroke-width:4" />
    <path
       d="m 41.32,26 3.464,2 v 4 l -3.464,2 -3.464,-2 v -4 z"
       id="path183"
       style="fill:#FFCC00;stroke-width:4" />
    <path
       d="m 41.32,22 3.464,2 v 4 l -3.464,2 -3.464,-2 v -4 z"
       id="path184"
       style="fill:#FF9900;stroke-width:4" />
    <path
       d="m 41.32,18 3.464,2 v 4 l -3.464,2 -3.464,-2 v -4 z"
       id="path185"
       style="fill:#FF6600;stroke-width:4" />
    <path
       d="m 41.32,14 3.464,2 v 4 l -3.464,2 -3.464,-2 v -4 z"
       id="path186"
       style="fill:#FF3300;stroke-width:4" />
    <path
       d="m 41.32,10 3.464,2 v 4 l -3.464,2 -3.464,-2 v -4 z"
       id="path187"
       style="fill:#FF0000;stroke-width:4" />
    <path
       d="m 37.856,32 3.464,2 v 4 l -3.464,2 -3.464,-2 v -4 z"
       id="path188"
       style="fill:#CCFF00;stroke-width:4" />
    <path
       d="m 37.856,28 3.464,2 v 4 l -3.464,2 -3.464,-2 v -4 z"
       id="path189"
       style="fill:#CCCC00;stroke-width:4" />
    <path
       d="m 37.856,24 3.464,2 v 4 l -3.464,2 -3.464,-2 v -4 z"
       id="path190"
       style="fill:#CC9900;stroke-width:4" />
    <path
       d="m 37.856,20 3.464,2 v 4 l -3.464,2 -3.464,-2 v -4 z"
       id="path191"
       style="fill:#CC6600;stroke-width:4" />
    <path
       d="m 37.856,16 3.464,2 v 4 l -3.464,2 -3.464,-2 v -4 z"
       id="path192"
       style="fill:#CC3300;stroke-width:4" />
    <path
       d="m 37.856,12 3.464,2 v 4 l -3.464,2 -3.464,-2 v -4 z"
       id="path193"
       style="fill:#CC0000;stroke-width:4" />
    <path
       d="m 34.392,34 3.464,2 v 4 l -3.464,2 -3.464,-2 v -4 z"
       id="path194"
       style="fill:#99FF00;stroke-width:4" />
    <path
       d="m 34.392,30 3.464,2 v 4 l -3.464,2 -3.464,-2 v -4 z"
       id="path195"
       style="fill:#99CC00;stroke-width:4" />
    <path
       d="m 34.392,26 3.464,2 v 4 l -3.464,2 -3.464,-2 v -4 z"
       id="path196"
       style="fill:#999900;stroke-width:4" />
    <path
       d="m 34.392,22 3.464,2 v 4 l -3.464,2 -3.464,-2 v -4 z"
       id="path197"
       style="fill:#996600;stroke-width:4" />
    <path
       d="m 34.392,18 3.464,2 v 4 l -3.464,2 -3.464,-2 v -4 z"
       id="path198"
       style="fill:#993300;stroke-width:4" />
    <path
       d="m 34.392,14 3.464,2 v 4 l -3.464,2 -3.464,-2 v -4 z"
       id="path199"
       style="fill:#990000;stroke-width:4" />
    <path
       d="m 30.928,36 3.464,2 v 4 l -3.464,2 -3.464,-2 v -4 z"
       id="path200"
       style="fill:#66FF00;stroke-width:4" />
    <path
       d="m 30.928,32 3.464,2 v 4 l -3.464,2 -3.464,-2 v -4 z"
       id="path201"
       style="fill:#66CC00;stroke-width:4" />
    <path
       d="m 30.928,28 3.464,2 v 4 l -3.464,2 -3.464,-2 v -4 z"
       id="path202"
       style="fill:#669900;stroke-width:4" />
    <path
       d="m 30.928,24 3.464,2 v 4 l -3.464,2 -3.464,-2 v -4 z"
       id="path203"
       style="fill:#666600;stroke-width:4" />
    <path
       d="m 30.928,20 3.464,2 v 4 l -3.464,2 -3.464,-2 v -4 z"
       id="path204"
       style="fill:#663300;stroke-width:4" />
    <path
       d="m 30.928,16 3.464,2 v 4 l -3.464,2 -3.464,-2 v -4 z"
       id="path205"
       style="fill:#660000;stroke-width:4" />
    <path
       d="m 27.464,38 3.464,2 v 4 L 27.464,46 24,44 v -4 z"
       id="path206"
       style="fill:#33FF00;stroke-width:4" />
    <path
       d="m 27.464,34 3.464,2 v 4 L 27.464,42 24,40 v -4 z"
       id="path207"
       style="fill:#33CC00;stroke-width:4" />
    <path
       d="m 27.464,30 3.464,2 v 4 L 27.464,38 24,36 v -4 z"
       id="path208"
       style="fill:#339900;stroke-width:4" />
    <path
       d="m 27.464,26 3.464,2 v 4 L 27.464,34 24,32 v -4 z"
       id="path209"
       style="fill:#336600;stroke-width:4" />
    <path
       d="m 27.464,22 3.464,2 v 4 L 27.464,30 24,28 v -4 z"
       id="path210"
       style="fill:#333300;stroke-width:4" />
    <path
       d="m 27.464,18 3.464,2 v 4 L 27.464,26 24,24 v -4 z"
       id="path211"
       style="fill:#330000;stroke-width:4" />
    <path
       d="m 24,40 3.464,2 v 4 L 24,48 20.536,46 v -4 z"
       id="path212"
       style="fill:#00FF00;stroke-width:4" />
    <path
       d="m 24,36 3.464,2 v 4 L 24,44 20.536,42 v -4 z"
       id="path213"
       style="fill:#00CC00;stroke-width:4" />
    <path
       d="m 24,32 3.464,2 v 4 L 24,40 20.536,38 v -4 z"
       id="path214"
       style="fill:#009900;stroke-width:4" />
    <path
       d="m 24,28 3.464,2 v 4 L 24,36 20.536,34 v -4 z"
       id="path215"
       style="fill:#006600;stroke-width:4" />
    <path
       d="m 24,24 3.464,2 v 4 L 24,32 20.536,30 v -4 z"
       id="path216"
       style="fill:#003300;stroke-width:4" />
    <path
       d="m 24,20 3.464,2 v 4 L 24,28 20.536,26 v -4 z"
       id="path217"
       style="fill:#000000;stroke-width:4" />
  </g>
</svg>
