<?xml version="1.0" encoding="UTF-8" standalone="no"?>
<svg
   width="48px"
   height="48px"
   viewBox="0 0 48 48"
   version="1.1"
   id="svg2"
   sodipodi:docname="qube-engraved-5.svg"
   inkscape:version="1.3.2 (091e20ef0f, 2023-11-25)"
   xmlns:inkscape="http://www.inkscape.org/namespaces/inkscape"
   xmlns:sodipodi="http://sodipodi.sourceforge.net/DTD/sodipodi-0.dtd"
   xmlns="http://www.w3.org/2000/svg"
   xmlns:svg="http://www.w3.org/2000/svg"
   xmlns:rdf="http://www.w3.org/1999/02/22-rdf-syntax-ns#"
   xmlns:cc="http://creativecommons.org/ns#"
   xmlns:dc="http://purl.org/dc/elements/1.1/">
  <sodipodi:namedview
     id="namedview"
     pagecolor="#ffffff"
     bordercolor="#000000"
     borderopacity="0.25"
     inkscape:showpageshadow="2"
     inkscape:pageopacity="0.0"
     inkscape:pagecheckerboard="0"
     inkscape:deskcolor="#d1d1d1"
     showguides="true"
     inkscape:zoom="6.21875"
     inkscape:cx="13.18593"
     inkscape:cy="22.592965"
     inkscape:window-width="1440"
     inkscape:window-height="843"
     inkscape:window-x="0"
     inkscape:window-y="33"
     inkscape:window-maximized="1"
     inkscape:current-layer="svg2" />
  <title
     id="title1">Engraved qube</title>
  <defs
     id="defs1" />
  <metadata
     id="metadata1">
    <rdf:RDF>
      <cc:Work
         rdf:about="">
        <cc:license
           rdf:resource="http://creativecommons.org/publicdomain/zero/1.0/" />
        <dc:creator>
          <cc:Agent>
            <dc:title>Ali Mirjamali</dc:title>
          </cc:Agent>
        </dc:creator>
        <dc:rights>
          <cc:Agent>
            <dc:title>CC0 Public Domain Dediction</dc:title>
          </cc:Agent>
        </dc:rights>
        <dc:date>2024-04-11</dc:date>
        <dc:subject>
          <rdf:Bag>
            <rdf:li>Cube</rdf:li>
            <rdf:li>Qube</rdf:li>
            <rdf:li>Engraved Cube</rdf:li>
          </rdf:Bag>
        </dc:subject>
        <dc:description>Engraved cube icon designed for Qubes-OS. Based on Jarda's design on OpenClipArt</dc:description>
        <dc:source>https://www.github.com/alimirjamali/personal-qubesos</dc:source>
        <dc:title>Engraved qube</dc:title>
      </cc:Work>
      <cc:License
         rdf:about="http://creativecommons.org/publicdomain/zero/1.0/">
        <cc:permits
           rdf:resource="http://creativecommons.org/ns#Reproduction" />
        <cc:permits
           rdf:resource="http://creativecommons.org/ns#Distribution" />
        <cc:permits
           rdf:resource="http://creativecommons.org/ns#DerivativeWorks" />
      </cc:License>
    </rdf:RDF>
  </metadata>
  <path
     id="path3024-0-0-8"
     fill="#ff9955"
     d="M 37.544023,13.448246 24.017929,21.256958 10.490877,13.447113 24.016971,5.6384018 Z M 35.156692,13.907601 24.017164,7.4761926 12.877489,13.906303 24.017017,20.337711 Z"
     style="stroke:#000000;stroke-width:0.15558;fill:#55fe99" />
  <path
     id="path2986-9-0-3"
     fill="#ffccaa"
     d="M 44.70632,12.068204 24.018912,24.012129 3.3315375,12.068271 24.018945,0.12434598 Z M 41.52463,12.068935 24.018823,1.9619553 6.5142291,12.067879 24.018689,22.174081 Z"
     style="stroke:#000000;stroke-width:0.15558;fill:#a9ffcb" />
  <path
     id="path2996-4-6-7"
     fill="#b3b3b3"
     d="M 7.3089649,12.525642 24.018132,2.87848 24.018136,1.9597021 6.5130233,12.066524 Z"
     style="stroke:#000000;stroke-width:0.15558;fill:#b3b3b3" />
  <path
     id="path3000-8-1-1"
     fill="#f2f2f2"
     d="m 24.017234,2.8779614 3e-6,-0.9187779 17.504909,10.1064615 -0.795687,0.45939 z"
     style="stroke:#000000;stroke-width:0.15558;fill:#f2f2f2" />
  <path
     id="path3002-82-3-0"
     fill="#ffb380"
     d="M 40.728996,12.5265 39.137462,13.445307 24.019736,22.172889 7.3111175,12.526166 24.020474,2.8797126 40.729093,12.526436 Z M 38.341666,12.985854 24.018773,4.7165302 9.6971831,12.985161 24.020075,21.254484 Z"
     style="stroke:#000000;stroke-width:0.15558;fill:#7fffb2" />
  <path
     id="path3004-4-8-7"
     fill="#999999"
     d="M 10.490239,13.446145 24.016851,5.6365358 24.01685,4.7177554 9.6945517,12.986576 Z"
     style="stroke:#000000;stroke-width:0.15558;fill:#999999" />
  <path
     id="path3006-5-9-3"
     fill="#e6e6e6"
     d="M 37.544023,13.448246 24.017421,5.6386611 24.01742,4.7198806 38.339863,12.988945 Z"
     style="stroke:#000000;stroke-width:0.15558;fill:#e6e6e6" />
  <path
     id="path3015-5-3-4"
     fill="#808080"
     d="M 13.674105,14.362158 24.018163,8.3901004 24.018162,7.47132 12.878418,13.902588 Z"
     style="stroke:#000000;stroke-width:0.15558;fill:#808080" />
  <path
     id="path3019-1-4-9"
     fill="none"
     d="m 34.361642,14.365502 0.795688,-0.45939"
     style="stroke:#000000;stroke-width:0.15558" />
  <path
     id="path3006-1-7-4-6"
     fill="#b3b3b3"
     d="m 34.361642,14.365502 -10.343687,-5.9719289 -1e-6,-0.9187805 11.139528,6.4314084 z"
     style="stroke:#000000;stroke-width:0.15558;fill:#b3b3b3" />
  <path
     id="path3024-7-11-6-5"
     fill="#ff7f2a"
     d="M 34.361642,14.365502 24.017584,20.337559 13.673448,14.365371 24.017506,8.3933138 Z m -2.387331,0.459354 -7.956613,-4.593751 -7.957324,4.593638 7.956613,4.593752 z"
     style="stroke:#000000;stroke-width:0.15558;fill:#29ff79" />
  <path
     id="path3006-1-4-5-0-1"
     fill="#999999"
     d="m 31.179261,15.282758 -7.161221,-4.134532 -10e-7,-0.918781 7.957063,4.594011 z"
     style="stroke:#000000;stroke-width:0.15558;fill:#999999" />
  <path
     id="path3015-0-2-6-0"
     fill="#666666"
     d="m 16.855379,15.282661 7.161234,-4.13466 -1e-6,-0.918781 -7.956875,4.593898 z"
     style="stroke:#000000;stroke-width:0.15558;fill:#666666" />
  <path
     id="path3024-7-9-7-6-9"
     fill="#ff6600"
     d="m 31.179261,15.282758 -7.161234,4.134661 -7.161221,-4.134533 7.161234,-4.13466 z m -2.38733,0.459354 -4.773699,-2.756095 -4.774621,2.755932 4.773698,2.756095 z"
     style="stroke:#000000;stroke-width:0.15558;fill:#00fe65" />
  <path
     id="path3006-1-4-4-6-1-9"
     fill="#808080"
     d="M 27.996881,16.200014 24.018439,13.90306 v -0.918781 l 4.774147,2.756355 z"
     style="stroke:#000000;stroke-width:0.15558;fill:#808080" />
  <path
     id="path3015-0-8-1-8-6"
     fill="#4d4d4d"
     d="m 20.036652,16.203165 3.978416,-2.296962 -1e-6,-0.91878 -4.774134,2.756333 z"
     style="stroke:#000000;stroke-width:0.15558;fill:#4d4d4d" />
  <path
     id="path3024-7-9-8-4-4-8"
     fill="#d45500"
     d="m 27.996881,16.200014 -3.978351,2.297058 -3.978532,-2.297005 3.978352,-2.297059 z m -2.387331,0.459354 -1.591188,-0.918673 -1.591816,0.918465 1.591188,0.918673 z"
     style="stroke:#000000;stroke-width:0.15558;fill:#00d454" />
  <path
     id="path3006-1-4-4-2-2-9-3"
     fill="#666666"
     d="m 24.811907,17.12176 -0.795661,-0.459375 -10e-7,-0.91878 1.591368,0.918776 z"
     style="stroke:#000000;stroke-width:0.15558;fill:#666666" />
  <path
     id="path3015-0-8-4-3-6-4"
     fill="#333333"
     d="m 23.220519,17.119177 0.795688,-0.459389 -1e-6,-0.918781 -1.591348,0.918795 z"
     style="stroke:#000000;stroke-width:0.15558;fill:#333333" />
  <path
     id="path3218-22-3-8"
     fill="#aa4400"
     d="m 24.019953,17.580731 -0.795661,-0.459375 0.795687,-0.45939 0.795662,0.459375 z"
     style="stroke:#000000;stroke-width:0.15558;fill:#00aa44" />
  <path
     id="path3244-6-7-4"
     fill="#99ff55"
     d="M 21.630806,41.010753 21.630298,25.392457 8.1032468,17.582612 8.103755,33.200908 Z M 20.834953,38.713587 9.6954244,32.282179 9.6942234,19.419883 20.833752,25.851291 Z"
     style="stroke:#000000;stroke-width:0.15558;fill:#5599fe" />
  <path
     id="path3246-8-8-9"
     fill="#ccffaa"
     d="M 24.019398,47.899014 24.019431,24.011231 3.3320561,12.067373 3.332023,35.955156 Z M 22.429185,45.143225 4.9233781,35.036245 4.923063,14.82386 22.427523,24.930062 Z"
     style="stroke:#000000;stroke-width:0.15558;fill:#a9cbff" />
  <path
     id="path3248-5-8-9"
     fill="#ececec"
     d="m 5.7168654,15.28324 -9.92e-5,19.294144 -0.7956875,0.45939 2.035e-4,-20.213283 z"
     style="stroke:#000000;stroke-width:0.15558;fill:#ececec" />
  <path
     id="path3250-7-2-2"
     fill="#808080"
     d="m 5.715868,34.576865 -0.7956875,0.45939 17.5049085,10.106461 v -0.91878 z"
     style="stroke:#000000;stroke-width:0.15558;fill:#808080" />
  <path
     id="path3252-61-9-5"
     fill="#b3ff80"
     d="M 22.427631,44.225403 22.427573,42.38769 22.427014,24.931565 5.7183956,15.284842 5.7190049,34.578796 22.427624,44.225519 Z M 21.631777,41.928237 7.3088848,33.658914 7.3089301,17.121737 21.631822,25.391061 Z"
     style="stroke:#000000;stroke-width:0.15558;fill:#7fb5ff" />
  <path
     id="path3254-89-1-5"
     fill="#cccccc"
     d="m 8.1046822,17.578051 -1.04e-5,15.619195 -0.7956875,0.45939 -1.445e-4,-16.537885 z"
     style="stroke:#000000;stroke-width:0.15558;fill:#cccccc" />
  <path
     id="path3256-2-3-3"
     fill="#666666"
     d="M 21.630806,41.010753 8.1042041,33.201168 7.3085166,33.660558 21.63096,41.929622 Z"
     style="stroke:#000000;stroke-width:0.15558;fill:#666666" />
  <path
     id="path3258-79-5-3"
     fill="#999999"
     d="M 10.489906,19.877354 10.489984,31.8216 9.694297,32.280989 9.6940636,19.418054 Z"
     style="stroke:#000000;stroke-width:0.15558;fill:#999999" />
  <path
     id="path3260-5-9-3"
     fill="none"
     d="m 20.836575,37.791612 1e-6,0.91878"
     style="stroke:#000000;stroke-width:0.15558" />
  <path
     id="path3262-4-8-7"
     fill="#4d4d4d"
     d="M 20.836575,37.791612 10.492888,31.819683 9.6972001,32.279072 20.836728,38.71048 Z"
     style="stroke:#000000;stroke-width:0.15558;fill:#4d4d4d" />
  <path
     id="path3264-3-4-4"
     fill="#7fff2a"
     d="m 20.836575,37.791612 -7.8e-5,-11.944246 -10.344137,-5.972188 7.9e-5,11.944245 z m -0.795854,-2.297166 -7.956613,-4.593752 -4.57e-4,-9.188064 7.956614,4.593752 z"
     style="stroke:#000000;stroke-width:0.15558;fill:#297eff" />
  <path
     id="path3266-1-0-3"
     fill="#333333"
     d="m 20.039751,34.576962 -7.161222,-4.134532 -0.795687,0.459389 7.957062,4.594011 z"
     style="stroke:#000000;stroke-width:0.15558;fill:#333333" />
  <path
     id="path3268-23-7-8"
     fill="#808080"
     d="m 12.877723,22.172165 -1.02e-4,8.269141 -0.795688,0.45939 -8e-6,-9.187805 z"
     style="stroke:#000000;stroke-width:0.15558;fill:#808080" />
  <path
     id="path3270-3-6-0"
     fill="#66ff00"
     d="m 20.039751,34.576962 1.02e-4,-8.269141 -7.161222,-4.134532 -1.02e-4,8.269141 z m -0.795854,-2.297166 -4.773699,-2.756096 -6.04e-4,-5.512909 4.773699,2.756095 z"
     style="stroke:#000000;stroke-width:0.15558;fill:#0065fe" />
  <path
     id="path3272-4-3-8"
     fill="#333333"
     d="m 19.242926,31.362311 -3.978441,-2.296953 -0.795688,0.45939 4.774148,2.756354 z"
     style="stroke:#000000;stroke-width:0.15558;fill:#333333" />
  <path
     id="path3274-1-6-8"
     fill="#666666"
     d="m 15.262947,24.471468 -1.9e-5,4.593889 -0.795687,0.45939 -1.4e-5,-5.512688 z"
     style="stroke:#000000;stroke-width:0.15558;fill:#666666" />
  <path
     id="path3276-1-1-0"
     fill="#55d400"
     d="m 19.242926,31.362311 1.35e-4,-4.593882 -3.978532,-2.297006 -1.34e-4,4.593883 z m -0.795853,-2.297166 -1.591188,-0.918672 -4.95e-4,-1.837786 1.591188,0.918673 z"
     style="stroke:#000000;stroke-width:0.15558;fill:#0059d4" />
  <path
     id="path3278-3-5-6"
     fill="#1a1a1a"
     d="m 18.448695,28.14317 -0.795661,-0.459375 -0.795688,0.45939 1.591368,0.918776 z"
     style="stroke:#000000;stroke-width:0.15558;fill:#1a1a1a" />
  <path
     id="path3280-8-4-8"
     fill="#4d4d4d"
     d="m 17.650764,26.766279 v 0.918781 l -0.795687,0.45939 2.5e-5,-1.837546 z"
     style="stroke:#000000;stroke-width:0.15558;fill:#4d4d4d" />
  <path
     id="path3282-7-2-1"
     fill="#44aa00"
     d="m 18.450198,27.227833 -0.795662,-0.459376 1e-6,0.918781 0.795661,0.459375 z"
     style="stroke:#000000;stroke-width:0.15558;fill:#0044aa" />
  <path
     id="path3286-7-0-9"
     fill="#80e5ff"
     d="m 26.405665,41.006927 6.5e-4,-15.618227 13.526872,-7.810059 -6.5e-4,15.618227 z m 0.795856,-2.297152 11.139745,-6.431268 0.0011,-12.862158 -11.139744,6.431268 z"
     style="stroke:#000000;stroke-width:0.15558;fill:#ff7fe5" />
  <path
     id="path3288-7-9-8"
     fill="#d5f6ff"
     d="m 24.019398,47.899014 3.3e-5,-23.887783 20.687407,-11.943925 -3.3e-5,23.887783 z m 1.5902,-2.755761 17.505821,-10.107011 1.34e-4,-20.212126 -17.504594,10.105924 z"
     style="stroke:#000000;stroke-width:0.15558;fill:#fed5f6" />
  <path
     id="path3290-9-7-9"
     fill="#f2f2f2"
     d="m 42.317775,15.282179 -9.9e-5,19.294144 0.795706,0.459402 2.04e-4,-20.213283 z"
     style="stroke:#000000;stroke-width:0.15558;fill:#f2f2f2" />
  <path
     id="path3292-3-3-7"
     fill="#b3b3b3"
     d="m 42.319023,34.577101 0.795706,0.459401 -17.505112,10.106822 -1e-6,-0.91878 z"
     style="stroke:#000000;stroke-width:0.15558;fill:#b3b3b3" />
  <path
     id="path3294-1-7-2"
     fill="#aaeeff"
     d="m 25.608509,44.223485 5.8e-5,-1.837706 5.99e-4,-17.456056 15.117276,-8.727841 1.591587,-0.918897 -5.49e-4,19.293884 -16.708907,9.646713 z m 0.795856,-2.297152 14.322558,-8.269269 4.5e-5,-16.537177 -14.322558,8.26927 z"
     style="stroke:#000000;stroke-width:0.15558;fill:#ffa9ed" />
  <path
     id="path3296-9-2-2"
     fill="#e6e6e6"
     d="m 39.930733,17.580817 -1.1e-5,15.619195 0.795706,0.459401 -1.44e-4,-16.537885 z"
     style="stroke:#000000;stroke-width:0.15558;fill:#e6e6e6" />
  <path
     id="path3298-8-6-8"
     fill="#999999"
     d="m 26.405665,41.006927 13.526613,-7.80961 0.795706,0.459401 -14.322298,8.268821 z"
     style="stroke:#000000;stroke-width:0.15558;fill:#999999" />
  <path
     id="path3300-6-0-2"
     fill="#b3b3b3"
     d="m 37.54369,19.879455 7.9e-5,11.944246 0.795661,0.459375 -2.33e-4,-12.862936 z"
     style="stroke:#000000;stroke-width:0.15558;fill:#b3b3b3" />
  <path
     id="path3302-5-1-8"
     fill="none"
     d="m 27.200229,37.79486 1e-6,0.91878"
     style="stroke:#000000;stroke-width:0.15558" />
  <path
     id="path3304-0-6-9"
     fill="#808080"
     d="m 27.200229,37.79486 10.344058,-5.972058 0.795662,0.459376 -11.139744,6.431268 z"
     style="stroke:#000000;stroke-width:0.15558;fill:#808080" />
  <path
     id="path3306-2-5-0"
     fill="#55ddff"
     d="m 27.200229,37.79486 -7.8e-5,-11.944246 10.344058,-5.972057 7.8e-5,11.944245 z m 0.795856,-2.297152 7.956571,-4.593475 5.21e-4,-9.188098 -7.956571,4.593474 z"
     style="stroke:#000000;stroke-width:0.15558;fill:#fe55dc" />
  <path
     id="path3308-8-7-7"
     fill="#666666"
     d="m 27.997386,34.578301 7.161234,-4.13466 0.795661,0.459375 -7.956875,4.593897 z"
     style="stroke:#000000;stroke-width:0.15558;fill:#666666" />
  <path
     id="path3310-6-5-8"
     fill="#999999"
     d="m 35.159241,22.173601 -1.02e-4,8.269141 0.795661,0.459376 -8e-6,-9.187805 z"
     style="stroke:#000000;stroke-width:0.15558;fill:#999999" />
  <path
     id="path3312-0-4-1"
     fill="#2ad4ff"
     d="m 27.997386,34.578301 1.02e-4,-8.269141 7.161234,-4.13466 -1.02e-4,8.269141 z m 0.795856,-2.297152 4.773799,-2.756167 6.24e-4,-5.512859 -4.773799,2.756167 z"
     style="stroke:#000000;stroke-width:0.15558;fill:#ff29d4" />
  <path
     id="path3314-2-1-5"
     fill="#4d4d4d"
     d="m 28.794543,31.361743 3.978415,-2.296962 0.795661,0.459375 -4.774134,2.756334 z"
     style="stroke:#000000;stroke-width:0.15558;fill:#4d4d4d" />
  <path
     id="path3316-4-2-8"
     fill="#999999"
     d="m 32.772199,24.472239 -1.9e-5,4.59389 0.795661,0.459375 -1.3e-5,-5.512688 z"
     style="stroke:#000000;stroke-width:0.15558;fill:#999999" />
  <path
     id="path3318-8-0-6"
     fill="#00ccff"
     d="m 28.794543,31.361743 -1.42e-4,-4.593922 3.978576,-2.296929 1.42e-4,4.593922 z m 0.795856,-2.297152 1.591218,-0.91857 4.58e-4,-1.837775 -1.591219,0.91857 z"
     style="stroke:#000000;stroke-width:0.15558;fill:#fe00cb" />
  <path
     id="path3320-6-0-1"
     fill="#333333"
     d="m 29.584615,28.147083 0.795688,-0.45939 0.795661,0.459375 -1.591348,0.918795 z"
     style="stroke:#000000;stroke-width:0.15558;fill:#333333" />
  <path
     id="path3322-5-1-2"
     fill="#808080"
     d="m 30.380665,26.768284 1e-6,0.91878 0.795661,0.459376 2.6e-5,-1.837546 z"
     style="stroke:#000000;stroke-width:0.15558;fill:#808080" />
  <path
     id="path3324-09-4-4"
     fill="#00aad4"
     d="m 29.588711,27.227254 0.795683,-0.459392 1e-6,0.91878 -0.795688,0.45939 z"
     style="stroke:#000000;stroke-width:0.15558;fill:#d400ae" />
</svg>
