<?xml version="1.0" encoding="UTF-8" standalone="no"?>
<svg
   width="48px"
   height="48px"
   viewBox="0 0 48 48"
   version="1.1"
   id="svg2"
   sodipodi:docname="qube-impossible-cubes.svg"
   inkscape:version="1.3.2 (091e20ef0f, 2023-11-25)"
   xmlns:inkscape="http://www.inkscape.org/namespaces/inkscape"
   xmlns:sodipodi="http://sodipodi.sourceforge.net/DTD/sodipodi-0.dtd"
   xmlns="http://www.w3.org/2000/svg"
   xmlns:svg="http://www.w3.org/2000/svg"
   xmlns:rdf="http://www.w3.org/1999/02/22-rdf-syntax-ns#"
   xmlns:cc="http://creativecommons.org/ns#"
   xmlns:dc="http://purl.org/dc/elements/1.1/">
  <title
     id="title1">Impossible Qube 3</title>
  <sodipodi:namedview
     id="namedview"
     pagecolor="#ffffff"
     bordercolor="#000000"
     borderopacity="0.25"
     inkscape:showpageshadow="2"
     inkscape:pageopacity="0.0"
     inkscape:pagecheckerboard="0"
     inkscape:deskcolor="#d1d1d1"
     showguides="true"
     inkscape:zoom="8.0000001"
     inkscape:cx="19.8125"
     inkscape:cy="24.5625"
     inkscape:window-width="1440"
     inkscape:window-height="843"
     inkscape:window-x="0"
     inkscape:window-y="33"
     inkscape:window-maximized="1"
     inkscape:current-layer="svg2" />
  <defs
     id="defs1" />
  <metadata
     id="metadata1">
    <rdf:RDF>
      <cc:Work
         rdf:about="">
        <cc:license
           rdf:resource="http://creativecommons.org/licenses/by-sa/4.0/" />
        <dc:creator>
          <cc:Agent>
            <dc:title>Ali Mirjamali</dc:title>
          </cc:Agent>
        </dc:creator>
        <dc:date>2024-04-11</dc:date>
        <dc:subject>
          <rdf:Bag>
            <rdf:li>Cube</rdf:li>
            <rdf:li>Qube</rdf:li>
            <rdf:li>Impossible Cubes</rdf:li>
          </rdf:Bag>
        </dc:subject>
        <dc:description>Impossible cubes icon designed for Qubes-OS. Based on Jarda's work on OpenClipArt</dc:description>
        <dc:source>https://www.github.com/alimirjamali/personal-qubesos</dc:source>
        <dc:title>Impossible Qube 3</dc:title>
        <dc:rights>
          <cc:Agent>
            <dc:title>CC0</dc:title>
          </cc:Agent>
        </dc:rights>
      </cc:Work>
      <cc:License
         rdf:about="http://creativecommons.org/licenses/by-sa/4.0/">
        <cc:permits
           rdf:resource="http://creativecommons.org/ns#Reproduction" />
        <cc:permits
           rdf:resource="http://creativecommons.org/ns#Distribution" />
        <cc:requires
           rdf:resource="http://creativecommons.org/ns#Notice" />
        <cc:requires
           rdf:resource="http://creativecommons.org/ns#Attribution" />
        <cc:permits
           rdf:resource="http://creativecommons.org/ns#DerivativeWorks" />
        <cc:requires
           rdf:resource="http://creativecommons.org/ns#ShareAlike" />
      </cc:License>
    </rdf:RDF>
  </metadata>
  <g
     id="Impossible-qube-3"
     transform="matrix(0.06931974,0,0,0.06931974,46.866566,-69.224263)">
    <path
       id="path4757-7-7"
       style="fill:#800000;stroke:#000000;stroke-width:1px"
       d="m -444.95,1167.5 15.343,-8.8583 v 177.17 l -15.343,8.8582 z" />
    <path
       id="path4757-7-2-2-4"
       style="fill:#d40000;stroke:#000000;stroke-width:1px"
       d="m -444.95,1167.5 -15.343,-8.8583 v 177.17 l 15.343,8.8582 z" />
    <path
       id="path4813-0"
       style="fill:#800000;stroke:#000000;stroke-width:1px"
       d="m -444.95,1149.8 v 17.717 l -153.43,88.583 v -17.716 z" />
    <path
       id="path4813-9-9"
       style="fill:#800000;stroke:#000000;stroke-width:1px"
       d="m -444.95,1344.7 v 17.717 L -598.38,1451 v -17.716 z" />
    <path
       id="path4813-4-4"
       style="fill:#d40000;stroke:#000000;stroke-width:1px"
       d="m -291.52,1256.1 v -17.716 l -153.43,-88.583 v 17.717 z" />
    <path
       id="path4813-4-1-8"
       style="fill:#d40000;stroke:#000000;stroke-width:1px"
       d="m -291.52,1451 v -17.716 l -153.43,-88.583 v 17.717 z" />
    <path
       id="path4858-8"
       style="fill:#ff5555;stroke:#000000;stroke-width:1px"
       d="m -613.72,1442.1 15.343,-8.8583 153.43,88.583 -15.343,8.8582 z" />
    <path
       id="path4858-6-2-4"
       style="fill:#00ff00;stroke:#000000;stroke-width:1px"
       d="m -214.8,1477.6 -15.343,-8.8582 -153.43,88.583 15.343,8.8583 z" />
    <path
       id="path4757-2"
       style="fill:#004900;stroke:#000000;stroke-width:1px"
       d="m -383.57,1397.8 15.343,-8.8582 v 177.17 l -15.343,8.8583 z" />
    <path
       id="path4858-9-2"
       style="fill:#ff5555;stroke:#000000;stroke-width:1px"
       d="m -444.95,1344.7 15.343,-8.8582 153.43,88.583 -15.343,8.8583 z" />
    <path
       id="path4858-6-4"
       style="fill:#ff5555;stroke:#000000;stroke-width:1px"
       d="m -276.17,1442.1 -15.343,-8.8583 -153.43,88.583 15.343,8.8582 z" />
    <path
       id="path4757-7-2-5"
       style="fill:#d40000;stroke:#000000;stroke-width:1px"
       d="m -276.17,1265 -15.343,-8.8583 v 177.17 l 15.343,8.8583 z" />
    <path
       id="path4858-6-2-5"
       style="fill:#ff5555;stroke:#000000;stroke-width:1px"
       d="m -444.95,1344.7 -15.343,-8.8582 -153.43,88.583 15.343,8.8583 z" />
    <path
       id="path4757-1"
       style="fill:#800000;stroke:#000000;stroke-width:1px"
       d="m -613.72,1265 15.343,-8.8583 v 177.17 l -15.343,8.8583 z" />
    <path
       id="path4700-8-7"
       style="fill:#d40000;stroke:#000000;stroke-width:1px"
       d="m -629.04,1238.4 184.09,106.31 v 212.59 l -184.09,-106.31 z m 15.344,26.594 v 177.16 l 153.41,88.594 v -177.19 l -153.41,-88.562 z" />
    <path
       id="path4757-7-27"
       style="fill:#000080;stroke:#000000;stroke-width:1px"
       d="m -214.8,1034.6 15.343,-8.8583 v 177.17 l -15.343,8.8583 z" />
    <path
       id="path4757-7-2-2-6"
       style="fill:#0000ff;stroke:#000000;stroke-width:1px"
       d="m -214.8,1034.6 -15.343,-8.8583 v 177.17 l 15.343,8.8583 z" />
    <path
       id="path4813-1"
       style="fill:#000080;stroke:#000000;stroke-width:1px"
       d="m -214.8,1016.9 v 17.717 l -153.43,88.583 v -17.716 z" />
    <path
       id="path4813-9-4"
       style="fill:#000080;stroke:#000000;stroke-width:1px"
       d="m -214.8,1211.8 v 17.716 l -153.43,88.583 v -17.716 z" />
    <path
       id="path4813-4-2"
       style="fill:#0000ff;stroke:#000000;stroke-width:1px"
       d="m -61.372,1123.2 v -17.716 l -153.43,-88.583 v 17.717 z" />
    <path
       id="path4813-4-1-3"
       style="fill:#0000ff;stroke:#000000;stroke-width:1px"
       d="m -61.372,1318.1 v -17.716 l -153.43,-88.583 v 17.716 z" />
    <path
       id="path4858-2"
       style="fill:#7272ff;stroke:#000000;stroke-width:1px"
       d="m -383.57,1309.3 15.343,-8.8583 153.43,88.583 -15.343,8.8582 z" />
    <path
       id="path4858-9-21"
       style="fill:#7272ff;stroke:#000000;stroke-width:1px"
       d="m -214.8,1211.8 15.343,-8.8583 153.43,88.583 -15.343,8.8583 z" />
    <path
       id="path4858-6-6"
       style="fill:#7272ff;stroke:#000000;stroke-width:1px"
       d="m -46.029,1309.3 -15.343,-8.8583 -153.43,88.583 15.343,8.8582 z" />
    <path
       id="path4757-7-2-8"
       style="fill:#0000ff;stroke:#000000;stroke-width:1px"
       d="m -46.029,1132.1 -15.343,-8.8583 v 177.17 l 15.343,8.8583 z" />
    <path
       id="path4858-6-2-57"
       style="fill:#7272ff;stroke:#000000;stroke-width:1px"
       d="m -214.8,1211.8 -15.343,-8.8583 -153.43,88.583 15.343,8.8583 z" />
    <path
       id="path4757-6"
       style="fill:#000080;stroke:#000000;stroke-width:1px"
       d="m -383.57,1132.1 15.343,-8.8583 v 177.17 l -15.343,8.8583 z" />
    <path
       id="path4700-8-6-8"
       style="fill:#7272ff;stroke:#000000;stroke-width:1px"
       d="m -30.677,1105.5 -184.12,106.27 -184.11,-106.3 184.12,-106.27 z m -30.703,-0.01 -153.42,-88.578 -153.43,88.557 153.45,88.594 z" />
    <path
       id="path4757-7-79"
       style="fill:#004900;stroke:#000000;stroke-width:1px"
       d="m -214.8,1300.4 15.343,-8.8583 v 177.17 l -15.343,8.8582 z" />
    <path
       id="path4757-7-2-2-5"
       style="fill:#008000;stroke:#000000;stroke-width:1px"
       d="m -214.8,1300.4 -15.343,-8.8583 v 177.17 l 15.343,8.8582 z" />
    <path
       id="path4813-9-1"
       style="fill:#004900;stroke:#000000;stroke-width:1px"
       d="m -214.8,1477.6 v 17.717 l -153.43,88.583 v -17.716 z" />
    <path
       id="path4813-4-23"
       style="fill:#008000;stroke:#000000;stroke-width:1px"
       d="m -61.372,1389 v -17.717 l -153.43,-88.583 v 17.716 z" />
    <path
       id="path4813-4-1-34"
       style="fill:#008000;stroke:#000000;stroke-width:1px"
       d="m -61.372,1583.9 v -17.717 l -153.43,-88.583 v 17.717 z" />
    <path
       id="path4858-1"
       style="fill:#00ff00;stroke:#000000;stroke-width:1px"
       d="m -383.57,1575 15.343,-8.8583 153.43,88.583 -15.343,8.8583 z" />
    <path
       id="path4858-9-1"
       style="fill:#00ff00;stroke:#000000;stroke-width:1px"
       d="m -214.8,1477.6 15.343,-8.8582 153.43,88.583 -15.343,8.8583 z" />
    <path
       id="path4858-6-3"
       style="fill:#00ff00;stroke:#000000;stroke-width:1px"
       d="m -46.029,1575 -15.343,-8.8583 -153.43,88.583 15.343,8.8583 z" />
    <path
       id="path4757-7-2-87"
       style="fill:#008000;stroke:#000000;stroke-width:1px"
       d="m -46.029,1397.8 -15.343,-8.8582 v 177.17 l 15.343,8.8583 z" />
    <path
       id="path4700-3"
       style="fill:#004900;stroke:#000000;stroke-width:1px"
       d="m -30.698,1371.3 -184.09,106.31 v 212.59 l 184.09,-106.31 z m -15.344,26.594 v 177.16 l -153.41,88.594 v -177.19 l 153.41,-88.562 z" />
    <path
       id="path4813-43"
       style="fill:#004900;stroke:#000000;stroke-width:1px"
       d="m -214.81,1282.7 -46.031,26.562 v 17.719 l 46.031,-26.563 v -17.719 z m -76.719,44.281 -76.688,44.281 v 17.719 l 76.688,-44.281 z" />
    <path
       id="path3514-1-8"
       style="fill:#008000;stroke:#000000;stroke-width:1px"
       d="m -383.57,1486.4 2e-4,-88.583 153.43,88.583 -1.9e-4,177.17 -153.43,-88.583 -1.6e-4,-53.15 -15.343,8.8582 v 53.15 l 184.12,106.3 2e-5,-212.6 -184.12,-106.3 -9e-5,124.02 z" />
    <path
       id="path3514-1-8-6"
       style="fill:#00ff00;stroke:#000000;stroke-width:1px"
       d="m -214.81,1265 -46.031,26.562 v 17.719 l 46.031,-26.562 153.44,88.562 -153.44,88.594 -153.41,-88.594 76.688,-44.281 v -17.719 l -107.38,62 184.09,106.31 184.12,-106.31 -184.12,-106.28 z" />
    <path
       id="path3514-1-8-6-5"
       style="fill:#0000ff;stroke:#000000;stroke-width:1px"
       d="m -306.86,1353.5 76.715,44.291 1e-5,-177.17 -153.43,-88.583 9e-5,177.17 46.029,26.575 -15.343,8.8584 -46.029,-26.575 -2e-5,-212.6 184.12,106.3 6e-5,212.6 -107.4,-62.008 z" />
    <path
       id="path3514-1-8-6-5-0"
       style="fill:#000080;stroke:#000000;stroke-width:1px"
       d="m -122.74,1353.5 -76.715,44.291 -10e-6,-177.17 153.43,-88.583 -9e-5,177.17 -46.029,26.575 15.343,8.8584 46.029,-26.575 2e-5,-212.6 -184.12,106.3 -6e-5,212.6 107.4,-62.008 z" />
    <path
       id="path3514-1"
       style="fill:#ff5555;stroke:#000000;stroke-width:1px"
       d="m -368.23,1194.1 76.715,44.292 -153.43,88.583 -153.43,-88.583 153.43,-88.583 46.029,26.575 7e-5,-17.716 -46.029,-26.575 -184.12,106.3 184.12,106.3 184.12,-106.3 -107.4,-62.008 z" />
    <path
       id="path3514"
       style="fill:#800000;stroke:#000000;stroke-width:1px"
       d="m -260.84,1238.4 -184.09,106.31 v 212.59 l 168.75,-97.437 -15.344,-8.875 -138.06,79.75 v -177.19 l 153.41,-88.562 v 88.562 l 15.344,8.875 v -124.03 z m -15.344,150.59 v 35.437 l 15.344,8.8438 v -35.406 l -15.344,-8.875 z" />
  </g>
</svg>
