<?xml version="1.0" encoding="UTF-8" standalone="no"?>
<svg
   width="48px"
   height="48px"
   viewBox="0 0 48 48"
   version="1.1"
   id="svg2"
   sodipodi:docname="qube-square3.svg"
   inkscape:version="1.3.2 (091e20ef0f, 2023-11-25)"
   xmlns:inkscape="http://www.inkscape.org/namespaces/inkscape"
   xmlns:sodipodi="http://sodipodi.sourceforge.net/DTD/sodipodi-0.dtd"
   xmlns:xlink="http://www.w3.org/1999/xlink"
   xmlns="http://www.w3.org/2000/svg"
   xmlns:svg="http://www.w3.org/2000/svg"
   xmlns:rdf="http://www.w3.org/1999/02/22-rdf-syntax-ns#"
   xmlns:cc="http://creativecommons.org/ns#"
   xmlns:dc="http://purl.org/dc/elements/1.1/">
  <sodipodi:namedview
     id="namedview"
     pagecolor="#ffffff"
     bordercolor="#000000"
     borderopacity="0.25"
     inkscape:showpageshadow="2"
     inkscape:pageopacity="0.0"
     inkscape:pagecheckerboard="0"
     inkscape:deskcolor="#d1d1d1"
     showguides="true"
     inkscape:zoom="8.0000004"
     inkscape:cx="8.8124996"
     inkscape:cy="22.312499"
     inkscape:window-width="1440"
     inkscape:window-height="843"
     inkscape:window-x="0"
     inkscape:window-y="33"
     inkscape:window-maximized="1"
     inkscape:current-layer="svg2">
    <sodipodi:guide
       position="24,24"
       orientation="0.5,0.8660254"
       id="guide3"
       inkscape:locked="false"
       inkscape:label=""
       inkscape:color="rgb(0,134,229)" />
    <sodipodi:guide
       position="24,24"
       orientation="-0.5,0.8660254"
       id="guide4"
       inkscape:locked="false"
       inkscape:label=""
       inkscape:color="rgb(0,134,229)" />
    <sodipodi:guide
       position="24,24"
       orientation="-1,0"
       id="guide30"
       inkscape:label=""
       inkscape:locked="false"
       inkscape:color="rgb(0,134,229)" />
    <sodipodi:guide
       position="24,35"
       orientation="0.5,0.8660254"
       id="guide5"
       inkscape:label=""
       inkscape:locked="false"
       inkscape:color="rgb(0,134,229)" />
    <sodipodi:guide
       position="24,46"
       orientation="0.5,0.8660254"
       id="guide6"
       inkscape:label=""
       inkscape:locked="false"
       inkscape:color="rgb(0,134,229)" />
    <sodipodi:guide
       position="24,35"
       orientation="-0.5,0.8660254"
       id="guide7"
       inkscape:label=""
       inkscape:locked="false"
       inkscape:color="rgb(0,134,229)" />
    <sodipodi:guide
       position="24,46"
       orientation="-0.5,0.8660254"
       id="guide8"
       inkscape:label=""
       inkscape:locked="false"
       inkscape:color="rgb(0,134,229)" />
    <sodipodi:guide
       position="24,13"
       orientation="0.5,0.8660254"
       id="guide9"
       inkscape:label=""
       inkscape:locked="false"
       inkscape:color="rgb(0,134,229)" />
    <sodipodi:guide
       position="24,2"
       orientation="0.5,0.8660254"
       id="guide10"
       inkscape:label=""
       inkscape:locked="false"
       inkscape:color="rgb(0,134,229)" />
    <sodipodi:guide
       position="24,13"
       orientation="-0.5,0.8660254"
       id="guide11"
       inkscape:label=""
       inkscape:locked="false"
       inkscape:color="rgb(0,134,229)" />
    <sodipodi:guide
       position="24,2"
       orientation="-0.5,0.8660254"
       id="guide12"
       inkscape:label=""
       inkscape:locked="false"
       inkscape:color="rgb(0,134,229)" />
    <sodipodi:guide
       position="43.052559,24"
       orientation="-1,0"
       id="guide13"
       inkscape:label=""
       inkscape:locked="false"
       inkscape:color="rgb(0,134,229)" />
    <sodipodi:guide
       position="4.9474411,24"
       orientation="-1,0"
       id="guide14"
       inkscape:label=""
       inkscape:locked="false"
       inkscape:color="rgb(0,134,229)" />
    <sodipodi:guide
       position="14.473721,24"
       orientation="-1,0"
       id="guide15"
       inkscape:label=""
       inkscape:locked="false"
       inkscape:color="rgb(0,134,229)" />
    <sodipodi:guide
       position="33.526279,24"
       orientation="-1,0"
       id="guide16"
       inkscape:label=""
       inkscape:locked="false"
       inkscape:color="rgb(0,134,229)" />
  </sodipodi:namedview>
  <title
     id="title">8 x Vector Perfect Qubes</title>
  <defs
     id="defs1">
    <polygon
       id="path-1"
       points="0.000248593875 0.6295 28.6120703 0.6295 28.6120703 32.4825474 0.000248593875 32.4825474" />
    <mask
       id="mask-2"
       fill="#ffffff">
      <use
         xlink:href="#path-1"
         id="use1" />
    </mask>
    <mask
       id="mask-2-2"
       fill="#ffffff">
      <use
         xlink:href="#path-1"
         id="use1-9" />
    </mask>
    <mask
       id="mask-2-7"
       fill="#ffffff">
      <use
         xlink:href="#path-1"
         id="use1-3" />
    </mask>
    <mask
       id="mask-2-0"
       fill="#ffffff">
      <use
         xlink:href="#path-1"
         id="use1-36" />
    </mask>
    <mask
       id="mask-2-5"
       fill="#ffffff">
      <use
         xlink:href="#path-1"
         id="use1-6" />
    </mask>
    <mask
       id="mask-2-78"
       fill="#ffffff">
      <use
         xlink:href="#path-1"
         id="use1-68" />
    </mask>
    <mask
       id="mask-2-04"
       fill="#ffffff">
      <use
         xlink:href="#path-1"
         id="use1-87" />
    </mask>
  </defs>
  <g
     id="Blue"
     transform="matrix(0.66589814,0,0,0.66589814,24.053172,18.495968)"
     style="display:inline">
    <g
       id="Top-9"
       transform="translate(2.49e-4,0.258824)" />
    <mask
       id="mask3-3"
       fill="#ffffff">
      <use
         xlink:href="#path-1"
         id="use3-6" />
    </mask>
    <g
       id="Clip-4-0" />
    <path
       d="m 7.2450486,4.3265238 -5.743,3.317 c -0.438,0.253 -0.79300001,0.612 -1.03800001,1.034 -0.246,0.423 -0.383,0.909 -0.386,1.4150002 l -0.039,6.53 -0.03909563828,6.532 c -0.0029043617,0.514 0.13309563828,1.01 0.38209563828,1.44 0.248,0.431 0.609,0.797 1.05700001,1.051 l 5.675,3.232 5.6750004,3.232 c 0.44,0.25 0.929,0.375 1.418,0.373047 0.489,-10e-4 0.978,-0.129047 1.415,-0.381047 l 5.744,-3.317 5.744,-3.316 c 0.438,-0.253 0.792,-0.612 1.038,-1.035 0.246,-0.422 0.383,-0.908 0.385,-1.414 l 0.039,-6.531 0.04004,-6.5310002 c 0.002,-0.514 -0.134043,-1.01 -0.382043,-1.441 -0.249,-0.43 -0.61,-0.796 -1.057,-1.051 l -5.676,-3.231 -5.675,-3.232 c -0.439,-0.25099999 -0.929,-0.37499999 -1.417,-0.37304705 -0.49,0.001047 -0.978,0.12804706 -1.416,0.38104705 z"
       id="Fill-3-6"
       fill="#4488df"
       mask="url(#mask-2-2)" />
    <path
       d="m 0.41874859,8.7839238 c 0.213,0.013 0.418,0.05 0.61800001,0.11 0.2,0.062 0.394,0.147 0.586,0.256 l 5.676,3.2320002 5.6750004,3.232 c 0.447,0.254 0.809,0.62 1.057,1.051 0.249,0.43 0.385,0.926 0.382048,1.44 l -0.03905,6.532 -0.039,6.53 c -10e-4,0.232 -0.031,0.46 -0.086,0.679 -0.056,0.219 -0.137,0.43 -0.241,0.628 l -0.083,-0.006 -0.084,-0.008 c -0.182,-0.023 -0.362,-0.064 -0.538,-0.122 -0.176,-0.059 -0.348,-0.135 -0.513,-0.229 l -5.6760004,-3.231 -5.675,-3.233 c -0.44700001,-0.254 -0.80900001,-0.62 -1.05700001,-1.05 -0.249,-0.43 -0.384,-0.926 -0.38104894003,-1.441 l 0.03904894,-6.531 0.038,-6.53 c 0.002,-0.2530002 0.024,-0.4770002 0.076,-0.6900002 0.053,-0.212 0.135,-0.415 0.258,-0.626 l 0.004,0.003 z"
       id="Fill-6-2"
       fill="#0e2276"
       mask="url(#mask-2-2)" />
  </g>
  <g
     id="Black"
     transform="matrix(0.66589814,0,0,0.66589814,4.9704081,18.431747)"
     style="display:inline">
    <mask
       id="mask3"
       fill="#ffffff">
      <use
         xlink:href="#path-1"
         id="use3" />
    </mask>
    <path
       d="m 12.989049,1.0105238 -5.7440004,3.316 -5.743,3.317 c -0.438,0.253 -0.79300001,0.612 -1.03800001,1.034 -0.246,0.423 -0.383,0.909 -0.386,1.4150002 l -0.039,6.53 L 0,23.154524 c -0.00295141,0.514 0.13304859,1.01 0.38204859,1.44 0.248,0.431 0.609,0.797 1.05700001,1.051 l 5.675,3.232 5.6750004,3.232 c 0.44,0.25 0.929,0.375 1.418,0.373023 0.489,-10e-4 0.978,-0.129023 1.415,-0.381023 l 5.744,-3.317 5.744,-3.316 c 0.438,-0.253 0.792,-0.612 1.038,-1.035 0.246,-0.422 0.383,-0.908 0.385,-1.414 l 0.039,-6.531 0.04002,-6.5310002 c 0.002,-0.514 -0.134021,-1.01 -0.382021,-1.441 -0.249,-0.43 -0.61,-0.796 -1.057,-1.051 l -5.676,-3.231 -5.675,-3.232 c -0.439,-0.25099999 -0.929,-0.37499999 -1.417,-0.3730238 -0.49,0.001024 -0.978,0.12802381 -1.416,0.3810238"
       id="Fill-3"
       fill="#585858"
       mask="url(#mask-2)"
       style="fill:#b4bbc1;fill-opacity:1" />
    <path
       d="m 0.41874859,8.7839238 c 0.213,0.013 0.418,0.05 0.61800001,0.11 0.2,0.062 0.394,0.147 0.586,0.256 l 5.676,3.2320002 5.6750004,3.232 c 0.447,0.254 0.809,0.62 1.057,1.051 0.249,0.43 0.385,0.926 0.382048,1.44 l -0.03905,6.532 -0.039,6.53 c -10e-4,0.232 -0.031,0.46 -0.086,0.679 -0.056,0.219 -0.137,0.43 -0.241,0.628 l -0.083,-0.006 -0.084,-0.008 c -0.182,-0.023 -0.362,-0.064 -0.538,-0.122 -0.176,-0.059 -0.348,-0.135 -0.513,-0.229 l -5.6760004,-3.231 -5.675,-3.233 c -0.44700001,-0.254 -0.80900001,-0.62 -1.05700001,-1.05 -0.249,-0.43 -0.384,-0.926 -0.38104894003,-1.441 l 0.03904894,-6.531 0.038,-6.53 c 0.002,-0.2530002 0.024,-0.4770002 0.076,-0.6900002 0.053,-0.212 0.135,-0.415 0.258,-0.626 l 0.004,0.003 z"
       id="Fill-6"
       fill="#000000"
       mask="url(#mask-2)"
       style="fill:#34373a;fill-opacity:1" />
  </g>
  <g
     id="Yellow"
     transform="matrix(0.66589814,0,0,0.66589814,14.556693,23.976651)"
     style="display:inline">
    <g
       id="Top-10"
       transform="translate(2.49e-4,0.258824)" />
    <mask
       id="mask3-61"
       fill="#ffffff">
      <use
         xlink:href="#path-1"
         id="use3-59" />
    </mask>
    <g
       id="Clip-4-49" />
    <path
       d="m 7.2450486,4.3265238 -5.743,3.317 c -0.438,0.253 -0.79300001,0.612 -1.03800001,1.034 -0.246,0.423 -0.383,0.909 -0.386,1.4150002 l -0.039,6.53 -0.03909563828,6.532 c -0.0029043617,0.514 0.13309563828,1.01 0.38209563828,1.44 0.248,0.431 0.609,0.797 1.05700001,1.051 l 5.675,3.232 5.6750004,3.232 c 0.44,0.25 0.929,0.375 1.418,0.373047 0.489,-10e-4 0.978,-0.129047 1.415,-0.381047 l 5.744,-3.317 5.744,-3.316 c 0.438,-0.253 0.792,-0.612 1.038,-1.035 0.246,-0.422 0.383,-0.908 0.385,-1.414 l 0.039,-6.531 0.04004,-6.5310002 c 0.002,-0.514 -0.134043,-1.01 -0.382043,-1.441 -0.249,-0.43 -0.61,-0.796 -1.057,-1.051 l -5.676,-3.231 -5.675,-3.232 c -0.439,-0.25099999 -0.929,-0.37499999 -1.417,-0.37304705 -0.49,0.001047 -0.978,0.12804706 -1.416,0.38104705 z"
       id="Fill-3-0"
       fill="#efbf0a"
       mask="url(#mask-2-04)" />
    <path
       d="m 0.41874859,8.7839238 c 0.213,0.013 0.418,0.05 0.61800001,0.11 0.2,0.062 0.394,0.147 0.586,0.256 l 5.676,3.2320002 5.6750004,3.232 c 0.447,0.254 0.809,0.62 1.057,1.051 0.249,0.43 0.385,0.926 0.382048,1.44 l -0.03905,6.532 -0.039,6.53 c -10e-4,0.232 -0.031,0.46 -0.086,0.679 -0.056,0.219 -0.137,0.43 -0.241,0.628 l -0.083,-0.006 -0.084,-0.008 c -0.182,-0.023 -0.362,-0.064 -0.538,-0.122 -0.176,-0.059 -0.348,-0.135 -0.513,-0.229 l -5.6760004,-3.231 -5.675,-3.233 c -0.44700001,-0.254 -0.80900001,-0.62 -1.05700001,-1.05 -0.249,-0.43 -0.384,-0.926 -0.38104894003,-1.441 l 0.03904894,-6.531 0.038,-6.53 c 0.002,-0.2530002 0.024,-0.4770002 0.076,-0.6900002 0.053,-0.212 0.135,-0.415 0.258,-0.626 l 0.004,0.003 z"
       id="Fill-6-9"
       fill="#946705"
       mask="url(#mask-2-04)" />
  </g>
  <g
     id="Pink"
     transform="matrix(0.66589814,0,0,0.66589814,14.338862,1.9420171)"
     style="display:inline">
    <g
       id="Top-2"
       transform="translate(2.49e-4,0.258824)" />
    <mask
       id="mask3-5"
       fill="#ffffff">
      <use
         xlink:href="#path-1"
         id="use3-47" />
    </mask>
    <g
       id="Clip-4-4" />
    <path
       d="m 7.2450486,4.3265238 -5.743,3.317 c -0.438,0.253 -0.79300001,0.612 -1.03800001,1.034 -0.246,0.423 -0.383,0.909 -0.386,1.4150002 l -0.039,6.53 -0.03909563828,6.532 c -0.0029043617,0.514 0.13309563828,1.01 0.38209563828,1.44 0.248,0.431 0.609,0.797 1.05700001,1.051 l 5.675,3.232 5.6750004,3.232 c 0.44,0.25 0.929,0.375 1.418,0.373047 0.489,-10e-4 0.978,-0.129047 1.415,-0.381047 l 5.744,-3.317 5.744,-3.316 c 0.438,-0.253 0.792,-0.612 1.038,-1.035 0.246,-0.422 0.383,-0.908 0.385,-1.414 l 0.039,-6.531 0.04004,-6.5310002 c 0.002,-0.514 -0.134043,-1.01 -0.382043,-1.441 -0.249,-0.43 -0.61,-0.796 -1.057,-1.051 l -5.676,-3.231 -5.675,-3.232 c -0.439,-0.25099999 -0.929,-0.37499999 -1.417,-0.37304705 -0.49,0.001047 -0.978,0.12804706 -1.416,0.38104705 z"
       id="Fill-3-4"
       fill="#a23eb2"
       mask="url(#mask-2-5)" />
    <path
       d="m 0.41874859,8.7839238 c 0.213,0.013 0.418,0.05 0.61800001,0.11 0.2,0.062 0.394,0.147 0.586,0.256 l 5.676,3.2320002 5.6750004,3.232 c 0.447,0.254 0.809,0.62 1.057,1.051 0.249,0.43 0.385,0.926 0.382048,1.44 l -0.03905,6.532 -0.039,6.53 c -10e-4,0.232 -0.031,0.46 -0.086,0.679 -0.056,0.219 -0.137,0.43 -0.241,0.628 l -0.083,-0.006 -0.084,-0.008 c -0.182,-0.023 -0.362,-0.064 -0.538,-0.122 -0.176,-0.059 -0.348,-0.135 -0.513,-0.229 l -5.6760004,-3.231 -5.675,-3.233 c -0.44700001,-0.254 -0.80900001,-0.62 -1.05700001,-1.05 -0.249,-0.43 -0.384,-0.926 -0.38104894003,-1.441 l 0.03904894,-6.531 0.038,-6.53 c 0.002,-0.2530002 0.024,-0.4770002 0.076,-0.6900002 0.053,-0.212 0.135,-0.415 0.258,-0.626 l 0.004,0.003 z"
       id="Fill-6-3"
       fill="#3f0c46"
       mask="url(#mask-2-5)" />
  </g>
  <g
     id="Orange"
     transform="matrix(0.66589814,0,0,0.66589814,4.9244376,7.4587055)"
     style="display:inline">
    <g
       id="Top-0"
       transform="translate(2.49e-4,0.258824)" />
    <mask
       id="mask3-6"
       fill="#ffffff">
      <use
         xlink:href="#path-1"
         id="use3-1" />
    </mask>
    <g
       id="Clip-4-5" />
    <path
       d="m 7.2450486,4.3265238 -5.743,3.317 c -0.438,0.253 -0.79300001,0.612 -1.03800001,1.034 -0.246,0.423 -0.383,0.909 -0.386,1.4150002 l -0.039,6.53 -0.03909563828,6.532 c -0.0029043617,0.514 0.13309563828,1.01 0.38209563828,1.44 0.248,0.431 0.609,0.797 1.05700001,1.051 l 5.675,3.232 5.6750004,3.232 c 0.44,0.25 0.929,0.375 1.418,0.373047 0.489,-10e-4 0.978,-0.129047 1.415,-0.381047 l 5.744,-3.317 5.744,-3.316 c 0.438,-0.253 0.792,-0.612 1.038,-1.035 0.246,-0.422 0.383,-0.908 0.385,-1.414 l 0.039,-6.531 0.04004,-6.5310002 c 0.002,-0.514 -0.134043,-1.01 -0.382043,-1.441 -0.249,-0.43 -0.61,-0.796 -1.057,-1.051 l -5.676,-3.231 -5.675,-3.232 c -0.439,-0.25099999 -0.929,-0.37499999 -1.417,-0.37304705 -0.49,0.001047 -0.978,0.12804706 -1.416,0.38104705 z"
       id="Fill-3-5"
       fill="#e96f24"
       mask="url(#mask-2-0)" />
    <path
       d="m 0.41874859,8.7839238 c 0.213,0.013 0.418,0.05 0.61800001,0.11 0.2,0.062 0.394,0.147 0.586,0.256 l 5.676,3.2320002 5.6750004,3.232 c 0.447,0.254 0.809,0.62 1.057,1.051 0.249,0.43 0.385,0.926 0.382048,1.44 l -0.03905,6.532 -0.039,6.53 c -10e-4,0.232 -0.031,0.46 -0.086,0.679 -0.056,0.219 -0.137,0.43 -0.241,0.628 l -0.083,-0.006 -0.084,-0.008 c -0.182,-0.023 -0.362,-0.064 -0.538,-0.122 -0.176,-0.059 -0.348,-0.135 -0.513,-0.229 l -5.6760004,-3.231 -5.675,-3.233 c -0.44700001,-0.254 -0.80900001,-0.62 -1.05700001,-1.05 -0.249,-0.43 -0.384,-0.926 -0.38104894003,-1.441 l 0.03904894,-6.531 0.038,-6.53 c 0.002,-0.2530002 0.024,-0.4770002 0.076,-0.6900002 0.053,-0.212 0.135,-0.415 0.258,-0.626 l 0.004,0.003 z"
       id="Fill-6-47"
       fill="#753813"
       mask="url(#mask-2-0)" />
  </g>
  <g
     id="Red"
     transform="matrix(0.66589814,0,0,0.66589814,23.888787,7.4704326)"
     style="display:inline">
    <g
       id="Top-92"
       transform="translate(2.49e-4,0.258824)" />
    <mask
       id="mask3-0"
       fill="#ffffff">
      <use
         xlink:href="#path-1"
         id="use3-68" />
    </mask>
    <g
       id="Clip-4-92" />
    <path
       d="m 12.989049,1.0105238 -5.7440004,3.316 -5.743,3.317 c -0.438,0.253 -0.79300001,0.612 -1.03800001,1.034 -0.246,0.423 -0.383,0.909 -0.386,1.4150002 l -0.039,6.53 L 0,23.154524 c -0.00295141,0.514 0.13304859,1.01 0.38204859,1.44 0.248,0.431 0.609,0.797 1.05700001,1.051 l 5.675,3.232 5.6750004,3.232 c 0.44,0.25 0.929,0.375 1.418,0.373023 0.489,-10e-4 0.978,-0.129023 1.415,-0.381023 l 5.744,-3.317 5.744,-3.316 c 0.438,-0.253 0.792,-0.612 1.038,-1.035 0.246,-0.422 0.383,-0.908 0.385,-1.414 l 0.039,-6.531 0.04002,-6.5310002 c 0.002,-0.514 -0.134021,-1.01 -0.382021,-1.441 -0.249,-0.43 -0.61,-0.796 -1.057,-1.051 l -5.676,-3.231 -5.675,-3.232 c -0.439,-0.25099999 -0.929,-0.37499999 -1.417,-0.3730238 -0.49,0.001024 -0.978,0.12802381 -1.416,0.3810238"
       id="Fill-3-66"
       fill="#d62821"
       mask="url(#mask-2-78)" />
    <path
       d="m 0.41874859,8.7839238 c 0.213,0.013 0.418,0.05 0.61800001,0.11 0.2,0.062 0.394,0.147 0.586,0.256 l 5.676,3.2320002 5.6750004,3.232 c 0.447,0.254 0.809,0.62 1.057,1.051 0.249,0.43 0.385,0.926 0.382048,1.44 l -0.03905,6.532 -0.039,6.53 c -10e-4,0.232 -0.031,0.46 -0.086,0.679 -0.056,0.219 -0.137,0.43 -0.241,0.628 l -0.083,-0.006 -0.084,-0.008 c -0.182,-0.023 -0.362,-0.064 -0.538,-0.122 -0.176,-0.059 -0.348,-0.135 -0.513,-0.229 l -5.6760004,-3.231 -5.675,-3.233 c -0.44700001,-0.254 -0.80900001,-0.62 -1.05700001,-1.05 -0.249,-0.43 -0.384,-0.926 -0.38104894003,-1.441 l 0.03904894,-6.531 0.038,-6.53 c 0.002,-0.2530002 0.024,-0.4770002 0.076,-0.6900002 0.053,-0.212 0.135,-0.415 0.258,-0.626 l 0.004,0.003 z"
       id="Fill-6-49"
       fill="#64120f"
       mask="url(#mask-2-78)" />
  </g>
  <g
     id="Green"
     transform="matrix(0.66589814,0,0,0.66589814,14.44568,12.926101)"
     style="display:inline">
    <g
       id="Top-1"
       transform="translate(2.49e-4,0.258824)" />
    <mask
       id="mask3-9"
       fill="#ffffff">
      <use
         xlink:href="#path-1"
         id="use3-4" />
    </mask>
    <g
       id="Clip-4-7" />
    <path
       d="m 7.2450486,4.3265238 -5.743,3.317 c -0.438,0.253 -0.79300001,0.612 -1.03800001,1.034 -0.246,0.423 -0.383,0.909 -0.386,1.4150002 l -0.039,6.53 -0.03909563828,6.532 c -0.0029043617,0.514 0.13309563828,1.01 0.38209563828,1.44 0.248,0.431 0.609,0.797 1.05700001,1.051 l 5.675,3.232 5.6750004,3.232 c 0.44,0.25 0.929,0.375 1.418,0.373047 0.489,-10e-4 0.978,-0.129047 1.415,-0.381047 l 5.744,-3.317 5.744,-3.316 c 0.438,-0.253 0.792,-0.612 1.038,-1.035 0.246,-0.422 0.383,-0.908 0.385,-1.414 l 0.039,-6.531 0.04004,-6.5310002 c 0.002,-0.514 -0.134043,-1.01 -0.382043,-1.441 -0.249,-0.43 -0.61,-0.796 -1.057,-1.051 l -5.676,-3.231 -5.675,-3.232 c -0.439,-0.25099999 -0.929,-0.37499999 -1.417,-0.37304705 -0.49,0.001047 -0.978,0.12804706 -1.416,0.38104705 z"
       id="Fill-3-8"
       fill="#5abc57"
       mask="url(#mask-2-7)" />
    <path
       d="m 0.41874859,8.7839238 c 0.213,0.013 0.418,0.05 0.61800001,0.11 0.2,0.062 0.394,0.147 0.586,0.256 l 5.676,3.2320002 5.6750004,3.232 c 0.447,0.254 0.809,0.62 1.057,1.051 0.249,0.43 0.385,0.926 0.382048,1.44 l -0.03905,6.532 -0.039,6.53 c -10e-4,0.232 -0.031,0.46 -0.086,0.679 -0.056,0.219 -0.137,0.43 -0.241,0.628 l -0.083,-0.006 -0.084,-0.008 c -0.182,-0.023 -0.362,-0.064 -0.538,-0.122 -0.176,-0.059 -0.348,-0.135 -0.513,-0.229 l -5.6760004,-3.231 -5.675,-3.233 c -0.44700001,-0.254 -0.80900001,-0.62 -1.05700001,-1.05 -0.249,-0.43 -0.384,-0.926 -0.38104894003,-1.441 l 0.03904894,-6.531 0.038,-6.53 c 0.002,-0.2530002 0.024,-0.4770002 0.076,-0.6900002 0.053,-0.212 0.135,-0.415 0.258,-0.626 l 0.004,0.003 z"
       id="Fill-6-4"
       fill="#325830"
       mask="url(#mask-2-7)" />
  </g>
  <metadata
     id="metadata1">
    <rdf:RDF>
      <cc:Work
         rdf:about="">
        <dc:title>8 x Vector Perfect Qubes</dc:title>
        <cc:license
           rdf:resource="http://creativecommons.org/licenses/by-sa/4.0/" />
        <dc:date>2024-4-10</dc:date>
        <dc:creator>
          <cc:Agent>
            <dc:title>Ali Mirjamali</dc:title>
          </cc:Agent>
        </dc:creator>
        <dc:contributor>
          <cc:Agent>
            <dc:title>Ninavizz
Ali Mirjamali</dc:title>
          </cc:Agent>
        </dc:contributor>
        <dc:subject>
          <rdf:Bag>
            <rdf:li>Qubes-OS</rdf:li>
            <rdf:li>Qubes</rdf:li>
          </rdf:Bag>
        </dc:subject>
        <dc:description>Based on Qubes-OS Vector Pertect Sushi Icons
Visit https://github.com/QubesOS/qubes-artwork for more info</dc:description>
        <dc:source>https://commons.wikimedia.org/wiki/File:2-Dice-Icon.svg</dc:source>
      </cc:Work>
      <cc:License
         rdf:about="http://creativecommons.org/licenses/by-sa/4.0/">
        <cc:permits
           rdf:resource="http://creativecommons.org/ns#Reproduction" />
        <cc:permits
           rdf:resource="http://creativecommons.org/ns#Distribution" />
        <cc:requires
           rdf:resource="http://creativecommons.org/ns#Notice" />
        <cc:requires
           rdf:resource="http://creativecommons.org/ns#Attribution" />
        <cc:permits
           rdf:resource="http://creativecommons.org/ns#DerivativeWorks" />
        <cc:requires
           rdf:resource="http://creativecommons.org/ns#ShareAlike" />
      </cc:License>
    </rdf:RDF>
  </metadata>
</svg>
