<?xml version="1.0" encoding="UTF-8" standalone="no"?>
<svg
   width="48px"
   height="48px"
   viewBox="0 0 48 48"
   version="1.1"
   id="svg2"
   sodipodi:docname="qube-engraved-6.svg"
   inkscape:version="1.3.2 (091e20ef0f, 2023-11-25)"
   xmlns:inkscape="http://www.inkscape.org/namespaces/inkscape"
   xmlns:sodipodi="http://sodipodi.sourceforge.net/DTD/sodipodi-0.dtd"
   xmlns="http://www.w3.org/2000/svg"
   xmlns:svg="http://www.w3.org/2000/svg"
   xmlns:rdf="http://www.w3.org/1999/02/22-rdf-syntax-ns#"
   xmlns:cc="http://creativecommons.org/ns#"
   xmlns:dc="http://purl.org/dc/elements/1.1/">
  <sodipodi:namedview
     id="namedview"
     pagecolor="#ffffff"
     bordercolor="#000000"
     borderopacity="0.25"
     inkscape:showpageshadow="2"
     inkscape:pageopacity="0.0"
     inkscape:pagecheckerboard="0"
     inkscape:deskcolor="#d1d1d1"
     showguides="true"
     inkscape:zoom="8.7946406"
     inkscape:cx="18.249751"
     inkscape:cy="19.500513"
     inkscape:window-width="1440"
     inkscape:window-height="843"
     inkscape:window-x="0"
     inkscape:window-y="33"
     inkscape:window-maximized="1"
     inkscape:current-layer="svg2" />
  <title
     id="title1">Engraved qube</title>
  <defs
     id="defs1" />
  <metadata
     id="metadata1">
    <rdf:RDF>
      <cc:Work
         rdf:about="">
        <cc:license
           rdf:resource="http://creativecommons.org/publicdomain/zero/1.0/" />
        <dc:creator>
          <cc:Agent>
            <dc:title>Ali Mirjamali</dc:title>
          </cc:Agent>
        </dc:creator>
        <dc:rights>
          <cc:Agent>
            <dc:title>CC0 Public Domain Dediction</dc:title>
          </cc:Agent>
        </dc:rights>
        <dc:date>2024-04-11</dc:date>
        <dc:subject>
          <rdf:Bag>
            <rdf:li>Cube</rdf:li>
            <rdf:li>Qube</rdf:li>
            <rdf:li>Engraved Cube</rdf:li>
          </rdf:Bag>
        </dc:subject>
        <dc:description>Engraved cube icon designed for Qubes-OS. Based on Jarda's design on OpenClipArt</dc:description>
        <dc:source>https://www.github.com/alimirjamali/personal-qubesos</dc:source>
        <dc:title>Engraved qube</dc:title>
      </cc:Work>
      <cc:License
         rdf:about="http://creativecommons.org/publicdomain/zero/1.0/">
        <cc:permits
           rdf:resource="http://creativecommons.org/ns#Reproduction" />
        <cc:permits
           rdf:resource="http://creativecommons.org/ns#Distribution" />
        <cc:permits
           rdf:resource="http://creativecommons.org/ns#DerivativeWorks" />
      </cc:License>
    </rdf:RDF>
  </metadata>
  <path
     id="path3024-0-0-8"
     fill="#ff9955"
     d="m 26.424025,41.040145 5.04e-4,-15.618296 13.527048,-7.809847 -5.04e-4,15.618295 z m 0.795853,-2.297166 11.139526,-6.431411 0.0012,-12.862295 -11.139526,6.43141 z"
     style="stroke:#000000;stroke-width:0.15558;fill:#fe6155" />
  <path
     id="path2986-9-0-3"
     fill="#ffccaa"
     d="m 24.038028,47.932897 -3.9e-5,-23.887782 20.68737,-11.943862 4e-5,23.887781 z m 1.590212,-2.75579 17.505803,-10.106983 3.1e-4,-20.212384 -17.504456,10.106206 z"
     style="stroke:#000000;stroke-width:0.15558;fill:#ffafa9" />
  <path
     id="path2996-4-6-7"
     fill="#b3b3b3"
     d="m 42.340551,15.31712 1.04e-4,19.294143 0.795683,0.459392 -2.09e-4,-20.213282 z"
     style="stroke:#000000;stroke-width:0.15558;fill:#b3b3b3" />
  <path
     id="path3000-8-1-1"
     fill="#f2f2f2"
     d="m 42.341553,34.610744 0.795683,0.459392 -17.504905,10.106465 1e-6,-0.91878 z"
     style="stroke:#000000;stroke-width:0.15558;fill:#f2f2f2" />
  <path
     id="path3002-82-3-0"
     fill="#ffb380"
     d="m 25.629794,44.259286 5.7e-5,-1.837713 5.55e-4,-17.456124 16.708615,-9.646727 -6.04e-4,19.293953 -16.708616,9.646727 z m 0.795853,-2.297166 14.322889,-8.269327 -4.9e-5,-16.537175 -14.322889,8.269327 z"
     style="stroke:#000000;stroke-width:0.15558;fill:#ff887f" />
  <path
     id="path3004-4-8-7"
     fill="#999999"
     d="m 39.952735,17.611932 1.4e-5,15.619194 0.795688,0.459389 1.4e-4,-16.537883 z"
     style="stroke:#000000;stroke-width:0.15558;fill:#999999" />
  <path
     id="path3006-5-9-3"
     fill="#e6e6e6"
     d="m 26.424025,41.040145 13.526599,-7.809589 0.795688,0.45939 -14.32244,8.269067 z"
     style="stroke:#000000;stroke-width:0.15558;fill:#e6e6e6" />
  <path
     id="path3015-5-3-4"
     fill="#808080"
     d="m 37.567512,19.911235 -7.5e-5,11.944245 0.795687,0.45939 2.3e-4,-12.862935 z"
     style="stroke:#000000;stroke-width:0.15558;fill:#808080" />
  <path
     id="path3019-1-4-9"
     fill="none"
     d="m 27.220848,37.825495 v 0.91878"
     style="stroke:#000000;stroke-width:0.15558" />
  <path
     id="path3006-1-7-4-6"
     fill="#b3b3b3"
     d="m 27.220848,37.825495 10.343685,-5.971932 0.795688,0.45939 -11.139526,6.43141 z"
     style="stroke:#000000;stroke-width:0.15558;fill:#b3b3b3" />
  <path
     id="path3024-7-11-6-5"
     fill="#ff7f2a"
     d="m 27.220848,37.825495 7.6e-5,-11.944245 10.344134,-5.972191 -7.6e-5,11.944245 z m 0.795853,-2.297166 7.956612,-4.593754 4.54e-4,-9.188063 -7.956611,4.593753 z"
     style="stroke:#000000;stroke-width:0.15558;fill:#ff3329" />
  <path
     id="path3006-1-4-5-0-1"
     fill="#999999"
     d="m 28.017672,34.610844 7.16122,-4.134533 0.795687,0.459389 -7.95706,4.594013 z"
     style="stroke:#000000;stroke-width:0.15558;fill:#999999" />
  <path
     id="path3015-0-2-6-0"
     fill="#666666"
     d="m 35.179696,22.206047 1.04e-4,8.26914 0.795688,0.45939 5e-6,-9.187804 z"
     style="stroke:#000000;stroke-width:0.15558;fill:#666666" />
  <path
     id="path3024-7-9-7-6-9"
     fill="#ff6600"
     d="m 28.017672,34.610844 -1.05e-4,-8.26914 7.16122,-4.134534 1.05e-4,8.269141 z m 0.795853,-2.297166 4.773697,-2.756096 6.03e-4,-5.512909 -4.773697,2.756096 z"
     style="stroke:#000000;stroke-width:0.15558;fill:#fe1100" />
  <path
     id="path3006-1-4-4-6-1-9"
     fill="#808080"
     d="m 28.814495,31.396194 3.978441,-2.296954 0.795687,0.459389 -4.774146,2.756356 z"
     style="stroke:#000000;stroke-width:0.15558;fill:#808080" />
  <path
     id="path3015-0-8-1-8-6"
     fill="#4d4d4d"
     d="m 32.79188,24.500859 1.9e-5,4.593889 0.795688,0.45939 1.2e-5,-5.512688 z"
     style="stroke:#000000;stroke-width:0.15558;fill:#4d4d4d" />
  <path
     id="path3024-7-9-8-4-4-8"
     fill="#d45500"
     d="m 28.814495,31.396194 -1.35e-4,-4.593882 3.97853,-2.297006 1.36e-4,4.593882 z m 0.795853,-2.297166 1.591188,-0.918673 4.94e-4,-1.837785 -1.591188,0.918673 z"
     style="stroke:#000000;stroke-width:0.15558;fill:#d40e00" />
  <path
     id="path3006-1-4-4-2-2-9-3"
     fill="#666666"
     d="m 29.608726,28.177053 0.795661,-0.459375 0.795687,0.459389 -1.591367,0.918777 z"
     style="stroke:#000000;stroke-width:0.15558;fill:#666666" />
  <path
     id="path3015-0-8-4-3-6-4"
     fill="#333333"
     d="m 30.406657,26.800162 -10e-7,0.91878 0.795688,0.45939 -2.6e-5,-1.837545 z"
     style="stroke:#000000;stroke-width:0.15558;fill:#333333" />
  <path
     id="path3218-22-3-8"
     fill="#aa4400"
     d="m 29.607223,27.261716 0.795661,-0.459376 -1e-6,0.918781 -0.795661,0.459375 z"
     style="stroke:#000000;stroke-width:0.15558;fill:#aa0c00" />
  <path
     id="path3244-6-7-4"
     fill="#99ff55"
     d="M 10.510802,13.477644 24.036897,21.286351 37.563946,13.476504 24.037851,5.6677966 Z m 2.387331,0.459354 11.139526,-6.4314108 11.139675,6.4301078 -11.139525,6.43141 z"
     style="stroke:#000000;stroke-width:0.15558;fill:#55fe70" />
  <path
     id="path3246-8-8-9"
     fill="#ccffaa"
     d="M 3.3510984,12.102095 24.038508,24.046014 44.725878,12.102151 24.038468,0.15823233 Z m 3.1816895,7.3e-4 L 24.038591,1.9958415 41.543186,12.10176 24.038731,22.207965 Z"
     style="stroke:#000000;stroke-width:0.15558;fill:#a9ffb7" />
  <path
     id="path3248-5-8-9"
     fill="#ececec"
     d="m 40.748451,12.559523 -16.709169,-9.6471568 1e-6,-0.9187804 17.505114,10.1068162 z"
     style="stroke:#000000;stroke-width:0.15558;fill:#ececec" />
  <path
     id="path3250-7-2-2"
     fill="#808080"
     d="M 24.040181,2.9118476 V 1.9930672 L 6.5352761,12.099532 l 0.7956876,0.45939 z"
     style="stroke:#000000;stroke-width:0.15558;fill:#808080" />
  <path
     id="path3252-61-9-5"
     fill="#b3ff80"
     d="M 7.3284216,12.560389 8.9199565,13.479196 24.037683,22.206774 40.746298,12.560047 24.03694,2.9135988 7.3283249,12.560326 Z M 9.7157524,13.019743 24.038641,4.7504162 38.360233,13.019042 24.037344,21.288369 Z"
     style="stroke:#000000;stroke-width:0.15558;fill:#7fff91" />
  <path
     id="path3254-89-1-5"
     fill="#cccccc"
     d="M 37.567178,13.480027 24.040564,5.6704218 V 4.7516414 l 14.3223,8.2688156 z"
     style="stroke:#000000;stroke-width:0.15558;fill:#cccccc" />
  <path
     id="path3256-2-3-3"
     fill="#666666"
     d="m 10.510802,13.477644 13.526599,-7.8095881 1e-6,-0.9187805 -14.32244,8.2690676 z"
     style="stroke:#000000;stroke-width:0.15558;fill:#666666" />
  <path
     id="path3258-79-5-3"
     fill="#999999"
     d="M 34.383311,14.39604 24.039253,8.4239862 V 7.5052058 l 11.139745,6.4312652 z"
     style="stroke:#000000;stroke-width:0.15558;fill:#999999" />
  <path
     id="path3260-5-9-3"
     fill="none"
     d="M 13.695776,14.39939 12.900088,13.940001"
     style="stroke:#000000;stroke-width:0.15558" />
  <path
     id="path3262-4-8-7"
     fill="#4d4d4d"
     d="m 13.695776,14.39939 10.343685,-5.9719312 1e-6,-0.9187804 -11.139526,6.4314106 z"
     style="stroke:#000000;stroke-width:0.15558;fill:#4d4d4d" />
  <path
     id="path3264-3-4-4"
     fill="#7fff2a"
     d="M 13.695776,14.39939 24.039835,20.371444 34.383969,14.399254 24.03991,8.4271995 Z m 2.387331,0.459354 7.956611,-4.593754 7.957325,4.593636 -7.956611,4.593754 z"
     style="stroke:#000000;stroke-width:0.15558;fill:#29ff4c" />
  <path
     id="path3266-1-0-3"
     fill="#333333"
     d="m 16.878157,15.316645 7.16122,-4.134534 v -0.91878 l -7.957061,4.594013 z"
     style="stroke:#000000;stroke-width:0.15558;fill:#333333" />
  <path
     id="path3268-23-7-8"
     fill="#808080"
     d="m 31.202038,15.316545 -7.161234,-4.134659 v -0.91878 l 7.956876,4.593895 z"
     style="stroke:#000000;stroke-width:0.15558;fill:#808080" />
  <path
     id="path3270-3-6-0"
     fill="#66ff00"
     d="m 16.878157,15.316645 7.161234,4.134659 7.16122,-4.134534 -7.161234,-4.134659 z m 2.38733,0.459353 4.773698,-2.756096 4.774622,2.755931 -4.773698,2.756096 z"
     style="stroke:#000000;stroke-width:0.15558;fill:#00fe29" />
  <path
     id="path3272-4-3-8"
     fill="#333333"
     d="m 20.060537,16.2339 3.978441,-2.296955 v -0.91878 l -4.774146,2.756356 z"
     style="stroke:#000000;stroke-width:0.15558;fill:#333333" />
  <path
     id="path3274-1-6-8"
     fill="#666666"
     d="m 28.018172,16.232558 -3.978415,-2.296961 v -0.91878 l 4.774135,2.756332 z"
     style="stroke:#000000;stroke-width:0.15558;fill:#666666" />
  <path
     id="path3276-1-1-0"
     fill="#55d400"
     d="m 20.060537,16.2339 3.978352,2.297057 3.97853,-2.297006 -3.978351,-2.297058 z m 2.387331,0.459353 1.591188,-0.918673 1.591816,0.918465 -1.591188,0.918673 z"
     style="stroke:#000000;stroke-width:0.15558;fill:#00d41d" />
  <path
     id="path3278-3-5-6"
     fill="#1a1a1a"
     d="m 23.245511,17.155646 0.795661,-0.459376 1e-6,-0.91878 -1.591368,0.918777 z"
     style="stroke:#000000;stroke-width:0.15558;fill:#1a1a1a" />
  <path
     id="path3280-8-4-8"
     fill="#4d4d4d"
     d="m 24.836899,17.153062 -0.795688,-0.459389 1e-6,-0.918781 1.591348,0.918795 z"
     style="stroke:#000000;stroke-width:0.15558;fill:#4d4d4d" />
  <path
     id="path3282-7-2-1"
     fill="#44aa00"
     d="m 24.037465,17.614616 0.795661,-0.459376 -0.795687,-0.459389 -0.795661,0.459375 z"
     style="stroke:#000000;stroke-width:0.15558;fill:#00aa1b" />
  <path
     id="path3286-7-0-9"
     fill="#80e5ff"
     d="m 8.1266867,17.614706 13.5254563,7.809675 2.74e-4,15.619643 -13.5254565,-7.809675 z m 1.5914639,1.837808 -2.299e-4,12.862934 11.1383973,6.432043 2.3e-4,-12.862934 z"
     style="stroke:#000000;stroke-width:0.15558;fill:#7f94ff" />
  <path
     id="path3288-7-9-8"
     fill="#d5f6ff"
     d="M 3.3510984,12.102095 24.038508,24.046014 24.038547,47.933795 3.3511377,35.989876 Z m 1.5914584,2.755034 1.9e-5,20.21399 17.5041462,10.106177 3.1e-4,-20.212383 z"
     style="stroke:#000000;stroke-width:0.15558;fill:#d5dbfe" />
  <path
     id="path3290-9-7-9"
     fill="#f2f2f2"
     d="M 22.448917,44.257369 5.7397482,34.610212 4.9440421,35.069613 22.449156,45.17643 Z"
     style="stroke:#000000;stroke-width:0.15558;fill:#f2f2f2" />
  <path
     id="path3292-3-3-7"
     fill="#b3b3b3"
     d="M 5.7384009,34.61099 4.9426948,35.070391 4.9424859,14.85711 5.7381735,15.316499 Z"
     style="stroke:#000000;stroke-width:0.15558;fill:#b3b3b3" />
  <path
     id="path3294-1-7-2"
     fill="#aaeeff"
     d="m 5.739644,15.31607 1.5914709,0.918903 15.1170881,8.728545 -1.05e-4,17.455865 -6e-6,1.837803 -16.7087188,-9.647416 1.55e-4,-19.293694 z m 1.5914639,1.837807 1.191e-4,16.538333 14.321591,8.268626 -1.19e-4,-16.538333 z"
     style="stroke:#000000;stroke-width:0.15558;fill:#a9b7ff" />
  <path
     id="path3296-9-2-2"
     fill="#e6e6e6"
     d="M 21.651759,41.040811 8.1251454,33.231206 7.3294393,33.690607 21.651739,41.959423 Z"
     style="stroke:#000000;stroke-width:0.15558;fill:#e6e6e6" />
  <path
     id="path3298-8-6-8"
     fill="#999999"
     d="M 8.1266867,17.614706 8.1267012,33.2339 7.3309951,33.693302 7.3311353,17.155418 Z"
     style="stroke:#000000;stroke-width:0.15558;fill:#999999" />
  <path
     id="path3300-6-0-2"
     fill="#b3b3b3"
     d="M 20.854602,37.824253 10.510543,31.852199 9.7148814,32.311574 20.854626,38.742839 Z"
     style="stroke:#000000;stroke-width:0.15558;fill:#b3b3b3" />
  <path
     id="path3302-5-1-8"
     fill="none"
     d="M 10.511136,19.908852 9.7154489,19.449463"
     style="stroke:#000000;stroke-width:0.15558" />
  <path
     id="path3304-0-6-9"
     fill="#808080"
     d="M 10.511136,19.908852 10.511061,31.853097 9.7154,32.312472 9.71563,19.449538 Z"
     style="stroke:#000000;stroke-width:0.15558;fill:#808080" />
  <path
     id="path3306-2-5-0"
     fill="#55ddff"
     d="m 10.511136,19.908852 10.344059,5.972054 -7.5e-5,11.944245 -10.344059,-5.972054 z m 1.591464,1.837808 -2.19e-4,9.187329 7.956865,4.5945 2.2e-4,-9.18733 z"
     style="stroke:#000000;stroke-width:0.15558;fill:#5571fe" />
  <path
     id="path3308-8-7-7"
     fill="#666666"
     d="m 12.898179,22.207489 1.05e-4,8.269141 -0.795661,0.459375 5e-6,-9.187804 z"
     style="stroke:#000000;stroke-width:0.15558;fill:#666666" />
  <path
     id="path3310-6-5-8"
     fill="#999999"
     d="m 20.060037,34.612186 -7.161235,-4.134658 -0.795661,0.459375 7.956876,4.593895 z"
     style="stroke:#000000;stroke-width:0.15558;fill:#999999" />
  <path
     id="path3312-0-4-1"
     fill="#2ad4ff"
     d="m 12.898179,22.207489 7.161235,4.134659 1.04e-4,8.26914 -7.161234,-4.134658 z m 1.591464,1.837808 1.2e-5,5.512314 4.773964,2.75697 -1.2e-5,-5.512315 z"
     style="stroke:#000000;stroke-width:0.15558;fill:#294cff" />
  <path
     id="path3314-2-1-5"
     fill="#4d4d4d"
     d="m 15.285222,24.506126 2e-5,4.593889 -0.795661,0.459376 1.2e-5,-5.512688 z"
     style="stroke:#000000;stroke-width:0.15558;fill:#4d4d4d" />
  <path
     id="path3316-4-2-8"
     fill="#999999"
     d="m 19.262879,31.395628 -3.978415,-2.29696 -0.795661,0.459375 4.774134,2.756332 z"
     style="stroke:#000000;stroke-width:0.15558;fill:#999999" />
  <path
     id="path3318-8-0-6"
     fill="#00ccff"
     d="m 15.285222,24.506126 3.978524,2.296838 -8.9e-5,4.594012 -3.978524,-2.296838 z m 1.591464,1.837807 -1.04e-4,1.837321 1.591331,0.919284 1.04e-4,-1.837321 z"
     style="stroke:#000000;stroke-width:0.15558;fill:#0029fe" />
  <path
     id="path3320-6-0-1"
     fill="#333333"
     d="m 17.674163,26.797679 -1e-6,0.91878 -0.795661,0.459376 -2.6e-5,-1.837546 z"
     style="stroke:#000000;stroke-width:0.15558;fill:#333333" />
  <path
     id="path3322-5-1-2"
     fill="#808080"
     d="m 18.470213,28.176478 -0.795688,-0.45939 -0.795661,0.459375 1.591348,0.918795 z"
     style="stroke:#000000;stroke-width:0.15558;fill:#808080" />
  <path
     id="path3324-09-4-4"
     fill="#00aad4"
     d="m 18.46871,27.26114 4e-6,0.918778 -0.795688,-0.45939 1e-6,-0.91878 z"
     style="stroke:#000000;stroke-width:0.15558;fill:#0027d4" />
</svg>
