<?xml version="1.0" encoding="UTF-8" standalone="no"?>
<svg
   width="48"
   height="48"
   viewBox="0 0 48 48"
   fill="none"
   version="1.1"
   id="svg3"
   sodipodi:docname="qube-pcb.svg"
   inkscape:version="1.4.2 (ebf0e940d0, 2025-05-08)"
   xmlns:inkscape="http://www.inkscape.org/namespaces/inkscape"
   xmlns:sodipodi="http://sodipodi.sourceforge.net/DTD/sodipodi-0.dtd"
   xmlns="http://www.w3.org/2000/svg"
   xmlns:svg="http://www.w3.org/2000/svg"
   xmlns:rdf="http://www.w3.org/1999/02/22-rdf-syntax-ns#"
   xmlns:cc="http://creativecommons.org/ns#"
   xmlns:dc="http://purl.org/dc/elements/1.1/">
  <defs
     id="defs3" />
  <sodipodi:namedview
     id="namedview3"
     pagecolor="#505050"
     bordercolor="#eeeeee"
     borderopacity="1"
     inkscape:showpageshadow="0"
     inkscape:pageopacity="0"
     inkscape:pagecheckerboard="0"
     inkscape:deskcolor="#505050"
     showguides="true"
     inkscape:zoom="10.463489"
     inkscape:cx="23.892604"
     inkscape:cy="23.892604"
     inkscape:window-width="1366"
     inkscape:window-height="709"
     inkscape:window-x="0"
     inkscape:window-y="59"
     inkscape:window-maximized="1"
     inkscape:current-layer="svg3" />
  <path
     d="M45.0002 33.6788V14.3215C45.0002 12.8861 44.2311 11.5607 42.9847 10.8486L25.9846 1.13426C24.7548 0.431567 23.2452 0.43157 22.0155 1.13427L5.01544 10.8486C3.76914 11.5607 3 12.8861 3 14.3215V33.6788C3 35.1142 3.76916 36.4396 5.01547 37.1518L22.0157 46.866C23.2454 47.5687 24.755 47.5687 25.9847 46.866L42.9848 37.1518C44.2311 36.4396 45.0002 35.1142 45.0002 33.6788Z"
     fill="#DC2626"
     id="path1" />
  <path
     d="M 45.0002,33.6788 V 14.3215 c 0,-1.4354 -0.7691,-2.7608 -2.0155,-3.4729 L 25.9846,1.13426 C 24.7548,0.431567 23.2452,0.43157 22.0155,1.13427 L 5.01544,10.8486 C 3.76914,11.5607 3,12.8861 3,14.3215 v 19.3573 c 0,1.4354 0.76916,2.7608 2.01547,3.473 L 22.0157,46.866 c 1.2297,0.7027 2.7393,0.7027 3.969,0 l 17.0001,-9.7142 c 1.2463,-0.7122 2.0154,-2.0376 2.0154,-3.473 z"
     fill="#22C55E"
     id="path2"
     style="fill:#00ca00;fill-opacity:1;stroke:#166534;stroke-opacity:1;stroke-width:1.5;stroke-dasharray:none"
     sodipodi:nodetypes="ssccccssccccs" />
  <path
     d="m 3,33.6788 c 0,1.4354 0.76915,2.7608 2.01546,3.473 L 22.055,46.8886 C 22.9217,47.3838 24,46.758 24,45.7599 V 26.3215 c 0,-1.4355 -0.7692,-2.7609 -2.0155,-3.473 L 4.94498,13.1117 C 4.07832,12.6164 3,13.2422 3,14.2404 Z"
     fill="#166534"
     id="path3"
     style="fill:#00ac00;fill-opacity:1;stroke:#166534;stroke-width:2;stroke-dasharray:none;stroke-opacity:1"
     sodipodi:nodetypes="sccssccss" />
  <path
     d="m 12.472322,25.302155 4.218496,2.822054 c 1.164905,0.779289 2.109248,0.316825 2.109248,-1.032943 v -6.06243"
     id="path1-3"
     style="stroke:#166534;stroke-width:2.5;stroke-dasharray:none;stroke-opacity:1"
     sodipodi:nodetypes="cssc" />
  <ellipse
     cx="12.46813"
     cy="16.958521"
     id="circle1"
     style="stroke:#d4aa00;stroke-width:2.49039;fill:#166534;fill-opacity:1"
     rx="2.5377007"
     ry="2.4439712"
     transform="matrix(0.83116493,0.55602596,0,1,0,0)" />
  <path
     d="m 8.253827,39.002248 0,-6.746264 c 0,-1.349768 0.9443424,-1.812233 2.109248,-1.032944 l 4.218495,2.822055"
     id="path2-6"
     style="stroke:#166534;stroke-width:2.5;stroke-dasharray:none;stroke-opacity:1"
     sodipodi:nodetypes="cssc" />
  <ellipse
     cx="20.081236"
     cy="24.290434"
     id="circle2"
     style="stroke:#d4aa00;stroke-width:2.49039;fill:#166534;fill-opacity:1"
     rx="2.5377007"
     ry="2.4439712"
     transform="matrix(0.83116493,0.55602596,0,1,0,0)" />
  <path
     id="path1-3-3"
     style="stroke:#166534;stroke-width:2.5;stroke-dasharray:none;stroke-opacity:1"
     d="m 28.630859,13.375 -4.552734,2.242188 c -1.257336,0.619193 -1.329089,1.668865 -0.160156,2.34375 0,0 2.185263,1.260479 3.267043,1.885045 1.08178,0.624566 2.022502,2.342287 2.022502,3.468957 0,1.12667 0.01318,3.765138 0.01318,3.765138 0.0047,1.34976 0.94447,1.812492 2.109375,1.033203 l 4.216797,-2.822265"
     sodipodi:nodetypes="ccczzscc" />
  <ellipse
     cx="-45.306179"
     cy="49.071236"
     id="circle1-5"
     style="fill:#166534;fill-opacity:1;stroke:#ffcc00;stroke-width:2.49039"
     rx="2.5377007"
     ry="2.4439712"
     transform="matrix(-0.83116493,0.55602596,0,1,0,0)" />
  <path
     d="m 39.766153,38.990948 v -6.746264 c 0,-1.349768 -0.944342,-1.812233 -2.109248,-1.032944 l -4.218495,2.822055"
     id="path2-6-6"
     style="stroke:#166534;stroke-width:2.6;stroke-dasharray:none;stroke-opacity:1"
     sodipodi:nodetypes="cssc" />
  <ellipse
     cx="-37.693073"
     cy="56.403149"
     id="circle2-2"
     style="fill:#166534;fill-opacity:1;stroke:#ffcc00;stroke-width:2.49039"
     rx="2.5377007"
     ry="2.4439712"
     transform="matrix(-0.83116493,0.55602596,0,1,0,0)" />
  <ellipse
     cx="-5.8253155"
     cy="-29.654736"
     id="circle1-7"
     style="fill:#166534;fill-opacity:1;stroke:#ffcc00;stroke-width:2.49039"
     rx="2.5377007"
     ry="2.4439712"
     transform="matrix(-0.89711507,0.44179696,-0.8660254,-0.5,0,0)" />
  <path
     d="m 18.87574,2.87154 5.842436,3.373132 c 1.168933,0.674884 1.097268,1.72394 -0.160069,2.343134 l -4.553219,2.242296"
     id="path2-6-0"
     style="stroke:#166534;stroke-width:2.5;stroke-dasharray:none;stroke-opacity:1"
     sodipodi:nodetypes="cssc" />
  <ellipse
     cx="1.7877904"
     cy="-22.322823"
     id="circle2-9"
     style="fill:#166534;fill-opacity:1;stroke:#ffcc00;stroke-width:2.49039"
     rx="2.5377007"
     ry="2.4439712"
     transform="matrix(-0.89711507,0.44179696,-0.8660254,-0.5,0,0)" />
  <metadata
     id="metadata1">
    <rdf:RDF>
      <cc:Work
         rdf:about="">
        <cc:license
           rdf:resource="http://creativecommons.org/licenses/by-sa/4.0/" />
        <dc:rights>
          <cc:Agent>
            <dc:title>CC-BY-SA 2.5</dc:title>
          </cc:Agent>
        </dc:rights>
        <dc:date>2025-11-07</dc:date>
        <dc:title>PCB Qube</dc:title>
        <dc:source>https://github.com/alimirjamali/personal-qubesos</dc:source>
        <dc:subject>
          <rdf:Bag>
            <rdf:li>Qubes</rdf:li>
            <rdf:li>Qubes-OS</rdf:li>
            <rdf:li>PCB</rdf:li>
          </rdf:Bag>
        </dc:subject>
        <dc:contributor>
          <cc:Agent>
            <dc:title>Nina
Ali Mirjamali</dc:title>
          </cc:Agent>
        </dc:contributor>
        <dc:description>PCB  Cube. Based on Qute Sushi</dc:description>
        <dc:source>https://github.com/alimirjamali/personal-qubesos</dc:source>
        <dc:creator>
          <cc:Agent>
            <dc:title>Ali Mirjamali</dc:title>
          </cc:Agent>
        </dc:creator>
      </cc:Work>
      <cc:License
         rdf:about="http://creativecommons.org/licenses/by-sa/4.0/">
        <cc:permits
           rdf:resource="http://creativecommons.org/ns#Reproduction" />
        <cc:permits
           rdf:resource="http://creativecommons.org/ns#Distribution" />
        <cc:requires
           rdf:resource="http://creativecommons.org/ns#Notice" />
        <cc:requires
           rdf:resource="http://creativecommons.org/ns#Attribution" />
        <cc:permits
           rdf:resource="http://creativecommons.org/ns#DerivativeWorks" />
        <cc:requires
           rdf:resource="http://creativecommons.org/ns#ShareAlike" />
      </cc:License>
    </rdf:RDF>
  </metadata>
</svg>
