<?xml version="1.0" encoding="UTF-8" standalone="no"?>
<svg
   width="48px"
   height="48px"
   viewBox="0 0 48 48"
   version="1.1"
   id="svg2"
   sodipodi:docname="qube-cardboard-box.svg"
   inkscape:version="1.3.2 (091e20ef0f, 2023-11-25)"
   xmlns:inkscape="http://www.inkscape.org/namespaces/inkscape"
   xmlns:sodipodi="http://sodipodi.sourceforge.net/DTD/sodipodi-0.dtd"
   xmlns="http://www.w3.org/2000/svg"
   xmlns:svg="http://www.w3.org/2000/svg"
   xmlns:rdf="http://www.w3.org/1999/02/22-rdf-syntax-ns#"
   xmlns:cc="http://creativecommons.org/ns#"
   xmlns:dc="http://purl.org/dc/elements/1.1/">
  <title
     id="title1">3D Isometric Cardboard Box</title>
  <sodipodi:namedview
     id="namedview"
     pagecolor="#ffffff"
     bordercolor="#000000"
     borderopacity="0.25"
     inkscape:showpageshadow="2"
     inkscape:pageopacity="0.0"
     inkscape:pagecheckerboard="0"
     inkscape:deskcolor="#d1d1d1"
     showguides="true"
     inkscape:zoom="8.0000001"
     inkscape:cx="14.6875"
     inkscape:cy="28.6875"
     inkscape:window-width="1366"
     inkscape:window-height="707"
     inkscape:window-x="0"
     inkscape:window-y="61"
     inkscape:window-maximized="1"
     inkscape:current-layer="svg2" />
  <defs
     id="defs1" />
  <metadata
     id="metadata1">
    <rdf:RDF>
      <cc:Work
         rdf:about="">
        <cc:license
           rdf:resource="http://creativecommons.org/publicdomain/zero/1.0/" />
        <dc:date>2024-06-08</dc:date>
        <dc:source>https://github.com/alimirjamali/personal-qubesos</dc:source>
        <dc:subject>
          <rdf:Bag>
            <rdf:li>Qubes</rdf:li>
            <rdf:li>Qubes-OS</rdf:li>
            <rdf:li>Isometric Cardboard Box</rdf:li>
          </rdf:Bag>
        </dc:subject>
        <dc:contributor>
          <cc:Agent>
            <dc:title>CDJ
Ali Mirjamali</dc:title>
          </cc:Agent>
        </dc:contributor>
        <dc:description>3D Isometric Cardboard Box
Iconized drawing of CDJ's design</dc:description>
        <dc:source>https://github.com/alimirjamali/personal-qubesos</dc:source>
        <dc:creator>
          <cc:Agent>
            <dc:title>Ali Mirjamali</dc:title>
          </cc:Agent>
        </dc:creator>
        <dc:title>3D Isometric Cardboard Box</dc:title>
        <dc:rights>
          <cc:Agent>
            <dc:title>CC0</dc:title>
          </cc:Agent>
        </dc:rights>
      </cc:Work>
      <cc:License
         rdf:about="http://creativecommons.org/publicdomain/zero/1.0/">
        <cc:permits
           rdf:resource="http://creativecommons.org/ns#Reproduction" />
        <cc:permits
           rdf:resource="http://creativecommons.org/ns#Distribution" />
        <cc:permits
           rdf:resource="http://creativecommons.org/ns#DerivativeWorks" />
      </cc:License>
    </rdf:RDF>
  </metadata>
  <g
     id="Camada_x0020_1"
     transform="matrix(0.01419698,0,0,0.01419698,2.6974315,5.31e-6)"
     style="image-rendering:optimizeQuality;shape-rendering:geometricPrecision;text-rendering:geometricPrecision">
    <polygon
       id="polygon9"
       points="0,803 18,2398 1537,3378 1537,1691 "
       fill="#b3926f"
       class="fil0"
       style="fill:#b3926f" />
    <polygon
       id="polygon11"
       points="0,803 1537,3 2998,847 1537,1691 638,1172 "
       fill="#d0b08e"
       class="fil1"
       style="fill:#d0b08e" />
    <path
       id="path13"
       fill="#947451"
       class="fil2"
       d="m 2995,2529 -1134,655 z m 0,0 -3,-1686 -1458,842 v 1687 l 9,2 z"
       style="fill:#947451" />
    <line
       id="line15"
       y2="502"
       class="fil3"
       x2="939"
       y1="1269"
       x1="2267"
       fill="none"
       style="fill:none" />
    <line
       id="line17"
       y2="1307"
       class="fil3"
       x2="2271"
       y1="1269"
       x1="2267"
       fill="none"
       style="fill:none" />
    <polygon
       id="polygon19"
       points="1537,1674 1537,1716 2998,879 2998,847 2983,839 "
       fill="#a98c6d"
       class="fil4"
       style="fill:#a98c6d" />
    <polygon
       id="polygon21"
       points="1537,1674 1537,1716 0,833 17,794 "
       fill="#c09f7d"
       class="fil5"
       style="fill:#c09f7d" />
    <polygon
       id="polygon23"
       points="942,310 2426,1177 2113,1358 628,476 "
       fill="#ddc5ac"
       class="fil6"
       style="fill:#ddc5ac" />
    <path
       id="path25"
       fill="#fff"
       class="fil7"
       d="m 2259,1239 28,-22 c 27,-21 36,-23 68,-30 -30,24 -64,41 -91,62 -7,-4 -9,-8 -6,-10 z"
       style="fill:#ffffff" />
    <path
       id="path27"
       fill="#fff"
       class="fil7"
       d="m 2121,1321 28,-22 c 27,-21 36,-23 68,-30 -30,24 -64,41 -91,62 -7,-4 -9,-8 -6,-10 z"
       style="fill:#ffffff" />
    <polygon
       id="polygon29"
       points="1540,1698 1548,1710 2998,879 2998,875 2995,858 "
       fill="#714b3c"
       class="fil8"
       style="fill:#714b3c" />
    <polygon
       id="polygon31"
       points="2426,1177 2426,1597 2382,1583 2349,1656 2300,1624 2271,1684 2228,1660 2195,1734 2159,1699 2123,1772 2113,1358 "
       fill="#a58869"
       class="fil9"
       style="fill:#a58869" />
    <polygon
       id="polygon33"
       fill-rule="nonzero"
       points="2275,1264 2263,1271 772,409 781,402 "
       class="fil10"
       fill="#9b7b58"
       style="fill:#9b7b58;fill-rule:nonzero" />
    <polygon
       id="polygon35"
       points="1564,3358 1527,3372 1522,1707 1537,1683 1564,1700 "
       fill="#a98966"
       class="fil11"
       style="fill:#a98966" />
    <path
       id="path37"
       d="m 3001,849 v 1677 c 0,4 -1,7 -6,10 L 1532,3381 17,2399 1532,3368 2989,2527 V 843 l 12,7 z"
       fill-rule="nonzero"
       class="fil12"
       fill="#675341"
       style="fill:#675341;fill-rule:nonzero" />
    <polygon
       id="polygon39"
       fill-rule="nonzero"
       points="11,810 0,803 1531,0 1543,0 1899,206 1900,213 1894,216 1537,10 "
       class="fil12"
       fill="#675341"
       style="fill:#675341;fill-rule:nonzero" />
  </g>
</svg>
