<?xml version="1.0" encoding="UTF-8" standalone="no"?>
<svg
   width="48px"
   height="48px"
   viewBox="0 0 48 48"
   version="1.1"
   id="svg2"
   sodipodi:docname="qube-engraved-4.svg"
   inkscape:version="1.3.2 (091e20ef0f, 2023-11-25)"
   xmlns:inkscape="http://www.inkscape.org/namespaces/inkscape"
   xmlns:sodipodi="http://sodipodi.sourceforge.net/DTD/sodipodi-0.dtd"
   xmlns="http://www.w3.org/2000/svg"
   xmlns:svg="http://www.w3.org/2000/svg"
   xmlns:rdf="http://www.w3.org/1999/02/22-rdf-syntax-ns#"
   xmlns:cc="http://creativecommons.org/ns#"
   xmlns:dc="http://purl.org/dc/elements/1.1/">
  <sodipodi:namedview
     id="namedview"
     pagecolor="#ffffff"
     bordercolor="#000000"
     borderopacity="0.25"
     inkscape:showpageshadow="2"
     inkscape:pageopacity="0.0"
     inkscape:pagecheckerboard="0"
     inkscape:deskcolor="#d1d1d1"
     showguides="true"
     inkscape:zoom="8.7946406"
     inkscape:cx="17.738076"
     inkscape:cy="32.00813"
     inkscape:window-width="1440"
     inkscape:window-height="843"
     inkscape:window-x="0"
     inkscape:window-y="33"
     inkscape:window-maximized="1"
     inkscape:current-layer="svg2" />
  <title
     id="title1">Engraved qube</title>
  <defs
     id="defs1" />
  <metadata
     id="metadata1">
    <rdf:RDF>
      <cc:Work
         rdf:about="">
        <cc:license
           rdf:resource="http://creativecommons.org/publicdomain/zero/1.0/" />
        <dc:creator>
          <cc:Agent>
            <dc:title>Ali Mirjamali</dc:title>
          </cc:Agent>
        </dc:creator>
        <dc:rights>
          <cc:Agent>
            <dc:title>CC0 Public Domain Dediction</dc:title>
          </cc:Agent>
        </dc:rights>
        <dc:date>2024-04-11</dc:date>
        <dc:subject>
          <rdf:Bag>
            <rdf:li>Cube</rdf:li>
            <rdf:li>Qube</rdf:li>
            <rdf:li>Engraved Cube</rdf:li>
          </rdf:Bag>
        </dc:subject>
        <dc:description>Engraved cube icon designed for Qubes-OS. Based on Jarda's design on OpenClipArt</dc:description>
        <dc:source>https://www.github.com/alimirjamali/personal-qubesos</dc:source>
        <dc:title>Engraved qube</dc:title>
      </cc:Work>
      <cc:License
         rdf:about="http://creativecommons.org/publicdomain/zero/1.0/">
        <cc:permits
           rdf:resource="http://creativecommons.org/ns#Reproduction" />
        <cc:permits
           rdf:resource="http://creativecommons.org/ns#Distribution" />
        <cc:permits
           rdf:resource="http://creativecommons.org/ns#DerivativeWorks" />
      </cc:License>
    </rdf:RDF>
  </metadata>
  <path
     id="path3024-0-0-8"
     fill="#ff9955"
     d="M 8.0898916,17.546394 21.61548,25.355981 V 40.975674 L 8.0898916,33.166087 Z m 1.5914775,1.837813 V 32.247025 L 20.819845,38.679212 V 25.816394 Z"
     style="stroke:#000000;stroke-width:0.15558;fill:#55fe99" />
  <path
     id="path2986-9-0-3"
     fill="#ffccaa"
     d="m 3.313592,12.033684 20.687445,11.94386 V 47.865265 L 3.313592,35.921405 Z m 1.5914775,2.755059 V 35.002706 L 22.409352,45.109169 V 24.896762 Z"
     style="stroke:#000000;stroke-width:0.15558;fill:#a9ffcb" />
  <path
     id="path2996-4-6-7"
     fill="#b3b3b3"
     d="M 22.408418,44.192026 5.6991488,34.545042 4.9034619,35.004428 22.408781,45.110891 Z"
     style="stroke:#000000;stroke-width:0.15558;fill:#b3b3b3" />
  <path
     id="path3000-8-1-1"
     fill="#f2f2f2"
     d="M 5.6991488,34.546079 4.9034619,35.005465 V 14.792539 l 0.7956869,0.459391 z"
     style="stroke:#000000;stroke-width:0.15558;fill:#f2f2f2" />
  <path
     id="path3002-82-3-0"
     fill="#ffb380"
     d="M 5.6991488,15.249 7.2906263,16.167906 22.407796,24.89645 V 44.1899 L 5.6990451,34.542397 V 15.248948 Z m 1.5914775,1.837812 v 16.53865 l 14.3216387,8.268547 v -16.53865 z"
     style="stroke:#000000;stroke-width:0.15558;fill:#7fffb2" />
  <path
     id="path3004-4-8-7"
     fill="#999999"
     d="M 21.614961,40.976711 8.0883358,33.167124 7.2926489,33.626515 21.614806,41.895581 Z"
     style="stroke:#000000;stroke-width:0.15558;fill:#999999" />
  <path
     id="path3006-5-9-3"
     fill="#e6e6e6"
     d="m 8.0898916,17.546394 v 15.619174 l -0.795687,0.459391 V 17.086827 Z"
     style="stroke:#000000;stroke-width:0.15558;fill:#e6e6e6" />
  <path
     id="path3015-5-3-4"
     fill="#808080"
     d="M 20.816318,37.761395 10.472337,31.789206 9.6766498,32.248596 20.816163,38.680265 Z"
     style="stroke:#000000;stroke-width:0.15558;fill:#808080" />
  <path
     id="path3019-1-4-9"
     fill="none"
     d="M 10.475448,19.843789 9.6797614,19.384399"
     style="stroke:#000000;stroke-width:0.15558" />
  <path
     id="path3006-1-7-4-6"
     fill="#b3b3b3"
     d="M 10.475448,19.843789 V 31.78765 L 9.6797614,32.247041 V 19.384222 Z"
     style="stroke:#000000;stroke-width:0.15558;fill:#b3b3b3" />
  <path
     id="path3024-7-11-6-5"
     fill="#ff7f2a"
     d="m 10.475448,19.843789 10.343982,5.97219 v 11.944379 l -10.343982,-5.97219 z m 1.591478,1.837813 v 9.187505 l 7.956869,4.594427 v -9.187506 z"
     style="stroke:#000000;stroke-width:0.15558;fill:#29ff79" />
  <path
     id="path3006-1-4-5-0-1"
     fill="#999999"
     d="m 12.861005,22.141184 v 8.269066 l -0.795687,0.459391 v -9.188024 z"
     style="stroke:#000000;stroke-width:0.15558;fill:#999999" />
  <path
     id="path3015-0-2-6-0"
     fill="#666666"
     d="m 20.022861,34.546079 -7.161337,-4.134481 -0.795687,0.459391 7.956869,4.593908 z"
     style="stroke:#000000;stroke-width:0.15558;fill:#666666" />
  <path
     id="path3024-7-9-7-6-9"
     fill="#ff6600"
     d="m 12.861005,22.141184 7.161338,4.134481 v 8.269066 L 12.861005,30.41025 Z m 1.591478,1.837812 v 5.512192 l 4.774017,2.756978 v -5.512192 z"
     style="stroke:#000000;stroke-width:0.15558;fill:#00fe65" />
  <path
     id="path3006-1-4-4-6-1-9"
     fill="#808080"
     d="m 15.246562,24.438579 v 4.593908 l -0.795687,0.459391 v -5.51271 z"
     style="stroke:#000000;stroke-width:0.15558;fill:#808080" />
  <path
     id="path3015-0-8-1-8-6"
     fill="#4d4d4d"
     d="m 19.229405,31.330764 -3.978435,-2.296928 -0.795687,0.45939 4.774122,2.756356 z"
     style="stroke:#000000;stroke-width:0.15558;fill:#4d4d4d" />
  <path
     id="path3024-7-9-8-4-4-8"
     fill="#d45500"
     d="m 15.246562,24.438579 3.978486,2.296825 v 4.594011 l -3.978486,-2.296824 z m 1.591477,1.837812 v 1.837346 l 1.591322,0.919321 v -1.837346 z"
     style="stroke:#000000;stroke-width:0.15558;fill:#00d454" />
  <path
     id="path3006-1-4-4-2-2-9-3"
     fill="#666666"
     d="m 17.637305,26.735974 v 0.918751 l -0.795687,0.45939 v -1.837553 z"
     style="stroke:#000000;stroke-width:0.15558;fill:#666666" />
  <path
     id="path3015-0-8-4-3-6-4"
     fill="#333333"
     d="m 18.430762,28.115448 -0.795687,-0.459391 -0.795687,0.459391 1.591374,0.918751 z"
     style="stroke:#000000;stroke-width:0.15558;fill:#333333" />
  <path
     id="path3218-22-3-8"
     fill="#aa4400"
     d="m 18.430762,27.192341 v 0.918751 l -0.795687,-0.459391 v -0.91875 z"
     style="stroke:#000000;stroke-width:0.15558;fill:#00aa44" />
  <path
     id="path3244-6-7-4"
     fill="#99ff55"
     d="m 39.916331,17.546394 -13.525589,7.809587 v 15.619693 l 13.525589,-7.809587 z m -1.591478,1.837813 V 32.247025 L 27.186377,38.679212 V 25.816394 Z"
     style="stroke:#000000;stroke-width:0.15558;fill:#5599fe" />
  <path
     id="path3246-8-8-9"
     fill="#ccffaa"
     d="m 44.687444,12.033684 -20.687445,11.94386 v 23.887721 l 20.687445,-11.94386 z m -1.591477,2.755059 V 35.002706 L 25.591684,45.109169 V 24.896762 Z"
     style="stroke:#000000;stroke-width:0.15558;fill:#a9cbff" />
  <path
     id="path3248-5-8-9"
     fill="#ececec"
     d="m 25.592618,44.192026 16.709269,-9.646984 0.795687,0.459391 -17.505319,10.106463 z"
     style="stroke:#000000;stroke-width:0.15558;fill:#ececec" />
  <path
     id="path3250-7-2-2"
     fill="#808080"
     d="m 42.301887,34.546079 0.795687,0.459391 V 14.792544 l -0.795687,0.459391 z"
     style="stroke:#000000;stroke-width:0.15558;fill:#808080" />
  <path
     id="path3252-61-9-5"
     fill="#b3ff80"
     d="M 42.301887,15.249 40.71041,16.167906 25.59324,24.89645 V 44.1899 L 42.301991,34.542397 V 15.248948 Z m -1.591477,1.837812 v 16.53865 l -14.321638,8.268547 v -16.53865 z"
     style="stroke:#000000;stroke-width:0.15558;fill:#7fb5ff" />
  <path
     id="path3254-89-1-5"
     fill="#cccccc"
     d="M 26.386075,40.976711 39.9127,33.167124 40.708387,33.626515 26.38623,41.895581 Z"
     style="stroke:#000000;stroke-width:0.15558;fill:#cccccc" />
  <path
     id="path3256-2-3-3"
     fill="#666666"
     d="m 39.916331,17.546394 v 15.619174 l 0.795687,0.459391 V 17.086827 Z"
     style="stroke:#000000;stroke-width:0.15558;fill:#666666" />
  <path
     id="path3258-79-5-3"
     fill="#999999"
     d="m 27.184718,37.761395 10.343981,-5.972189 0.795687,0.45939 -11.139513,6.431669 z"
     style="stroke:#000000;stroke-width:0.15558;fill:#999999" />
  <path
     id="path3260-5-9-3"
     fill="none"
     d="m 37.525588,19.843789 0.795687,-0.45939"
     style="stroke:#000000;stroke-width:0.15558" />
  <path
     id="path3262-4-8-7"
     fill="#4d4d4d"
     d="M 37.525588,19.843789 V 31.78765 l 0.795687,0.459391 V 19.384222 Z"
     style="stroke:#000000;stroke-width:0.15558;fill:#4d4d4d" />
  <path
     id="path3264-3-4-4"
     fill="#7fff2a"
     d="m 37.525588,19.843789 -10.343982,5.97219 v 11.944379 l 10.343982,-5.97219 z m -1.591478,1.837813 v 9.187505 l -7.956869,4.594427 v -9.187506 z"
     style="stroke:#000000;stroke-width:0.15558;fill:#297eff" />
  <path
     id="path3266-1-0-3"
     fill="#333333"
     d="m 35.140031,22.141184 v 8.269066 l 0.795687,0.459391 v -9.188024 z"
     style="stroke:#000000;stroke-width:0.15558;fill:#333333" />
  <path
     id="path3268-23-7-8"
     fill="#808080"
     d="m 27.978175,34.546079 7.161337,-4.134481 0.795687,0.459391 -7.956869,4.593908 z"
     style="stroke:#000000;stroke-width:0.15558;fill:#808080" />
  <path
     id="path3270-3-6-0"
     fill="#66ff00"
     d="m 35.140031,22.141184 -7.161338,4.134481 v 8.269066 l 7.161338,-4.134481 z m -1.591477,1.837812 v 5.512192 l -4.774018,2.756978 v -5.512192 z"
     style="stroke:#000000;stroke-width:0.15558;fill:#0065fe" />
  <path
     id="path3272-4-3-8"
     fill="#333333"
     d="m 32.754474,24.438579 v 4.593908 l 0.795687,0.459391 v -5.51271 z"
     style="stroke:#000000;stroke-width:0.15558;fill:#333333" />
  <path
     id="path3274-1-6-8"
     fill="#666666"
     d="m 28.776818,31.330764 3.978434,-2.296928 0.795687,0.45939 -4.774121,2.756356 z"
     style="stroke:#000000;stroke-width:0.15558;fill:#666666" />
  <path
     id="path3276-1-1-0"
     fill="#55d400"
     d="m 32.754474,24.438579 -3.978486,2.296825 v 4.594011 l 3.978486,-2.296824 z m -1.591477,1.837812 v 1.837346 l -1.591322,0.919321 v -1.837346 z"
     style="stroke:#000000;stroke-width:0.15558;fill:#0059d4" />
  <path
     id="path3278-3-5-6"
     fill="#1a1a1a"
     d="m 30.363731,26.735974 v 0.918751 l 0.795687,0.45939 v -1.837553 z"
     style="stroke:#000000;stroke-width:0.15558;fill:#1a1a1a" />
  <path
     id="path3280-8-4-8"
     fill="#4d4d4d"
     d="m 29.570275,28.115448 0.795686,-0.459391 0.795687,0.459391 -1.591373,0.918751 z"
     style="stroke:#000000;stroke-width:0.15558;fill:#4d4d4d" />
  <path
     id="path3282-7-2-1"
     fill="#44aa00"
     d="m 29.570275,27.192341 v 0.918751 l 0.795686,-0.459391 v -0.91875 z"
     style="stroke:#000000;stroke-width:0.15558;fill:#0044aa" />
  <path
     id="path3286-7-0-9"
     fill="#80e5ff"
     d="M 37.525588,13.413158 23.999481,21.221708 10.472337,13.412121 23.998444,5.6035711 Z m -2.38732,0.459344 -11.139513,-6.4316684 -11.139513,6.4301124 11.139513,6.431669 z"
     style="stroke:#000000;stroke-width:0.15558;fill:#ff7fe5" />
  <path
     id="path3288-7-9-8"
     fill="#d5f6ff"
     d="M 44.687444,12.033684 23.999999,23.977544 3.3125548,12.033684 23.999999,0.08982339 Z M 41.505786,12.03441 23.999948,1.9274282 6.4956654,12.033373 23.999948,22.139836 Z"
     style="stroke:#000000;stroke-width:0.15558;fill:#fed5f6" />
  <path
     id="path3290-9-7-9"
     fill="#f2f2f2"
     d="M 7.2912486,12.495237 24.000518,2.8482531 V 1.9294507 L 6.4951987,12.035914 Z"
     style="stroke:#000000;stroke-width:0.15558;fill:#f2f2f2" />
  <path
     id="path3292-3-3-7"
     fill="#b3b3b3"
     d="M 24.000518,2.8466973 V 1.9278949 l 17.505319,10.1064631 -0.795686,0.459391 z"
     style="stroke:#000000;stroke-width:0.15558;fill:#b3b3b3" />
  <path
     id="path3294-1-7-2"
     fill="#aaeeff"
     d="M 40.709788,12.495237 39.118258,13.41404 24.00057,22.141547 8.8834003,13.413521 7.2918191,12.494615 24.001089,2.8481493 40.709839,12.495134 Z M 38.322468,12.954581 23.999792,4.6855156 9.6781538,12.954063 24.000829,21.223129 Z"
     style="stroke:#000000;stroke-width:0.15558;fill:#ffa9ed" />
  <path
     id="path3296-9-2-2"
     fill="#e6e6e6"
     d="M 10.475448,13.413158 24.002074,5.6035711 V 4.6847688 L 9.679917,12.953835 Z"
     style="stroke:#000000;stroke-width:0.15558;fill:#e6e6e6" />
  <path
     id="path3298-8-6-8"
     fill="#999999"
     d="M 37.525588,13.413158 23.998962,5.6035711 V 4.6847688 l 14.322157,8.2690662 z"
     style="stroke:#000000;stroke-width:0.15558;fill:#999999" />
  <path
     id="path3300-6-0-2"
     fill="#b3b3b3"
     d="M 13.659648,14.331079 24.00363,8.3588892 V 7.4401387 L 12.864117,13.871807 Z"
     style="stroke:#000000;stroke-width:0.15558;fill:#b3b3b3" />
  <path
     id="path3302-5-1-8"
     fill="none"
     d="m 34.346574,14.331079 0.795687,-0.459391"
     style="stroke:#000000;stroke-width:0.15558" />
  <path
     id="path3304-0-6-9"
     fill="#808080"
     d="M 34.346574,14.331079 24.002592,8.3588892 V 7.4401387 l 11.139513,6.4316683 z"
     style="stroke:#000000;stroke-width:0.15558;fill:#808080" />
  <path
     id="path3306-2-5-0"
     fill="#55ddff"
     d="M 34.346574,14.331079 24.002592,20.303268 13.658611,14.331079 24.002592,8.3588892 Z m -2.38732,0.459344 -7.95635,-4.593856 -7.957388,4.593597 7.95635,4.593856 z"
     style="stroke:#000000;stroke-width:0.15558;fill:#fe55dc" />
  <path
     id="path3308-8-7-7"
     fill="#666666"
     d="m 31.162374,15.249 -7.161337,-4.134482 v -0.91875 l 7.956869,4.593908 z"
     style="stroke:#000000;stroke-width:0.15558;fill:#666666" />
  <path
     id="path3310-6-5-8"
     fill="#999999"
     d="m 16.838662,15.249 7.161337,-4.134482 v -0.91875 l -7.956869,4.593908 z"
     style="stroke:#000000;stroke-width:0.15558;fill:#999999" />
  <path
     id="path3312-0-4-1"
     fill="#2ad4ff"
     d="M 31.162374,15.249 24.001037,19.383481 16.839699,15.249 24.001037,11.114518 Z m -2.38732,0.459344 -4.77381,-2.756148 -4.774588,2.755888 4.77381,2.756148 z"
     style="stroke:#000000;stroke-width:0.15558;fill:#ff29d4" />
  <path
     id="path3314-2-1-5"
     fill="#4d4d4d"
     d="M 27.978175,16.16692 23.99974,13.869992 v -0.91875 l 4.774122,2.756355 z"
     style="stroke:#000000;stroke-width:0.15558;fill:#4d4d4d" />
  <path
     id="path3316-4-2-8"
     fill="#999999"
     d="m 20.022861,16.16692 3.978435,-2.296928 v -0.91875 l -4.774121,2.756355 z"
     style="stroke:#000000;stroke-width:0.15558;fill:#999999" />
  <path
     id="path3318-8-0-6"
     fill="#00ccff"
     d="m 27.978175,16.16692 -3.978383,2.297084 -3.978486,-2.297084 3.978382,-2.297083 z m -2.38732,0.459344 -1.591115,-0.91875 -1.591789,0.918491 1.591115,0.918751 z"
     style="stroke:#000000;stroke-width:0.15558;fill:#fe00cb" />
  <path
     id="path3320-6-0-1"
     fill="#333333"
     d="m 24.799161,17.090027 -0.795687,-0.459391 v -0.91875 l 1.591374,0.91875 z"
     style="stroke:#000000;stroke-width:0.15558;fill:#333333" />
  <path
     id="path3322-5-1-2"
     fill="#808080"
     d="m 23.207061,17.090027 0.795687,-0.459391 v -0.91875 l -1.591374,0.91875 z"
     style="stroke:#000000;stroke-width:0.15558;fill:#808080" />
  <path
     id="path3324-09-4-4"
     fill="#00aad4"
     d="m 24.000518,17.546394 -0.795687,-0.459385 0.795687,-0.459391 0.795687,0.459391 z"
     style="stroke:#000000;stroke-width:0.15558;fill:#d400ae" />
</svg>
