<?xml version="1.0" encoding="UTF-8" standalone="no"?>
<svg
   width="48px"
   height="48px"
   viewBox="0 0 48 48"
   version="1.1"
   id="svg2"
   sodipodi:docname="qube-isometric.svg"
   inkscape:version="1.3.2 (091e20ef0f, 2023-11-25)"
   xmlns:inkscape="http://www.inkscape.org/namespaces/inkscape"
   xmlns:sodipodi="http://sodipodi.sourceforge.net/DTD/sodipodi-0.dtd"
   xmlns="http://www.w3.org/2000/svg"
   xmlns:svg="http://www.w3.org/2000/svg"
   xmlns:rdf="http://www.w3.org/1999/02/22-rdf-syntax-ns#"
   xmlns:cc="http://creativecommons.org/ns#"
   xmlns:dc="http://purl.org/dc/elements/1.1/">
  <title
     id="title">Isometric qube</title>
  <sodipodi:namedview
     id="namedview"
     pagecolor="#ffffff"
     bordercolor="#000000"
     borderopacity="0.25"
     inkscape:showpageshadow="2"
     inkscape:pageopacity="0.0"
     inkscape:pagecheckerboard="0"
     inkscape:deskcolor="#d1d1d1"
     showguides="false"
     inkscape:zoom="8"
     inkscape:cx="11.9375"
     inkscape:cy="28.1875"
     inkscape:window-width="1366"
     inkscape:window-height="707"
     inkscape:window-x="0"
     inkscape:window-y="61"
     inkscape:window-maximized="1"
     inkscape:current-layer="svg2">
    <sodipodi:guide
       position="24.565225,44.854254"
       orientation="0.5,0.8660254"
       id="guide1"
       inkscape:locked="false"
       inkscape:label=""
       inkscape:color="rgb(0,134,229)" />
    <sodipodi:guide
       position="16.903264,30.902697"
       orientation="0.5,0.8660254"
       id="guide2"
       inkscape:label=""
       inkscape:locked="false"
       inkscape:color="rgb(0,134,229)" />
    <sodipodi:guide
       position="16.903263,12.632801"
       orientation="0.5,0.8660254"
       id="guide3"
       inkscape:label=""
       inkscape:locked="false"
       inkscape:color="rgb(0,134,229)" />
    <sodipodi:guide
       position="16.903263,40.037645"
       orientation="-0.5,0.8660254"
       id="guide4"
       inkscape:locked="false"
       inkscape:label=""
       inkscape:color="rgb(0,134,229)" />
    <sodipodi:guide
       position="38.240775,34.086967"
       orientation="-0.5,0.8660254"
       id="guide5"
       inkscape:label=""
       inkscape:locked="false"
       inkscape:color="rgb(0,134,229)" />
    <sodipodi:guide
       position="32.725458,12.632801"
       orientation="-0.5,0.8660254"
       id="guide6"
       inkscape:label=""
       inkscape:locked="false"
       inkscape:color="rgb(0,134,229)" />
    <sodipodi:guide
       position="0,48"
       orientation="1,0"
       id="guide15"
       inkscape:locked="false" />
    <sodipodi:guide
       position="0,48"
       orientation="0,-1"
       id="guide16"
       inkscape:locked="false" />
    <sodipodi:guide
       position="48,0"
       orientation="0,-1"
       id="guide17"
       inkscape:locked="false" />
    <sodipodi:guide
       position="48,0"
       orientation="1,0"
       id="guide18"
       inkscape:locked="false" />
    <sodipodi:guide
       position="8.9921665,35.470171"
       orientation="1,0"
       id="guide28"
       inkscape:locked="false" />
    <sodipodi:guide
       position="24.565225,44.854254"
       orientation="1,0"
       id="guide29"
       inkscape:locked="false" />
    <sodipodi:guide
       position="40.727744,35.522819"
       orientation="1,0"
       id="guide30"
       inkscape:locked="false" />
  </sodipodi:namedview>
  <defs
     id="defs1" />
  <g
     id="Grid-6"
     style="display:inline;fill:#ffffff;stroke:#ffffff">
    <path
       id="G30T-7"
       style="opacity:0.6;fill:#ffffff;stroke:#ffffff;stroke-width:0.7;stroke-linecap:round;stroke-linejoin:round;stroke-dasharray:none;paint-order:markers fill stroke"
       d="m 30.255859,-3.34375 c -2.154094,0.3632029 -3.82132,1.9497422 -5.748047,2.87109375 C 15.614971,4.6718295 6.6859682,9.759053 -2.1523438,14.994141 -3.9146121,16.56257 -3.1332212,19.64461 -1.1640566,20.670735 0.37316552,21.553556 2.1622562,20.693257 3.460413,19.77189 7.1846118,17.560913 10.970949,15.446994 14.716249,13.2683 20.759454,9.78656 26.806939,6.3085911 32.808594,2.7578125 34.420306,1.4099224 34.012617,-1.2296927 32.503906,-2.4882812 31.89198,-3.0350376 31.081775,-3.3679616 30.255859,-3.34375 Z" />
    <path
       id="G30M-5"
       style="opacity:0.6;fill:#ffffff;stroke:#ffffff;stroke-width:0.7;stroke-linecap:round;stroke-linejoin:round;stroke-dasharray:none;paint-order:markers fill stroke"
       d="M 47.482422,4.8632812 C 45.342412,5.2536803 43.718714,6.8379097 41.795818,7.7388265 27.158704,16.227247 12.495747,24.668488 -2.1015625,33.222656 -3.9676641,34.818825 -3.1152824,38.095975 -0.98718801,39.031833 0.57574627,39.788092 2.2542211,38.880192 3.5376508,37.98758 19.016248,29.015597 34.509509,20.069226 49.970703,11.066406 51.598298,9.8806193 51.423444,7.3611597 50.117188,6.0039062 49.457738,5.2654406 48.483455,4.7961752 47.482422,4.8632812 Z" />
    <path
       id="G30B-3"
       style="opacity:0.6;fill:#ffffff;stroke:#ffffff;stroke-width:0.7;stroke-linecap:round;stroke-linejoin:round;stroke-dasharray:none;paint-order:markers fill stroke"
       d="M 47.560547,23.205078 C 45.406452,23.568281 43.739226,25.15482 41.8125,26.076172 30.765808,32.46266 19.683019,38.791964 8.6933594,45.273438 c -1.7622684,1.568428 -0.9808775,4.650469 0.9882871,5.676594 1.5326985,0.882216 3.3130755,0.01878 4.6116335,-0.891695 6.367473,-3.724457 12.785536,-7.370484 19.170072,-11.068991 5.556488,-3.216029 11.120863,-6.421886 16.649929,-9.682705 1.611712,-1.347891 1.204023,-3.987506 -0.304687,-5.246094 -0.611926,-0.546756 -1.422131,-0.87968 -2.248047,-0.855469 z" />
    <path
       id="GM30T-5"
       style="opacity:0.6;fill:#ffffff;stroke:#ffffff;stroke-width:0.7;stroke-linecap:round;stroke-linejoin:round;stroke-dasharray:none;paint-order:markers fill stroke"
       d="m 19.15625,-3.3222656 c -2.731125,0.1690153 -4.222724,4.06818577 -2.236328,5.9804687 1.589726,1.0860332 3.317336,1.9835057 4.969513,2.9808856 8.238275,4.7387283 16.436012,9.5514873 24.712127,14.2222393 2.324969,0.87042 4.801758,-1.536164 4.518254,-3.868919 C 50.978191,14.319606 49.462622,13.285188 48.056539,12.666323 38.877826,7.3765875 29.726432,2.0246186 20.496094,-3.1796875 20.071672,-3.3425516 19.604632,-3.3456955 19.15625,-3.3222656 Z" />
    <path
       id="GM30M-6"
       style="opacity:0.6;fill:#ffffff;stroke:#ffffff;stroke-width:0.7;stroke-linecap:round;stroke-linejoin:round;stroke-dasharray:none;paint-order:markers fill stroke"
       d="M 0.04101562,4.015625 C -2.6911943,4.1825423 -4.1842211,8.083416 -2.1972656,9.9960938 -0.62998345,11.068833 1.0762155,11.951354 2.7052802,12.936566 17.29657,21.359384 31.874863,29.806634 46.486328,38.193359 c 2.34924,0.984591 4.982768,-1.47785 4.622493,-3.876636 C 50.945514,32.487529 49.160394,31.538338 47.677734,30.849609 32.866603,22.249445 18.025586,13.692367 3.1845883,5.1552412 2.183797,4.6363137 1.2520192,3.8114955 0.04101562,4.015625 Z" />
    <path
       id="GM30B-2"
       style="opacity:0.6;fill:#ffffff;stroke:#ffffff;stroke-width:0.7;stroke-linecap:round;stroke-linejoin:round;stroke-dasharray:none;paint-order:markers fill stroke"
       d="m 0.0390625,22.285156 c -2.7318979,0.170407 -4.2226629,4.066961 -2.2363281,5.980469 1.57466375,1.076365 3.2875552,1.96335 4.9239089,2.9524 11.5116157,6.645906 23.0131437,13.311195 34.5428877,19.924553 2.34924,0.984591 4.982768,-1.47785 4.622493,-3.876636 C 41.728717,45.436748 39.943597,44.487557 38.460938,43.798828 26.468138,36.827683 14.458168,29.881846 2.4124102,23.005394 1.6688329,22.561976 0.94269722,22.139507 0.0390625,22.285156 Z" />
    <path
       id="path36-9"
       style="opacity:0.6;fill:#ffffff;stroke:#ffffff;stroke-width:0.7;stroke-linecap:round;stroke-linejoin:round;stroke-dasharray:none;paint-order:markers fill stroke"
       d="m 8.9902344,-3.0488281 c -2.3317436,-0.09135 -4.0532698,2.49423779 -3.4980469,4.6582031 0.00814,15.622135 -0.044003,31.246497 0.056641,46.867187 0.4620007,2.351196 3.6139228,3.236198 5.4796899,1.95039 1.488469,-0.955361 1.617215,-2.90836 1.479902,-4.502688 -0.04021,-15.416521 0.02437,-30.838908 -0.06701,-46.25629525 C 12.181515,-1.9362447 10.594575,-3.1344763 8.9902344,-3.0488281 Z" />
    <path
       id="GHM-1"
       style="opacity:0.6;fill:#ffffff;stroke:#ffffff;stroke-width:0.7;stroke-linecap:round;stroke-linejoin:round;stroke-dasharray:none;paint-order:markers fill stroke"
       d="m 24.5625,-3.0488281 c -2.331744,-0.09135 -4.05327,2.49423779 -3.498047,4.6582031 0.0081,15.622135 -0.044,31.246497 0.05664,46.867187 0.462,2.351196 3.613923,3.236198 5.479689,1.95039 1.48847,-0.955361 1.617216,-2.90836 1.479902,-4.502688 -0.04021,-15.416521 0.02437,-30.838908 -0.06701,-46.25629525 C 27.75378,-1.9362447 26.166841,-3.1344763 24.5625,-3.0488281 Z" />
    <path
       id="GHL-2"
       style="opacity:0.6;fill:#ffffff;stroke:#ffffff;stroke-width:0.7;stroke-linecap:round;stroke-linejoin:round;stroke-dasharray:none;paint-order:markers fill stroke"
       d="m 40.726562,-3.0488281 c -2.331743,-0.09135 -4.053269,2.49423779 -3.498046,4.6582031 0.0081,15.622135 -0.044,31.246497 0.05664,46.867187 0.462001,2.351196 3.613923,3.236198 5.47969,1.95039 1.488469,-0.955361 1.617216,-2.90836 1.479902,-4.502688 C 44.20454,30.507743 44.269122,15.085356 44.177734,-0.33203125 43.917843,-1.9362447 42.330903,-3.1344763 40.726562,-3.0488281 Z" />
  </g>
  <g
     id="Grid"
     style="display:inline;opacity:1">
    <path
       style="opacity:0.6;fill:none;stroke:#000000;stroke-width:0.7;stroke-linecap:round;stroke-linejoin:round;stroke-dasharray:none;paint-order:markers fill stroke"
       d="M 30.694466,0 0,17.721458"
       id="G30T" />
    <path
       style="opacity:0.6;fill:none;stroke:#000000;stroke-width:0.7;stroke-linecap:round;stroke-linejoin:round;stroke-dasharray:none;paint-order:markers fill stroke"
       d="M 48,8.1955337 0,35.991355"
       id="G30M" />
    <path
       style="opacity:0.6;fill:none;stroke:#000000;stroke-width:0.7;stroke-linecap:round;stroke-linejoin:round;stroke-dasharray:none;paint-order:markers fill stroke"
       d="M 10.844805,48 48,26.548438"
       id="G30B"
       sodipodi:nodetypes="cc" />
    <path
       style="opacity:0.6;fill:none;stroke:#000000;stroke-width:0.7;stroke-linecap:round;stroke-linejoin:round;stroke-dasharray:none;paint-order:markers fill stroke"
       d="M 19.116633,0 48,16.67582"
       id="GM30T" />
    <path
       style="opacity:0.6;fill:none;stroke:#000000;stroke-width:0.7;stroke-linecap:round;stroke-linejoin:round;stroke-dasharray:none;paint-order:markers fill stroke"
       d="M 0,7.3381989 48,35.051012"
       id="GM30M" />
    <path
       style="opacity:0.6;fill:none;stroke:#000000;stroke-width:0.7;stroke-linecap:round;stroke-linejoin:round;stroke-dasharray:none;paint-order:markers fill stroke"
       d="M 38.783916,48 0,25.608096"
       id="GM30B" />
    <path
       style="opacity:0.6;fill:none;stroke:#000000;stroke-width:0.7;stroke-linecap:round;stroke-linejoin:round;stroke-dasharray:none;paint-order:markers fill stroke"
       d="M 8.9921665,0 V 48"
       id="path36" />
    <path
       style="opacity:0.6;fill:none;stroke:#000000;stroke-width:0.7;stroke-linecap:round;stroke-linejoin:round;stroke-dasharray:none;paint-order:markers fill stroke"
       d="M 24.565225,0 V 48"
       id="GHM" />
    <path
       style="opacity:0.6;fill:none;stroke:#000000;stroke-width:0.7;stroke-linecap:round;stroke-linejoin:round;stroke-dasharray:none;paint-order:markers fill stroke"
       d="M 40.727744,48 V 0"
       id="GHL" />
  </g>
  <g
     id="Qube"
     style="display:inline">
    <path
       style="fill:#ffffff;stroke:none;stroke-width:0.49827;stroke-linecap:round;stroke-linejoin:round;stroke-dasharray:none;stroke-dashoffset:0;paint-order:markers fill stroke"
       d="M 8.992166,12.529829 V 30.799725 L 24.81436,39.934673 40.636555,30.799725 V 12.529829 L 24.81436,3.3948807 Z"
       id="Qube-Fill" />
    <path
       style="display:inline;opacity:0.5;fill:#d45500;stroke:#d45500;stroke-width:2.491;stroke-linecap:round;stroke-linejoin:round;stroke-dasharray:none;stroke-dashoffset:0;paint-order:markers fill stroke"
       d="M 16.903264,26.232251 32.725457,17.097303"
       id="L"
       sodipodi:nodetypes="cc" />
    <path
       style="display:inline;opacity:0.5;fill:#d45500;stroke:#008000;stroke-width:2.491;stroke-linecap:round;stroke-linejoin:round;stroke-dasharray:none;stroke-dashoffset:0;paint-order:markers fill stroke"
       d="M 32.725457,26.232251 16.903264,17.097303"
       id="W"
       sodipodi:nodetypes="cc" />
    <path
       style="display:inline;opacity:0.5;fill:#008080;stroke:#0000ff;stroke-width:2.491;stroke-linecap:round;stroke-linejoin:round;stroke-dasharray:none;stroke-dashoffset:0;paint-order:markers fill stroke"
       d="M 24.81436,30.799725 V 12.529829"
       id="H"
       sodipodi:nodetypes="cc" />
    <path
       style="display:inline;opacity:0.7;fill:none;stroke:#000000;stroke-width:1;stroke-linecap:round;stroke-linejoin:round;stroke-dasharray:2, 2;stroke-dashoffset:0;paint-order:markers fill stroke"
       d="M 24.81436,3.3948807 V 21.664777"
       id="Back" />
    <path
       style="display:inline;opacity:0.7;fill:none;stroke:#000000;stroke-width:1;stroke-linecap:round;stroke-linejoin:round;stroke-dasharray:2, 2;stroke-dashoffset:0;paint-order:markers fill stroke"
       d="M 40.636555,30.799725 24.81436,21.664777 8.9921661,30.799725"
       id="Botton" />
    <path
       style="display:inline;fill:none;stroke:#000000;stroke-width:1.5;stroke-linecap:round;stroke-linejoin:round;stroke-dasharray:none;paint-order:markers fill stroke"
       d="m 8.992166,12.529829 15.822194,9.134948 v 0 18.269896 0 L 8.992166,30.799725 h 1e-7 z"
       id="Left" />
    <path
       style="display:inline;fill:none;stroke:#000000;stroke-width:1.5;stroke-linecap:round;stroke-linejoin:round;stroke-dasharray:none;paint-order:markers fill stroke"
       d="M 40.636555,12.529829 24.81436,21.664777 v 0 18.269896 0 l 15.822195,-9.134948 v 0 z"
       id="Right" />
    <path
       style="display:inline;fill:none;stroke:#000000;stroke-width:1.5;stroke-linecap:round;stroke-linejoin:round;stroke-dasharray:none;paint-order:markers fill stroke"
       d="M 40.636555,12.529829 24.81436,3.3948798 v 0 L 8.9921659,12.529828 v 0 L 24.81436,21.664777 v 0 z"
       id="Top" />
  </g>
  <metadata
     id="metadata1">
    <rdf:RDF>
      <cc:Work
         rdf:about="">
        <cc:license
           rdf:resource="http://creativecommons.org/licenses/by-sa/4.0/" />
        <dc:title>Isometric qube</dc:title>
        <dc:date>10 April 2024</dc:date>
        <dc:creator>
          <cc:Agent>
            <dc:title>Ali Mirjamali</dc:title>
          </cc:Agent>
        </dc:creator>
        <dc:rights>
          <cc:Agent>
            <dc:title>CC-BY-SA</dc:title>
          </cc:Agent>
        </dc:rights>
        <dc:description>Isometric drawing of a qube with dimentions.</dc:description>
        <dc:source>https://www.github.com/alimirjamali/personal-qubesos</dc:source>
        <dc:subject>
          <rdf:Bag>
            <rdf:li>Qube</rdf:li>
            <rdf:li>Cube</rdf:li>
            <rdf:li>Isometric Cube</rdf:li>
          </rdf:Bag>
        </dc:subject>
      </cc:Work>
      <cc:License
         rdf:about="http://creativecommons.org/licenses/by-sa/4.0/">
        <cc:permits
           rdf:resource="http://creativecommons.org/ns#Reproduction" />
        <cc:permits
           rdf:resource="http://creativecommons.org/ns#Distribution" />
        <cc:requires
           rdf:resource="http://creativecommons.org/ns#Notice" />
        <cc:requires
           rdf:resource="http://creativecommons.org/ns#Attribution" />
        <cc:permits
           rdf:resource="http://creativecommons.org/ns#DerivativeWorks" />
        <cc:requires
           rdf:resource="http://creativecommons.org/ns#ShareAlike" />
      </cc:License>
    </rdf:RDF>
  </metadata>
</svg>
